<svg width="16" height="14" viewBox="0 0 16 14" fill="none" xmlns="http://www.w3.org/2000/svg">
<path fill-rule="evenodd" clip-rule="evenodd" d="M1 7.98942H12.865L9.232 12.3437C8.878 12.7671 8.936 13.3973 9.36 13.7498C9.785 14.1033 10.415 14.0454 10.769 13.622L15.769 7.62989C15.808 7.58296 15.827 7.52803 15.856 7.4761C15.88 7.43415 15.909 7.3982 15.927 7.35226C15.972 7.23741 15.999 7.11657 15.999 6.99474C15.999 6.99374 16 6.99174 16 6.99074C16 6.98974 15.999 6.98774 15.999 6.98675C15.999 6.86491 15.972 6.74407 15.927 6.62922C15.909 6.58328 15.88 6.54733 15.856 6.50538C15.827 6.45345 15.808 6.39853 15.769 6.35159L10.769 0.359524C10.57 0.122837 10.286 0 10 0C9.774 0 9.547 0.0758995 9.36 0.231693C8.936 0.584226 8.878 1.21439 9.232 1.63783L12.865 5.99206H1C0.448 5.99206 0 6.43947 0 6.99074C0 7.54201 0.448 7.98942 1 7.98942Z" fill="#1DA0D6"/>
</svg>
