<svg width="24" height="24" viewBox="0 0 29 29" fill="none" xmlns="http://www.w3.org/2000/svg">
<path d="M15.7446 2.0445L2.465 0.0265857C1.84875 -0.070081 1.22042 0.0990856 0.749167 0.497836C0.277917 0.908669 0 1.50075 0 2.117V27.5766C0 28.2412 0.54375 28.7849 1.20833 28.7849H5.13542V22.4412C5.13542 21.2691 6.07792 20.3266 7.25 20.3266H10.2708C11.4429 20.3266 12.3854 21.2691 12.3854 22.4412V28.7849H17.5208V4.13492C17.5208 3.09575 16.7717 2.21367 15.7446 2.0445ZM6.64583 17.6078H4.83333C4.59298 17.6078 4.36247 17.5124 4.19252 17.3424C4.02256 17.1724 3.92708 16.9419 3.92708 16.7016C3.92708 16.4612 4.02256 16.2307 4.19252 16.0608C4.36247 15.8908 4.59298 15.7953 4.83333 15.7953H6.64583C6.88619 15.7953 7.11669 15.8908 7.28665 16.0608C7.4566 16.2307 7.55208 16.4612 7.55208 16.7016C7.55208 16.9419 7.4566 17.1724 7.28665 17.3424C7.11669 17.5124 6.88619 17.6078 6.64583 17.6078ZM6.64583 13.9828H4.83333C4.59298 13.9828 4.36247 13.8874 4.19252 13.7174C4.02256 13.5474 3.92708 13.3169 3.92708 13.0766C3.92708 12.8362 4.02256 12.6057 4.19252 12.4358C4.36247 12.2658 4.59298 12.1703 4.83333 12.1703H6.64583C6.88619 12.1703 7.11669 12.2658 7.28665 12.4358C7.4566 12.6057 7.55208 12.8362 7.55208 13.0766C7.55208 13.3169 7.4566 13.5474 7.28665 13.7174C7.11669 13.8874 6.88619 13.9828 6.64583 13.9828ZM6.64583 10.3578H4.83333C4.59298 10.3578 4.36247 10.2624 4.19252 10.0924C4.02256 9.92245 3.92708 9.69194 3.92708 9.45158C3.92708 9.21123 4.02256 8.98072 4.19252 8.81077C4.36247 8.64081 4.59298 8.54533 4.83333 8.54533H6.64583C6.88619 8.54533 7.11669 8.64081 7.28665 8.81077C7.4566 8.98072 7.55208 9.21123 7.55208 9.45158C7.55208 9.69194 7.4566 9.92245 7.28665 10.0924C7.11669 10.2624 6.88619 10.3578 6.64583 10.3578ZM6.64583 6.73284H4.83333C4.59298 6.73284 4.36247 6.63736 4.19252 6.4674C4.02256 6.29745 3.92708 6.06694 3.92708 5.82659C3.92708 5.58623 4.02256 5.35572 4.19252 5.18577C4.36247 5.01581 4.59298 4.92034 4.83333 4.92034H6.64583C6.88619 4.92034 7.11669 5.01581 7.28665 5.18577C7.4566 5.35572 7.55208 5.58623 7.55208 5.82659C7.55208 6.06694 7.4566 6.29745 7.28665 6.4674C7.11669 6.63736 6.88619 6.73284 6.64583 6.73284ZM12.6875 17.6078H10.875C10.6346 17.6078 10.4041 17.5124 10.2342 17.3424C10.0642 17.1724 9.96875 16.9419 9.96875 16.7016C9.96875 16.4612 10.0642 16.2307 10.2342 16.0608C10.4041 15.8908 10.6346 15.7953 10.875 15.7953H12.6875C12.9279 15.7953 13.1584 15.8908 13.3283 16.0608C13.4983 16.2307 13.5938 16.4612 13.5938 16.7016C13.5938 16.9419 13.4983 17.1724 13.3283 17.3424C13.1584 17.5124 12.9279 17.6078 12.6875 17.6078ZM12.6875 13.9828H10.875C10.6346 13.9828 10.4041 13.8874 10.2342 13.7174C10.0642 13.5474 9.96875 13.3169 9.96875 13.0766C9.96875 12.8362 10.0642 12.6057 10.2342 12.4358C10.4041 12.2658 10.6346 12.1703 10.875 12.1703H12.6875C12.9279 12.1703 13.1584 12.2658 13.3283 12.4358C13.4983 12.6057 13.5938 12.8362 13.5938 13.0766C13.5938 13.3169 13.4983 13.5474 13.3283 13.7174C13.1584 13.8874 12.9279 13.9828 12.6875 13.9828ZM12.6875 10.3578H10.875C10.6346 10.3578 10.4041 10.2624 10.2342 10.0924C10.0642 9.92245 9.96875 9.69194 9.96875 9.45158C9.96875 9.21123 10.0642 8.98072 10.2342 8.81077C10.4041 8.64081 10.6346 8.54533 10.875 8.54533H12.6875C12.9279 8.54533 13.1584 8.64081 13.3283 8.81077C13.4983 8.98072 13.5938 9.21123 13.5938 9.45158C13.5938 9.69194 13.4983 9.92245 13.3283 10.0924C13.1584 10.2624 12.9279 10.3578 12.6875 10.3578ZM12.6875 6.73284H10.875C10.6346 6.73284 10.4041 6.63736 10.2342 6.4674C10.0642 6.29745 9.96875 6.06694 9.96875 5.82659C9.96875 5.58623 10.0642 5.35572 10.2342 5.18577C10.4041 5.01581 10.6346 4.92034 10.875 4.92034H12.6875C12.9279 4.92034 13.1584 5.01581 13.3283 5.18577C13.4983 5.35572 13.5938 5.58623 13.5938 5.82659C13.5938 6.06694 13.4983 6.29745 13.3283 6.4674C13.1584 6.63736 12.9279 6.73284 12.6875 6.73284ZM27.3325 12.8857L18.7292 11.084V28.7849H26.8854C28.0515 28.7849 29 27.8364 29 26.6703V14.9519C29 13.9538 28.3197 13.1044 27.3325 12.8857ZM24.4688 25.1599H22.6562C22.4159 25.1599 22.1854 25.0644 22.0154 24.8945C21.8455 24.7245 21.75 24.494 21.75 24.2537C21.75 24.0133 21.8455 23.7828 22.0154 23.6129C22.1854 23.4429 22.4159 23.3474 22.6562 23.3474H24.4688C24.7091 23.3474 24.9396 23.4429 25.1096 23.6129C25.2795 23.7828 25.375 24.0133 25.375 24.2537C25.375 24.494 25.2795 24.7245 25.1096 24.8945C24.9396 25.0644 24.7091 25.1599 24.4688 25.1599ZM24.4688 21.5349H22.6562C22.4159 21.5349 22.1854 21.4394 22.0154 21.2695C21.8455 21.0995 21.75 20.869 21.75 20.6287C21.75 20.3883 21.8455 20.1578 22.0154 19.9879C22.1854 19.8179 22.4159 19.7224 22.6562 19.7224H24.4688C24.7091 19.7224 24.9396 19.8179 25.1096 19.9879C25.2795 20.1578 25.375 20.3883 25.375 20.6287C25.375 20.869 25.2795 21.0995 25.1096 21.2695C24.9396 21.4394 24.7091 21.5349 24.4688 21.5349ZM24.4688 17.9099H22.6562C22.4159 17.9099 22.1854 17.8144 22.0154 17.6445C21.8455 17.4745 21.75 17.244 21.75 17.0037C21.75 16.7633 21.8455 16.5328 22.0154 16.3629C22.1854 16.1929 22.4159 16.0974 22.6562 16.0974H24.4688C24.7091 16.0974 24.9396 16.1929 25.1096 16.3629C25.2795 16.5328 25.375 16.7633 25.375 17.0037C25.375 17.244 25.2795 17.4745 25.1096 17.6445C24.9396 17.8144 24.7091 17.9099 24.4688 17.9099Z" fill="#095183"/>
</svg>
