<svg width="24" height="24" viewBox="0 0 29 30" fill="none" xmlns="http://www.w3.org/2000/svg">
<path d="M24.7531 4.74691C22.0143 2.00828 18.3731 0.5 14.5 0.5C10.6269 0.5 6.98566 2.00828 4.24691 4.74691C1.50828 7.48566 0 11.1269 0 15C0 18.8731 1.50828 22.5143 4.24691 25.2531C6.98566 27.9917 10.6269 29.5 14.5 29.5C18.3731 29.5 22.0143 27.9917 24.7531 25.2531C27.4917 22.5143 29 18.8731 29 15C29 11.1269 27.4917 7.48566 24.7531 4.74691ZM14.5 26.1016C8.37856 26.1016 3.39844 21.1214 3.39844 15C3.39844 8.87856 8.37856 3.89844 14.5 3.89844C20.6214 3.89844 25.6016 8.87856 25.6016 15C25.6016 21.1214 20.6214 26.1016 14.5 26.1016Z" fill="#095183"/>
<path d="M14.5 5.59766C9.31551 5.59766 5.09766 9.81551 5.09766 15C5.09766 20.1845 9.31551 24.4023 14.5 24.4023C19.6845 24.4023 23.9023 20.1845 23.9023 15C23.9023 9.81551 19.6845 5.59766 14.5 5.59766ZM9.0902 15.8496H7.39098V14.1504H9.0902V15.8496ZM14.1757 14.1504H14.8243C16.2509 14.1504 17.4116 15.311 17.4116 16.7377C17.4116 17.9843 16.5252 19.0279 15.3496 19.2713V20.4062H13.6504V19.3058C12.489 19.1575 11.5884 18.1629 11.5884 16.9619H13.2877C13.2877 17.3279 13.5855 17.6257 13.9515 17.6257H14.8243C15.314 17.6257 15.7124 17.2273 15.7124 16.7377C15.7124 16.248 15.314 15.8496 14.8243 15.8496H14.1757C12.7491 15.8496 11.5884 14.689 11.5884 13.2623C11.5884 12.0157 12.4748 10.9721 13.6504 10.7287V9.59382H15.3496V10.6942C16.511 10.8425 17.4116 11.8371 17.4116 13.0381H15.7123C15.7123 12.6721 15.4145 12.3743 15.0485 12.3743H14.1757C13.686 12.3743 13.2876 12.7727 13.2876 13.2623C13.2877 13.752 13.686 14.1504 14.1757 14.1504ZM19.9098 15.8496V14.1504H21.609V15.8496H19.9098Z" fill="#095183"/>
</svg>
