<svg width="24" height="21" viewBox="0 0 30 21" fill="none" xmlns="http://www.w3.org/2000/svg">
<path d="M28.6337 18.6621C28.6337 19.4258 28.0132 20.0462 27.2496 20.0462H1.8587C1.09506 20.0462 0.474609 19.4258 0.474609 18.6621V1.86212C0.474609 1.09848 1.09506 0.478027 1.8587 0.478027H27.2973C28.061 0.478027 28.6814 1.09848 28.6814 1.86212V18.6621H28.6337Z" fill="white"/>
<path d="M0.712891 1.90985C0.712891 1.14621 1.33335 0.478027 2.09698 0.478027H27.5356C28.2993 0.478027 28.6811 1.24166 28.6811 2.0053V18.9962C28.6811 19.7598 28.2038 20.3326 27.4402 20.3326" fill="#E9F2F1"/>
<path d="M27.4909 1.43182C27.8727 1.43182 28.1591 1.62273 28.1591 2.00455V18.9955C28.1591 19.3773 27.8727 19.5682 27.4909 19.5682H2.1C1.71818 19.5682 1.43182 19.3773 1.43182 18.9955V2.00455C1.43182 1.62273 1.71818 1.43182 2.1 1.43182H27.6818M27.4909 0H2.1C0.954545 0 0 0.859091 0 2.00455V18.9955C0 20.1409 0.954545 21 2.1 21H27.5386C28.6841 21 29.6386 20.1409 29.6386 18.9955V2.00455C29.5909 0.859091 28.6364 0 27.4909 0Z" fill="#B8BFBE"/>
<path d="M27.4929 0H15.752V21H27.4929C28.6383 21 29.5929 20.1409 29.5929 18.9955V2.00455C29.5929 0.859091 28.6383 0 27.4929 0Z" fill="#1BCEB8"/>
<path d="M27.4929 0.478027H15.752V12.6485L27.3497 20.3326C28.1133 20.3326 28.6383 19.7121 28.6383 18.9485V2.0053C28.6383 1.24166 28.2565 0.478027 27.4929 0.478027Z" fill="#0DBFBA"/>
<path d="M22.3863 17.1813L19.5227 14.3176C19.1409 13.9358 19.1409 13.3631 19.5227 12.9813C19.9045 12.5994 20.4772 12.5994 20.8591 12.9813L22.3863 14.5085L23.9136 12.9813C24.2954 12.5994 24.8681 12.5994 25.25 12.9813C25.6318 13.3631 25.6318 13.9358 25.25 14.3176L22.3863 17.1813ZM22.3863 3.81763L25.25 6.68126C25.6318 7.06308 25.6318 7.63581 25.25 8.01763C24.8681 8.39944 24.2954 8.39944 23.9136 8.01763L22.3863 6.49035L20.8591 8.01763C20.4772 8.39944 19.9045 8.39944 19.5227 8.01763C19.1409 7.63581 19.1409 7.06308 19.5227 6.68126L22.3863 3.81763Z" fill="white"/>
<path d="M10.071 9.45016C9.54598 9.1638 8.8778 8.97289 8.20962 8.97289L8.3528 8.06607H10.6914C10.9301 8.06607 10.9301 7.87516 10.9301 7.5888V6.77744C10.9301 6.5388 10.9301 6.15698 10.6914 6.15698H7.25507C7.01643 6.15698 6.82552 6.39562 6.7778 6.63426L6.30052 10.1661C6.30052 10.3093 6.34825 10.4524 6.44371 10.5479C6.53916 10.6433 6.73007 10.6911 6.87325 10.6911C7.11189 10.6433 7.39825 10.6433 7.78007 10.6433C8.83007 10.6433 9.4028 11.0252 9.4028 11.7888C9.4028 12.5524 8.73462 12.8865 8.16189 12.8865C7.58916 12.8865 7.06416 12.6956 6.87325 12.5524C6.73007 12.457 6.58689 12.457 6.49143 12.5047C6.39598 12.5524 6.2528 12.6479 6.20507 12.7911L5.96643 13.5547C5.91871 13.7456 5.96643 13.9843 6.15734 14.0797C6.53916 14.3183 7.3028 14.6047 8.20962 14.6047C10.0233 14.6047 11.3596 13.3638 11.3596 11.6933C11.3119 10.7388 10.8823 9.92744 10.071 9.45016Z" fill="#9FAAA9"/>
</svg>
