<svg width="16" height="16" viewBox="0 0 16 16" fill="none" xmlns="http://www.w3.org/2000/svg">
<g clip-path="url(#clip0_5219_8098)">
<path d="M12.3758 10.966C12.3851 9.70013 11.8847 8.69904 10.8866 7.99207C10.1158 7.44775 9.18026 7.16381 8.27545 6.89096C6.39059 6.31955 5.84381 6.01857 5.84381 5.1172C5.84381 4.11318 7.14862 3.75594 8.26563 3.75594C9.07912 3.75594 10.015 4.00887 10.5963 4.38371L11.7486 2.5991C10.989 2.10664 9.94929 1.77074 8.92266 1.66648V0H6.797V1.78334C4.90746 2.19901 3.71715 3.43397 3.71715 5.1172C3.71715 6.29604 4.20701 7.23092 5.17035 7.89031C5.90304 8.39372 6.79662 8.66402 7.65981 8.92572C9.50861 9.48454 10.2594 9.82506 10.2508 10.9528L10.2508 10.9611C10.2508 11.9076 8.99643 12.2441 7.9218 12.2441C6.90669 12.2441 5.80279 11.7992 5.17705 11.1378L3.63281 12.5985C4.42525 13.4366 5.57658 14.0291 6.79695 14.2614V16H8.92266V14.2988C11.0223 13.9983 12.3737 12.7342 12.3758 10.966Z" fill="#095183"/>
</g>
<defs>
<clipPath id="clip0_5219_8098">
<rect width="16" height="16" fill="white"/>
</clipPath>
</defs>
</svg>
