<svg width="15" height="15" viewBox="0 0 24 24" fill="none" xmlns="http://www.w3.org/2000/svg">
<g clip-path="url(#clip0_2891_5046)">
<path d="M1.05684 5.59545L11.5568 19.0954C11.6114 19.1595 11.6792 19.211 11.7556 19.2462C11.832 19.2815 11.9152 19.2998 11.9993 19.2998C12.0835 19.2998 12.1666 19.2815 12.243 19.2462C12.3194 19.211 12.3873 19.1595 12.4418 19.0954L22.9418 5.59544C23.0073 5.51276 23.048 5.41325 23.0593 5.3084C23.0706 5.20356 23.052 5.09766 23.0056 5.00294C22.9588 4.90855 22.8867 4.82906 22.7973 4.77341C22.7078 4.71777 22.6047 4.68817 22.4993 4.68794L1.49934 4.68795C1.39401 4.68817 1.29082 4.71777 1.20139 4.77342C1.11196 4.82906 1.03982 4.90855 0.993087 5.00295C0.946719 5.09766 0.928099 5.20356 0.93938 5.3084C0.950661 5.41325 0.991382 5.51277 1.05684 5.59545Z" fill="#095183"/>
</g>
<defs>
<clipPath id="clip0_2891_5046">
<rect width="24" height="24" fill="white" transform="translate(24 24) rotate(180)"/>
</clipPath>
</defs>
</svg>
