<svg width="24" height="21" viewBox="0 0 30 21" fill="none" xmlns="http://www.w3.org/2000/svg">
<path d="M19.3538 11.7395L16.8524 14.2493C15.838 15.2673 14.0533 15.2892 13.017 14.2493L10.5155 11.7395L1.53125 20.7529C1.86567 20.9076 2.2344 20.9998 2.6264 20.9998H27.243C27.635 20.9998 28.0036 20.9077 28.3379 20.753L19.3538 11.7395Z" fill="#111827"/>
<path d="M27.2416 0H2.62499C2.23299 0 1.86427 0.0922832 1.52996 0.246924L11.1303 9.87907C11.1309 9.87972 11.1317 9.87983 11.1323 9.88047C11.1327 9.88089 11.133 9.88142 11.1331 9.88199L14.2546 13.0139C14.5862 13.3455 15.2805 13.3455 15.6121 13.0139L18.733 9.88252C18.733 9.88252 18.7338 9.88112 18.7344 9.88047C18.7344 9.88047 18.7358 9.87972 18.7364 9.87907L28.3365 0.246866C28.0022 0.0921666 27.6336 0 27.2416 0ZM0.279183 1.4707C0.106166 1.82058 0 2.20896 0 2.62499V18.375C0 18.791 0.10605 19.1794 0.279124 19.5292L9.27894 10.5003L0.279183 1.4707ZM29.5874 1.47058L20.5877 10.5003L29.5874 19.5294C29.7604 19.1795 29.8666 18.7911 29.8666 18.375V2.62499C29.8666 2.20884 29.7604 1.82046 29.5874 1.47058Z" fill="#111827"/>
</svg>
