<svg width="20" height="20" viewBox="0 0 24 24" fill="none" xmlns="http://www.w3.org/2000/svg">
<g clip-path="url(#clip0_3036_5472)">
<path d="M23.1083 0H0.984375C0.466547 0 0.046875 0.419672 0.046875 0.9375C0.046875 3.5482 1.16602 6.04064 3.11737 7.7752L7.22316 11.4245C7.57531 11.7378 7.85719 12.122 8.05026 12.552C8.24333 12.982 8.34322 13.448 8.34338 13.9193V23.0614C8.34338 23.8085 9.17836 24.2564 9.80072 23.8412L15.3318 20.154C15.4602 20.0684 15.5655 19.9524 15.6383 19.8164C15.7111 19.6803 15.7492 19.5284 15.7493 19.374V13.9193C15.7494 13.448 15.8493 12.982 16.0424 12.552C16.2355 12.122 16.5174 11.7378 16.8695 11.4245L20.9751 7.7752C22.9265 6.04064 24.0456 3.5482 24.0456 0.9375C24.0456 0.419672 23.6259 0 23.1083 0ZM19.7295 6.37373L15.6239 10.0232C14.512 11.0116 13.8743 12.4316 13.8743 13.9191V18.8723L10.2182 21.3097V13.9193C10.2179 13.1833 10.0619 12.4556 9.76035 11.7841C9.45881 11.1126 9.01859 10.5125 8.46863 10.0232L4.36303 6.37397C3.04725 5.20411 2.20734 3.60117 1.98248 1.87491H22.11C21.8851 3.60117 21.0454 5.20406 19.7295 6.37373Z" fill="black"/>
</g>
<defs>
<clipPath id="clip0_3036_5472">
<rect width="24" height="24" fill="white"/>
</clipPath>
</defs>
</svg>
