<svg width="16" height="16" viewBox="0 0 16 16" fill="none" xmlns="http://www.w3.org/2000/svg">
<path fill-rule="evenodd" clip-rule="evenodd" d="M6.46533 9.33297L6.95133 6.6663H9.53467L9.04867 9.33297H6.46533ZM13.3333 9.33297H10.4653L10.9513 6.6663H13.3333C13.7 6.6663 14 6.3663 14 5.99963C14 5.63297 13.7 5.33297 13.3333 5.33297H11.1933L11.656 2.7923C11.7227 2.42697 11.468 2.0743 11.09 2.0103C10.712 1.94563 10.3487 2.1923 10.282 2.5583L9.77667 5.33297H7.19333L7.656 2.7923C7.72267 2.42697 7.468 2.0743 7.09 2.0103C6.712 1.94563 6.34867 2.1923 6.282 2.5583L5.77667 5.33297H2.66667C2.3 5.33297 2 5.63297 2 5.99963C2 6.3663 2.3 6.6663 2.66667 6.6663H5.53467L5.04867 9.33297H2.66667C2.3 9.33297 2 9.63297 2 9.99963C2 10.3663 2.3 10.6663 2.66667 10.6663H4.806L4.34333 13.207C4.27733 13.5723 4.532 13.925 4.91 13.989C5.28733 14.0536 5.65133 13.807 5.71733 13.441L6.22267 10.6663H8.806L8.34333 13.207C8.27733 13.5723 8.532 13.925 8.91 13.989C9.28733 14.0536 9.65133 13.807 9.71733 13.441L10.2227 10.6663H13.3333C13.7 10.6663 14 10.3663 14 9.99963C14 9.63297 13.7 9.33297 13.3333 9.33297V9.33297Z" fill="#095183"/>
</svg>
