<svg width="23" height="24" viewBox="0 0 23 30" fill="none" xmlns="http://www.w3.org/2000/svg">
<path d="M11.875 0C5.7414 0 0.75 5.02601 0.75 11.2053C0.75 19.9854 10.8292 29.051 11.2581 29.4317C11.4277 29.5835 11.6472 29.6675 11.8747 29.6677C12.1023 29.6679 12.3219 29.5844 12.4918 29.4329C12.9207 29.051 22.9999 19.9854 22.9999 11.2053C22.9999 5.02601 18.0085 0 11.875 0ZM11.875 17.3055C8.46701 17.3055 5.69443 14.5329 5.69443 11.125C5.69443 7.71701 8.46701 4.94443 11.875 4.94443C15.2829 4.94443 18.0555 7.71701 18.0555 11.125C18.0555 14.5329 15.2829 17.3055 11.875 17.3055Z" fill="#095183"/>
</svg>
