<svg width="16" height="16" viewBox="0 0 16 16" fill="none" xmlns="http://www.w3.org/2000/svg">
<path fill-rule="evenodd" clip-rule="evenodd" d="M13.1574 2.84197C12.9261 2.60997 12.5507 2.60997 12.3194 2.84197L2.83806 12.3233C2.72206 12.4393 2.66406 12.5906 2.66406 12.7426C2.66406 12.894 2.72206 13.046 2.83806 13.1613C3.0694 13.3926 3.44406 13.3926 3.67606 13.1613L13.1574 3.67997C13.3887 3.44797 13.3887 3.0733 13.1574 2.84197M10.6643 12.6682C10.1129 12.6682 9.66426 12.2195 9.66426 11.6682C9.66426 11.1168 10.1129 10.6682 10.6643 10.6682C11.2156 10.6682 11.6643 11.1168 11.6643 11.6682C11.6643 12.2195 11.2156 12.6682 10.6643 12.6682M10.6643 9.33484C9.3776 9.33484 8.33093 10.3815 8.33093 11.6682C8.33093 12.9548 9.3776 14.0015 10.6643 14.0015C11.9509 14.0015 12.9976 12.9548 12.9976 11.6682C12.9976 10.3815 11.9509 9.33484 10.6643 9.33484M5.33093 4.0015C5.88226 4.0015 6.33093 4.45017 6.33093 5.0015C6.33093 5.55284 5.88226 6.0015 5.33093 6.0015C4.7796 6.0015 4.33093 5.55284 4.33093 5.0015C4.33093 4.45017 4.7796 4.0015 5.33093 4.0015M5.33093 7.33484C6.6176 7.33484 7.66426 6.28817 7.66426 5.0015C7.66426 3.71484 6.6176 2.66817 5.33093 2.66817C4.04426 2.66817 2.9976 3.71484 2.9976 5.0015C2.9976 6.28817 4.04426 7.33484 5.33093 7.33484" fill="#111827"/>
</svg>
