<svg width="24" height="24" viewBox="0 0 27 30" fill="none" xmlns="http://www.w3.org/2000/svg">
<path d="M8.35402 3.75252L8.79007 4.00688V0.878906C8.79007 0.393516 8.39656 0 7.91117 0C7.42577 0 7.03226 0.393516 7.03226 0.878906V4.00693L7.46831 3.75258C7.60272 3.67416 7.75555 3.63284 7.91116 3.63283C8.06677 3.63282 8.2196 3.67412 8.35402 3.75252ZM8.7265 19.3722V22.464C9.29451 22.1684 9.63154 21.6087 9.72072 21.0783C9.77017 20.784 9.8399 19.8069 8.7265 19.3722ZM6.39652 15.5151C6.32011 15.9206 6.41925 16.2991 6.64917 16.4794C6.74456 16.5543 6.85255 16.6273 6.96874 16.6989V14.6173C6.63575 14.8371 6.45552 15.2019 6.39652 15.5151ZM26.3648 19.8392L17.9558 5.27449C17.385 4.28572 16.3211 3.66832 15.1794 3.66322L11.6624 3.64746L15.1081 5.65746C16.6323 6.54645 17.5791 8.19492 17.5791 9.95941V26.7773C17.5798 27.5153 17.4155 28.2442 17.0982 28.9104L25.1851 24.2415C25.9306 23.8111 26.4639 23.1161 26.6867 22.2847C26.9095 21.4532 26.7952 20.5847 26.3648 19.8392Z" fill="#095183"/>
<path d="M14.2214 7.17576L8.78906 4.00684V7.1484C8.78906 7.63379 8.39555 8.0273 7.91016 8.0273C7.42477 8.0273 7.03125 7.63379 7.03125 7.1484V4.00689L1.59885 7.17576C0.612598 7.75103 0 8.81768 0 9.95937V26.7773C0 28.5543 1.44568 30 3.22266 30H12.5977C14.3747 30 15.8203 28.5543 15.8203 26.7773V9.95943C15.8203 8.81768 15.2077 7.75103 14.2214 7.17576ZM11.4532 21.3696C11.3172 22.1788 10.9101 22.9296 10.307 23.4837C9.85283 23.901 9.31605 24.1859 8.72555 24.3283V25.0195C8.72555 25.5049 8.33203 25.8984 7.84664 25.8984C7.36125 25.8984 6.96773 25.5049 6.96773 25.0195V24.4097C6.2134 24.3493 5.59611 24.1529 4.71551 23.5769C4.30928 23.3111 4.19543 22.7664 4.46115 22.3602C4.72682 21.954 5.2715 21.8401 5.67779 22.1059C6.19547 22.4445 6.52277 22.5863 6.96779 22.6424V18.6805C6.37037 18.4083 5.92646 18.1473 5.56342 17.8626C4.81166 17.2729 4.46859 16.2487 4.66822 15.1896C4.88596 14.034 5.68992 13.1147 6.76629 12.7904C6.83426 12.7699 6.90135 12.7516 6.96785 12.7344V12.1289C6.96785 11.6435 7.36137 11.25 7.84676 11.25C8.33215 11.25 8.72566 11.6435 8.72566 12.1289V12.6359C9.62648 12.7831 10.262 13.2237 10.5677 13.5744C10.8866 13.9404 10.8485 14.4956 10.4825 14.8145C10.1181 15.1319 9.56625 15.0955 9.24668 14.7341C9.22518 14.7121 9.05549 14.5464 8.72566 14.4376V17.5012C8.89677 17.5648 9.06842 17.627 9.24059 17.6877C10.077 17.9834 10.7239 18.5136 11.1113 19.221C11.4582 19.8546 11.5796 20.6176 11.4532 21.3696Z" fill="#095183"/>
</svg>
