<svg width="24" height="18" viewBox="0 0 24 18" fill="none" xmlns="http://www.w3.org/2000/svg">
<path d="M0.743967 0.193359H5.61302C6.02432 0.193359 6.35698 0.526027 6.35698 0.937326V17.8066H0V0.937326C0 0.526027 0.332668 0.193359 0.743967 0.193359Z" fill="#111827"/>
<path d="M9.59748 4.62683H14.4665C14.8778 4.62683 15.2105 4.9595 15.2105 5.3708V17.8065H8.85352V5.3708C8.85352 4.9595 9.18618 4.62683 9.59748 4.62683Z" fill="#111827"/>
<path d="M18.3631 0.193359H23.2322C23.6435 0.193359 23.9761 0.526027 23.9761 0.937326V17.8066H17.6191V0.937326C17.6191 0.526027 17.9518 0.193359 18.3631 0.193359Z" fill="#111827"/>
<path d="M23.2303 0.193359H20.7988V17.8066H23.9803V0.937326C23.9803 0.526027 23.6477 0.193359 23.2364 0.193359H23.2303Z" fill="#111827"/>
<path d="M14.4667 4.62683H12.0352V17.8065H15.2167V5.3708C15.2167 4.9595 14.884 4.62683 14.4727 4.62683H14.4667Z" fill="#111827"/>
<path d="M5.61119 0.193359H3.17969V17.8066H6.3612V0.937326C6.3612 0.526027 6.02854 0.193359 5.61724 0.193359H5.61119Z" fill="#111827"/>
</svg>
