<svg width="1613" height="183" viewBox="0 0 1613 183" fill="none" xmlns="http://www.w3.org/2000/svg">
<path d="M172.185 48.5059C223.261 85.0813 373.198 132.146 562.758 64.8793C690.54 16.8802 745.537 24.4638 776.629 26.54C807.722 28.6161 866.528 41.2221 950.003 112.079C1033.48 182.937 1148.21 157.932 1182.84 147.823C1217.47 137.713 1333.5 105.661 1466.97 159.963C1548.78 189.571 1590.87 161.794 1608.77 159.139" stroke="#FEFFFF" stroke-width="2" stroke-linecap="round"/>
<path d="M3.10719 48.1856C54.1831 84.761 204.12 131.825 393.679 64.559C521.462 16.5599 576.459 24.1435 607.551 26.2197C638.644 28.2958 697.45 40.9018 780.925 111.759C864.4 182.617 979.128 157.612 1013.76 147.502C1048.39 137.393 1164.43 105.341 1297.89 159.642C1379.7 189.251 1421.79 161.474 1439.69 158.819" stroke="#A4EEEA" stroke-width="2" stroke-linecap="round"/>
</svg>
