<svg width="34" height="32" viewBox="0 0 34 32" fill="none" xmlns="http://www.w3.org/2000/svg">
<path fill-rule="evenodd" clip-rule="evenodd" d="M7.08333 14.6667C7.08333 10.2547 10.8956 6.66667 15.5833 6.66667C20.2711 6.66667 24.0833 10.2547 24.0833 14.6667C24.0833 19.0787 20.2711 22.6667 15.5833 22.6667C10.8956 22.6667 7.08333 19.0787 7.08333 14.6667M29.3349 25.724L24.5253 21.196C26.0171 19.3907 26.9167 17.128 26.9167 14.6667C26.9167 8.78533 21.8323 4 15.5833 4C9.33442 4 4.25 8.78533 4.25 14.6667C4.25 20.548 9.33442 25.3333 15.5833 25.3333C18.1985 25.3333 20.6026 24.4867 22.5208 23.0827L27.3318 27.6093C27.608 27.8693 27.9707 28 28.3333 28C28.696 28 29.0587 27.8693 29.3349 27.6093C29.8888 27.088 29.8888 26.2453 29.3349 25.724" fill="#111827"/>
</svg>
