<svg width="24" height="24" viewBox="0 0 24 24" fill="none" xmlns="http://www.w3.org/2000/svg">
<path fill-rule="evenodd" clip-rule="evenodd" d="M3.96959 15.9696C4.11024 15.829 4.30097 15.75 4.49984 15.75C4.69871 15.75 4.88944 15.829 5.03009 15.9696L7.49984 18.4393L9.96959 15.9696C10.111 15.833 10.3005 15.7574 10.4971 15.7591C10.6938 15.7608 10.8819 15.8397 11.021 15.9787C11.16 16.1178 11.2389 16.3059 11.2406 16.5025C11.2423 16.6992 11.1667 16.8886 11.0301 17.0301L8.03009 20.0301C7.88944 20.1707 7.69871 20.2497 7.49984 20.2497C7.30097 20.2497 7.11024 20.1707 6.96959 20.0301L3.96959 17.0301C3.82899 16.8894 3.75 16.6987 3.75 16.4998C3.75 16.301 3.82899 16.1102 3.96959 15.9696Z" fill="black"/>
<path fill-rule="evenodd" clip-rule="evenodd" d="M7.5 3.75C7.69891 3.75 7.88968 3.82902 8.03033 3.96967C8.17098 4.11032 8.25 4.30109 8.25 4.5V19.5C8.25 19.6989 8.17098 19.8897 8.03033 20.0303C7.88968 20.171 7.69891 20.25 7.5 20.25C7.30109 20.25 7.11032 20.171 6.96967 20.0303C6.82902 19.8897 6.75 19.6989 6.75 19.5V4.5C6.75 4.30109 6.82902 4.11032 6.96967 3.96967C7.11032 3.82902 7.30109 3.75 7.5 3.75ZM15.9697 3.96975C16.1104 3.82915 16.3011 3.75016 16.5 3.75016C16.6989 3.75016 16.8896 3.82915 17.0303 3.96975L20.0303 6.96975C20.1669 7.1112 20.2425 7.30065 20.2408 7.4973C20.239 7.69395 20.1602 7.88206 20.0211 8.02111C19.8821 8.16017 19.6939 8.23905 19.4973 8.24076C19.3007 8.24246 19.1112 8.16687 18.9697 8.03025L16.5 5.5605L14.0303 8.03025C13.8888 8.16687 13.6993 8.24246 13.5027 8.24076C13.3061 8.23905 13.1179 8.16017 12.9789 8.02111C12.8398 7.88206 12.761 7.69395 12.7592 7.4973C12.7575 7.30065 12.8331 7.1112 12.9697 6.96975L15.9697 3.96975Z" fill="black"/>
<path fill-rule="evenodd" clip-rule="evenodd" d="M16.5 3.75C16.6989 3.75 16.8897 3.82902 17.0303 3.96967C17.171 4.11032 17.25 4.30109 17.25 4.5V19.5C17.25 19.6989 17.171 19.8897 17.0303 20.0303C16.8897 20.171 16.6989 20.25 16.5 20.25C16.3011 20.25 16.1103 20.171 15.9697 20.0303C15.829 19.8897 15.75 19.6989 15.75 19.5V4.5C15.75 4.30109 15.829 4.11032 15.9697 3.96967C16.1103 3.82902 16.3011 3.75 16.5 3.75Z" fill="black"/>
</svg>
