<svg width="24" height="24" viewBox="0 0 24 24" fill="none" xmlns="http://www.w3.org/2000/svg">
<path d="M23.9374 9.06923C23.8606 8.82106 23.7156 8.60194 23.5203 8.4392C23.3251 8.27645 23.0882 8.17728 22.8393 8.15403L15.9122 7.49764L13.1731 0.807538C12.9711 0.317263 12.5111 0 12.0001 0C11.4891 0 11.0291 0.317312 10.8271 0.808761L8.08795 7.49769L1.1598 8.15403C0.911175 8.1778 0.674703 8.27718 0.4797 8.43987C0.284698 8.60256 0.139741 8.82139 0.0628032 9.06923C-0.0952163 9.57638 0.0507092 10.1326 0.435797 10.4832L5.67186 15.2749L4.12786 22.372C4.01488 22.8938 4.20895 23.4333 4.6239 23.7462C4.84689 23.9144 5.10785 24 5.37097 24C5.59785 24 5.82285 23.9362 6.02489 23.8101L12.0001 20.0835L17.9732 23.8101C18.4102 24.0845 18.9612 24.0594 19.3752 23.7462C19.5779 23.5931 19.733 23.3813 19.8212 23.1369C19.9094 22.8926 19.9268 22.6266 19.8713 22.372L18.3273 15.2749L23.5633 10.4842C23.7517 10.3125 23.8875 10.0869 23.954 9.83535C24.0206 9.58379 24.0148 9.31739 23.9374 9.06923Z" fill="#111827"/>
</svg>
