<svg width="16" height="18" viewBox="0 0 16 18" fill="none" xmlns="http://www.w3.org/2000/svg">
<path fill-rule="evenodd" clip-rule="evenodd" d="M6.40273 12.2172C6.40273 12.6972 6.04273 13.0899 5.60273 13.0899C5.16273 13.0899 4.80273 12.6972 4.80273 12.2172V8.72624C4.80273 8.24624 5.16273 7.85352 5.60273 7.85352C6.04273 7.85352 6.40273 8.24624 6.40273 8.72624V12.2172ZM11.2035 12.2172C11.2035 12.6972 10.8435 13.0899 10.4035 13.0899C9.96352 13.0899 9.60352 12.6972 9.60352 12.2172V8.72624C9.60352 8.24624 9.96352 7.85352 10.4035 7.85352C10.8435 7.85352 11.2035 8.24624 11.2035 8.72624V12.2172ZM12.7973 14.8363C12.7973 15.3172 12.4389 15.7091 11.9973 15.7091H3.99727C3.55567 15.7091 3.19727 15.3172 3.19727 14.8363V5.23633H12.7973V14.8363ZM6.40227 2.03171C6.40227 1.89644 6.57347 1.74545 6.80227 1.74545H9.20227C9.43107 1.74545 9.60227 1.89644 9.60227 2.03171V3.49091H6.40227V2.03171ZM15.2 3.49091H14.4H11.2V2.03171C11.2 0.911127 10.3032 0 9.2 0H6.8C5.6968 0 4.8 0.911127 4.8 2.03171V3.49091H1.6H0.8C0.36 3.49091 0 3.88364 0 4.36364C0 4.84364 0.36 5.23636 0.8 5.23636H1.6V14.8364C1.6 16.2799 2.6768 17.4545 4 17.4545H12C13.3232 17.4545 14.4 16.2799 14.4 14.8364V5.23636H15.2C15.64 5.23636 16 4.84364 16 4.36364C16 3.88364 15.64 3.49091 15.2 3.49091Z" fill="black"/>
</svg>
