<svg width="15" height="15" viewBox="0 0 24 24" fill="none" xmlns="http://www.w3.org/2000/svg">
<path d="M22.9432 18.4046L12.4432 4.90456C12.3886 4.84049 12.3208 4.78904 12.2444 4.75375C12.168 4.71847 12.0848 4.7002 12.0007 4.7002C11.9165 4.7002 11.8334 4.71847 11.757 4.75375C11.6806 4.78904 11.6127 4.84049 11.5582 4.90456L1.05816 18.4046C0.992709 18.4872 0.951988 18.5868 0.940707 18.6916C0.929426 18.7964 0.948045 18.9023 0.994413 18.9971C1.04115 19.0915 1.11329 19.1709 1.20272 19.2266C1.29215 19.2822 1.39533 19.3118 1.50066 19.3121H22.5007C22.606 19.3118 22.7092 19.2822 22.7986 19.2266C22.888 19.1709 22.9602 19.0915 23.0069 18.9971C23.0533 18.9023 23.0719 18.7964 23.0606 18.6916C23.0493 18.5868 23.0086 18.4872 22.9432 18.4046Z" fill="#095183"/>
</svg>
