<svg width="24" height="24" viewBox="0 0 29 30" fill="none" xmlns="http://www.w3.org/2000/svg">
<path d="M0 15C0 23.0081 6.49187 29.5 14.5 29.5L17.2183 15.2301L14.5 0.5C6.49187 0.5 0 6.99187 0 15Z" fill="#111827"/>
<path d="M29 15C29 11.8817 28.0156 8.99326 26.3408 6.62857L22.8828 3.16726C20.5159 1.48747 17.6233 0.5 14.5 0.5V29.5C22.5081 29.5 29 23.0081 29 15Z" fill="#111827"/>
<path d="M7.18017 14.9999C7.18017 10.961 10.4575 7.68685 14.5002 7.68685L15.6184 5.93365L14.5002 4.11169C8.4811 4.11169 3.60156 8.98653 3.60156 14.9999C3.60156 21.0134 8.4811 25.8882 14.5002 25.8882L15.8184 24.0265L14.5002 22.313C10.4575 22.313 7.18017 19.0389 7.18017 14.9999Z" fill="#F8F9F2"/>
<path d="M11.0938 14.9999C11.0938 16.8794 12.6188 18.403 14.5 18.403L16.2031 15.23L14.5 11.5969C12.6188 11.5969 11.0938 13.1205 11.0938 14.9999Z" fill="#F8F9F2"/>
<path d="M25.3987 14.9999C25.3987 8.98653 20.5192 4.11169 14.5 4.11169V7.68685C18.5428 7.68685 21.8201 10.961 21.8201 14.9999C21.8201 19.0389 18.5428 22.313 14.5 22.313V25.8882C20.5191 25.8882 25.3987 21.0134 25.3987 14.9999Z" fill="#E4EBEF"/>
<path d="M17.9063 14.9999C17.9063 13.1205 16.3812 11.5969 14.5 11.5969V18.4029C16.3812 18.403 17.9063 16.8794 17.9063 14.9999Z" fill="#E4EBEF"/>
<path d="M21.1938 7.20352L13.9913 14.3992C13.6593 14.7309 13.6591 15.2689 13.991 15.6008C13.9933 15.6031 13.9959 15.605 13.9983 15.6073L19.3724 10.6261L22.3701 7.18058C22.0367 6.87302 21.5175 6.88016 21.1938 7.20352Z" fill="#4F5F6A"/>
<path d="M15.1929 15.601L22.3954 8.40534C22.7273 8.07365 22.7275 7.53568 22.3956 7.20376C22.3874 7.1955 22.3785 7.18842 22.3699 7.18054L13.998 15.6073C14.1566 15.7628 14.3699 15.8499 14.592 15.8497C14.7036 15.8499 14.8141 15.828 14.9172 15.7853C15.0203 15.7426 15.114 15.68 15.1929 15.601Z" fill="#444444"/>
<path d="M25.967 3.20491L25.3236 1.18647C25.2126 0.838185 24.772 0.731134 24.5133 0.989472L20.4988 5.00019C20.4093 5.08953 20.3468 5.20219 20.3182 5.32534C20.2897 5.44849 20.2963 5.57718 20.3373 5.69676L21.1422 8.04418C21.172 8.13015 21.219 8.20919 21.2802 8.27652L24.2831 6.42516L26.0928 3.43238C26.0365 3.36546 25.9938 3.2882 25.967 3.20491Z" fill="#D4EEED"/>
<path d="M21.578 8.46904L23.8199 9.17999C23.9379 9.21742 24.0639 9.22173 24.1841 9.19244C24.3044 9.16316 24.4143 9.1014 24.5018 9.01392L28.5084 5.01118C28.7707 4.74911 28.6564 4.30199 28.3004 4.19782L26.422 3.64807C26.2936 3.61033 26.1794 3.53529 26.0938 3.4325L21.2812 8.27663C21.3613 8.36603 21.4638 8.43245 21.578 8.46904Z" fill="#C1E3E2"/>
</svg>
