<svg width="35" height="35" viewBox="0 0 45 45" fill="none" xmlns="http://www.w3.org/2000/svg">
<path d="M22.5 45C34.9264 45 45 34.9264 45 22.5C45 10.0736 34.9264 0 22.5 0C10.0736 0 0 10.0736 0 22.5C0 34.9264 10.0736 45 22.5 45Z" fill="#2563EB"/>
<path d="M25.65 13.5H17.55C17.0726 13.5 16.6148 13.6896 16.2772 14.0272C15.9396 14.3648 15.75 14.8226 15.75 15.3V29.7C15.75 30.1774 15.9396 30.6352 16.2772 30.9728C16.6148 31.3104 17.0726 31.5 17.55 31.5H28.35C28.8274 31.5 29.2852 31.3104 29.6228 30.9728C29.9604 30.6352 30.15 30.1774 30.15 29.7V18L25.65 13.5Z" stroke="white" stroke-width="1.5" stroke-linecap="round" stroke-linejoin="round"/>
<path d="M24.75 13.5V17.1C24.75 17.5774 24.9396 18.0352 25.2772 18.3728C25.6148 18.7104 26.0726 18.9 26.55 18.9H30.15" stroke="white" stroke-width="1.5" stroke-linecap="round" stroke-linejoin="round"/>
<path d="M19.3477 23.3984H21.1477" stroke="white" stroke-width="1.5" stroke-linecap="round" stroke-linejoin="round"/>
<path d="M24.75 23.3984H26.55" stroke="white" stroke-width="1.5" stroke-linecap="round" stroke-linejoin="round"/>
<path d="M19.3477 27H21.1477" stroke="white" stroke-width="1.5" stroke-linecap="round" stroke-linejoin="round"/>
<path d="M24.75 27H26.55" stroke="white" stroke-width="1.5" stroke-linecap="round" stroke-linejoin="round"/>
</svg>
