<svg width="25" height="25" viewBox="0 0 20 20" fill="none" xmlns="http://www.w3.org/2000/svg">
<rect x="19.5" y="19.5" width="19" height="19" rx="2.5" transform="rotate(180 19.5 19.5)" fill="#2465ed" stroke="#2465ed"/>
<rect x="17.5" y="17.5" width="15" height="15" transform="rotate(180 17.5 17.5)" fill="#2465ed"/>
<rect x="17.5" y="17.5" width="15" height="15" transform="rotate(180 17.5 17.5)" stroke="#2465ed"/>
<path fill-rule="evenodd" clip-rule="evenodd" d="M5.48768 9.0935C5.72368 9.37616 6.14368 9.41483 6.42635 9.17883L9.33301 6.75683L9.33301 14.6668C9.33301 15.0348 9.63168 15.3335 9.99968 15.3335C10.3677 15.3335 10.6663 15.0348 10.6663 14.6668L10.6663 6.75683L13.573 9.17883C13.8563 9.41483 14.2763 9.37616 14.5117 9.0935C14.7477 8.81083 14.7097 8.39016 14.4263 8.15483L10.4263 4.8215C10.395 4.79483 10.3577 4.78216 10.323 4.76216C10.2957 4.74616 10.2717 4.7275 10.2417 4.7155C10.1637 4.68483 10.0823 4.66683 9.99968 4.66683C9.91701 4.66683 9.83568 4.68483 9.75768 4.7155C9.72768 4.7275 9.70368 4.74616 9.67635 4.76216C9.64168 4.78216 9.60435 4.79483 9.57301 4.8215L5.57301 8.15483C5.29035 8.39016 5.25168 8.81083 5.48768 9.0935" fill="white"/>
</svg>
