<svg width="27" height="19" viewBox="0 0 27 19" fill="none" xmlns="http://www.w3.org/2000/svg">
<path fill-rule="evenodd" clip-rule="evenodd" d="M1.75793 0.75H25.2415C26.0027 0.75 26.6254 1.37271 26.6254 2.13396V2.28271C26.6254 3.04396 26.0027 3.66667 25.2415 3.66667H1.75793C0.996677 3.66667 0.375427 3.04396 0.375427 2.28271V2.13396C0.375427 1.37271 0.996677 0.75 1.75793 0.75ZM25.2415 8.04167H1.75793C0.996677 8.04167 0.375427 8.66437 0.375427 9.42562V9.57438C0.375427 10.3356 0.996677 10.9583 1.75793 10.9583H25.2415C26.0027 10.9583 26.6254 10.3356 26.6254 9.57438V9.42562C26.6254 8.66437 26.0027 8.04167 25.2415 8.04167ZM25.2415 15.3333H1.75793C0.996677 15.3333 0.375427 15.956 0.375427 16.7173V16.866C0.375427 17.6273 0.996677 18.25 1.75793 18.25H25.2415C26.0027 18.25 26.6254 17.6273 26.6254 16.866V16.7173C26.6254 15.956 26.0027 15.3333 25.2415 15.3333Z" fill="black"/>
</svg>
