<svg width="23" height="21" viewBox="0 0 23 21" fill="none" xmlns="http://www.w3.org/2000/svg">
<path fill-rule="evenodd" clip-rule="evenodd" d="M2.5 12.4749V17.327C2.5 17.5947 2.752 17.813 3.0625 17.813H19.9375C20.248 17.813 20.5 17.5947 20.5 17.327V7.66324C20.5 7.39436 20.248 7.17724 19.9375 7.17724H11.5C11.1625 7.17724 10.843 7.02536 10.6292 6.76324L7.70425 3.18799H3.0625C2.752 3.18799 2.5 3.40511 2.5 3.67286V12.4749ZM19.9375 20.063H3.0625C1.51225 20.063 0.25 18.8356 0.25 17.327V3.67286C0.25 2.16424 1.51225 0.937988 3.0625 0.937988H8.23862C8.575 0.937988 8.89563 1.08874 9.10938 1.35086L12.0332 4.92724H19.9375C21.4877 4.92724 22.75 6.15349 22.75 7.66324V17.327C22.75 18.8356 21.4877 20.063 19.9375 20.063Z" fill="#28384F"/>
</svg>
