<svg width="18" height="18" viewBox="0 0 18 18" fill="none" xmlns="http://www.w3.org/2000/svg">
<path fill-rule="evenodd" clip-rule="evenodd" d="M1.99821 7.99821C1.99821 4.68921 4.68921 1.99821 7.99821 1.99821C11.3072 1.99821 13.9982 4.68921 13.9982 7.99821C13.9982 11.3072 11.3072 13.9982 7.99821 13.9982C4.68921 13.9982 1.99821 11.3072 1.99821 7.99821ZM17.707 16.293L14.312 12.897C15.365 11.543 16 9.846 16 8C16 3.589 12.411 0 8 0C3.589 0 0 3.589 0 8C0 12.411 3.589 16 8 16C9.846 16 11.543 15.365 12.897 14.312L16.293 17.707C16.488 17.902 16.744 18 17 18C17.256 18 17.512 17.902 17.707 17.707C18.098 17.316 18.098 16.684 17.707 16.293Z" fill="#095183"/>
</svg>
