<svg width="32" height="33" viewBox="0 0 32 33" fill="none" xmlns="http://www.w3.org/2000/svg">
<path d="M7.82638 21.3892L19.1293 27.2296C26.7217 31.1596 29.838 27.9392 26.0351 20.0929L24.8863 17.7185C24.5562 17.0226 24.5562 16.2175 24.8863 15.5215L26.0351 13.1608C29.838 5.31447 26.7349 2.09406 19.1293 6.02405L7.82638 11.8645C2.75593 14.4845 2.75593 18.7692 7.82638 21.3892ZM12.0914 15.6034L19.2217 15.6034C19.7631 15.6034 20.212 16.0674 20.212 16.6268C20.212 17.1863 19.7631 17.6503 19.2217 17.6503L12.0914 17.6503C11.55 17.6503 11.101 17.1863 11.101 16.6268C11.101 16.0674 11.55 15.6034 12.0914 15.6034Z" fill="#111827"/>
</svg>
