<svg width="739" height="500" viewBox="0 0 739 500" fill="none" xmlns="http://www.w3.org/2000/svg">
<path fill-rule="evenodd" clip-rule="evenodd" d="M274 476C274 489.255 284.745 500 298 500H715C728.255 500 739 489.255 739 476V24C739 10.7452 728.255 0 715 0H274.118C274.053 0 274 0.0529585 274 0.118286V0.118286C274 0.183614 273.947 0.236572 273.882 0.236572H24.1436C10.8887 0.236572 0.143555 10.9818 0.143555 24.2366V79.7118C0.143555 92.9666 10.8887 103.712 24.1435 103.712H250C263.255 103.712 274 114.457 274 127.712V476Z" fill="#111827"/>
</svg>
