<svg width="93" height="15" viewBox="0 0 93 15" fill="none" xmlns="http://www.w3.org/2000/svg">
<path d="M14.4297 5.85547C14.4297 6.4349 14.3581 6.95247 14.2148 7.4082C14.0716 7.86393 13.8763 8.26758 13.6289 8.61914C13.388 8.96419 13.1081 9.26042 12.7891 9.50781C12.4701 9.75521 12.1348 9.95703 11.7832 10.1133C11.4382 10.2695 11.0866 10.3835 10.7285 10.4551C10.377 10.5267 10.0449 10.5625 9.73242 10.5625H3.99023V8.02344H9.73242C10.0579 7.9974 10.3509 7.93229 10.6113 7.82812C10.8783 7.71745 11.1061 7.57096 11.2949 7.38867C11.4837 7.20638 11.6302 6.98828 11.7344 6.73438C11.8385 6.47396 11.8906 6.18099 11.8906 5.85547V4.70312C11.8581 4.38411 11.7897 4.09115 11.6855 3.82422C11.5814 3.55729 11.4382 3.32943 11.2559 3.14062C11.0801 2.95182 10.8652 2.80534 10.6113 2.70117C10.3574 2.59049 10.0645 2.53516 9.73242 2.53516H4.00977C3.67122 2.53516 3.41406 2.62305 3.23828 2.79883C3.0625 2.97461 2.97461 3.22852 2.97461 3.56055V14H0.435547V3.56055C0.435547 2.90951 0.552734 2.35612 0.787109 1.90039C1.02799 1.44466 1.32422 1.07682 1.67578 0.796875C2.03385 0.516927 2.42122 0.315104 2.83789 0.191406C3.25456 0.0611979 3.63867 -0.00390625 3.99023 -0.00390625H9.73242C10.3053 -0.00390625 10.8197 0.0709635 11.2754 0.220703C11.7311 0.363932 12.1315 0.559245 12.4766 0.806641C12.8281 1.04753 13.1243 1.32747 13.3652 1.64648C13.6126 1.96549 13.8145 2.30078 13.9707 2.65234C14.1335 2.9974 14.2507 3.34896 14.3223 3.70703C14.3939 4.05859 14.4297 4.39062 14.4297 4.70312V5.85547ZM30.5039 -0.00390625L23.873 13.502C23.7689 13.7103 23.6126 13.8763 23.4043 14C23.2025 14.1302 22.9779 14.1953 22.7305 14.1953C22.4896 14.1953 22.265 14.1302 22.0566 14C21.8548 13.8763 21.6986 13.7103 21.5879 13.502L14.9668 -0.00390625H17.8086L22.7305 10.084L27.6719 -0.00390625H30.5039ZM38.3359 4.99609L42.6133 -0.00390625H46.0801L40.0547 7.01758L46.041 14H42.5938L38.3359 9.03906L34.0977 14H30.6406L36.6172 7.01758L30.6211 -0.00390625H34.0586L38.3359 4.99609ZM59.2246 10.4355C59.2246 11.0931 59.1042 11.6497 58.8633 12.1055C58.6289 12.5547 58.3327 12.9225 57.9746 13.209C57.623 13.4889 57.2389 13.6908 56.8223 13.8145C56.4056 13.9382 56.0182 14 55.6602 14H47.5156V11.4609H55.6602C56.0052 11.4609 56.2591 11.373 56.4219 11.1973C56.5911 11.0215 56.6758 10.7676 56.6758 10.4355V8.27734H47.5156V5.71875H56.6758V3.58008C56.6758 2.88346 56.3372 2.53516 55.6602 2.53516H47.5156V-0.00390625H55.6602C56.0964 -0.00390625 56.487 0.0514323 56.832 0.162109C57.1771 0.272786 57.4798 0.422526 57.7402 0.611328C58.0072 0.79362 58.235 1.00521 58.4238 1.24609C58.6126 1.48698 58.7656 1.74089 58.8828 2.00781C59 2.26823 59.0846 2.53516 59.1367 2.80859C59.1953 3.07552 59.2246 3.32617 59.2246 3.56055V10.4355ZM64.332 5.71875H71.0898C71.4479 5.71875 71.832 5.78385 72.2422 5.91406C72.6589 6.03776 73.0462 6.24284 73.4043 6.5293C73.7624 6.80924 74.0586 7.17708 74.293 7.63281C74.5339 8.08854 74.6543 8.64518 74.6543 9.30273V10.4355C74.6543 10.6764 74.625 10.9303 74.5664 11.1973C74.5143 11.4642 74.4264 11.7311 74.3027 11.998C74.1855 12.2585 74.0326 12.5091 73.8438 12.75C73.6615 12.9909 73.4368 13.2057 73.1699 13.3945C72.9095 13.5768 72.6068 13.7233 72.2617 13.834C71.9167 13.9447 71.526 14 71.0898 14H66.4902C66.1777 14 65.8424 13.9642 65.4844 13.8926C65.1328 13.821 64.7845 13.707 64.4395 13.5508C64.0944 13.388 63.7591 13.1862 63.4336 12.9453C63.1146 12.6979 62.8346 12.4017 62.5938 12.0566C62.3529 11.7051 62.1576 11.3014 62.0078 10.8457C61.8646 10.39 61.793 9.87565 61.793 9.30273V4.70312C61.793 4.13021 61.8646 3.61589 62.0078 3.16016C62.1576 2.70443 62.3529 2.30404 62.5938 1.95898C62.8346 1.60742 63.1146 1.30794 63.4336 1.06055C63.7591 0.813151 64.0944 0.611328 64.4395 0.455078C64.7845 0.292318 65.1328 0.17513 65.4844 0.103516C65.8424 0.031901 66.1777 -0.00390625 66.4902 -0.00390625H72.8574V2.53516H66.4902C66.1647 2.5612 65.8685 2.62956 65.6016 2.74023C65.3411 2.85091 65.1165 2.9974 64.9277 3.17969C64.7389 3.36198 64.5924 3.58333 64.4883 3.84375C64.3841 4.09766 64.332 4.38411 64.332 4.70312V5.71875ZM64.332 8.27734V9.30273C64.332 9.63477 64.3874 9.93424 64.498 10.2012C64.6152 10.4616 64.7715 10.6862 64.9668 10.875C65.1621 11.0638 65.39 11.2103 65.6504 11.3145C65.9173 11.4121 66.2038 11.4609 66.5098 11.4609H71.0898C71.4154 11.4609 71.6628 11.3633 71.832 11.168C72.0078 10.9727 72.0957 10.7285 72.0957 10.4355V9.30273C72.0957 8.9707 72.0111 8.7168 71.8418 8.54102C71.6725 8.36523 71.4154 8.27734 71.0703 8.27734H64.332ZM92.8965 8.14062C92.8965 8.71354 92.8216 9.25716 92.6719 9.77148C92.5286 10.2793 92.3236 10.7513 92.0566 11.1875C91.7897 11.6237 91.474 12.0143 91.1094 12.3594C90.7448 12.7044 90.3444 13.0007 89.9082 13.248C89.4785 13.4889 89.0195 13.6745 88.5312 13.8047C88.043 13.9349 87.5449 14 87.0371 14H82.457C81.9427 14 81.4414 13.9349 80.9531 13.8047C80.4648 13.6745 80.0026 13.4889 79.5664 13.248C79.1367 13.0007 78.7396 12.7044 78.375 12.3594C78.0104 12.0143 77.6947 11.6237 77.4277 11.1875C77.1673 10.7513 76.9622 10.2793 76.8125 9.77148C76.6693 9.25716 76.5977 8.71354 76.5977 8.14062V5.85547C76.5977 4.99609 76.7572 4.20833 77.0762 3.49219C77.4017 2.77604 77.8346 2.16081 78.375 1.64648C78.9154 1.12565 79.5371 0.722005 80.2402 0.435547C80.9499 0.142578 81.6888 -0.00390625 82.457 -0.00390625H87.0371C87.5449 -0.00390625 88.043 0.0611979 88.5312 0.191406C89.0195 0.321615 89.4785 0.510417 89.9082 0.757812C90.3444 0.998698 90.7448 1.29167 91.1094 1.63672C91.474 1.98177 91.7897 2.3724 92.0566 2.80859C92.3236 3.24479 92.5286 3.72005 92.6719 4.23438C92.8216 4.74219 92.8965 5.28255 92.8965 5.85547V8.14062ZM90.3379 5.85547C90.3379 5.35417 90.2467 4.89844 90.0645 4.48828C89.8822 4.07812 89.638 3.72656 89.332 3.43359C89.0326 3.14062 88.6842 2.91602 88.2871 2.75977C87.89 2.60352 87.4733 2.52865 87.0371 2.53516H82.457C82.0339 2.52865 81.6204 2.60352 81.2168 2.75977C80.8197 2.90951 80.4648 3.13086 80.1523 3.42383C79.8464 3.71029 79.599 4.06185 79.4102 4.47852C79.2279 4.88867 79.1367 5.34766 79.1367 5.85547V8.14062C79.1367 8.64844 79.2279 9.10742 79.4102 9.51758C79.5924 9.92773 79.8366 10.2793 80.1426 10.5723C80.4486 10.8587 80.8001 11.0801 81.1973 11.2363C81.6009 11.3926 82.0208 11.4674 82.457 11.4609H87.0371C87.5384 11.4609 87.9909 11.3796 88.3945 11.2168C88.8047 11.0475 89.153 10.8164 89.4395 10.5234C89.7259 10.2305 89.9473 9.88216 90.1035 9.47852C90.2598 9.06836 90.3379 8.6224 90.3379 8.14062V5.85547ZM89.2344 4C89.332 4.14323 89.3971 4.29948 89.4297 4.46875C89.4622 4.63151 89.4622 4.79427 89.4297 4.95703C89.3971 5.11328 89.332 5.26302 89.2344 5.40625C89.1432 5.54297 89.0228 5.66016 88.873 5.75781L82.0176 10.3379C81.9069 10.4225 81.793 10.4811 81.6758 10.5137C81.5586 10.5462 81.4382 10.5625 81.3145 10.5625C81.1061 10.5625 80.9076 10.5137 80.7188 10.416C80.5299 10.3184 80.377 10.1784 80.2598 9.99609C80.1621 9.85286 80.097 9.69987 80.0645 9.53711C80.0319 9.36784 80.0286 9.20508 80.0547 9.04883C80.0872 8.88607 80.1491 8.73633 80.2402 8.59961C80.3314 8.45638 80.4518 8.33594 80.6016 8.23828L87.4766 3.6582C87.6198 3.56055 87.7728 3.49544 87.9355 3.46289C88.1048 3.43034 88.2676 3.43034 88.4238 3.46289C88.5866 3.49544 88.7363 3.55729 88.873 3.64844C89.0163 3.73958 89.1367 3.85677 89.2344 4Z" fill="white"/>
</svg>
