<svg width="24" height="24" viewBox="0 0 24 24" fill="none" xmlns="http://www.w3.org/2000/svg">
<path d="M12 1.5C9.9233 1.5 7.89323 2.11581 6.16652 3.26957C4.4398 4.42332 3.09399 6.0632 2.29927 7.98182C1.50455 9.90045 1.29661 12.0116 1.70176 14.0484C2.1069 16.0852 3.10693 17.9562 4.57538 19.4246C6.04383 20.8931 7.91476 21.8931 9.95156 22.2982C11.9884 22.7034 14.0996 22.4955 16.0182 21.7007C17.9368 20.906 19.5767 19.5602 20.7304 17.8335C21.8842 16.1068 22.5 14.0767 22.5 12C22.497 9.21614 21.3898 6.54715 19.4213 4.57867C17.4528 2.61018 14.7839 1.50298 12 1.5ZM12 21C10.22 21 8.47992 20.4722 6.99987 19.4832C5.51983 18.4943 4.36628 17.0887 3.68509 15.4442C3.0039 13.7996 2.82567 11.99 3.17294 10.2442C3.5202 8.49836 4.37737 6.89471 5.63604 5.63604C6.89472 4.37737 8.49836 3.5202 10.2442 3.17293C11.99 2.82567 13.7996 3.0039 15.4442 3.68508C17.0887 4.36627 18.4943 5.51983 19.4832 6.99987C20.4722 8.47991 21 10.22 21 12C20.9974 14.3862 20.0484 16.6738 18.3611 18.3611C16.6738 20.0484 14.3862 20.9974 12 21Z" fill="#3CD489"/>
<path d="M15.2203 8.84335L10.5005 13.5631L8.7808 11.8433C8.63935 11.7067 8.4499 11.6311 8.25325 11.6328C8.0566 11.6345 7.86849 11.7134 7.72944 11.8525C7.59038 11.9915 7.5115 12.1796 7.50979 12.3763C7.50809 12.5729 7.58368 12.7624 7.7203 12.9038L9.9703 15.1538C10.1109 15.2945 10.3017 15.3734 10.5005 15.3734C10.6994 15.3734 10.8902 15.2945 11.0308 15.1538L16.2808 9.90385C16.4174 9.76239 16.493 9.57294 16.4913 9.3763C16.4896 9.17965 16.4107 8.99154 16.2717 8.85248C16.1326 8.71343 15.9445 8.63455 15.7479 8.63284C15.5512 8.63113 15.3618 8.70673 15.2203 8.84335Z" fill="#3CD489"/>
</svg>
