<svg width="19" height="21" viewBox="0 0 19 21" fill="none" xmlns="http://www.w3.org/2000/svg">
<path id="Color" fillRule="evenodd" clipRule="evenodd" d="M7 11.7326C3.141 11.7326 0 15.3071 0 19.7012C0 20.3296 0.447 20.8396 1 20.8396C1.553 20.8396 2 20.3296 2 19.7012C2 16.5627 4.243 14.0094 7 14.0094C9.757 14.0094 12 16.5627 12 19.7012C12 20.3296 12.447 20.8396 13 20.8396C13.553 20.8396 14 20.3296 14 19.7012C14 15.3071 10.859 11.7326 7 11.7326ZM5 4.90246C5 6.15807 5.897 7.17919 7 7.17919C8.103 7.17919 9 6.15807 9 4.90246C9 3.64684 8.103 2.62573 7 2.62573C5.897 2.62573 5 3.64684 5 4.90246ZM3 4.90246C3 2.39123 4.794 0.348999 7 0.348999C9.206 0.348999 11 2.39123 11 4.90246C11 7.41369 9.206 9.45592 7 9.45592C4.794 9.45592 3 7.41369 3 4.90246ZM19 4.90246C19 5.52856 18.55 6.04082 18 6.04082H17V7.17919C17 7.80529 16.55 8.31755 16 8.31755C15.45 8.31755 15 7.80529 15 7.17919V6.04082H14C13.45 6.04082 13 5.52856 13 4.90246C13 4.27636 13.45 3.76409 14 3.76409H15V2.62573C15 1.99963 15.45 1.48736 16 1.48736C16.55 1.48736 17 1.99963 17 2.62573V3.76409H18C18.55 3.76409 19 4.27636 19 4.90246Z" fill="black"/>
</svg>
