<svg width="22" height="22" viewBox="0 0 22 22" fill="none" xmlns="http://www.w3.org/2000/svg">
<g clip-path="url(#clip0_4745_4835)">
<path d="M18.33 8.08575C17.3132 4.03518 13.2054 1.57583 9.15479 2.59262C5.98937 3.38724 3.69092 6.12306 3.4541 9.37806C1.20652 9.74871 -0.31505 11.8712 0.0556011 14.1188C0.385092 16.1169 2.11646 17.5802 4.14153 17.5722H7.57865V16.1973H4.14153C2.62292 16.1973 1.39183 14.9662 1.39183 13.4476C1.39183 11.929 2.62292 10.6979 4.14153 10.6979C4.5212 10.6979 4.82895 10.3902 4.82895 10.0105C4.82551 6.59361 7.5927 3.82088 11.0096 3.81748C13.9674 3.81452 16.5136 5.90558 17.0857 8.8075C17.1133 8.94881 17.1845 9.0779 17.2893 9.17657C17.3942 9.27524 17.5273 9.3385 17.67 9.35744C19.5494 9.62506 20.8559 11.3655 20.5883 13.2448C20.348 14.9323 18.9072 16.1888 17.2026 16.1973H14.4529V17.5722H17.2026C19.8602 17.5641 22.008 15.4032 22 12.7456C21.9933 10.5334 20.479 8.61072 18.33 8.08575Z" fill="#777795"/>
<path d="M10.527 10.8991L7.77734 13.6488L8.74661 14.6181L10.3277 13.0439V19.6363H11.7025V13.0439L13.2767 14.6181L14.246 13.6488L11.4963 10.8991C11.2282 10.6326 10.7952 10.6326 10.527 10.8991Z" fill="#777795"/>
</g>
<defs>
<clipPath id="clip0_4745_4835">
<rect width="22" height="22" fill="white"/>
</clipPath>
</defs>
</svg>
