<svg width="20" height="20" viewBox="0 0 20 20" fill="none" xmlns="http://www.w3.org/2000/svg">
<path fill-rule="evenodd" clip-rule="evenodd" d="M15.8333 15.8346C15.8333 16.2946 15.4592 16.668 15 16.668H5C4.54083 16.668 4.16667 16.2946 4.16667 15.8346V6.66797C4.16667 6.20797 4.54083 5.83464 5 5.83464V6.66797C5 7.58714 5.7475 8.33464 6.66667 8.33464H13.3333C14.2525 8.33464 15 7.58714 15 6.66797V5.83464C15.4592 5.83464 15.8333 6.20797 15.8333 6.66797V15.8346ZM6.66667 3.33464L13.3333 3.33714V4.16797V6.66797H6.66667V4.16797V3.33464ZM15 4.16797V3.33464C15 2.41547 14.2525 1.66797 13.3333 1.66797H6.66667C5.7475 1.66797 5 2.41547 5 3.33464V4.16797C3.62167 4.16797 2.5 5.28964 2.5 6.66797V15.8346C2.5 17.213 3.62167 18.3346 5 18.3346H15C16.3783 18.3346 17.5 17.213 17.5 15.8346V6.66797C17.5 5.28964 16.3783 4.16797 15 4.16797V4.16797Z" fill="black"/>
</svg>
