<svg width="16" height="15" viewBox="0 0 16 15" fill="none" xmlns="http://www.w3.org/2000/svg">
<path fill-rule="evenodd" clip-rule="evenodd" d="M9.03234 7.50016L11.7155 4.81703C11.9598 4.57266 11.9598 4.17766 11.7155 3.93328C11.4711 3.68891 11.0761 3.68891 10.8317 3.93328L8.14859 6.61641L5.46547 3.93328C5.22109 3.68891 4.82609 3.68891 4.58172 3.93328C4.33734 4.17766 4.33734 4.57266 4.58172 4.81703L7.26484 7.50016L4.58172 10.1833C4.33734 10.4277 4.33734 10.8227 4.58172 11.067C4.70359 11.1889 4.86359 11.2502 5.02359 11.2502C5.18359 11.2502 5.34359 11.1889 5.46547 11.067L8.14859 8.38391L10.8317 11.067C10.9536 11.1889 11.1136 11.2502 11.2736 11.2502C11.4336 11.2502 11.5936 11.1889 11.7155 11.067C11.9598 10.8227 11.9598 10.4277 11.7155 10.1833L9.03234 7.50016Z" />
</svg>
