<svg width="20" height="20" viewBox="0 0 20 20" fill="none" xmlns="http://www.w3.org/2000/svg">
<path d="M16.4 6.87569C15.9851 6.87529 15.5797 6.75191 15.235 6.52114C14.8902 6.29037 14.6216 5.96257 14.4631 5.57917C14.3046 5.19578 14.2634 4.774 14.3446 4.36716C14.4257 3.96032 14.6257 3.58668 14.9192 3.29347C15.2127 3.00026 15.5865 2.80064 15.9934 2.71985C16.4004 2.63907 16.8221 2.68073 17.2053 2.83958C17.5886 2.99843 17.9161 3.26734 18.1466 3.61231C18.377 3.95728 18.5 4.36283 18.5 4.77769C18.4995 5.3343 18.278 5.86793 17.8842 6.26132C17.4904 6.65471 16.9566 6.87569 16.4 6.87569ZM16.4 3.67569C16.1828 3.67569 15.9705 3.74008 15.79 3.86073C15.6094 3.98138 15.4687 4.15287 15.3856 4.3535C15.3025 4.55413 15.2807 4.77491 15.3231 4.9879C15.3655 5.20089 15.47 5.39653 15.6236 5.55009C15.7772 5.70365 15.9728 5.80822 16.1858 5.85059C16.3988 5.89296 16.6196 5.87121 16.8202 5.78811C17.0208 5.705 17.1923 5.56427 17.313 5.3837C17.4336 5.20314 17.498 4.99085 17.498 4.77369C17.4969 4.48317 17.3808 4.20492 17.175 3.99987C16.9692 3.79482 16.6905 3.67969 16.4 3.67969V3.67569ZM3.042 2.96369H12.042C12.4508 2.96422 12.8427 3.12685 13.1318 3.41591C13.4208 3.70498 13.5835 4.09689 13.584 4.50569V5.04769C13.5851 5.25146 13.5458 5.45342 13.4684 5.64193C13.391 5.83045 13.2771 6.00178 13.1332 6.14606C12.9893 6.29033 12.8183 6.40469 12.6299 6.48255C12.4416 6.56041 12.2398 6.60022 12.036 6.59969H3.036C2.62685 6.59916 2.23464 6.43625 1.94552 6.14675C1.6564 5.85726 1.494 5.46484 1.494 5.05569V4.50569C1.49426 4.30276 1.53453 4.10187 1.61249 3.91451C1.69045 3.72716 1.80458 3.55701 1.94835 3.41379C2.09212 3.27058 2.26271 3.15711 2.45037 3.07988C2.63803 3.00264 2.83907 2.96316 3.042 2.96369ZM2.5 5.04769C2.49894 5.11963 2.51217 5.19107 2.53891 5.25786C2.56564 5.32466 2.60537 5.38549 2.65578 5.43683C2.70619 5.48816 2.76628 5.52899 2.83257 5.55695C2.89887 5.5849 2.97005 5.59943 3.042 5.59969H12.042C12.1859 5.59916 12.3238 5.54161 12.4254 5.43965C12.527 5.33769 12.584 5.19962 12.584 5.05569V4.50569C12.5835 4.3621 12.5262 4.22455 12.4247 4.12302C12.3231 4.02149 12.1856 3.96421 12.042 3.96369H3.042C2.89842 3.96421 2.76086 4.02149 2.65933 4.12302C2.5578 4.22455 2.50053 4.3621 2.5 4.50569V5.04769ZM16.4 12.0977C15.9851 12.0973 15.5797 11.9739 15.235 11.7431C14.8902 11.5124 14.6216 11.1846 14.4631 10.8012C14.3046 10.4178 14.2634 9.996 14.3446 9.58916C14.4257 9.18232 14.6257 8.80868 14.9192 8.51547C15.2127 8.22226 15.5865 8.02264 15.9934 7.94186C16.4004 7.86107 16.8221 7.90273 17.2053 8.06158C17.5886 8.22043 17.9161 8.48934 18.1466 8.83431C18.377 9.17928 18.5 9.58483 18.5 9.99969C18.5 10.2754 18.4457 10.5483 18.3401 10.803C18.2345 11.0577 18.0798 11.2891 17.8848 11.4839C17.6898 11.6787 17.4583 11.8332 17.2035 11.9386C16.9487 12.0439 16.6757 12.098 16.4 12.0977ZM16.4 8.89769C16.1831 8.89808 15.9712 8.96272 15.7909 9.08343C15.6107 9.20414 15.4703 9.37553 15.3874 9.57597C15.3045 9.7764 15.2828 9.9969 15.3251 10.2097C15.3673 10.4224 15.4717 10.6179 15.6249 10.7714C15.7781 10.9249 15.9734 11.0296 16.1861 11.0722C16.3988 11.1149 16.6193 11.0936 16.8199 11.0111C17.0205 10.9285 17.1921 10.7884 17.3132 10.6084C17.4342 10.4284 17.4992 10.2166 17.5 9.99969C17.5 9.85533 17.4715 9.71238 17.4162 9.57904C17.3609 9.44569 17.2799 9.32456 17.1777 9.22258C17.0755 9.12059 16.9542 9.03975 16.8208 8.98469C16.6874 8.92963 16.5444 8.90142 16.4 8.90169V8.89769ZM3.042 8.18569H12.042C12.4511 8.18622 12.8434 8.34912 13.1325 8.63862C13.4216 8.92812 13.584 9.32054 13.584 9.72969V10.2697C13.584 10.6788 13.4216 11.0713 13.1325 11.3608C12.8434 11.6503 12.4511 11.8132 12.042 11.8137H3.042C2.63285 11.8132 2.24064 11.6503 1.95152 11.3608C1.6624 11.0713 1.5 10.6788 1.5 10.2697V9.72969C1.5 9.32054 1.6624 8.92812 1.95152 8.63862C2.24064 8.34912 2.63285 8.18622 3.042 8.18569ZM2.5 10.2697C2.5 10.4136 2.55704 10.5517 2.65863 10.6536C2.76021 10.7556 2.89807 10.8132 3.042 10.8137H12.042C12.1859 10.8132 12.3238 10.7556 12.4254 10.6536C12.527 10.5517 12.584 10.4136 12.584 10.2697V9.72969C12.584 9.58576 12.527 9.44769 12.4254 9.34573C12.3238 9.24376 12.1859 9.18622 12.042 9.18569H3.042C2.89807 9.18622 2.76021 9.24376 2.65863 9.34573C2.55704 9.44769 2.5 9.58576 2.5 9.72969V10.2697ZM16.4 17.3197C15.9851 17.3193 15.5797 17.1959 15.235 16.9651C14.8902 16.7344 14.6216 16.4066 14.4631 16.0232C14.3046 15.6398 14.2634 15.218 14.3446 14.8112C14.4257 14.4043 14.6257 14.0307 14.9192 13.7375C15.2127 13.4443 15.5865 13.2446 15.9934 13.1639C16.4004 13.0831 16.8221 13.1247 17.2053 13.2836C17.5886 13.4424 17.9161 13.7113 18.1466 14.0563C18.377 14.4013 18.5 14.8068 18.5 15.2217C18.5 15.4974 18.4457 15.7703 18.3401 16.025C18.2345 16.2797 18.0798 16.5111 17.8848 16.7059C17.6898 16.9007 17.4583 17.0552 17.2035 17.1606C16.9487 17.2659 16.6757 17.32 16.4 17.3197ZM16.4 14.1197C16.1828 14.1197 15.9705 14.1841 15.79 14.3047C15.6094 14.4254 15.4687 14.5969 15.3856 14.7975C15.3025 14.9981 15.2807 15.2189 15.3231 15.4319C15.3655 15.6449 15.47 15.8405 15.6236 15.9941C15.7772 16.1476 15.9728 16.2522 16.1858 16.2946C16.3988 16.337 16.6196 16.3152 16.8202 16.2321C17.0208 16.149 17.1923 16.0083 17.313 15.8277C17.4336 15.6471 17.498 15.4349 17.498 15.2177C17.4969 14.9272 17.3808 14.6489 17.175 14.4439C16.9692 14.2388 16.6905 14.1237 16.4 14.1237V14.1197ZM3.042 13.3997H12.042C12.4511 13.4002 12.8434 13.5631 13.1325 13.8526C13.4216 14.1421 13.584 14.5345 13.584 14.9437V15.4857C13.5835 15.8945 13.4208 16.2864 13.1318 16.5755C12.8427 16.8645 12.4508 17.0272 12.042 17.0277H3.042C2.6332 17.0272 2.24129 16.8645 1.95223 16.5755C1.66316 16.2864 1.50053 15.8945 1.5 15.4857V14.9517C1.49895 14.7484 1.53804 14.5469 1.61504 14.3588C1.69203 14.1707 1.80542 13.9996 1.94868 13.8554C2.09195 13.7113 2.26228 13.5968 2.4499 13.5186C2.63752 13.4403 2.83873 13.3999 3.042 13.3997ZM2.5 15.4937C2.50053 15.6373 2.5578 15.7748 2.65933 15.8764C2.76086 15.9779 2.89842 16.0352 3.042 16.0357H12.042C12.1856 16.0352 12.3231 15.9779 12.4247 15.8764C12.5262 15.7748 12.5835 15.6373 12.584 15.4937V14.9517C12.5851 14.8792 12.5717 14.8073 12.5445 14.7401C12.5174 14.6729 12.4772 14.6118 12.4261 14.5604C12.3751 14.509 12.3143 14.4683 12.2473 14.4407C12.1803 14.4131 12.1085 14.3991 12.036 14.3997H3.036C2.89207 14.4002 2.75421 14.4578 2.65263 14.5597C2.55104 14.6617 2.494 14.7998 2.494 14.9437L2.5 15.4937Z" fill="#54585F"/>
</svg>
