<svg width="16" height="16" viewBox="0 0 16 16" fill="none" xmlns="http://www.w3.org/2000/svg">
<path fill-rule="evenodd" clip-rule="evenodd" d="M10.6767 7.11944L8.87999 5.32278L10.1787 4.02344L11.9747 5.81944L10.6767 7.11944ZM6.05066 11.7501L4.06599 11.9308L4.24199 9.96011L7.98666 6.21544L9.78399 8.01278L6.05066 11.7501ZM12.9333 4.89211L12.9327 4.89144L11.1073 3.06611C10.6133 2.57344 9.76466 2.55011 9.29666 3.02011L3.29933 9.01744C3.08199 9.23411 2.94733 9.52211 2.91933 9.82678L2.66666 12.6068C2.64933 12.8034 2.71933 12.9981 2.85933 13.1381C2.98533 13.2641 3.15533 13.3334 3.33066 13.3334C3.35133 13.3334 3.37133 13.3328 3.39133 13.3308L6.17133 13.0781C6.47666 13.0501 6.76399 12.9161 6.98066 12.6994L12.9787 6.70144C13.464 6.21478 13.4433 5.40278 12.9333 4.89211Z" fill="#5D6167"/>
</svg>
