<svg width="24" height="24" viewBox="0 0 24 24" fill="none" xmlns="http://www.w3.org/2000/svg">
<path fill-rule="evenodd" clip-rule="evenodd" d="M16.0189 10.6792L13.3239 7.98416L15.2719 6.03516L17.9659 8.72916L16.0189 10.6792ZM9.0799 17.6252L6.1029 17.8962L6.3669 14.9402L11.9839 9.32316L14.6799 12.0192L9.0799 17.6252ZM19.4039 7.33816L19.4029 7.33716L16.6649 4.59916C15.9239 3.86016 14.6509 3.82516 13.9489 4.53016L4.9529 13.5262C4.6269 13.8512 4.4249 14.2832 4.3829 14.7402L4.0039 18.9102C3.9779 19.2052 4.0829 19.4972 4.2929 19.7072C4.4819 19.8962 4.7369 20.0002 4.9999 20.0002C5.0309 20.0002 5.0609 19.9992 5.0909 19.9962L9.2609 19.6172C9.7189 19.5752 10.1499 19.3742 10.4749 19.0492L19.4719 10.0522C20.1999 9.32216 20.1689 8.10416 19.4039 7.33816Z" />
</svg>
