<svg width="20" height="20" viewBox="0 0 20 20" fill="none" xmlns="http://www.w3.org/2000/svg">
<g clip-path="url(#clip0_4763_4759)">
<path d="M14.1234 5.78086C15.4248 5.92005 16.7338 5.97342 18.0422 5.94062L18.0391 5.93555C16.4939 3.60294 14.4987 1.60225 12.1703 0.0507812C12.1365 1.36563 12.1899 2.68127 12.3301 3.98906C12.4301 4.85313 13.259 5.68203 14.1234 5.78086ZM16.0164 12.0371C15.229 12.0371 14.4593 12.2706 13.8045 12.7081C13.1498 13.1455 12.6395 13.7673 12.3382 14.4948C12.0369 15.2223 11.958 16.0228 12.1117 16.7951C12.2653 17.5673 12.6445 18.2767 13.2012 18.8335C13.758 19.3903 14.4674 19.7695 15.2397 19.9231C16.012 20.0767 16.8125 19.9979 17.54 19.6966C18.2674 19.3952 18.8892 18.8849 19.3267 18.2302C19.7642 17.5755 19.9977 16.8058 19.9977 16.0184C19.9977 14.9625 19.5782 13.9498 18.8316 13.2032C18.0849 12.4566 17.0723 12.0371 16.0164 12.0371ZM17.9227 15.9434C17.8719 15.9941 17.8116 16.0344 17.7452 16.0619C17.6789 16.0894 17.6078 16.1036 17.5359 16.1036C17.4641 16.1036 17.393 16.0894 17.3266 16.0619C17.2603 16.0344 17.2 15.9941 17.1492 15.9434L16.5633 15.3574V17.9953C16.5633 18.1404 16.5057 18.2795 16.4031 18.382C16.3005 18.4846 16.1614 18.5422 16.0164 18.5422C15.8714 18.5422 15.7323 18.4846 15.6297 18.382C15.5271 18.2795 15.4695 18.1404 15.4695 17.9953V15.3594L14.8836 15.9453C14.781 16.0479 14.6419 16.1055 14.4969 16.1055C14.3518 16.1055 14.2127 16.0479 14.1102 15.9453C14.0076 15.8427 13.95 15.7036 13.95 15.5586C13.95 15.4135 14.0076 15.2744 14.1102 15.1719L15.6297 13.6527C15.6805 13.6019 15.7408 13.5617 15.8071 13.5342C15.8735 13.5067 15.9446 13.4925 16.0164 13.4925C16.0882 13.4925 16.1593 13.5067 16.2257 13.5342C16.2921 13.5617 16.3523 13.6019 16.4031 13.6527L17.9227 15.1719C17.9734 15.2227 18.0137 15.2829 18.0412 15.3493C18.0687 15.4157 18.0829 15.4868 18.0829 15.5586C18.0829 15.6304 18.0687 15.7015 18.0412 15.7679C18.0137 15.8342 17.9734 15.8945 17.9227 15.9453V15.9434Z" fill="#777795"/>
<path d="M18.0806 6.98596C17.8204 6.99261 17.5606 6.9969 17.3021 6.9969C16.2038 6.99656 15.1063 6.93801 14.0142 6.82151H14.0048C13.3536 6.74612 12.7157 6.42307 12.2032 5.91214C11.6907 5.4012 11.3696 4.76175 11.2938 4.11096C11.294 4.10784 11.294 4.10471 11.2938 4.10159C11.1488 2.74409 11.0934 1.37849 11.1282 0.0136994C9.07568 -0.0357729 7.02209 0.0487818 4.98057 0.266824C3.61689 0.425027 2.30947 1.73284 2.15088 3.09651C1.79346 6.44221 1.79346 12.6547 2.15088 16.0004C2.30908 17.3641 3.61689 18.6719 4.98057 18.8301C7.29572 19.0779 9.62607 19.1538 11.9524 19.0571C11.4596 18.3963 11.1347 17.6257 11.0054 16.8116C10.8761 15.9975 10.9464 15.1642 11.2103 14.3832H5.76025C5.61521 14.3832 5.47611 14.3256 5.37355 14.2231C5.271 14.1205 5.21338 13.9814 5.21338 13.8364C5.21338 13.6913 5.271 13.5522 5.37355 13.4497C5.47611 13.3471 5.61521 13.2895 5.76025 13.2895H11.7368C12.1712 12.612 12.7587 12.0461 13.4521 11.6375H5.76025C5.61521 11.6375 5.47611 11.5799 5.37355 11.4774C5.271 11.3748 5.21338 11.2357 5.21338 11.0907C5.21338 10.9456 5.271 10.8065 5.37355 10.704C5.47611 10.6014 5.61521 10.5438 5.76025 10.5438H14.2368C14.3819 10.5438 14.521 10.6014 14.6235 10.704C14.7261 10.8065 14.7837 10.9456 14.7837 11.0907V11.0938C15.8897 10.8199 17.0554 10.923 18.0962 11.3867C18.1263 9.93401 18.1208 8.41018 18.0806 6.98596ZM11.504 8.89221H5.76182C5.61678 8.89221 5.47768 8.8346 5.37512 8.73204C5.27256 8.62948 5.21494 8.49038 5.21494 8.34534C5.21494 8.2003 5.27256 8.0612 5.37512 7.95864C5.47768 7.85608 5.61678 7.79846 5.76182 7.79846H11.504C11.649 7.79846 11.7881 7.85608 11.8907 7.95864C11.9933 8.0612 12.0509 8.2003 12.0509 8.34534C12.0509 8.49038 11.9933 8.62948 11.8907 8.73204C11.7881 8.8346 11.649 8.89221 11.504 8.89221Z" fill="#777795"/>
</g>
<defs>
<clipPath id="clip0_4763_4759">
<rect width="20" height="20" fill="white"/>
</clipPath>
</defs>
</svg>
