<svg width="20" height="20" viewBox="0 0 20 20" fill="none" xmlns="http://www.w3.org/2000/svg">
<path fill-rule="evenodd" clip-rule="evenodd" d="M3.33464 11.4638V15.058C3.33464 15.2563 3.5213 15.418 3.7513 15.418H16.2513C16.4813 15.418 16.668 15.2563 16.668 15.058V7.89964C16.668 7.70047 16.4813 7.53964 16.2513 7.53964H10.0013C9.7513 7.53964 9.51464 7.42714 9.3563 7.23297L7.18964 4.58464H3.7513C3.5213 4.58464 3.33464 4.74547 3.33464 4.9438V11.4638ZM16.2513 17.0846H3.7513C2.60297 17.0846 1.66797 16.1755 1.66797 15.058V4.9438C1.66797 3.8263 2.60297 2.91797 3.7513 2.91797H7.58547C7.83464 2.91797 8.07214 3.02964 8.23047 3.2238L10.3963 5.87297H16.2513C17.3996 5.87297 18.3346 6.7813 18.3346 7.89964V15.058C18.3346 16.1755 17.3996 17.0846 16.2513 17.0846V17.0846Z" fill="black"/>
</svg>
