<svg width="20" height="20" viewBox="0 0 20 20" fill="none" xmlns="http://www.w3.org/2000/svg">
<path d="M8.33275 10.916C8.23425 10.9159 8.1367 10.9353 8.0457 10.973C7.9547 11.0107 7.87205 11.066 7.8025 11.1358L1.75 17.189V13.6963C1.75 13.4974 1.67098 13.3066 1.53033 13.166C1.38968 13.0253 1.19891 12.9463 1 12.9463C0.801088 12.9463 0.610322 13.0253 0.46967 13.166C0.329018 13.3066 0.25 13.4974 0.25 13.6963V18.9988C0.25 19.1977 0.329018 19.3885 0.46967 19.5291C0.610322 19.6698 0.801088 19.7488 1 19.7488H6.3025C6.50141 19.7488 6.69218 19.6698 6.83283 19.5291C6.97348 19.3885 7.0525 19.1977 7.0525 18.9988C7.0525 18.7999 6.97348 18.6091 6.83283 18.4685C6.69218 18.3278 6.50141 18.2488 6.3025 18.2488H2.81125L8.863 12.1963C8.96823 12.0915 9.03996 11.9579 9.06909 11.8123C9.09822 11.6667 9.08344 11.5157 9.02663 11.3786C8.96982 11.2414 8.87353 11.1242 8.74999 11.0418C8.62645 10.9595 8.48122 10.9157 8.33275 10.916ZM19.0833 0.332031H13.7808C13.5818 0.332031 13.3911 0.411049 13.2504 0.551701C13.1098 0.692353 13.0308 0.883119 13.0308 1.08203C13.0308 1.28094 13.1098 1.47171 13.2504 1.61236C13.3911 1.75301 13.5818 1.83203 13.7808 1.83203H17.2728L11.1362 7.96853C11.0666 8.03816 11.0114 8.12083 10.9737 8.21181C10.936 8.30279 10.9166 8.4003 10.9166 8.49878C10.9166 8.59726 10.936 8.69477 10.9737 8.78575C11.0114 8.87673 11.0666 8.9594 11.1362 9.02903C11.2059 9.09866 11.2886 9.1539 11.3795 9.19159C11.4705 9.22927 11.568 9.24867 11.6665 9.24867C11.765 9.24867 11.8625 9.22927 11.9535 9.19159C12.0444 9.1539 12.1271 9.09866 12.1968 9.02903L18.3333 2.89253V6.38453C18.3333 6.58344 18.4123 6.77421 18.5529 6.91486C18.6936 7.05551 18.8843 7.13453 19.0833 7.13453C19.2822 7.13453 19.4729 7.05551 19.6136 6.91486C19.7542 6.77421 19.8333 6.58344 19.8333 6.38453V1.08203C19.8333 0.883119 19.7542 0.692353 19.6136 0.551701C19.4729 0.411049 19.2822 0.332031 19.0833 0.332031Z" fill="black"/>
</svg>
