<svg width="18" height="18" viewBox="0 0 21 21" fill="none" xmlns="http://www.w3.org/2000/svg">
<g clip-path="url(#clip0_4496_8980)">
<path d="M0.00820461 11.7971L0.496866 18.1523C0.594114 19.4172 1.58271 20.4058 2.84755 20.503L9.2028 20.9917C9.96905 21.0506 10.6612 20.7945 11.2045 20.2511L20.2807 11.1749C20.7446 10.7111 21 10.0926 21 9.43324C21 8.77391 20.7446 8.15535 20.2807 7.69155L13.3083 0.719138C12.8281 0.238887 12.1975 -0.00117797 11.5667 -0.00117792C10.936 -0.00117786 10.3051 0.238969 9.82496 0.719138L0.7487 9.79536C0.205325 10.3388 -0.0507344 11.031 0.00820461 11.7971ZM1.6768 10.7234L10.753 1.6472C11.2017 1.19857 11.9316 1.19865 12.3802 1.6472L19.3526 8.61961C19.5686 8.83556 19.6875 9.12451 19.6875 9.43324C19.6875 9.742 19.5686 10.031 19.3527 10.2469L10.2764 19.3231C10.0319 19.5677 9.74954 19.6875 9.4162 19.6875C9.37856 19.6875 9.34094 19.686 9.30341 19.6831L2.94816 19.1944C2.33334 19.1472 1.85276 18.6666 1.80551 18.0518L1.31681 11.6965C1.28736 11.3134 1.40511 10.9951 1.6768 10.7234ZM5.62964 17.8638C7.00457 17.8638 8.12314 16.7452 8.12314 15.3702C8.12314 13.9953 7.00457 12.8767 5.62964 12.8767C4.25472 12.8767 3.13614 13.9953 3.13614 15.3702C3.13614 16.7452 4.25472 17.8638 5.62964 17.8638ZM5.62964 14.1892C6.28085 14.1892 6.81064 14.719 6.81064 15.3702C6.81064 16.0215 6.28085 16.5513 5.62964 16.5513C4.97844 16.5513 4.44864 16.0215 4.44864 15.3702C4.44864 14.719 4.97844 14.1892 5.62964 14.1892Z" fill="#777795"/>
</g>
<defs>
<clipPath id="clip0_4496_8980">
<rect width="21" height="21" fill="white" transform="translate(21 21) rotate(180)"/>
</clipPath>
</defs>
</svg>
