<svg width="25" height="23" viewBox="0 0 25 23" fill="none" xmlns="http://www.w3.org/2000/svg">
<path fill-rule="evenodd" clip-rule="evenodd" d="M20.2378 10.0074C20.2378 9.58646 19.8974 9.24376 19.4757 9.24146L13.3478 9.20312H13.3432C12.9215 9.20312 12.5796 9.54352 12.5765 9.96519C12.5734 10.3884 12.9146 10.7342 13.3386 10.7365L17.5997 10.7633L11.2678 17.0944C10.968 17.3942 10.968 17.8795 11.2678 18.1785C11.4173 18.3288 11.6136 18.4031 11.8098 18.4031C12.0061 18.4031 12.2024 18.3288 12.3519 18.1785L18.706 11.8244L18.7098 16.1039C18.7098 16.5271 19.0533 16.8698 19.4765 16.8698H19.4773C19.9005 16.8698 20.2432 16.5256 20.2432 16.1024L20.2378 10.0074Z" fill="black"/>
<path fill-rule="evenodd" clip-rule="evenodd" d="M13.5769 4.82639C13.2772 4.52662 12.7926 4.52662 12.4929 4.82639L6.1349 11.1844V6.90175C6.1349 6.47855 5.7922 6.13509 5.36823 6.13509C4.94426 6.13509 4.60156 6.47855 4.60156 6.90175V13.0351C4.60156 13.4583 4.94426 13.8018 5.36823 13.8018H11.5016C11.9255 13.8018 12.2682 13.4583 12.2682 13.0351C12.2682 12.6119 11.9255 12.2684 11.5016 12.2684H7.21896L13.5769 5.91045C13.8767 5.61069 13.8767 5.12615 13.5769 4.82639" fill="black"/>
</svg>
