<svg width="15" height="15" viewBox="0 0 16 16" fill="none" xmlns="http://www.w3.org/2000/svg">
<path fill-rule="evenodd" clip-rule="evenodd" d="M4.6694 7.32341C4.6694 6.95541 4.96807 6.65674 5.33607 6.65674C5.70407 6.65674 6.00274 6.95541 6.00274 7.32341C6.00274 7.69141 5.70407 7.99007 5.33607 7.99007C4.96807 7.99007 4.6694 7.69141 4.6694 7.32341ZM8.00274 6.65674C7.63474 6.65674 7.33607 6.95541 7.33607 7.32341C7.33607 7.69141 7.63474 7.99007 8.00274 7.99007C8.37074 7.99007 8.6694 7.69141 8.6694 7.32341C8.6694 6.95541 8.37074 6.65674 8.00274 6.65674ZM10.6694 6.65674C10.3014 6.65674 10.0027 6.95541 10.0027 7.32341C10.0027 7.69141 10.3014 7.99007 10.6694 7.99007C11.0374 7.99007 11.3361 7.69141 11.3361 7.32341C11.3361 6.95541 11.0374 6.65674 10.6694 6.65674ZM13.2683 8.18667C12.9303 10.356 11.1817 12.1553 9.01567 12.5613C7.96967 12.7587 6.90434 12.646 5.93767 12.2367C5.66367 12.1207 5.38034 12.062 5.10234 12.062C4.97567 12.062 4.85034 12.074 4.727 12.0987L2.85234 12.4733L3.22767 10.5953C3.30634 10.2053 3.25834 9.78801 3.08967 9.38867C2.68034 8.42201 2.56834 7.35734 2.765 6.31067C3.171 4.14467 4.96967 2.39601 7.13967 2.05801C8.86634 1.78934 10.555 2.33334 11.7737 3.55201C12.993 4.77134 13.5377 6.46067 13.2683 8.18667ZM12.717 2.60934C11.1937 1.08667 9.087 0.407341 6.93434 0.740007C4.21634 1.16401 1.963 3.35334 1.45434 6.06467C1.209 7.37001 1.35034 8.69934 1.86167 9.90801C1.92634 10.062 1.94634 10.2053 1.921 10.334L1.349 13.1927C1.305 13.4113 1.37367 13.6373 1.53167 13.7947C1.65767 13.9213 1.82767 13.99 2.003 13.99C2.04634 13.99 2.08967 13.986 2.13367 13.9773L4.989 13.406C5.153 13.3747 5.31167 13.4207 5.41767 13.4647C6.62767 13.976 7.957 14.1167 9.261 13.872C11.973 13.3633 14.1623 11.11 14.5863 8.39201C14.921 6.24067 14.2403 4.13267 12.717 2.60934Z" fill="#5D6167"/>
</svg>
