<svg width="16" height="16" viewBox="0 0 16 16" fill="none" xmlns="http://www.w3.org/2000/svg">
<g clip-path="url(#clip0_4725_4819)">
<path d="M9.33282 4.66818V1.83351C9.33227 1.73504 9.36088 1.63861 9.41505 1.55637C9.46922 1.47414 9.54653 1.40978 9.63723 1.37142C9.72792 1.33306 9.82795 1.32241 9.92469 1.34082C10.0214 1.35923 10.1105 1.40586 10.1808 1.47485L15.8475 6.97485C15.8957 7.02131 15.9341 7.07702 15.9603 7.13864C15.9865 7.20027 16 7.26655 16 7.33352C16 7.40048 15.9865 7.46676 15.9603 7.52839C15.9341 7.59001 15.8957 7.64572 15.8475 7.69218L10.1808 13.1922C10.0362 13.3322 9.82149 13.3715 9.63815 13.2942C9.54772 13.2558 9.47056 13.1916 9.41628 13.1097C9.36199 13.0278 9.33297 12.9318 9.33282 12.8335V10.0002H8.38749C5.29682 10.0002 2.44749 11.6802 0.952156 14.3815L0.938156 14.4068C0.88486 14.5043 0.80064 14.5812 0.698783 14.6255C0.596927 14.6697 0.48323 14.6788 0.375632 14.6513C0.268033 14.6238 0.172656 14.5613 0.104548 14.4735C0.036439 14.3858 -0.000524812 14.2779 -0.000511646 14.1668C-0.000511646 8.98418 4.17082 4.75751 9.33282 4.66818Z" fill="#777795"/>
</g>
<defs>
<clipPath id="clip0_4725_4819">
<rect width="16" height="16" fill="white" transform="matrix(-1 0 0 1 16 0)"/>
</clipPath>
</defs>
</svg>
