<svg width="15" height="11" viewBox="0 0 15 11" fill="none" xmlns="http://www.w3.org/2000/svg">
<path d="M0.0648441 9.39394C0.116407 9.27362 0.188282 9.16112 0.260157 9.05331C0.477344 8.72675 0.735157 8.42206 1.01797 8.15175C1.44922 7.73769 1.94141 7.38144 2.46172 7.08612C3.17266 6.683 3.94609 6.383 4.73359 6.16737C5.80391 5.87362 6.91797 5.72987 8.02578 5.68144C8.18047 5.67519 8.33516 5.66894 8.48984 5.66581C8.74297 5.66112 8.95859 5.88456 8.95859 6.13456V8.32519C8.72422 8.19081 8.48828 8.05487 8.25391 7.9205C8.43047 7.79081 8.60703 7.65956 8.78359 7.52987C9.20703 7.21737 9.63047 6.90487 10.0539 6.59081L11.5914 5.45644C12.0336 5.12987 12.4773 4.80331 12.9195 4.47519C13.1336 4.31737 13.3445 4.15175 13.5633 4.00019C13.5664 3.99862 13.5695 3.9955 13.5727 3.99394V4.80331C13.3961 4.67362 13.2195 4.54237 13.043 4.41269C12.6195 4.10019 12.1961 3.78769 11.7727 3.47362L10.2352 2.33925C9.79297 2.01269 9.34922 1.68612 8.90703 1.358C8.69297 1.20019 8.47266 1.04706 8.26328 0.883C8.26016 0.879875 8.25703 0.878312 8.25391 0.87675C8.48828 0.742375 8.72422 0.606437 8.95859 0.472062V2.67362C8.95859 2.933 8.74297 3.13456 8.48984 3.14237C8.10703 3.15487 7.72422 3.18456 7.34453 3.23612C7.38672 3.22987 7.42734 3.22519 7.46953 3.21894C6.68672 3.32519 5.91641 3.5205 5.18672 3.82675L5.29922 3.77988C4.88359 3.95644 4.48359 4.16737 4.10703 4.41581C4.01797 4.47362 3.93047 4.53456 3.84453 4.59706C3.80547 4.62519 3.76641 4.65487 3.72734 4.683C3.69453 4.708 3.60859 4.77519 3.74922 4.66425C3.72578 4.683 3.70234 4.70175 3.67734 4.7205C3.51953 4.8455 3.36797 4.97831 3.22109 5.11581C2.94766 5.37362 2.69922 5.65487 2.46484 5.94862C2.58828 5.79394 2.47891 5.92987 2.44922 5.9705C2.42109 6.00956 2.39141 6.04862 2.36328 6.08769C2.31328 6.158 2.26328 6.22831 2.21641 6.30019C2.12109 6.44237 2.03047 6.58925 1.94453 6.73769C1.76641 7.0455 1.60859 7.36425 1.47109 7.69081L1.51797 7.57831C1.37578 7.91737 1.25391 8.26425 1.15391 8.61737C1.08359 8.86894 1.02266 9.12362 0.975781 9.38144C0.960156 9.46737 0.946094 9.55487 0.933594 9.64237C0.939844 9.60019 0.944532 9.55956 0.950782 9.51737C0.946094 9.55487 0.941406 9.59081 0.938281 9.62831C0.927344 9.75487 0.892969 9.86737 0.800781 9.95956C0.719531 10.0408 0.586719 10.1017 0.469531 10.0971C0.233594 10.0861 -0.0226564 9.88925 0.000781059 9.62831C0.0242186 9.36112 0.0742186 9.09237 0.133594 8.83144C0.266406 8.23456 0.467969 7.65644 0.713282 7.09706C1.04297 6.34706 1.48047 5.65175 2.01172 5.02831C2.64453 4.28456 3.43203 3.66112 4.30078 3.21425C5.43984 2.62675 6.69453 2.32831 7.96797 2.23144C8.14141 2.21894 8.31484 2.20956 8.48828 2.20331L8.01953 2.67206V0.4705C8.01953 0.304875 8.10859 0.148625 8.25234 0.0658123C8.38516 -0.0123127 8.59453 -0.0310627 8.72578 0.0658123C8.90234 0.1955 9.07891 0.32675 9.25547 0.456437C9.67891 0.768937 10.1023 1.08144 10.5258 1.3955L12.0633 2.52988C12.5055 2.85644 12.9492 3.183 13.3914 3.51112C13.6055 3.66894 13.8211 3.82675 14.0352 3.98612C14.0383 3.98769 14.0414 3.99081 14.0445 3.99237C14.182 4.09394 14.2773 4.21737 14.2773 4.39706C14.2773 4.57675 14.182 4.70019 14.0445 4.80175C13.868 4.93144 13.6914 5.06269 13.5148 5.19237C13.0914 5.50487 12.668 5.81737 12.2445 6.13144L10.707 7.26581C10.2648 7.59237 9.82109 7.91894 9.37891 8.24706C9.16484 8.40487 8.95547 8.57206 8.73516 8.72206C8.73203 8.72362 8.72891 8.72675 8.72578 8.72831C8.59453 8.82519 8.38516 8.80644 8.25234 8.72831C8.11016 8.6455 8.01953 8.48925 8.01953 8.32362V6.133L8.48828 6.60175C7.84766 6.61581 7.20703 6.65956 6.57109 6.74394C6.61328 6.73769 6.65391 6.733 6.69609 6.72675C5.86953 6.83769 5.05078 7.01737 4.26328 7.29237C4.07734 7.358 3.89453 7.42831 3.71328 7.50331L3.82578 7.45644C3.39453 7.63925 2.97578 7.85331 2.58047 8.10644C2.41641 8.21112 2.25703 8.32519 2.10234 8.44237C2.25078 8.32987 2.13047 8.4205 2.08359 8.45956C2.04922 8.48769 2.01328 8.51581 1.97891 8.5455C1.91641 8.59862 1.85391 8.65175 1.79297 8.708C1.58828 8.8955 1.39453 9.09706 1.22109 9.31425C1.18984 9.35331 1.11484 9.45331 1.24141 9.28769C1.22578 9.30956 1.20859 9.33144 1.19297 9.35331C1.16484 9.39081 1.13672 9.42987 1.11016 9.46894C1.06641 9.533 1.02266 9.59862 0.983594 9.66737C0.946094 9.73144 0.907032 9.79706 0.877344 9.86581C0.835157 9.96581 0.696094 10.0533 0.597656 10.0814C0.485156 10.1127 0.336719 10.0986 0.236719 10.0346C0.136719 9.9705 0.0492193 9.87362 0.0210943 9.75487C-0.0117182 9.62362 0.0132816 9.51581 0.0648441 9.39394Z" fill="#777795"/>
</svg>
