<svg width="17" height="17" viewBox="0 0 17 17" fill="none" xmlns="http://www.w3.org/2000/svg">
<path d="M8.38926 9.88519H6.37129C5.99981 9.88519 5.69885 9.57479 5.69885 9.1926C5.69885 8.81041 5.99981 8.50001 6.37129 8.50001H8.38926C8.76074 8.50001 9.06233 8.81041 9.06233 9.1926C9.06233 9.57479 8.76074 9.88519 8.38926 9.88519ZM6.37129 11.2704H10.4072C10.78 11.2704 11.0809 11.5808 11.0809 11.963C11.0809 12.3452 10.78 12.6556 10.4072 12.6556H6.37129C5.99981 12.6556 5.69885 12.3452 5.69885 11.963C5.69885 11.5808 5.99981 11.2704 6.37129 11.2704ZM12.0543 14.0407H4.72922C4.52333 14.0407 4.35585 13.8859 4.35585 13.6945V3.30556C4.35585 3.11416 4.52333 2.95927 4.72922 2.95927H8.39241V5.14093C8.39241 6.23019 9.21092 7.11482 10.2183 7.11482H12.4283V13.6945C12.4283 13.8859 12.2608 14.0407 12.0543 14.0407ZM9.73729 3.63675L11.5815 5.72964H10.2171C9.952 5.72964 9.73666 5.46519 9.73666 5.14093L9.73729 3.63675ZM13.5969 5.95693L9.93437 1.80138C9.80655 1.65656 9.62585 1.57408 9.4357 1.57408H4.7267C3.77911 1.57408 3.00781 2.35104 3.00781 3.30556V13.6945C3.00781 14.649 3.77911 15.4259 4.7267 15.4259H12.0518C13 15.4259 13.7713 14.649 13.7713 13.6945V6.42223C13.7713 6.24971 13.7084 6.08412 13.5963 5.9563" fill="#7C8899"/>
</svg>
