<svg width="17" height="17" viewBox="0 0 17 17" fill="none" xmlns="http://www.w3.org/2000/svg">
<path fill-rule="evenodd" clip-rule="evenodd" d="M3.54167 7.79167C3.54167 5.44779 5.44779 3.54167 7.79167 3.54167C10.1355 3.54167 12.0417 5.44779 12.0417 7.79167C12.0417 10.1355 10.1355 12.0417 7.79167 12.0417C5.44779 12.0417 3.54167 10.1355 3.54167 7.79167ZM14.6675 13.6659L12.2627 11.2604C13.0085 10.3013 13.4583 9.09925 13.4583 7.79167C13.4583 4.66721 10.9161 2.125 7.79167 2.125C4.66721 2.125 2.125 4.66721 2.125 7.79167C2.125 10.9161 4.66721 13.4583 7.79167 13.4583C9.09925 13.4583 10.3013 13.0085 11.2604 12.2627L13.6659 14.6675C13.804 14.8056 13.9853 14.875 14.1667 14.875C14.348 14.875 14.5293 14.8056 14.6675 14.6675C14.9444 14.3905 14.9444 13.9428 14.6675 13.6659Z" fill="#8F9BB3"/>
</svg>
