<svg width="36" height="34" viewBox="0 0 36 34" fill="none" xmlns="http://www.w3.org/2000/svg">
<rect x="0.367188" width="34.8047" height="34" rx="17" fill="#F8FAFB"/>
<rect x="3.4375" y="3" width="28.6627" height="28" rx="14" fill="#E5E5EF"/>
<g clip-path="url(#clip0_4496_11145)">
<path d="M23.191 11.5791C21.9273 10.3128 20.2605 9.52833 18.4793 9.36153C16.6981 9.19473 14.9146 9.6561 13.4377 10.6657H13.561C13.6595 10.654 13.7594 10.6643 13.8534 10.696C13.9474 10.7277 14.0332 10.78 14.1044 10.8491C14.4044 11.1557 14.281 11.5157 14.2377 11.8924C15.4348 11.0568 16.8883 10.6702 18.3424 10.8006C19.7965 10.931 21.158 11.5701 22.1874 12.6054C23.2167 13.6407 23.8479 15.0059 23.9699 16.4607C24.0919 17.9156 23.6969 19.3668 22.8544 20.5591L22.4077 20.1124C22.341 20.6924 22.1877 22.1124 22.151 22.4457L24.4844 22.1891L23.911 21.6157C25.0216 20.1372 25.5603 18.3072 25.428 16.4628C25.2957 14.6184 24.5013 12.8839 23.191 11.5791ZM22.161 23.0857C22.067 23.0863 21.9738 23.067 21.8878 23.029C21.8017 22.991 21.7247 22.9352 21.6617 22.8653C21.5987 22.7954 21.5513 22.713 21.5224 22.6234C21.4936 22.5339 21.484 22.4393 21.4944 22.3457L21.541 21.9257C20.341 22.8457 18.8463 23.2958 17.3378 23.1912C15.8294 23.0866 14.411 22.4347 13.3494 21.3579C12.2878 20.2812 11.656 18.8538 11.5728 17.3439C11.4897 15.8341 11.9608 14.3459 12.8977 13.1591L13.381 13.6424C13.481 12.7624 13.3644 13.8091 13.641 11.3091L11.3077 11.5691L11.861 12.1191C10.6686 13.5746 10.0531 15.4179 10.1317 17.2979C10.2103 19.1779 10.9775 20.9633 12.2873 22.3142C13.5971 23.6652 15.3579 24.4873 17.2346 24.624C19.1112 24.7608 20.9726 24.2026 22.4644 23.0557C22.3641 23.0731 22.2627 23.0831 22.161 23.0857Z" fill="#8F9BB3"/>
<path d="M19.1094 14.9974H20.4427L19.1094 13.6641V14.9974Z" fill="#8F9BB3"/>
<path d="M18.4323 13.332H15.4323C15.2555 13.332 15.0859 13.4023 14.9609 13.5273C14.8359 13.6523 14.7656 13.8219 14.7656 13.9987V19.9987C14.7656 20.1755 14.8359 20.3451 14.9609 20.4701C15.0859 20.5951 15.2555 20.6654 15.4323 20.6654H20.099C20.2758 20.6654 20.4453 20.5951 20.5704 20.4701C20.6954 20.3451 20.7656 20.1755 20.7656 19.9987C20.7656 15.1487 20.7923 15.6654 20.7056 15.6654H18.7656C18.6772 15.6654 18.5924 15.6302 18.5299 15.5677C18.4674 15.5052 18.4323 15.4204 18.4323 15.332V13.332ZM18.099 19.332H16.099C16.0106 19.332 15.9258 19.2969 15.8633 19.2344C15.8007 19.1719 15.7656 19.0871 15.7656 18.9987C15.7656 18.9103 15.8007 18.8255 15.8633 18.763C15.9258 18.7005 16.0106 18.6654 16.099 18.6654H18.099C18.1874 18.6654 18.2721 18.7005 18.3347 18.763C18.3972 18.8255 18.4323 18.9103 18.4323 18.9987C18.4323 19.0871 18.3972 19.1719 18.3347 19.2344C18.2721 19.2969 18.1874 19.332 18.099 19.332ZM18.099 17.9987H16.099C16.0106 17.9987 15.9258 17.9636 15.8633 17.9011C15.8007 17.8386 15.7656 17.7538 15.7656 17.6654C15.7656 17.577 15.8007 17.4922 15.8633 17.4297C15.9258 17.3672 16.0106 17.332 16.099 17.332H18.099C18.1874 17.332 18.2721 17.3672 18.3347 17.4297C18.3972 17.4922 18.4323 17.577 18.4323 17.6654C18.4323 17.7538 18.3972 17.8386 18.3347 17.9011C18.2721 17.9636 18.1874 17.9987 18.099 17.9987ZM18.099 16.6654H16.099C16.0106 16.6654 15.9258 16.6302 15.8633 16.5677C15.8007 16.5052 15.7656 16.4204 15.7656 16.332C15.7656 16.2436 15.8007 16.1588 15.8633 16.0963C15.9258 16.0338 16.0106 15.9987 16.099 15.9987H18.099C18.1874 15.9987 18.2721 16.0338 18.3347 16.0963C18.3972 16.1588 18.4323 16.2436 18.4323 16.332C18.4323 16.4204 18.3972 16.5052 18.3347 16.5677C18.2721 16.6302 18.1874 16.6654 18.099 16.6654Z" fill="#8F9BB3"/>
</g>
<defs>
<clipPath id="clip0_4496_11145">
<rect width="16" height="16" fill="white" transform="translate(9.76562 9)"/>
</clipPath>
</defs>
</svg>
