<svg width="13" height="13" viewBox="0 0 13 13" fill="none" xmlns="http://www.w3.org/2000/svg">
<path fill-rule="evenodd" clip-rule="evenodd" d="M8.125 6.50033H7.04167V5.41699C7.04167 5.11745 6.799 4.87533 6.5 4.87533C6.201 4.87533 5.95833 5.11745 5.95833 5.41699V7.04199C5.95833 7.34153 6.201 7.58366 6.5 7.58366H8.125C8.424 7.58366 8.66667 7.34153 8.66667 7.04199C8.66667 6.74245 8.424 6.50033 8.125 6.50033ZM6.5 10.6982C4.48392 10.6982 2.84375 9.05808 2.84375 7.04199C2.84375 5.02591 4.48392 3.38574 6.5 3.38574C8.51608 3.38574 10.1562 5.02591 10.1562 7.04199C10.1562 9.05808 8.51608 10.6982 6.5 10.6982ZM7.03517 2.19841C7.03625 2.18703 7.04167 2.17837 7.04167 2.16699V1.62533H7.58333C7.88233 1.62533 8.125 1.3832 8.125 1.08366C8.125 0.784117 7.88233 0.541992 7.58333 0.541992H5.41667C5.11767 0.541992 4.875 0.784117 4.875 1.08366C4.875 1.3832 5.11767 1.62533 5.41667 1.62533H5.95833V2.16699C5.95833 2.17837 5.96375 2.18703 5.96483 2.19841C3.52788 2.46599 1.625 4.53516 1.625 7.04199C1.625 9.73028 3.81225 11.917 6.5 11.917C9.18775 11.917 11.375 9.73028 11.375 7.04199C11.375 4.53516 9.47213 2.46599 7.03517 2.19841Z" />
</svg>
