<svg width="12" height="14" viewBox="0 0 12 14" fill="none" xmlns="http://www.w3.org/2000/svg">
<path fill-rule="evenodd" clip-rule="evenodd" d="M1.3062 4.30694C1.6058 4.31394 1.8424 4.56104 1.8347 4.85854L1.2929 4.84524L0.7511 4.83194C0.755128 4.68873 0.815866 4.55297 0.919959 4.45452C1.02405 4.35607 1.16298 4.30299 1.3062 4.30694ZM1.2929 4.84524L0.7511 4.83194V4.86274L0.749 4.94954C0.73845 5.42082 0.731216 5.89216 0.7273 6.36354C0.715013 7.30021 0.723181 8.23703 0.7518 9.17334C0.7868 10.1071 0.8834 11.3153 0.9632 12.2162C1.0528 13.2326 1.9124 13.9991 2.9309 13.9991H8.2691C9.2876 13.9991 10.1472 13.2326 10.2368 12.2162C10.3166 11.316 10.4125 10.1071 10.4482 9.17334C10.4768 8.23727 10.485 7.30068 10.4727 6.36424C10.4684 5.89287 10.4614 5.42153 10.4517 4.95024L10.4496 4.86274L10.4489 4.83264C10.4447 4.68949 10.3839 4.55384 10.2798 4.45543C10.1758 4.35702 10.037 4.30388 9.8938 4.30764C9.82292 4.3091 9.75302 4.3245 9.6881 4.35298C9.62318 4.38146 9.5645 4.42245 9.51542 4.4736C9.46634 4.52476 9.42782 4.58509 9.40206 4.65114C9.37631 4.71719 9.36381 4.78767 9.3653 4.85854V4.88794L9.3674 4.97334L9.3744 5.29184C9.3793 5.56344 9.3849 5.94284 9.3891 6.37404C9.3968 7.23924 9.3968 8.30604 9.3653 9.13204C9.3303 10.0378 9.2365 11.2243 9.1574 12.1217C9.13638 12.3421 9.03346 12.5466 8.86898 12.6947C8.70451 12.8428 8.49045 12.9239 8.2691 12.9218H2.9309C2.70955 12.9239 2.49549 12.8428 2.33101 12.6947C2.16654 12.5466 2.06362 12.3421 2.0426 12.1217C1.9635 11.2243 1.8697 10.0378 1.8347 9.13274C1.80674 8.21346 1.7988 7.29367 1.8109 6.37404C1.81517 5.90711 1.82217 5.4402 1.8319 4.97334L1.834 4.88794L1.8347 4.85854L1.2929 4.84524ZM0 2.69134C0 2.39384 0.2429 2.15234 0.5418 2.15234H10.6582C10.9571 2.15234 11.2 2.39384 11.2 2.69134C11.2 2.98884 10.9571 3.23034 10.6582 3.23034H0.5418C0.470775 3.23053 0.40041 3.21671 0.33473 3.18968C0.269049 3.16265 0.209342 3.12293 0.159022 3.07281C0.108702 3.02268 0.0687562 2.96313 0.0414699 2.89755C0.0141836 2.83198 9.17633e-05 2.76167 0 2.69064V2.69134Z" />
<path fill-rule="evenodd" clip-rule="evenodd" d="M2.97702 1.0451C3.14746 0.728904 3.40035 0.464772 3.70885 0.28076C4.01734 0.0967484 4.36992 -0.000273069 4.72912 5.77258e-07H6.46372C7.19732 5.77258e-07 7.87142 0.401801 8.21652 1.0451L8.96552 2.4388C8.99884 2.50126 9.01948 2.56969 9.02625 2.64016C9.03302 2.71063 9.02579 2.78174 9.00497 2.8494C8.98415 2.91706 8.95016 2.97994 8.90494 3.03441C8.85973 3.08888 8.80419 3.13388 8.74152 3.1668C8.61487 3.23396 8.46681 3.2484 8.32957 3.20698C8.19232 3.16555 8.07698 3.07162 8.00862 2.9456L7.26032 1.5526C7.18298 1.40865 7.06806 1.28836 6.92779 1.20454C6.78751 1.12072 6.62713 1.07651 6.46372 1.0766H4.72912C4.39592 1.0766 4.08932 1.2593 3.93252 1.5526L3.18422 2.9456C3.04352 3.2081 2.71522 3.3075 2.45132 3.1675C2.18742 3.0275 2.08732 2.7013 2.22732 2.4395L2.97702 1.0451Z"/>
</svg>
