<svg width="16" height="16" viewBox="0 0 20 18" fill="none" xmlns="http://www.w3.org/2000/svg">
<path d="M13.564 10.96C14.3376 10.3985 14.9672 9.66167 15.4013 8.80999C15.8353 7.9583 16.0615 7.01592 16.0613 6.06C16.0596 4.4531 15.4204 2.91254 14.284 1.77641C13.1476 0.640285 11.6069 0.00141169 10 0C8.39333 0.0017646 6.85297 0.640794 5.71688 1.77688C4.58079 2.91297 3.94176 4.45333 3.94 6.06C3.94 8.072 4.924 9.85734 6.43733 10.96C2.67733 12.3987 0 16.044 0 20.3027C0 22.1413 1.49467 23.636 3.33333 23.636H16.6667C18.5053 23.636 20 22.1413 20 20.3027C20 16.044 17.3227 12.3987 13.5627 10.96M5.756 6.06C5.75741 4.9351 6.20509 3.85672 7.00076 3.06154C7.79644 2.26637 8.8751 1.81937 10 1.81867C11.1247 1.81973 12.203 2.26688 12.9984 3.06201C13.7938 3.85715 14.2413 4.93533 14.2427 6.06C14.2416 7.1849 13.7943 8.26342 12.9988 9.05885C12.2034 9.85427 11.1249 10.3016 10 10.3027C8.8751 10.3016 7.79658 9.85427 7.00115 9.05885C6.20573 8.26342 5.75706 7.1849 5.756 6.06ZM16.6667 21.8187H3.33333C2.49733 21.8187 1.81867 21.1387 1.81867 20.3027C1.82114 18.1336 2.68389 16.0541 4.21765 14.5203C5.75141 12.9866 7.83093 12.1238 10 12.1213C12.1691 12.1238 14.2486 12.9866 15.7823 14.5203C17.3161 16.0541 18.1789 18.1336 18.1813 20.3027C18.1813 21.1387 17.5013 21.8187 16.6667 21.8187Z" fill="#777795"/>
</svg>
