<svg width="20" height="20" viewBox="0 0 20 24" fill="none" xmlns="http://www.w3.org/2000/svg">
<g clip-path="url(#clip0_4496_9281)">
<path d="M13.564 16.96C14.3376 16.3985 14.9672 15.6617 15.4013 14.81C15.8353 13.9583 16.0615 13.0159 16.0613 12.06C16.0596 10.4531 15.4204 8.91254 14.284 7.77641C13.1476 6.64029 11.6069 6.00141 10 6C8.39333 6.00176 6.85297 6.64079 5.71688 7.77688C4.58079 8.91297 3.94176 10.4533 3.94 12.06C3.94 14.072 4.924 15.8573 6.43733 16.96C2.67733 18.3987 0 22.044 0 26.3027C0 28.1413 1.49467 29.636 3.33333 29.636H16.6667C18.5053 29.636 20 28.1413 20 26.3027C20 22.044 17.3227 18.3987 13.5627 16.96M5.756 12.06C5.75741 10.9351 6.20509 9.85672 7.00076 9.06154C7.79644 8.26637 8.8751 7.81937 10 7.81867C11.1247 7.81973 12.203 8.26688 12.9984 9.06201C13.7938 9.85715 14.2413 10.9353 14.2427 12.06C14.2416 13.1849 13.7943 14.2634 12.9988 15.0588C12.2034 15.8543 11.1249 16.3016 10 16.3027C8.8751 16.3016 7.79658 15.8543 7.00115 15.0588C6.20573 14.2634 5.75706 13.1849 5.756 12.06ZM16.6667 27.8187H3.33333C2.49733 27.8187 1.81867 27.1387 1.81867 26.3027C1.82114 24.1336 2.68389 22.0541 4.21765 20.5203C5.75141 18.9866 7.83093 18.1238 10 18.1213C12.1691 18.1238 14.2486 18.9866 15.7823 20.5203C17.3161 22.0541 18.1789 24.1336 18.1813 26.3027C18.1813 27.1387 17.5013 27.8187 16.6667 27.8187Z" fill="#54585F"/>
</g>
<defs>
<clipPath id="clip0_4496_9281">
<rect width="20" height="24" fill="white"/>
</clipPath>
</defs>
</svg>
