<svg width="25" height="25" viewBox="0 0 25 25" fill="none" xmlns="http://www.w3.org/2000/svg">
<rect x="24.65" y="24.65" width="24.3" height="24.3" rx="2.65" transform="rotate(180 24.65 24.65)" stroke="#C3C3D7" stroke-width="0.7"/>
<path fill-rule="evenodd" clip-rule="evenodd" d="M6.85997 11.3665C7.15497 11.7198 7.67997 11.7682 8.0333 11.4732L11.6666 8.44567L11.6666 18.3332C11.6666 18.7932 12.04 19.1665 12.5 19.1665C12.96 19.1665 13.3333 18.7932 13.3333 18.3332L13.3333 8.44567L16.9666 11.4732C17.3208 11.7682 17.8458 11.7198 18.14 11.3665C18.435 11.0132 18.3875 10.4873 18.0333 10.1932L13.0333 6.0265C12.9941 5.99317 12.9475 5.97734 12.9041 5.95234C12.87 5.93234 12.84 5.909 12.8025 5.894C12.705 5.85567 12.6033 5.83317 12.5 5.83317C12.3966 5.83317 12.295 5.85567 12.1975 5.894C12.16 5.909 12.13 5.93234 12.0958 5.95234C12.0525 5.97734 12.0058 5.99317 11.9666 6.02651L6.96663 10.1932C6.6133 10.4873 6.56497 11.0132 6.85997 11.3665Z" fill="#C3C3D7"/>
</svg>
