<svg width="19" height="19" viewBox="0 0 19 19" fill="none" xmlns="http://www.w3.org/2000/svg">
<path fill-rule="evenodd" clip-rule="evenodd" d="M11.8776 8.70837H10.2943V7.12504C10.2943 6.68962 9.93802 6.33337 9.5026 6.33337C9.06719 6.33337 8.71094 6.68962 8.71094 7.12504V8.70837H7.1276C6.69219 8.70837 6.33594 9.06462 6.33594 9.50004C6.33594 9.93546 6.69219 10.2917 7.1276 10.2917H8.71094V11.875C8.71094 12.3105 9.06719 12.6667 9.5026 12.6667C9.93802 12.6667 10.2943 12.3105 10.2943 11.875V10.2917H11.8776C12.313 10.2917 12.6693 9.93546 12.6693 9.50004C12.6693 9.06462 12.313 8.70837 11.8776 8.70837ZM9.5026 15.8334C6.01056 15.8334 3.16927 12.9921 3.16927 9.50004C3.16927 6.008 6.01056 3.16671 9.5026 3.16671C12.9946 3.16671 15.8359 6.008 15.8359 9.50004C15.8359 12.9921 12.9946 15.8334 9.5026 15.8334ZM9.5026 1.58337C5.13735 1.58337 1.58594 5.13479 1.58594 9.50004C1.58594 13.8653 5.13735 17.4167 9.5026 17.4167C13.8679 17.4167 17.4193 13.8653 17.4193 9.50004C17.4193 5.13479 13.8679 1.58337 9.5026 1.58337Z" fill="#095183"/>
</svg>
