<svg width="20" height="20" viewBox="0 0 20 20" fill="none" xmlns="http://www.w3.org/2000/svg">
<path fill-rule="evenodd" clip-rule="evenodd" d="M8.33333 10.8333C5.1175 10.8333 2.5 13.45 2.5 16.6667C2.5 17.1267 2.8725 17.5 3.33333 17.5C3.79417 17.5 4.16667 17.1267 4.16667 16.6667C4.16667 14.3692 6.03583 12.5 8.33333 12.5C10.6308 12.5 12.5 14.3692 12.5 16.6667C12.5 17.1267 12.8725 17.5 13.3333 17.5C13.7942 17.5 14.1667 17.1267 14.1667 16.6667C14.1667 13.45 11.5492 10.8333 8.33333 10.8333ZM6.66667 5.83333C6.66667 6.7525 7.41417 7.5 8.33333 7.5C9.2525 7.5 10 6.7525 10 5.83333C10 4.91417 9.2525 4.16667 8.33333 4.16667C7.41417 4.16667 6.66667 4.91417 6.66667 5.83333ZM5 5.83333C5 3.995 6.495 2.5 8.33333 2.5C10.1717 2.5 11.6667 3.995 11.6667 5.83333C11.6667 7.67167 10.1717 9.16667 8.33333 9.16667C6.495 9.16667 5 7.67167 5 5.83333ZM18.3333 5.83333C18.3333 6.29167 17.9583 6.66667 17.5 6.66667H16.6667V7.5C16.6667 7.95833 16.2917 8.33333 15.8333 8.33333C15.375 8.33333 15 7.95833 15 7.5V6.66667H14.1667C13.7083 6.66667 13.3333 6.29167 13.3333 5.83333C13.3333 5.375 13.7083 5 14.1667 5H15V4.16667C15 3.70833 15.375 3.33333 15.8333 3.33333C16.2917 3.33333 16.6667 3.70833 16.6667 4.16667V5H17.5C17.9583 5 18.3333 5.375 18.3333 5.83333Z" fill="#333333"/>
</svg>
