<svg width="20" height="21" viewBox="0 0 20 21" fill="none" xmlns="http://www.w3.org/2000/svg">
<path fill-rule="evenodd" clip-rule="evenodd" d="M15 16.3333H5C4.54083 16.3333 4.16667 15.96 4.16667 15.5V11.3333H5.83333V13.8333C5.83333 14.2942 6.20667 14.6667 6.66667 14.6667H13.3333C13.7933 14.6667 14.1667 14.2942 14.1667 13.8333V11.3333H15.8333V15.5C15.8333 15.96 15.4592 16.3333 15 16.3333V16.3333ZM6.95167 5.1275C7.09333 4.84333 7.37917 4.66667 7.69667 4.66667H12.3033C12.6208 4.66667 12.9067 4.84333 13.0483 5.1275L15.3183 9.66667H13.3333C12.8733 9.66667 12.5 10.0392 12.5 10.5V13H7.5V10.5C7.5 10.0392 7.12667 9.66667 6.66667 9.66667H4.68167L6.95167 5.1275ZM17.3242 9.95167L14.5392 4.38167C14.1133 3.53 13.2567 3 12.3033 3H7.69667C6.74333 3 5.88667 3.53 5.46083 4.38167L2.67583 9.95167C2.56083 10.1817 2.5 10.44 2.5 10.6967V15.5C2.5 16.8783 3.62167 18 5 18H15C16.3783 18 17.5 16.8783 17.5 15.5V10.6967C17.5 10.44 17.4392 10.1817 17.3242 9.95167V9.95167Z" fill="#333333"/>
</svg>
