<svg width="20" height="20" viewBox="0 0 20 20" fill="none" xmlns="http://www.w3.org/2000/svg">
<path fill-rule="evenodd" clip-rule="evenodd" d="M9.60301 3.24975C11.4213 1.42725 14.3555 1.09808 16.3822 2.68308C18.8097 4.58142 18.9688 8.11892 16.8597 10.2331L15.6738 11.4206C15.3463 11.7489 14.8163 11.7489 14.4888 11.4206C14.1613 11.0931 14.1613 10.5606 14.4888 10.2331L15.6738 9.04475C17.053 7.66392 16.978 5.36808 15.4472 4.08642C14.0913 2.95058 12.0563 3.16725 10.8072 4.41892L9.74634 5.48142C9.41967 5.80975 8.88801 5.80975 8.56134 5.48142C8.23384 5.15392 8.23051 4.62475 8.70884 4.14558L9.60301 3.24975ZM11.0746 7.74417L7.74126 11.0775C7.41542 11.4033 7.41542 11.93 7.74126 12.2558C7.90376 12.4183 8.11709 12.5 8.33043 12.5C8.54376 12.5 8.75709 12.4183 8.91959 12.2558L12.2529 8.9225C12.5788 8.59667 12.5788 8.07 12.2529 7.74417C11.9271 7.41833 11.4004 7.41833 11.0746 7.74417ZM10.2307 14.4971L9.16901 15.5562C7.91817 16.8037 5.87901 17.0187 4.52234 15.8879C2.98984 14.6112 2.91401 12.3229 4.29484 10.9454L5.48234 9.76208C5.80984 9.43542 5.80984 8.90542 5.48234 8.57792C5.15484 8.25208 4.62318 8.25208 4.29484 8.57792L3.23234 9.63875C1.42234 11.4437 1.10484 14.3471 2.66984 16.3671C4.56234 18.8112 8.11234 18.9762 10.2307 16.8646L11.4182 15.6812C11.7457 15.3537 11.7457 14.8246 11.4182 14.4971C11.0898 14.1696 10.559 14.1696 10.2307 14.4971Z" fill="#333333"/>
</svg>
