<svg width="20" height="20" viewBox="0 0 20 20" fill="none" xmlns="http://www.w3.org/2000/svg">
<g clip-path="url(#clip0_385_8554)">
<path d="M5.63527 2.72711C5.51387 2.48632 5.61059 2.19269 5.85137 2.07125C6.11018 1.9408 6.375 1.82264 6.64496 1.71718C6.89617 1.61914 7.17934 1.7432 7.27738 1.99441C7.37551 2.24562 7.25137 2.52875 7.00016 2.62683C6.75895 2.72106 6.52233 2.82663 6.29109 2.9432C6.23384 2.97207 6.17146 2.98939 6.10751 2.99415C6.04356 2.99892 5.9793 2.99104 5.9184 2.97097C5.8575 2.9509 5.80114 2.91903 5.75256 2.87718C5.70397 2.83533 5.66411 2.78432 5.63523 2.72707L5.63527 2.72711ZM1.52961 8.20086C1.5773 8.2155 1.62551 8.22246 1.67293 8.22246C1.88184 8.22246 2.07516 8.08734 2.13957 7.87722C2.24146 7.54545 2.36406 7.2204 2.50664 6.90398C2.6175 6.65816 2.50809 6.36902 2.26227 6.25812C2.01648 6.1473 1.72734 6.2566 1.61645 6.5025C1.45696 6.85633 1.31985 7.21983 1.20594 7.59086C1.12687 7.84871 1.27184 8.12179 1.52961 8.20086ZM3.11406 4.92824C3.20277 5.00562 3.31654 5.04819 3.43426 5.04804C3.57066 5.04804 3.70637 4.99117 3.80293 4.88015C3.99856 4.65523 4.20623 4.44108 4.42504 4.23863C4.62305 4.05554 4.63512 3.7466 4.45203 3.54863C4.26891 3.35066 3.96 3.33855 3.76203 3.52168C3.51723 3.74817 3.28488 3.98777 3.06602 4.23941C2.88906 4.44289 2.91059 4.75129 3.11406 4.92824ZM13.4424 1.75004L14.1381 1.46836C14.388 1.36715 14.5086 1.0825 14.4075 0.832536C14.3063 0.582575 14.0216 0.46195 13.7717 0.563161L11.8204 1.35316C11.7534 1.3803 11.6932 1.42199 11.6443 1.47522C11.5953 1.52844 11.5588 1.59188 11.5374 1.66094C11.5159 1.73 11.5101 1.80296 11.5203 1.87456C11.5305 1.94615 11.5564 2.01458 11.5963 2.07492L12.7567 3.83125C12.9054 4.05621 13.2082 4.11812 13.4332 3.96949C13.6582 3.82082 13.7201 3.51793 13.5715 3.29293L13.1778 2.69707C16.2162 3.968 18.2178 6.94211 18.2178 10.2785C18.2178 14.8098 14.5313 18.4962 10 18.4962C5.46875 18.4962 1.78223 14.8098 1.78223 10.2785C1.78223 10.0088 1.56359 9.79019 1.29395 9.79019C1.0243 9.79019 0.805664 10.0088 0.805664 10.2785C0.805664 12.7344 1.76203 15.0433 3.49859 16.7799C5.2352 18.5164 7.54406 19.4728 10 19.4728C12.4559 19.4728 14.7648 18.5164 16.5014 16.7799C18.238 15.0433 19.1943 12.7344 19.1943 10.2785C19.1943 6.50468 16.9051 3.14508 13.4424 1.75004ZM4.68313 6.08593L5.80746 4.96164C6.07152 4.6975 6.48848 4.65683 6.79867 4.8648L7.30797 5.20633L8.31703 4.78828L8.43562 4.18679C8.50789 3.82031 8.83145 3.55433 9.205 3.55433H10.795C11.1685 3.55433 11.4921 3.82035 11.5643 4.18679L11.6829 4.78828L12.692 5.20633L13.2012 4.86484C13.5114 4.65672 13.9284 4.69746 14.1925 4.96168L15.3168 6.0859C15.5809 6.35007 15.6216 6.76691 15.4136 7.07711L15.0721 7.58644L15.4901 8.5955L16.0916 8.7141C16.4581 8.78636 16.7241 9.10992 16.7241 9.48347V11.0735C16.7241 11.4471 16.458 11.7707 16.0915 11.8429L15.4901 11.9615L15.0721 12.9705L15.4136 13.4798C15.6216 13.79 15.5809 14.2068 15.3168 14.471L14.1925 15.5953C13.9283 15.8595 13.5114 15.9002 13.2011 15.6921L12.6919 15.3506L11.6829 15.7687L11.5643 16.3702C11.492 16.7366 11.1685 17.0027 10.7949 17.0027H9.20496C8.83141 17.0027 8.50781 16.7366 8.43559 16.3701L8.31699 15.7686L7.30797 15.3506L6.79867 15.6921C6.48836 15.9002 6.07145 15.8595 5.80738 15.5953L4.68313 14.4711C4.41898 14.2069 4.37828 13.79 4.58637 13.4798L4.92785 12.9705L4.5098 11.9615L3.90832 11.8429C3.54184 11.7707 3.27582 11.4471 3.27582 11.0735V9.48347C3.27582 9.10992 3.54187 8.78632 3.9084 8.7141L4.5098 8.5955L4.92785 7.58644L4.58633 7.07715C4.37828 6.76703 4.41898 6.35011 4.68313 6.08593ZM4.95535 9.503L4.25242 9.6416V10.9153L4.95535 11.0539C5.03426 11.0694 5.1081 11.1042 5.17032 11.1552C5.23254 11.2062 5.2812 11.2717 5.31199 11.346L5.9302 12.8383C5.96098 12.9126 5.97294 12.9934 5.96499 13.0734C5.95705 13.1535 5.92945 13.2303 5.88465 13.2971L5.48555 13.8923L6.38617 14.7929L6.98133 14.3938C7.04813 14.349 7.12497 14.3214 7.20502 14.3134C7.28507 14.3055 7.36584 14.3174 7.44016 14.3482L8.93238 14.9664C9.00669 14.9972 9.07224 15.0459 9.1232 15.1081C9.17417 15.1703 9.20898 15.2441 9.22453 15.323L9.36312 16.026H10.6368L10.7754 15.323C10.791 15.2441 10.8258 15.1703 10.8768 15.1081C10.9277 15.0459 10.9933 14.9972 11.0676 14.9664L12.5598 14.3482C12.6341 14.3174 12.7149 14.3054 12.7949 14.3133C12.875 14.3213 12.9518 14.3489 13.0186 14.3937L13.6138 14.7928L14.5145 13.8922L14.1153 13.2971C14.0705 13.2303 14.0429 13.1534 14.035 13.0733C14.027 12.9933 14.039 12.9125 14.0698 12.8382L14.688 11.3459C14.7188 11.2716 14.7674 11.2061 14.8297 11.1551C14.8919 11.1041 14.9657 11.0693 15.0446 11.0538L15.7475 10.9152V9.64152L15.0446 9.50293C14.9657 9.48737 14.8919 9.45256 14.8297 9.40159C14.7675 9.35063 14.7188 9.28508 14.688 9.21078L14.0698 7.71851C14.039 7.64419 14.027 7.56342 14.035 7.48336C14.0429 7.40331 14.0705 7.32646 14.1153 7.25965L14.5145 6.66453L13.6138 5.7639L13.0187 6.16297C12.9519 6.20776 12.875 6.23536 12.795 6.24331C12.7149 6.25126 12.6342 6.23932 12.5598 6.20855L11.0676 5.59031C10.9933 5.55953 10.9277 5.51086 10.8768 5.44864C10.8258 5.38642 10.791 5.31258 10.7754 5.23367L10.6368 4.53078H9.36312L9.22453 5.23367C9.20897 5.31258 9.17417 5.38642 9.1232 5.44864C9.07223 5.51086 9.00669 5.55952 8.93238 5.59031L7.44012 6.20855C7.3658 6.23932 7.28503 6.25125 7.20499 6.2433C7.12494 6.23535 7.0481 6.20775 6.98129 6.16297L6.38617 5.7639L5.48555 6.66453L5.88465 7.25968C5.92945 7.32649 5.95705 7.40334 5.96499 7.48338C5.97294 7.56343 5.96098 7.6442 5.9302 7.71851L5.31199 9.21078C5.28121 9.28509 5.23255 9.35064 5.17033 9.40161C5.10811 9.45257 5.03426 9.48738 4.95535 9.50293V9.503ZM6.48434 10.2785C6.48434 8.33992 8.06148 6.76277 10 6.76277C11.9386 6.76277 13.5158 8.33992 13.5158 10.2785C13.5158 12.217 11.9386 13.7942 10 13.7942C8.06145 13.7942 6.48434 12.217 6.48434 10.2785ZM7.4609 10.2785C7.4609 11.6786 8.59996 12.8176 10 12.8176C11.4001 12.8176 12.5392 11.6786 12.5392 10.2785C12.5392 8.8784 11.4002 7.73933 10 7.73933C8.59992 7.73933 7.4609 8.8784 7.4609 10.2785Z" fill="#333333"/>
</g>
<defs>
<clipPath id="clip0_385_8554">
<rect width="20" height="20" fill="white"/>
</clipPath>
</defs>
</svg>
