<svg width="20" height="20" viewBox="0 0 20 20" fill="none" xmlns="http://www.w3.org/2000/svg">
<g clip-path="url(#clip0_5361_6338)">
<path d="M2.74689 9.43633H7.29029C8.47771 9.43633 9.4438 8.47027 9.4438 7.28281V2.73945C9.4438 1.55203 8.47775 0.585938 7.29029 0.585938H2.74689C1.55947 0.585938 0.593374 1.55199 0.593374 2.73945V7.28281C0.593374 8.47027 1.55943 9.43633 2.74689 9.43633ZM1.84337 2.73945C1.84337 2.24125 2.24869 1.83594 2.74689 1.83594H7.29029C7.78849 1.83594 8.1938 2.24125 8.1938 2.73945V7.28281C8.1938 7.78102 7.78849 8.18633 7.29029 8.18633H2.74689C2.24869 8.18633 1.84337 7.78102 1.84337 7.28281V2.73945ZM17.2679 10.5637H12.7246C11.5371 10.5637 10.571 11.5297 10.571 12.7172V17.2605C10.571 18.448 11.5371 19.4141 12.7246 19.4141H17.2679C18.4554 19.4141 19.4215 18.448 19.4215 17.2605V12.7172C19.4215 11.5297 18.4554 10.5637 17.2679 10.5637ZM18.1715 17.2605C18.1715 17.7587 17.7662 18.1641 17.2679 18.1641H12.7246C12.2263 18.1641 11.821 17.7587 11.821 17.2605V12.7172C11.821 12.219 12.2263 11.8137 12.7246 11.8137H17.2679C17.7662 11.8137 18.1715 12.219 18.1715 12.7172V17.2605ZM14.9963 8.99707C17.1941 8.99707 18.9822 7.20898 18.9822 5.01113C18.9822 2.81328 17.1941 1.0252 14.9963 1.0252C12.7984 1.0252 11.0104 2.81332 11.0104 5.01113C11.0104 7.20895 12.7984 8.99707 14.9963 8.99707ZM14.9963 2.2752C16.5049 2.2752 17.7322 3.50254 17.7322 5.01113C17.7322 6.51973 16.5049 7.74707 14.9963 7.74707C13.4877 7.74707 12.2604 6.51973 12.2604 5.01113C12.2604 3.50254 13.4877 2.2752 14.9963 2.2752ZM6.35525 11.7171C6.07626 11.2339 5.57658 10.9454 5.01857 10.9454C4.46056 10.9454 3.96087 11.2339 3.68189 11.7171L0.795171 16.7171C0.516187 17.2003 0.516187 17.7773 0.79521 18.2606C1.07423 18.7438 1.57396 19.0323 2.13189 19.0323H7.90529C8.46322 19.0323 8.96294 18.7438 9.24201 18.2605C9.52099 17.7773 9.52099 17.2003 9.24201 16.7171L6.35525 11.7171ZM8.15947 17.6355C8.1024 17.7343 8.01927 17.7823 7.90525 17.7823H2.13189C2.01787 17.7823 1.93474 17.7343 1.87771 17.6355C1.82072 17.5368 1.82072 17.4408 1.87771 17.3421L4.76443 12.3421C4.82142 12.2434 4.90455 12.1954 5.01857 12.1954C5.13259 12.1954 5.21572 12.2434 5.27271 12.3421L8.15943 17.3421C8.21642 17.4408 8.21642 17.5368 8.15947 17.6355Z" />
</g>
<defs>
<clipPath id="clip0_5361_6338">
<rect width="20" height="20" fill="white"/>
</clipPath>
</defs>
</svg>
