<svg width="20" height="21" viewBox="0 0 20 21" fill="none" xmlns="http://www.w3.org/2000/svg">
<path fill-rule="evenodd" clip-rule="evenodd" d="M15.8333 16.3332C15.8333 16.7932 15.4592 17.1665 15 17.1665H5C4.54083 17.1665 4.16667 16.7932 4.16667 16.3332V7.1665C4.16667 6.7065 4.54083 6.33317 5 6.33317V7.1665C5 8.08567 5.7475 8.83317 6.66667 8.83317H13.3333C14.2525 8.83317 15 8.08567 15 7.1665V6.33317C15.4592 6.33317 15.8333 6.7065 15.8333 7.1665V16.3332ZM6.66667 3.83317L13.3333 3.83567V4.6665V7.1665H6.66667V4.6665V3.83317ZM15 4.6665V3.83317C15 2.914 14.2525 2.1665 13.3333 2.1665H6.66667C5.7475 2.1665 5 2.914 5 3.83317V4.6665C3.62167 4.6665 2.5 5.78817 2.5 7.1665V16.3332C2.5 17.7115 3.62167 18.8332 5 18.8332H15C16.3783 18.8332 17.5 17.7115 17.5 16.3332V7.1665C17.5 5.78817 16.3783 4.6665 15 4.6665Z" fill="black"/>
</svg>
