<svg width="20" height="21" viewBox="0 0 20 21" fill="none" xmlns="http://www.w3.org/2000/svg">
<path fill-rule="evenodd" clip-rule="evenodd" d="M3.33073 11.9628V15.557C3.33073 15.7553 3.5174 15.917 3.7474 15.917H16.2474C16.4774 15.917 16.6641 15.7553 16.6641 15.557V8.39866C16.6641 8.19949 16.4774 8.03866 16.2474 8.03866H9.9974C9.7474 8.03866 9.51073 7.92616 9.3524 7.73199L7.18573 5.08366H3.7474C3.5174 5.08366 3.33073 5.24449 3.33073 5.44283V11.9628ZM16.2474 17.5837H3.7474C2.59906 17.5837 1.66406 16.6745 1.66406 15.557V5.44283C1.66406 4.32533 2.59906 3.41699 3.7474 3.41699H7.58156C7.83073 3.41699 8.06823 3.52866 8.22656 3.72283L10.3924 6.37199H16.2474C17.3957 6.37199 18.3307 7.28033 18.3307 8.39866V15.557C18.3307 16.6745 17.3957 17.5837 16.2474 17.5837Z" fill="black"/>
</svg>
