<svg width="20" height="20" viewBox="0 0 20 20" fill="none" xmlns="http://www.w3.org/2000/svg">
<path fill-rule="evenodd" clip-rule="evenodd" d="M5.8309 9.16573C5.8309 8.70573 6.20423 8.3324 6.66423 8.3324C7.12423 8.3324 7.49756 8.70573 7.49756 9.16573C7.49756 9.62573 7.12423 9.99907 6.66423 9.99907C6.20423 9.99907 5.8309 9.62573 5.8309 9.16573ZM9.99756 8.3324C9.53756 8.3324 9.16423 8.70573 9.16423 9.16573C9.16423 9.62573 9.53756 9.99907 9.99756 9.99907C10.4576 9.99907 10.8309 9.62573 10.8309 9.16573C10.8309 8.70573 10.4576 8.3324 9.99756 8.3324ZM13.3309 8.3324C12.8709 8.3324 12.4976 8.70573 12.4976 9.16573C12.4976 9.62573 12.8709 9.99907 13.3309 9.99907C13.7909 9.99907 14.1642 9.62573 14.1642 9.16573C14.1642 8.70573 13.7909 8.3324 13.3309 8.3324ZM16.5796 10.2448C16.1571 12.9565 13.9712 15.2057 11.2637 15.7132C9.95623 15.9598 8.62456 15.819 7.41623 15.3073C7.07373 15.1623 6.71956 15.089 6.37206 15.089C6.21373 15.089 6.05706 15.104 5.9029 15.1348L3.55956 15.6032L4.02873 13.2557C4.12706 12.7682 4.06706 12.2465 3.85623 11.7473C3.34456 10.539 3.20456 9.20815 3.4504 7.89982C3.9579 5.19232 6.20623 3.00648 8.91873 2.58398V2.58398C11.0771 2.24815 13.1879 2.92815 14.7112 4.45148C16.2354 5.97565 16.9162 8.08732 16.5796 10.2448M15.8904 3.27315C13.9862 1.36982 11.3529 0.520651 8.66206 0.936484C5.26456 1.46648 2.4479 4.20315 1.81206 7.59232C1.5054 9.22398 1.68206 10.8856 2.32123 12.3965C2.40206 12.589 2.42706 12.7681 2.3954 12.929L1.6804 16.5023C1.6254 16.7756 1.71123 17.0581 1.90873 17.2548C2.06623 17.4131 2.27873 17.499 2.4979 17.499C2.55206 17.499 2.60623 17.494 2.66123 17.4831L6.2304 16.769C6.4354 16.7298 6.63373 16.7873 6.76623 16.8423C8.27873 17.4815 9.9404 17.6573 11.5704 17.3515C14.9604 16.7156 17.6971 13.899 18.2271 10.5015C18.6454 7.81232 17.7946 5.17732 15.8904 3.27315" fill="#333333"/>
</svg>
