<svg width="20" height="20" viewBox="0 0 15 15" fill="none" xmlns="http://www.w3.org/2000/svg">
<path fill-rule="evenodd" clip-rule="evenodd" d="M8.38391 7.49991L11.067 4.81679C11.3114 4.57241 11.3114 4.17741 11.067 3.93304C10.8227 3.68866 10.4277 3.68866 10.1833 3.93304L7.50016 6.61616L4.81703 3.93304C4.57266 3.68866 4.17766 3.68866 3.93328 3.93304C3.68891 4.17741 3.68891 4.57241 3.93328 4.81679L6.61641 7.49991L3.93328 10.183C3.68891 10.4274 3.68891 10.8224 3.93328 11.0668C4.05516 11.1887 4.21516 11.2499 4.37516 11.2499C4.53516 11.2499 4.69516 11.1887 4.81703 11.0668L7.50016 8.38366L10.1833 11.0668C10.3052 11.1887 10.4652 11.2499 10.6252 11.2499C10.7852 11.2499 10.9452 11.1887 11.067 11.0668C11.3114 10.8224 11.3114 10.4274 11.067 10.183L8.38391 7.49991Z" fill="#333333"/>
</svg>
