<svg width="20" height="20" viewBox="0 0 20 20" fill="none" xmlns="http://www.w3.org/2000/svg">
<path fill-rule="evenodd" clip-rule="evenodd" d="M2.29285 13.6315C2.13642 13.6599 1.99768 13.7493 1.90708 13.8799C1.81648 14.0106 1.78144 14.1718 1.80965 14.3283C1.98245 15.2779 2.30085 16.0467 2.90725 16.6683C3.60805 17.3875 4.50325 17.7131 5.63525 17.8691C6.73925 18.0211 8.15285 18.0211 9.95365 18.0211H10.0472C11.8472 18.0211 13.2608 18.0211 14.3648 17.8691C15.4968 17.7131 16.392 17.3867 17.0928 16.6691C17.6992 16.0467 18.0184 15.2771 18.1904 14.3283C18.2189 14.1717 18.1839 14.0102 18.0933 13.8794C18.0027 13.7486 17.8638 13.6591 17.7072 13.6307C17.5507 13.6023 17.3892 13.6372 17.2584 13.7278C17.1275 13.8184 17.0381 13.9573 17.0096 14.1139C16.864 14.9147 16.6208 15.4339 16.2336 15.8307C15.792 16.2835 15.1952 16.5427 14.2016 16.6803C13.1888 16.8195 11.8576 16.8211 10 16.8211C8.14245 16.8211 6.81125 16.8195 5.79925 16.6803C4.80565 16.5435 4.20805 16.2835 3.76645 15.8307C3.37925 15.4339 3.13605 14.9147 2.99045 14.1139C2.97638 14.0364 2.94717 13.9624 2.9045 13.8961C2.86182 13.8299 2.80652 13.7727 2.74174 13.7278C2.67696 13.6829 2.60397 13.6513 2.52695 13.6346C2.44993 13.6179 2.37038 13.6166 2.29285 13.6307V13.6315ZM1.80005 9.83949V9.84349C1.80005 10.3907 1.80005 10.9555 1.80405 11.4259C1.80532 11.585 1.86976 11.7371 1.98318 11.8488C2.0966 11.9604 2.24972 12.0224 2.40885 12.0211C2.56798 12.0198 2.72009 11.9554 2.83171 11.842C2.94333 11.7285 3.00532 11.5754 3.00405 11.4163C3.00005 10.9507 3.00005 10.3915 3.00005 9.84189C3.00005 9.29229 3.00005 8.68349 3.00405 8.21789C3.00473 8.1391 2.98989 8.06094 2.96037 7.98789C2.93084 7.91483 2.88722 7.8483 2.83199 7.79211C2.77676 7.73591 2.711 7.69114 2.63846 7.66036C2.56593 7.62957 2.48804 7.61338 2.40925 7.61269C2.33046 7.61201 2.2523 7.62685 2.17924 7.65638C2.10619 7.6859 2.03966 7.72952 1.98346 7.78475C1.92726 7.83998 1.88249 7.90575 1.85171 7.97828C1.82093 8.05081 1.80473 8.1287 1.80405 8.20749C1.80005 8.67869 1.80005 9.29229 1.80005 9.83949ZM2.49205 5.85949C2.64841 5.88848 2.80988 5.8542 2.94099 5.7642C3.0721 5.6742 3.16211 5.53583 3.19125 5.37949C3.33205 4.62189 3.56565 4.13389 3.93765 3.76109C4.30965 3.38829 4.79605 3.15309 5.55045 3.01229C5.62964 2.99976 5.70552 2.97148 5.7736 2.92912C5.84169 2.88677 5.90059 2.8312 5.94683 2.76569C5.99307 2.70019 6.02571 2.62608 6.04283 2.54775C6.05994 2.46942 6.06118 2.38845 6.04648 2.30963C6.03177 2.23081 6.00142 2.15573 5.95721 2.08884C5.913 2.02195 5.85583 1.9646 5.78908 1.92018C5.72233 1.87575 5.64735 1.84516 5.56858 1.8302C5.48981 1.81524 5.40884 1.81623 5.33045 1.83309C4.42165 2.00269 3.68405 2.31629 3.08805 2.91309C2.49285 3.51069 2.18005 4.24989 2.01125 5.16029C1.98226 5.31666 2.01654 5.47813 2.10654 5.60923C2.19655 5.74034 2.33572 5.83035 2.49205 5.85949ZM7.88005 2.22989C7.88068 2.30876 7.89684 2.38672 7.92763 2.45933C7.95841 2.53194 8.00321 2.59776 8.05946 2.65304C8.1157 2.70832 8.18229 2.75197 8.25542 2.78149C8.32855 2.81102 8.40679 2.82583 8.48565 2.82509C8.94965 2.82109 9.45205 2.82109 10 2.82109C10.548 2.82109 11.0504 2.82109 11.5152 2.82509C11.6744 2.82647 11.8275 2.76458 11.941 2.65303C12.0545 2.54149 12.1191 2.38942 12.1204 2.23029C12.1218 2.07116 12.0599 1.918 11.9484 1.80451C11.8368 1.69101 11.6848 1.62647 11.5256 1.62509C11.0552 1.62109 10.548 1.62109 10.0016 1.62109H9.99845C9.45285 1.62109 8.94485 1.62109 8.47525 1.62509C8.39645 1.62572 8.31856 1.64186 8.246 1.6726C8.17345 1.70333 8.10765 1.74806 8.05238 1.80422C7.99711 1.86038 7.95345 1.92688 7.92388 1.99992C7.89431 2.07295 7.87942 2.1511 7.88005 2.22989ZM13.9704 2.31309C13.9415 2.46946 13.9757 2.63093 14.0657 2.76203C14.1557 2.89314 14.2941 2.98315 14.4504 3.01229C15.2048 3.15309 15.6904 3.38829 16.0624 3.76109C16.4344 4.13389 16.6688 4.62189 16.8088 5.37869C16.8378 5.53517 16.9277 5.67373 17.0589 5.7639C17.19 5.85407 17.3516 5.88846 17.508 5.85949C17.6645 5.83053 17.8031 5.7406 17.8933 5.60947C17.9834 5.47835 18.0178 5.31677 17.9888 5.16029C17.8208 4.24989 17.5072 3.51069 16.912 2.91389C16.316 2.31629 15.5784 2.00189 14.6704 1.83309C14.593 1.81863 14.5134 1.81957 14.4363 1.83586C14.3592 1.85216 14.286 1.88349 14.221 1.92806C14.156 1.97264 14.1004 2.02958 14.0574 2.09565C14.0144 2.16172 13.9849 2.2356 13.9704 2.31309ZM17.5912 7.61229C17.5124 7.61292 17.4344 7.62909 17.3618 7.65987C17.2892 7.69066 17.2234 7.73545 17.1681 7.7917C17.1128 7.84795 17.0692 7.91454 17.0396 7.98767C17.0101 8.0608 16.9953 8.13903 16.996 8.21789C17 8.68349 17 9.29229 17 9.84189C17 10.3915 17 10.9507 16.996 11.4163C16.9948 11.5754 17.0568 11.7285 17.1684 11.842C17.28 11.9554 17.4321 12.0198 17.5912 12.0211C17.7504 12.0224 17.9035 11.9604 18.0169 11.8488C18.1303 11.7371 18.1948 11.585 18.196 11.4259C18.2 10.9555 18.2 10.3915 18.2 9.84429V9.84029C18.2 9.29309 18.2 8.67869 18.196 8.20749C18.1954 8.1287 18.1793 8.0508 18.1485 7.97825C18.1178 7.90569 18.0731 7.8399 18.0169 7.78463C17.9608 7.72936 17.8943 7.68569 17.8212 7.65612C17.7482 7.62655 17.67 7.61166 17.5912 7.61229Z" />
<path fill-rule="evenodd" clip-rule="evenodd" d="M1.80005 9.82148C1.80005 9.66235 1.86326 9.50974 1.97578 9.39722C2.08831 9.2847 2.24092 9.22148 2.40005 9.22148H3.60005C3.75918 9.22148 3.91179 9.2847 4.02431 9.39722C4.13683 9.50974 4.20005 9.66235 4.20005 9.82148C4.20005 9.98061 4.13683 10.1332 4.02431 10.2457C3.91179 10.3583 3.75918 10.4215 3.60005 10.4215H2.40005C2.24092 10.4215 2.08831 10.3583 1.97578 10.2457C1.86326 10.1332 1.80005 9.98061 1.80005 9.82148ZM7.00005 9.82148C7.00005 9.66235 7.06326 9.50974 7.17578 9.39722C7.28831 9.2847 7.44092 9.22148 7.60005 9.22148H9.40005V7.42148C9.40005 7.26235 9.46326 7.10974 9.57578 6.99722C9.68831 6.8847 9.84092 6.82148 10 6.82148C10.1592 6.82148 10.3118 6.8847 10.4243 6.99722C10.5368 7.10974 10.6 7.26235 10.6 7.42148V9.22148H12.4C12.5592 9.22148 12.7118 9.2847 12.8243 9.39722C12.9368 9.50974 13 9.66235 13 9.82148C13 9.98061 12.9368 10.1332 12.8243 10.2457C12.7118 10.3583 12.5592 10.4215 12.4 10.4215H10.6V12.2215C10.6 12.3806 10.5368 12.5332 10.4243 12.6457C10.3118 12.7583 10.1592 12.8215 10 12.8215C9.84092 12.8215 9.68831 12.7583 9.57578 12.6457C9.46326 12.5332 9.40005 12.3806 9.40005 12.2215V10.4215H7.60005C7.44092 10.4215 7.28831 10.3583 7.17578 10.2457C7.06326 10.1332 7.00005 9.98061 7.00005 9.82148ZM10 4.39668C9.84092 4.39668 9.68831 4.33347 9.57578 4.22095C9.46326 4.10843 9.40005 3.95581 9.40005 3.79668V2.62148C9.40005 2.46235 9.46326 2.30974 9.57578 2.19722C9.68831 2.0847 9.84092 2.02148 10 2.02148C10.1592 2.02148 10.3118 2.0847 10.4243 2.19722C10.5368 2.30974 10.6 2.46235 10.6 2.62148V3.79668C10.6 3.95581 10.5368 4.10843 10.4243 4.22095C10.3118 4.33347 10.1592 4.39668 10 4.39668ZM15.8 9.82148C15.8 9.66235 15.8633 9.50974 15.9758 9.39722C16.0883 9.2847 16.2409 9.22148 16.4 9.22148H17.6C17.7592 9.22148 17.9118 9.2847 18.0243 9.39722C18.1368 9.50974 18.2 9.66235 18.2 9.82148C18.2 9.98061 18.1368 10.1332 18.0243 10.2457C17.9118 10.3583 17.7592 10.4215 17.6 10.4215H16.4C16.2409 10.4215 16.0883 10.3583 15.9758 10.2457C15.8633 10.1332 15.8 9.98061 15.8 9.82148Z" />
</svg>
