<svg width="20" height="21" viewBox="0 0 20 21" fill="none" xmlns="http://www.w3.org/2000/svg">
<path fill-rule="evenodd" clip-rule="evenodd" d="M8.33073 13.8333C8.33073 14.2917 7.95573 14.6667 7.4974 14.6667C7.03906 14.6667 6.66406 14.2917 6.66406 13.8333V10.5C6.66406 10.0417 7.03906 9.66667 7.4974 9.66667C7.95573 9.66667 8.33073 10.0417 8.33073 10.5V13.8333ZM13.3307 13.8333C13.3307 14.2917 12.9557 14.6667 12.4974 14.6667C12.0391 14.6667 11.6641 14.2917 11.6641 13.8333V10.5C11.6641 10.0417 12.0391 9.66667 12.4974 9.66667C12.9557 9.66667 13.3307 10.0417 13.3307 10.5V13.8333ZM14.9974 16.3333C14.9974 16.7925 14.6241 17.1667 14.1641 17.1667H5.83073C5.37073 17.1667 4.9974 16.7925 4.9974 16.3333V7.16667H14.9974V16.3333ZM8.33073 4.10667C8.33073 3.9775 8.50906 3.83333 8.7474 3.83333H11.2474C11.4857 3.83333 11.6641 3.9775 11.6641 4.10667V5.5H8.33073V4.10667ZM17.4974 5.5H16.6641H13.3307V4.10667C13.3307 3.03667 12.3966 2.16667 11.2474 2.16667H8.7474C7.59823 2.16667 6.66406 3.03667 6.66406 4.10667V5.5H3.33073H2.4974C2.03906 5.5 1.66406 5.875 1.66406 6.33333C1.66406 6.79167 2.03906 7.16667 2.4974 7.16667H3.33073V16.3333C3.33073 17.7117 4.4524 18.8333 5.83073 18.8333H14.1641C15.5424 18.8333 16.6641 17.7117 16.6641 16.3333V7.16667H17.4974C17.9557 7.16667 18.3307 6.79167 18.3307 6.33333C18.3307 5.875 17.9557 5.5 17.4974 5.5Z" fill="#333333"/>
</svg>
