<svg width="25" height="25" viewBox="0 0 25 25" fill="none" xmlns="http://www.w3.org/2000/svg">
<rect x="0.5" y="0.5" width="24" height="24" rx="12" stroke="#ABABBE"/>
<path fill-rule="evenodd" clip-rule="evenodd" d="M12.4974 6.125C13.2794 6.125 13.9141 6.75967 13.9141 7.54167C13.9141 8.32367 13.2794 8.95833 12.4974 8.95833C11.7154 8.95833 11.0807 8.32367 11.0807 7.54167C11.0807 6.75967 11.7154 6.125 12.4974 6.125ZM13.9141 12.5C13.9141 11.718 13.2794 11.0833 12.4974 11.0833C11.7154 11.0833 11.0807 11.718 11.0807 12.5C11.0807 13.282 11.7154 13.9167 12.4974 13.9167C13.2794 13.9167 13.9141 13.282 13.9141 12.5ZM13.9141 17.4583C13.9141 16.6763 13.2794 16.0417 12.4974 16.0417C11.7154 16.0417 11.0807 16.6763 11.0807 17.4583C11.0807 18.2403 11.7154 18.875 12.4974 18.875C13.2794 18.875 13.9141 18.2403 13.9141 17.4583Z" fill="#333333"/>
</svg>
