<svg width="24" height="24" viewBox="0 0 24 24" fill="none" xmlns="http://www.w3.org/2000/svg">
<path d="M10.1253 22.125C9.92639 22.125 9.73562 22.046 9.59497 21.9053C9.45432 21.7647 9.3753 21.5739 9.3753 21.375V14.1638L2.4228 6.5175C2.14911 6.21591 1.96885 5.84136 1.90389 5.43931C1.83893 5.03727 1.89206 4.62501 2.05684 4.25257C2.22162 3.88013 2.49095 3.56353 2.83216 3.34119C3.17338 3.11885 3.57179 3.00032 3.97905 3H20.0215C20.4288 3.00032 20.8272 3.11885 21.1684 3.34119C21.5096 3.56353 21.779 3.88013 21.9438 4.25257C22.1085 4.62501 22.1617 5.03727 22.0967 5.43931C22.0317 5.84136 21.8515 6.21591 21.5778 6.5175L14.6253 14.1638V18.375C14.6252 18.4873 14.5999 18.5982 14.5512 18.6995C14.5026 18.8008 14.4318 18.8898 14.344 18.96L10.594 21.96C10.4611 22.0667 10.2958 22.1249 10.1253 22.125ZM3.97905 4.5C3.86234 4.50029 3.74822 4.5344 3.6505 4.5982C3.55277 4.66201 3.47564 4.75276 3.42842 4.85949C3.3812 4.96622 3.36594 5.08435 3.38446 5.19958C3.40298 5.31481 3.45451 5.4222 3.5328 5.50875L10.6803 13.3837C10.8028 13.5184 10.8721 13.693 10.8753 13.875V19.815L13.1253 18V13.875C13.1249 13.6878 13.1944 13.5073 13.3203 13.3688L20.4678 5.49375C20.5414 5.40681 20.5889 5.30081 20.6049 5.188C20.6208 5.07519 20.6045 4.96018 20.5578 4.85625C20.5112 4.75232 20.436 4.66372 20.3411 4.60068C20.2462 4.53764 20.1354 4.50273 20.0215 4.5H3.97905Z" fill="#333333"/>
</svg>
