<svg width="20" height="20" viewBox="0 0 20 20" fill="none" xmlns="http://www.w3.org/2000/svg">
<path fill-rule="evenodd" clip-rule="evenodd" d="M2.5 10C2.5 9.08 3.24667 8.33333 4.16667 8.33333C5.08667 8.33333 5.83333 9.08 5.83333 10C5.83333 10.92 5.08667 11.6667 4.16667 11.6667C3.24667 11.6667 2.5 10.92 2.5 10ZM10 8.33333C9.08 8.33333 8.33333 9.08 8.33333 10C8.33333 10.92 9.08 11.6667 10 11.6667C10.92 11.6667 11.6667 10.92 11.6667 10C11.6667 9.08 10.92 8.33333 10 8.33333ZM15.8333 8.33333C14.9133 8.33333 14.1667 9.08 14.1667 10C14.1667 10.92 14.9133 11.6667 15.8333 11.6667C16.7533 11.6667 17.5 10.92 17.5 10C17.5 9.08 16.7533 8.33333 15.8333 8.33333Z" fill="#333333"/>
</svg>
