<svg width="20" height="20" viewBox="0 0 20 20" fill="none" xmlns="http://www.w3.org/2000/svg">
<path fill-rule="evenodd" clip-rule="evenodd" d="M9.84823 12.9216C9.98906 12.9216 10.1307 12.9574 10.2582 13.0291L14.1641 15.2382V4.44492C14.1641 4.27742 14.0632 4.16658 13.9974 4.16658H5.9974C5.93073 4.16658 5.83073 4.27742 5.83073 4.44492V15.1949L9.41906 13.0407C9.55156 12.9616 9.6999 12.9216 9.84823 12.9216ZM4.9974 17.4999C4.85573 17.4999 4.71406 17.4641 4.58656 17.3916C4.32573 17.2441 4.16406 16.9666 4.16406 16.6666V4.44492C4.16406 3.37242 4.98656 2.49992 5.9974 2.49992H13.9974C15.0082 2.49992 15.8307 3.37242 15.8307 4.44492V16.6666C15.8307 16.9633 15.6732 17.2374 15.4174 17.3866C15.1607 17.5366 14.8457 17.5391 14.5874 17.3924L9.86073 14.7191L5.42573 17.3816C5.29406 17.4599 5.14573 17.4999 4.9974 17.4999Z" fill="#333333"/>
</svg>
