<svg width="20" height="23" viewBox="0 0 20 23" fill="none" xmlns="http://www.w3.org/2000/svg">
<path fill-rule="evenodd" clip-rule="evenodd" d="M11.1461 0.296074C10.4331 -0.0986913 9.56702 -0.0986913 8.85329 0.296074C6.30924 1.70422 3.76511 3.11222 1.22089 4.52006C0.869672 4.71461 0.57367 4.99525 0.360694 5.33561C0.147718 5.67597 0.0247575 6.06489 0.00336489 6.46582C-0.0180277 6.86676 0.0628493 7.26655 0.238398 7.62764C0.413947 7.98873 0.678406 8.29927 1.00693 8.53009L8.63853 13.8902C9.03722 14.1702 9.51253 14.3204 9.99969 14.3204C10.4868 14.3204 10.9622 14.1702 11.3608 13.8902C13.0425 12.7083 16.6823 10.1534 18.9924 8.5293C19.3211 8.29852 19.5858 7.98794 19.7614 7.62676C19.9371 7.26559 20.018 6.86567 19.9966 6.46462C19.9752 6.06356 19.8522 5.67452 19.6391 5.33409C19.426 4.99365 19.1299 4.71299 18.7785 4.51848L11.1461 0.296074ZM10.3818 1.67775L18.0142 5.90174C18.1313 5.96662 18.2299 6.06018 18.3009 6.17365C18.3719 6.28711 18.4128 6.41676 18.4199 6.5504C18.427 6.68404 18.4 6.8173 18.3415 6.93765C18.283 7.058 18.1948 7.1615 18.0853 7.23842L10.4537 12.5978C10.3206 12.691 10.1621 12.741 9.99969 12.741C9.83724 12.741 9.67874 12.691 9.54571 12.5978L1.91331 7.23684C1.80397 7.15989 1.71596 7.05643 1.65754 6.93616C1.59912 6.81589 1.57219 6.68276 1.57929 6.54924C1.5864 6.41572 1.62729 6.28619 1.69814 6.1728C1.76899 6.05941 1.86748 5.96587 1.98437 5.90095L9.61755 1.67696C9.73453 1.61227 9.86601 1.57833 9.99969 1.57833C10.1334 1.57833 10.2648 1.61305 10.3818 1.67775Z" fill="#333333"/>
<path fill-rule="evenodd" clip-rule="evenodd" d="M0.468562 15.9223L8.63863 21.6606C9.03731 21.9406 9.51262 22.0908 9.99978 22.0908C10.4869 22.0908 10.9622 21.9406 11.3609 21.6606L19.5318 15.9223C19.6994 15.8005 19.8124 15.6176 19.8464 15.4132C19.8804 15.2088 19.8327 14.9992 19.7135 14.8296C19.5943 14.6601 19.4133 14.5442 19.2094 14.507C19.0055 14.4698 18.7952 14.5142 18.6238 14.6306L10.4538 20.369C10.3207 20.4622 10.1622 20.5122 9.99978 20.5122C9.83733 20.5122 9.67883 20.4622 9.5458 20.369L1.37494 14.6306C1.20348 14.5174 0.994632 14.4755 0.792765 14.5138C0.590897 14.5521 0.411912 14.6676 0.293821 14.8357C0.175731 15.0039 0.127841 15.2114 0.160321 15.4143C0.192801 15.6172 0.303093 15.7994 0.467773 15.9223H0.468562Z" fill="#333333"/>
<path fill-rule="evenodd" clip-rule="evenodd" d="M0.468562 11.9809L8.63863 17.7192C9.03731 17.9992 9.51262 18.1494 9.99978 18.1494C10.4869 18.1494 10.9622 17.9992 11.3609 17.7192L19.5318 11.9809C19.6994 11.8591 19.8124 11.6762 19.8464 11.4718C19.8804 11.2674 19.8327 11.0578 19.7135 10.8882C19.5943 10.7187 19.4133 10.6028 19.2094 10.5656C19.0055 10.5284 18.7952 10.5728 18.6238 10.6892L10.4538 16.4275C10.3207 16.5208 10.1622 16.5708 9.99978 16.5708C9.83733 16.5708 9.67883 16.5208 9.5458 16.4275L1.37494 10.6892C1.20348 10.576 0.994632 10.5341 0.792765 10.5724C0.590897 10.6107 0.411912 10.7262 0.293821 10.8943C0.175731 11.0625 0.127841 11.27 0.160321 11.4729C0.192801 11.6758 0.303093 11.858 0.467773 11.9809H0.468562Z" fill="#333333"/>
</svg>
