<svg width="26" height="26" viewBox="0 0 26 26" fill="none" xmlns="http://www.w3.org/2000/svg">
<path d="M22.7448 14.0832H11.9115C11.2615 14.0832 10.8281 13.6498 10.8281 12.9998C10.8281 12.3498 11.2615 11.9165 11.9115 11.9165H22.7448C23.3948 11.9165 23.8281 12.3498 23.8281 12.9998C23.8281 13.6498 23.3948 14.0832 22.7448 14.0832Z" />
<path d="M19.4974 17.3332C19.1724 17.3332 18.9557 17.2248 18.7391 17.0082C18.3057 16.5748 18.3057 15.9248 18.7391 15.4915L21.2307 12.9998L18.7391 10.5082C18.3057 10.0748 18.3057 9.42484 18.7391 8.9915C19.1724 8.55817 19.8224 8.55817 20.2557 8.9915L23.5057 12.2415C23.9391 12.6748 23.9391 13.3248 23.5057 13.7582L20.2557 17.0082C20.0391 17.2248 19.8224 17.3332 19.4974 17.3332ZM5.41406 16.2498C4.5474 16.2498 3.68073 15.9248 3.13906 15.2748C2.5974 14.6248 2.16406 13.8665 2.16406 12.9998C2.16406 12.1332 2.48906 11.2665 3.13906 10.7248C4.33073 9.42484 6.4974 9.42484 7.68906 10.7248C8.33906 11.2665 8.66406 12.1332 8.66406 12.9998C8.66406 13.8665 8.33906 14.7332 7.68906 15.2748C7.03906 15.8165 6.28073 16.2498 5.41406 16.2498ZM5.41406 11.9165C5.08906 11.9165 4.8724 12.0248 4.65573 12.2415C4.43906 12.4582 4.33073 12.6748 4.33073 12.9998C4.33073 13.3248 4.43906 13.5415 4.65573 13.7582C5.08906 14.1915 5.73906 14.1915 6.1724 13.7582C6.38906 13.5415 6.4974 13.3248 6.4974 12.9998C6.4974 12.6748 6.38906 12.4582 6.1724 12.2415C5.95573 12.0248 5.73906 11.9165 5.41406 11.9165Z" />
</svg>
