<svg width="25" height="25" viewBox="0 0 25 25" fill="none" xmlns="http://www.w3.org/2000/svg">
<path d="M23.2583 20.6821C22.9276 18.8699 22.1437 17.171 20.9798 15.7432C19.8158 14.3155 18.3096 13.2055 16.6013 12.5164C17.5619 11.6809 18.2445 10.5719 18.5577 9.33784C18.8709 8.10378 18.7997 6.8035 18.3536 5.611C17.9076 4.4185 17.108 3.39066 16.0619 2.66502C15.0157 1.93937 13.7729 1.55054 12.4997 1.55054C11.2265 1.55054 9.98371 1.93937 8.93756 2.66502C7.89141 3.39066 7.09182 4.4185 6.64579 5.611C6.19976 6.8035 6.12857 8.10378 6.44173 9.33784C6.75489 10.5719 7.43748 11.6809 8.39815 12.5164C6.68982 13.2055 5.18359 14.3155 4.01964 15.7432C2.85569 17.171 2.07186 18.8699 1.74112 20.6821C1.67963 21.0175 1.69291 21.3625 1.78001 21.6922C1.86711 22.022 2.02589 22.3285 2.24503 22.5899C2.4656 22.8553 2.74194 23.0688 3.0544 23.2153C3.36685 23.3618 3.70774 23.4377 4.05284 23.4375H20.9466C21.2917 23.4377 21.6326 23.3618 21.945 23.2153C22.2575 23.0688 22.5338 22.8553 22.7544 22.5899C22.9735 22.3285 23.1323 22.022 23.2194 21.6922C23.3065 21.3625 23.3198 21.0175 23.2583 20.6821ZM7.81221 7.81253C7.81221 6.88543 8.08713 5.97915 8.6022 5.20829C9.11727 4.43744 9.84936 3.83663 10.7059 3.48184C11.5624 3.12706 12.5049 3.03423 13.4142 3.2151C14.3235 3.39596 15.1587 3.84241 15.8143 4.49796C16.4698 5.15352 16.9163 5.98876 17.0971 6.89804C17.278 7.80733 17.1852 8.74983 16.8304 9.60636C16.4756 10.4629 15.8748 11.195 15.104 11.71C14.3331 12.2251 13.4268 12.5 12.4997 12.5C11.2569 12.4988 10.0653 12.0045 9.18652 11.1257C8.30771 10.2469 7.81346 9.05535 7.81221 7.81253ZM12.7521 14.0625L13.9239 16.9992L12.4997 18.4266L11.0732 16.9992L12.2474 14.0625H12.7521ZM21.5544 21.5891C21.4803 21.6785 21.3875 21.7505 21.2824 21.7999C21.1774 21.8493 21.0627 21.875 20.9466 21.875H4.05284C3.93674 21.875 3.82208 21.8493 3.71702 21.7999C3.61197 21.7505 3.5191 21.6785 3.44503 21.5891C3.37262 21.5038 3.32001 21.4035 3.29097 21.2954C3.26193 21.1874 3.25718 21.0742 3.27706 20.9641C3.59815 19.2108 4.41335 17.5857 5.62673 16.28C6.84011 14.9743 8.40119 14.0423 10.1263 13.5938C10.3054 13.6672 10.4877 13.7326 10.6732 13.7899L9.62003 16.4219C9.50665 16.7057 9.47901 17.0166 9.54053 17.316C9.60204 17.6154 9.75001 17.8901 9.96612 18.1063L11.395 19.5313C11.688 19.8242 12.0854 19.9888 12.4997 19.9888C12.914 19.9888 13.3114 19.8242 13.6044 19.5313L15.0325 18.1039C15.2487 17.8876 15.3966 17.6127 15.458 17.3132C15.5193 17.0136 15.4915 16.7026 15.3778 16.4188L14.3255 13.7875C14.5114 13.7302 14.6937 13.6649 14.8724 13.5914C16.5976 14.0401 18.1587 14.9721 19.3721 16.278C20.5855 17.5838 21.4006 19.2091 21.7216 20.9625C21.7418 21.0728 21.7373 21.1862 21.7084 21.2946C21.6795 21.4029 21.6269 21.5035 21.5544 21.5891Z" fill="#333333"/>
</svg>
