<svg width="20" height="20" viewBox="0 0 20 20" fill="none" xmlns="http://www.w3.org/2000/svg">
<path fill-rule="evenodd" clip-rule="evenodd" d="M15.8359 9.16634H10.8359V4.16634C10.8359 3.70551 10.4626 3.33301 10.0026 3.33301C9.5426 3.33301 9.16927 3.70551 9.16927 4.16634V9.16634H4.16927C3.70927 9.16634 3.33594 9.53884 3.33594 9.99967C3.33594 10.4605 3.70927 10.833 4.16927 10.833H9.16927V15.833C9.16927 16.2938 9.5426 16.6663 10.0026 16.6663C10.4626 16.6663 10.8359 16.2938 10.8359 15.833V10.833H15.8359C16.2959 10.833 16.6693 10.4605 16.6693 9.99967C16.6693 9.53884 16.2959 9.16634 15.8359 9.16634" fill="#1DA0D6"/>
</svg>
