<svg width="25" height="25" viewBox="0 0 25 25" fill="none" xmlns="http://www.w3.org/2000/svg">
<rect x="0.5" y="0.5" width="24" height="24" rx="12" fill="#FBFBFB"/>
<rect x="0.5" y="0.5" width="24" height="24" rx="12" stroke="#1DA0D6"/>
<path fill-rule="evenodd" clip-rule="evenodd" d="M17.4609 11.7917H13.2109V7.54167C13.2109 7.14996 12.8936 6.83333 12.5026 6.83333C12.1116 6.83333 11.7943 7.14996 11.7943 7.54167V11.7917H7.54427C7.15327 11.7917 6.83594 12.1083 6.83594 12.5C6.83594 12.8917 7.15327 13.2083 7.54427 13.2083H11.7943V17.4583C11.7943 17.85 12.1116 18.1667 12.5026 18.1667C12.8936 18.1667 13.2109 17.85 13.2109 17.4583V13.2083H17.4609C17.8519 13.2083 18.1693 12.8917 18.1693 12.5C18.1693 12.1083 17.8519 11.7917 17.4609 11.7917" fill="#1DA0D6"/>
</svg>
