<svg width="16" height="16" viewBox="0 0 16 16" fill="none" xmlns="http://www.w3.org/2000/svg">
<path fill-rule="evenodd" clip-rule="evenodd" d="M6.96673 7.66667C9.34206 7.66667 11.4847 8.756 12.8401 10.506C12.2167 7.92667 9.82006 6 6.96673 6C6.59806 6 6.30006 5.702 6.30006 5.33333V4.05133L3.08406 6.834L6.30006 9.642V8.33333C6.30006 7.96467 6.59806 7.66667 6.96673 7.66667ZM13.4781 14C13.1707 14 12.9027 13.79 12.8301 13.4913C12.2367 11.0587 10.1494 9.30133 7.6334 9.03533V9.78266C7.6334 10.2533 7.35406 10.6727 6.90473 10.876C6.4174 11.098 5.84873 11.018 5.4534 10.6733L2.07606 7.724C1.81406 7.49467 1.66406 7.17 1.66406 6.83333C1.66406 6.49667 1.81406 6.172 2.07606 5.94267L5.4534 2.99333C5.84873 2.64867 6.4174 2.56867 6.90473 2.79067C7.35406 2.994 7.6334 3.41333 7.6334 3.884V4.696C11.3827 5.02467 14.3307 8.1 14.3307 11.8333C14.3307 12.3733 14.2614 12.9307 14.1254 13.4907C14.0534 13.79 13.7861 14 13.4781 14Z" fill="#5A6376"/>
</svg>
