<svg width="20" height="20" viewBox="0 0 20 20" fill="none" xmlns="http://www.w3.org/2000/svg">
<path fill-rule="evenodd" clip-rule="evenodd" d="M8.58164 10.0002C8.58164 10.1602 8.53497 10.321 8.44331 10.4602L5.75081 14.5269L14.8033 10.0002L5.75081 5.47352L8.44331 9.54019C8.53497 9.67935 8.58164 9.84019 8.58164 10.0002M2.49997 16.6669C2.49997 16.5069 2.54581 16.3469 2.63831 16.2069L6.74914 10.0002L2.63831 3.79352C2.43081 3.47852 2.45914 3.06352 2.70914 2.78102C2.95997 2.49852 3.36831 2.41935 3.70581 2.58769L17.0391 9.25435C17.6041 9.53685 17.6041 10.4635 17.0391 10.746L3.70581 17.4127C3.36831 17.581 2.95997 17.5019 2.70914 17.2194C2.57081 17.0627 2.49997 16.8652 2.49997 16.6669" fill="#333333"/>
</svg>
