<svg width="20" height="20" viewBox="0 0 24 24" fill="none" xmlns="http://www.w3.org/2000/svg">
<path fill-rule="evenodd" clip-rule="evenodd" d="M4.40458 11.6221C5.52058 12.0051 6.40958 12.9391 6.78158 14.1231L6.82158 14.2431C7.24758 15.4991 7.07458 16.8511 6.36058 17.8651C6.23058 18.0491 6.25958 18.2691 6.39658 18.3731L8.46858 19.9471C8.54158 20.0021 8.61258 20.0021 8.65658 19.9971C8.70658 19.9891 8.77958 19.9621 8.83858 19.8781L9.06958 19.5501C9.75858 18.5731 10.8686 17.9701 12.0406 17.9361C13.3566 17.9091 14.5386 18.5121 15.2746 19.5751L15.3926 19.7461C15.4516 19.8301 15.5236 19.8581 15.5746 19.8661C15.6186 19.8751 15.6906 19.8721 15.7626 19.8161L17.8236 18.2611C17.9676 18.1531 17.9996 17.9221 17.8926 17.7671L17.6326 17.3921C16.9626 16.4241 16.7636 15.1681 17.1006 14.0331C17.4666 12.7971 18.3976 11.8191 19.5926 11.4191L19.7936 11.3511C19.9546 11.2981 20.0416 11.0981 19.9846 10.9141L19.1976 8.39309C19.1606 8.27509 19.0846 8.22209 19.0426 8.20009C18.9826 8.16909 18.9176 8.16409 18.8556 8.18509L18.5156 8.29809C17.3526 8.68509 16.0696 8.47509 15.0846 7.73409L14.9766 7.65309C14.0406 6.94909 13.4836 5.81409 13.4876 4.61809L13.4896 4.33809C13.4896 4.20509 13.4266 4.12209 13.3886 4.08409C13.3526 4.04709 13.2916 4.00309 13.2056 4.00309L10.6586 4.00009C10.5026 4.00009 10.3756 4.14909 10.3746 4.33309L10.3736 4.57509C10.3686 5.79009 9.79958 6.94609 8.85158 7.66909L8.72258 7.76709C7.67958 8.56009 6.31958 8.78409 5.08758 8.36409C5.04058 8.34809 4.99658 8.35109 4.95458 8.37309C4.92258 8.38909 4.86458 8.43009 4.83658 8.52109L4.01958 11.1171C3.96058 11.3061 4.05758 11.5031 4.24058 11.5661L4.40458 11.6221ZM8.61558 22.0001C8.12958 22.0001 7.65758 21.8421 7.25958 21.5391L5.18758 19.9661C4.19758 19.2161 3.97858 17.7731 4.69858 16.7501C5.07258 16.2201 5.14958 15.5391 4.92958 14.8931L4.87458 14.7251C4.69158 14.1431 4.27358 13.6911 3.75658 13.5141H3.75558L3.59258 13.4571C2.37458 13.0401 1.72458 11.7491 2.11158 10.5171L2.92758 7.92209C3.11258 7.33509 3.51158 6.86109 4.05158 6.58809C4.57958 6.32209 5.17658 6.28109 5.73458 6.47209C6.33358 6.67609 6.99858 6.56509 7.51158 6.17509L7.64058 6.07709C8.09658 5.72909 8.37158 5.16409 8.37358 4.56709L8.37458 4.32609C8.37958 3.04209 9.40458 2.00009 10.6576 2.00009H10.6616L13.2086 2.00309C13.8106 2.00409 14.3786 2.24209 14.8066 2.67309C15.2496 3.11809 15.4916 3.71309 15.4896 4.34809L15.4876 4.62709C15.4856 5.19309 15.7446 5.72809 16.1816 6.05609L16.2886 6.13709C16.7476 6.48209 17.3456 6.58109 17.8826 6.40109L18.2216 6.28809C18.7986 6.09609 19.4126 6.14309 19.9536 6.42009C20.5086 6.70409 20.9186 7.19309 21.1066 7.79809L21.8936 10.3191C22.2736 11.5371 21.6156 12.8511 20.4286 13.2481L20.2276 13.3151C19.6516 13.5091 19.1986 13.9891 19.0176 14.6011C18.8516 15.1621 18.9476 15.7791 19.2766 16.2531L19.5366 16.6281C20.2506 17.6601 20.0226 19.1081 19.0286 19.8571L16.9676 21.4131C16.4726 21.7871 15.8656 21.9381 15.2566 21.8411C14.6426 21.7421 14.1066 21.4021 13.7476 20.8841L13.6296 20.7121C13.2796 20.2081 12.7196 19.9021 12.1326 19.9351C11.5446 19.9511 11.0366 20.2301 10.7046 20.7021L10.4736 21.0301C10.1116 21.5431 9.57458 21.8781 8.96358 21.9741C8.84658 21.9921 8.73058 22.0001 8.61558 22.0001ZM12.0018 10.5C11.1748 10.5 10.5018 11.173 10.5018 12C10.5018 12.827 11.1748 13.5 12.0018 13.5C12.8288 13.5 13.5018 12.827 13.5018 12C13.5018 11.173 12.8288 10.5 12.0018 10.5ZM12.0018 15.5C10.0718 15.5 8.50178 13.93 8.50178 12C8.50178 10.07 10.0718 8.49999 12.0018 8.49999C13.9318 8.49999 15.5018 10.07 15.5018 12C15.5018 13.93 13.9318 15.5 12.0018 15.5Z" fill="#333333"/>
</svg>
