<svg width="20" height="20" viewBox="0 0 20 20" fill="none" xmlns="http://www.w3.org/2000/svg">
<g clip-path="url(#clip0_385_8567)">
<path d="M9.16668 10.2748V1.25066C9.16668 1.02066 8.98 0.833984 8.75 0.833984C3.925 0.833984 0 5.13316 0 10.4173C0 15.7014 4.29918 20.0007 9.58332 20.0007C11.9475 20.0007 13.2266 19.5723 14.8483 18.239C15.0225 18.0957 15.0508 17.8398 14.9125 17.6615L9.16668 10.2748ZM9.58332 19.1673C4.75832 19.1673 0.83332 15.2423 0.83332 10.4173C0.83332 5.74734 4.16082 1.91984 8.33332 1.67902V10.4173C8.33332 10.5098 8.36414 10.5998 8.42164 10.6732L14.0016 17.8473C12.6858 18.8523 11.5883 19.1673 9.58332 19.1673Z" fill="#333333"/>
<path d="M10.4167 10H19.5834C19.8134 10 20 9.81332 20 9.58332C20 4.29918 15.7008 0 10.4167 0C10.1867 0 10 0.18668 10 0.41668V9.58336C10 9.81332 10.1867 10 10.4167 10ZM10.8333 0.84332C15.3275 1.055 18.945 4.6725 19.1566 9.16664H10.8333V0.84332ZM19.5833 10.8333H11.25C11.1712 10.8334 11.0941 10.8558 11.0274 10.8978C10.9608 10.9398 10.9074 10.9998 10.8733 11.0708C10.8395 11.1417 10.8265 11.2208 10.8358 11.2988C10.8451 11.3768 10.8763 11.4506 10.9258 11.5116L16.3425 18.2175C16.415 18.3083 16.5217 18.3633 16.6375 18.3716C16.6475 18.3725 16.6567 18.3725 16.6667 18.3725C16.7717 18.3725 16.8734 18.3325 16.9509 18.2608C18.8883 16.4533 20 13.8983 20 11.25C20 11.02 19.8133 10.8333 19.5833 10.8333ZM16.7025 17.3367L12.1225 11.6667H19.1567C19.0542 13.785 18.1775 15.8108 16.7025 17.3367Z" fill="#333333"/>
</g>
<defs>
<clipPath id="clip0_385_8567">
<rect width="20" height="20" fill="white"/>
</clipPath>
</defs>
</svg>
