<svg width="22" height="22" viewBox="0 0 22 22" fill="none" xmlns="http://www.w3.org/2000/svg">
<path d="M10.9993 16.4999C7.93498 16.4999 5.49927 14.0641 5.49927 10.9999C5.49927 7.93558 7.93498 5.49986 10.9993 5.49986C14.0636 5.49986 16.4993 7.93558 16.4993 10.9999C16.4993 14.0641 14.0636 16.4999 10.9993 16.4999ZM10.9993 7.07129C8.79927 7.07129 7.0707 8.79986 7.0707 10.9999C7.0707 13.1999 8.79927 14.9284 10.9993 14.9284C13.1993 14.9284 14.9278 13.1999 14.9278 10.9999C14.9278 8.79986 13.1993 7.07129 10.9993 7.07129ZM11.1564 20.4284C7.77784 20.4284 4.3207 18.6213 2.82784 15.7141C2.59213 15.3213 2.74927 14.8499 3.14213 14.6141C3.53498 14.3784 4.00641 14.5356 4.24213 14.9284C5.26355 16.8927 7.22784 18.2284 9.58498 18.6999C11.9421 19.1713 14.2207 18.6213 15.9493 17.1284C16.2636 16.8141 16.8136 16.8927 17.0493 17.207C17.3636 17.5213 17.285 18.0713 16.9707 18.307C15.3207 19.7213 13.2778 20.4284 11.1564 20.4284ZM18.4636 16.107C17.835 16.107 17.4421 15.3999 17.7564 14.9284C18.935 13.0427 19.0921 10.6856 18.3064 8.407C17.5207 6.12843 15.8707 4.47843 13.8278 3.69272C13.435 3.53557 13.1993 3.06415 13.3564 2.67129C13.5136 2.27843 13.985 2.04272 14.3778 2.19986C16.8921 3.06415 18.8564 5.18558 19.7993 7.857C20.7421 10.5284 20.5064 13.4356 19.0921 15.7141C19.0136 15.9499 18.7778 16.107 18.4636 16.107ZM2.43498 13.1213C2.04213 13.1213 1.72784 12.8856 1.64927 12.4927C1.17784 9.82129 1.96355 7.07129 3.84927 4.87129C5.73498 2.74986 8.32784 1.57129 10.9993 1.57129C11.4707 1.57129 11.785 1.96415 11.785 2.357C11.785 2.82843 11.3136 3.22129 10.8421 3.14272C8.64213 3.14272 6.5207 4.16415 5.02784 5.89272C3.53498 7.69986 2.82784 9.97843 3.2207 12.1784C3.29927 12.6499 2.98498 13.1213 2.43498 13.1213Z" />
</svg>
