<svg width="76" height="76" viewBox="0 0 76 76" fill="none" xmlns="http://www.w3.org/2000/svg">
<circle cx="38" cy="38" r="38" fill="#095183" fill-opacity="0.07"/>
<circle cx="38" cy="38.0018" r="32" fill="#095183" fill-opacity="0.19"/>
<g clip-path="url(#clip0_5661_11572)">
<path d="M29.6917 34.1493L26.8544 36.9867L35.9744 46.1067L56.241 25.84L53.4037 23.0027L35.9744 40.432L29.6917 34.1493ZM54.2144 38C54.2144 46.9173 46.9184 54.2133 38.001 54.2133C29.0837 54.2133 21.7877 46.9173 21.7877 38C21.7877 29.0827 29.0837 21.7867 38.001 21.7867C39.6224 21.7867 41.041 21.9893 42.4597 22.3947L45.7025 19.152C43.2704 18.3413 40.6357 17.7333 38.001 17.7333C26.8544 17.7333 17.7344 26.8533 17.7344 38C17.7344 49.1467 26.8544 58.2667 38.001 58.2667C49.1477 58.2667 58.2677 49.1467 58.2677 38H54.2144Z" fill="#095183"/>
</g>
<defs>
<clipPath id="clip0_5661_11572">
<rect width="40.5333" height="40.5333" fill="white" transform="translate(17.7344 17.7333)"/>
</clipPath>
</defs>
</svg>
