<svg width="18" height="18" viewBox="0 0 18 18" fill="none" xmlns="http://www.w3.org/2000/svg">
<g clip-path="url(#clip0_5361_7180)">
<path d="M3.77106 14.9206H6.89256C7.76106 14.9206 8.46756 14.2141 8.46756 13.3456V3.76885C8.46756 2.90035 7.76181 2.19385 6.89256 2.19385H3.77106C3.3534 2.19424 2.95295 2.36029 2.65754 2.65555C2.36214 2.95081 2.19591 3.35118 2.19531 3.76885V13.3456C2.19611 13.7632 2.3624 14.1635 2.65776 14.4587C2.95312 14.7539 3.35346 14.92 3.77106 14.9206ZM3.32106 3.76885C3.32106 3.5206 3.52356 3.31885 3.77181 3.31885H6.89331C6.95241 3.31885 7.01092 3.33049 7.06552 3.3531C7.12012 3.37572 7.16972 3.40886 7.21151 3.45065C7.2533 3.49244 7.28644 3.54204 7.30906 3.59664C7.33167 3.65124 7.34331 3.70975 7.34331 3.76885V13.3456C7.34331 13.4047 7.33167 13.4632 7.30906 13.5178C7.28644 13.5724 7.2533 13.622 7.21151 13.6638C7.16972 13.7056 7.12012 13.7387 7.06552 13.7613C7.01092 13.784 6.95241 13.7956 6.89331 13.7956H3.77106C3.65165 13.7956 3.53711 13.7482 3.4526 13.6638C3.36809 13.5795 3.32051 13.465 3.32031 13.3456V3.76885H3.32106Z" fill="#333333"/>
<path d="M2.6715 18H15.3278C16.0362 17.9994 16.7154 17.7178 17.2164 17.2169C17.7174 16.7161 17.9992 16.0369 18 15.3285V2.6715C17.9992 1.96309 17.7174 1.28393 17.2164 0.783077C16.7154 0.282224 16.0362 0.000595527 15.3278 0L2.6715 0C1.96322 0.000794039 1.28417 0.28251 0.783341 0.783341C0.28251 1.28417 0.000794039 1.96322 0 2.6715L0 15.3278C0.000595527 16.0362 0.282224 16.7154 0.783077 17.2164C1.28393 17.7174 1.96309 17.9992 2.6715 18ZM1.125 2.6715C1.125 1.81875 1.81875 1.125 2.6715 1.125H15.3278C16.1812 1.125 16.875 1.81875 16.875 2.6715V15.3278C16.8744 15.7379 16.7112 16.131 16.4211 16.4209C16.1311 16.7108 15.7379 16.8739 15.3278 16.8743H2.6715C2.26146 16.8739 1.86834 16.7108 1.5784 16.4209C1.28846 16.1309 1.1254 15.7378 1.125 15.3278V2.6715Z" fill="#333333"/>
<path d="M11.107 10.7266H14.2285C15.097 10.7266 15.8035 10.0201 15.8035 9.1516V3.76885C15.8035 2.90035 15.097 2.19385 14.2278 2.19385H11.1063C10.2378 2.19385 9.53125 2.90035 9.53125 3.76885V9.1516C9.53204 9.5692 9.69834 9.96946 9.9937 10.2647C10.2891 10.5599 10.6894 10.726 11.107 10.7266ZM10.657 3.76885C10.657 3.6495 10.7044 3.53504 10.7888 3.45065C10.8732 3.36626 10.9877 3.31885 11.107 3.31885H14.2285C14.4768 3.31885 14.6793 3.5206 14.6793 3.76885V9.1516C14.6793 9.21069 14.6676 9.26921 14.645 9.3238C14.6224 9.3784 14.5892 9.42801 14.5474 9.4698C14.5057 9.51158 14.4561 9.54473 14.4015 9.56734C14.3469 9.58996 14.2883 9.6016 14.2292 9.6016H11.1078C10.9883 9.6016 10.8738 9.55421 10.7893 9.46984C10.7048 9.38547 10.6572 9.27101 10.657 9.1516V3.76885Z" fill="#333333"/>
</g>
<defs>
<clipPath id="clip0_5361_7180">
<rect width="18" height="18" fill="white"/>
</clipPath>
</defs>
</svg>
