<svg width="20" height="21" viewBox="0 0 20 21" fill="none" xmlns="http://www.w3.org/2000/svg">
<path fill-rule="evenodd" clip-rule="evenodd" d="M6.01573 5.50016C5.29573 5.50016 4.62073 5.7785 4.11573 6.28433C3.0674 7.33433 3.0674 9.0435 4.11656 10.0952L9.99906 15.9877L15.8824 10.0952C16.9316 9.0435 16.9316 7.33433 15.8824 6.28433C14.8724 5.27183 13.0924 5.2735 12.0824 6.28433L10.5891 7.78016C10.2757 8.09433 9.7224 8.09433 9.40906 7.78016L7.91573 6.2835C7.41073 5.7785 6.73656 5.50016 6.01573 5.50016M9.99906 18.0002V18.0002C9.77823 18.0002 9.56573 17.9127 9.4099 17.7552L2.93656 11.2718C1.2399 9.57183 1.2399 6.806 2.93656 5.106C3.75656 4.286 4.8499 3.8335 6.01573 3.8335C7.18156 3.8335 8.27573 4.286 9.0949 5.106L9.99906 6.01183L10.9032 5.10683C11.7232 4.286 12.8166 3.8335 13.9832 3.8335C15.1482 3.8335 16.2424 4.286 17.0616 5.106C18.7591 6.806 18.7591 9.57183 17.0624 11.2718L10.5891 17.756C10.4324 17.9127 10.2207 18.0002 9.99906 18.0002" fill="black"/>
</svg>
