<svg width="19" height="19" viewBox="0 0 19 19" fill="none" xmlns="http://www.w3.org/2000/svg">
<path fill-rule="evenodd" clip-rule="evenodd" d="M7.91927 12.6667C7.91927 13.1021 7.56302 13.4584 7.1276 13.4584C6.69219 13.4584 6.33594 13.1021 6.33594 12.6667V9.50004C6.33594 9.06462 6.69219 8.70837 7.1276 8.70837C7.56302 8.70837 7.91927 9.06462 7.91927 9.50004V12.6667ZM12.6693 12.6667C12.6693 13.1021 12.313 13.4584 11.8776 13.4584C11.4422 13.4584 11.0859 13.1021 11.0859 12.6667V9.50004C11.0859 9.06462 11.4422 8.70837 11.8776 8.70837C12.313 8.70837 12.6693 9.06462 12.6693 9.50004V12.6667ZM14.2526 15.0417C14.2526 15.4779 13.8979 15.8334 13.4609 15.8334H5.54427C5.10727 15.8334 4.7526 15.4779 4.7526 15.0417V6.33337H14.2526V15.0417ZM7.91927 3.42637C7.91927 3.30367 8.08869 3.16671 8.3151 3.16671H10.6901C10.9165 3.16671 11.0859 3.30367 11.0859 3.42637V4.75004H7.91927V3.42637ZM16.6276 4.75004H15.8359H12.6693V3.42637C12.6693 2.40987 11.7818 1.58337 10.6901 1.58337H8.3151C7.2234 1.58337 6.33594 2.40987 6.33594 3.42637V4.75004H3.16927H2.3776C1.94219 4.75004 1.58594 5.10629 1.58594 5.54171C1.58594 5.97712 1.94219 6.33337 2.3776 6.33337H3.16927V15.0417C3.16927 16.3511 4.23485 17.4167 5.54427 17.4167H13.4609C14.7704 17.4167 15.8359 16.3511 15.8359 15.0417V6.33337H16.6276C17.063 6.33337 17.4193 5.97712 17.4193 5.54171C17.4193 5.10629 17.063 4.75004 16.6276 4.75004V4.75004Z" fill="#F82E5E"/>
</svg>
