<svg width="21" height="20" viewBox="0 0 21 20" fill="none" xmlns="http://www.w3.org/2000/svg">
<path d="M12.8166 9.41919C13.3194 9.03906 13.7287 8.54031 14.0108 7.96377C14.293 7.38724 14.44 6.74931 14.4399 6.10222C14.4387 5.01445 14.0232 3.97159 13.2846 3.20251C12.5459 2.43343 11.5445 2.00096 10.5 2C9.45566 2.00119 8.45443 2.43377 7.71597 3.20283C6.97752 3.97189 6.56215 5.01461 6.561 6.10222C6.561 7.46421 7.2006 8.67276 8.18427 9.41919C5.74027 10.3931 4 12.8607 4 15.7436C4 16.9882 4.97153 18 6.16667 18H14.8333C16.0285 18 17 16.9882 17 15.7436C17 12.8607 15.2597 10.3931 12.8157 9.41919M7.7414 6.10222C7.74232 5.34073 8.03331 4.61074 8.55049 4.07246C9.06768 3.53418 9.76881 3.23159 10.5 3.23112C11.231 3.23183 11.9319 3.53452 12.4489 4.07278C12.9659 4.61103 13.2568 5.34089 13.2577 6.10222C13.257 6.8637 12.9663 7.59379 12.4493 8.13224C11.9322 8.67069 11.2312 8.9735 10.5 8.97422C9.76881 8.9735 9.06777 8.67069 8.55075 8.13224C8.03372 7.59379 7.74209 6.8637 7.7414 6.10222ZM14.8333 16.7698H6.16667C5.62327 16.7698 5.18213 16.3095 5.18213 15.7436C5.18374 14.2752 5.74453 12.8675 6.74147 11.8293C7.73842 10.791 9.09011 10.207 10.5 10.2053C11.9099 10.207 13.2616 10.791 14.2585 11.8293C15.2555 12.8675 15.8163 14.2752 15.8179 15.7436C15.8179 16.3095 15.3759 16.7698 14.8333 16.7698Z" fill="#333333"/>
</svg>
