<svg width="60" height="60" viewBox="0 0 60 60" fill="none" xmlns="http://www.w3.org/2000/svg">
<circle cx="30" cy="30" r="30" fill="#FEEDED"/>
<circle cx="29.9975" cy="30.0009" r="25.2632" fill="#F9D4D3"/>
<path fill-rule="evenodd" clip-rule="evenodd" d="M31.5863 36.3178C31.5863 37.1894 30.879 37.8968 30.0074 37.8968C29.1358 37.8968 28.4285 37.1894 28.4285 36.3178C28.4285 35.4462 29.1358 34.7389 30.0074 34.7389C30.879 34.7389 31.5863 35.4462 31.5863 36.3178ZM31.5863 31.581C31.5863 32.4526 30.879 33.1599 30.0074 33.1599C29.1358 33.1599 28.4285 32.4526 28.4285 31.581L28.4285 23.6862C28.4285 22.8147 29.1358 22.1073 30.0074 22.1073C30.879 22.1073 31.5863 22.8147 31.5863 23.6862L31.5863 31.581ZM30.0074 17.3705C36.9721 17.3705 42.639 23.0373 42.639 30.002C42.639 36.9668 36.9721 42.6336 30.0074 42.6336C23.0427 42.6336 17.3758 36.9668 17.3758 30.002C17.3758 23.0373 23.0427 17.3705 30.0074 17.3705ZM30.0074 45.7915C38.7279 45.7915 45.7969 38.7226 45.7969 30.002C45.7969 21.2815 38.7279 14.2126 30.0074 14.2126C21.2885 14.2126 14.2179 21.2815 14.2179 30.002C14.2179 38.7226 21.2885 45.7915 30.0074 45.7915Z" fill="#F54A42"/>
</svg>
