<svg width="20" height="20" viewBox="0 0 20 20" fill="none" xmlns="http://www.w3.org/2000/svg">
<path fill-rule="evenodd" clip-rule="evenodd" d="M7.2915 9.16602V10.8327C7.2915 11.33 7.48905 11.8069 7.84068 12.1585C8.19231 12.5101 8.66922 12.7077 9.1665 12.7077H10.8332C11.3305 12.7077 11.8074 12.5101 12.159 12.1585C12.5106 11.8069 12.7082 11.33 12.7082 10.8327V9.16602C12.7082 8.66874 12.5106 8.19182 12.159 7.84019C11.8074 7.48856 11.3305 7.29102 10.8332 7.29102H9.1665C8.66922 7.29102 8.19231 7.48856 7.84068 7.84019C7.48905 8.19182 7.2915 8.66874 7.2915 9.16602ZM8.5415 9.16602C8.5415 9.00018 8.60734 8.84102 8.72484 8.72435C8.78274 8.66619 8.85157 8.62004 8.92736 8.58858C9.00316 8.55712 9.08443 8.54095 9.1665 8.54102H10.8332C10.999 8.54102 11.1582 8.60685 11.2748 8.72435C11.3923 8.84102 11.4582 9.00018 11.4582 9.16602V10.8327C11.4582 10.9985 11.3923 11.1577 11.2748 11.2743C11.2169 11.3325 11.1481 11.3787 11.0723 11.4101C10.9965 11.4416 10.9152 11.4577 10.8332 11.4577H9.1665C9.08443 11.4577 9.00316 11.4416 8.92736 11.4101C8.85157 11.3787 8.78274 11.3325 8.72484 11.2743C8.66667 11.2165 8.62053 11.1476 8.58907 11.0718C8.5576 10.996 8.54144 10.9148 8.5415 10.8327V9.16602ZM1.0415 2.91602V4.58268C1.0415 5.07996 1.23905 5.55688 1.59068 5.90851C1.94231 6.26014 2.41922 6.45768 2.9165 6.45768H4.58317C5.08045 6.45768 5.55737 6.26014 5.909 5.90851C6.26063 5.55688 6.45817 5.07996 6.45817 4.58268V2.91602C6.45817 2.41873 6.26063 1.94182 5.909 1.59019C5.55737 1.23856 5.08045 1.04102 4.58317 1.04102H2.9165C2.41922 1.04102 1.94231 1.23856 1.59068 1.59019C1.23905 1.94182 1.0415 2.41873 1.0415 2.91602ZM2.2915 2.91602C2.2915 2.75018 2.35734 2.59102 2.47484 2.47435C2.53274 2.41618 2.60157 2.37004 2.67736 2.33858C2.75316 2.30712 2.83443 2.29095 2.9165 2.29102H4.58317C4.749 2.29102 4.90817 2.35685 5.02484 2.47435C5.14234 2.59102 5.20817 2.75018 5.20817 2.91602V4.58268C5.20817 4.74852 5.14234 4.90768 5.02484 5.02435C4.96694 5.08251 4.89811 5.12865 4.82231 5.16012C4.74651 5.19158 4.66524 5.20775 4.58317 5.20768H2.9165C2.83443 5.20775 2.75316 5.19158 2.67736 5.16012C2.60157 5.12865 2.53274 5.08251 2.47484 5.02435C2.41667 4.96645 2.37053 4.89762 2.33907 4.82182C2.3076 4.74602 2.29144 4.66475 2.2915 4.58268V2.91602ZM13.5415 15.416V17.0827C13.5415 17.58 13.739 18.0569 14.0907 18.4085C14.4423 18.7601 14.9192 18.9577 15.4165 18.9577H17.0832C17.5805 18.9577 18.0574 18.7601 18.409 18.4085C18.7606 18.0569 18.9582 17.58 18.9582 17.0827V15.416C18.9582 14.9187 18.7606 14.4418 18.409 14.0902C18.0574 13.7386 17.5805 13.541 17.0832 13.541H15.4165C14.9192 13.541 14.4423 13.7386 14.0907 14.0902C13.739 14.4418 13.5415 14.9187 13.5415 15.416ZM14.7915 15.416C14.7915 15.2502 14.8573 15.091 14.9748 14.9743C15.0327 14.9162 15.1016 14.87 15.1774 14.8386C15.2532 14.8071 15.3344 14.791 15.4165 14.791H17.0832C17.249 14.791 17.4082 14.8568 17.5248 14.9743C17.6423 15.091 17.7082 15.2502 17.7082 15.416V17.0827C17.7082 17.2485 17.6423 17.4077 17.5248 17.5244C17.4669 17.5825 17.3981 17.6287 17.3223 17.6601C17.2465 17.6916 17.1652 17.7077 17.0832 17.7077H15.4165C15.3344 17.7077 15.2532 17.6916 15.1774 17.6601C15.1016 17.6287 15.0327 17.5825 14.9748 17.5244C14.9167 17.4665 14.8705 17.3976 14.8391 17.3218C14.8076 17.246 14.7914 17.1648 14.7915 17.0827V15.416Z" fill="#333333"/>
<path fill-rule="evenodd" clip-rule="evenodd" d="M5.83317 4.375H16.6665C16.9426 4.37544 17.2073 4.48533 17.4026 4.68058C17.5978 4.87584 17.7077 5.14053 17.7082 5.41667V8.33333C17.7077 8.60947 17.5978 8.87416 17.4026 9.06942C17.2073 9.26467 16.9426 9.37456 16.6665 9.375H14.1665C14.0007 9.375 13.8418 9.44085 13.7246 9.55806C13.6074 9.67527 13.5415 9.83424 13.5415 10C13.5415 10.1658 13.6074 10.3247 13.7246 10.4419C13.8418 10.5592 14.0007 10.625 14.1665 10.625H16.6665C17.274 10.625 17.8573 10.3833 18.2873 9.95417C18.7167 9.52398 18.9579 8.94111 18.9582 8.33333V5.41667C18.9582 4.80917 18.7165 4.22583 18.2873 3.79583C17.8572 3.3665 17.2743 3.12526 16.6665 3.125H5.83317C5.66741 3.125 5.50844 3.19085 5.39123 3.30806C5.27402 3.42527 5.20817 3.58424 5.20817 3.75C5.20817 3.91576 5.27402 4.07473 5.39123 4.19194C5.50844 4.30915 5.66741 4.375 5.83317 4.375ZM10.8332 15.625H3.33317C3.05704 15.6246 2.79234 15.5147 2.59709 15.3194C2.40183 15.1242 2.29194 14.8595 2.2915 14.5833V11.6667C2.29194 11.3905 2.40183 11.1258 2.59709 10.9306C2.79234 10.7353 3.05704 10.6254 3.33317 10.625H7.9165C8.08226 10.625 8.24124 10.5592 8.35845 10.4419C8.47566 10.3247 8.5415 10.1658 8.5415 10C8.5415 9.83424 8.47566 9.67527 8.35845 9.55806C8.24124 9.44085 8.08226 9.375 7.9165 9.375H3.33317C2.72567 9.375 2.14234 9.61667 1.71234 10.0458C1.283 10.476 1.04176 11.0589 1.0415 11.6667V14.5833C1.0415 15.1908 1.28317 15.7742 1.71234 16.2042C2.14252 16.6335 2.7254 16.8747 3.33317 16.875H10.8332C10.9989 16.875 11.1579 16.8092 11.2751 16.6919C11.3923 16.5747 11.4582 16.4158 11.4582 16.25C11.4582 16.0842 11.3923 15.9253 11.2751 15.8081C11.1579 15.6908 10.9989 15.625 10.8332 15.625Z" fill="#333333"/>
<path fill-rule="evenodd" clip-rule="evenodd" d="M16.2746 11.2253L15.0504 10.0003L16.2746 8.77526C16.3326 8.71726 16.3786 8.64841 16.41 8.57262C16.4414 8.49684 16.4576 8.41562 16.4576 8.3336C16.4576 8.25157 16.4414 8.17035 16.41 8.09457C16.3786 8.01879 16.3326 7.94993 16.2746 7.89193C16.2166 7.83393 16.1478 7.78792 16.072 7.75653C15.9962 7.72514 15.915 7.70898 15.8329 7.70898C15.7509 7.70898 15.6697 7.72514 15.5939 7.75653C15.5181 7.78792 15.4493 7.83393 15.3913 7.89193L13.7246 9.5586C13.6666 9.61657 13.6205 9.68541 13.5891 9.7612C13.5577 9.83698 13.5415 9.91822 13.5415 10.0003C13.5415 10.0823 13.5577 10.1635 13.5891 10.2393C13.6205 10.3151 13.6666 10.384 13.7246 10.4419L15.3913 12.1086C15.4493 12.1666 15.5181 12.2126 15.5939 12.244C15.6697 12.2754 15.7509 12.2915 15.8329 12.2915C15.915 12.2915 15.9962 12.2754 16.072 12.244C16.1478 12.2126 16.2166 12.1666 16.2746 12.1086C16.3326 12.0506 16.3786 11.9817 16.41 11.906C16.4414 11.8302 16.4576 11.749 16.4576 11.6669C16.4576 11.5849 16.4414 11.5037 16.41 11.4279C16.3786 11.3521 16.3326 11.2833 16.2746 11.2253ZM10.4413 18.3586L12.1079 16.6919C12.166 16.634 12.2121 16.5651 12.2435 16.4893C12.2749 16.4135 12.2911 16.3323 12.2911 16.2503C12.2911 16.1682 12.2749 16.087 12.2435 16.0112C12.2121 15.9354 12.166 15.8666 12.1079 15.8086L10.4413 14.1419C10.3241 14.0248 10.1653 13.959 9.99961 13.959C9.83395 13.959 9.67508 14.0248 9.55794 14.1419C9.44081 14.2591 9.375 14.4179 9.375 14.5836C9.375 14.7493 9.44081 14.9081 9.55794 15.0253L10.7821 16.2503L9.55794 17.4753C9.49994 17.5333 9.45394 17.6021 9.42255 17.6779C9.39116 17.7537 9.375 17.8349 9.375 17.9169C9.375 17.999 9.39116 18.0802 9.42255 18.156C9.45394 18.2317 9.49994 18.3006 9.55794 18.3586C9.61595 18.4166 9.6848 18.4626 9.76058 18.494C9.83636 18.5254 9.91759 18.5415 9.99961 18.5415C10.0816 18.5415 10.1629 18.5254 10.2386 18.494C10.3144 18.4626 10.3833 18.4166 10.4413 18.3586Z" fill="#333333"/>
</svg>
