<svg width="22" height="24" viewBox="0 0 22 24" fill="none" xmlns="http://www.w3.org/2000/svg">
<path fill-rule="evenodd" clip-rule="evenodd" d="M13.75 18.125V14.625H17.4167L17.4176 18.125H13.75ZM17.4167 12.875H13.75C12.7389 12.875 11.9167 13.6599 11.9167 14.625V18.125C11.9167 19.0901 12.7389 19.875 13.75 19.875H17.4167C18.4278 19.875 19.25 19.0901 19.25 18.125V14.625C19.25 13.6599 18.4278 12.875 17.4167 12.875V12.875ZM4.58333 18.125V14.625H8.25L8.25092 18.125H4.58333ZM8.25 12.875H4.58333C3.57225 12.875 2.75 13.6599 2.75 14.625V18.125C2.75 19.0901 3.57225 19.875 4.58333 19.875H8.25C9.26108 19.875 10.0833 19.0901 10.0833 18.125V14.625C10.0833 13.6599 9.26108 12.875 8.25 12.875V12.875ZM13.75 9.375V5.875H17.4167L17.4176 9.375H13.75ZM17.4167 4.125H13.75C12.7389 4.125 11.9167 4.90987 11.9167 5.875V9.375C11.9167 10.3401 12.7389 11.125 13.75 11.125H17.4167C18.4278 11.125 19.25 10.3401 19.25 9.375V5.875C19.25 4.90987 18.4278 4.125 17.4167 4.125V4.125ZM4.58333 9.375V5.875H8.25L8.25092 9.375H4.58333ZM8.25 4.125H4.58333C3.57225 4.125 2.75 4.90987 2.75 5.875V9.375C2.75 10.3401 3.57225 11.125 4.58333 11.125H8.25C9.26108 11.125 10.0833 10.3401 10.0833 9.375V5.875C10.0833 4.90987 9.26108 4.125 8.25 4.125V4.125Z" fill="#28384F"/>
</svg>
