<svg width="29" height="29" viewBox="0 0 29 29" fill="none" xmlns="http://www.w3.org/2000/svg">
<circle cx="14.5" cy="14.5" r="14.5" fill="#E6F5F4"/>
<path d="M15.3945 13.6641V9.33203C16.2461 9.63672 16.8594 10.4414 16.8594 11.3945H18.3242C18.3242 9.625 17.0625 8.14844 15.3945 7.80469V7H13.9297V7.80469C12.2617 8.14453 11 9.625 11 11.3945C11 13.1641 12.2617 14.6406 13.9297 14.9844V19.3164C13.0781 19.0117 12.4648 18.207 12.4648 17.2539H11C11 19.0234 12.2617 20.5 13.9297 20.8437V21.6484H15.3945V20.8437C17.0625 20.5039 18.3242 19.0234 18.3242 17.2539C18.3242 15.4844 17.0625 14.0078 15.3945 13.6641ZM12.4648 11.3945C12.4648 10.4414 13.0781 9.63672 13.9297 9.33203V13.457C13.0781 13.1523 12.4648 12.3477 12.4648 11.3945ZM15.3945 19.3164V15.1914C16.2461 15.4961 16.8594 16.3008 16.8594 17.2539C16.8594 18.207 16.2422 19.0117 15.3945 19.3164Z" fill="#111827"/>
</svg>
