<svg width="21" height="21" viewBox="0 0 21 21" fill="none" xmlns="http://www.w3.org/2000/svg">
<path fill-rule="evenodd" clip-rule="evenodd" d="M17.5 12.25C17.5 12.7321 17.108 13.125 16.625 13.125H10.5761H10.4239H4.375C3.892 13.125 3.5 12.7321 3.5 12.25V5.25C3.5 4.76787 3.892 4.375 4.375 4.375H16.625C17.108 4.375 17.5 4.76787 17.5 5.25V12.25ZM16.625 2.625H4.375C2.92775 2.625 1.75 3.80275 1.75 5.25V12.25C1.75 13.6973 2.92775 14.875 4.375 14.875H9.625V16.625H6.125C5.64375 16.625 5.25 17.0188 5.25 17.5C5.25 17.9812 5.64375 18.375 6.125 18.375H14.875C15.3562 18.375 15.75 17.9812 15.75 17.5C15.75 17.0188 15.3562 16.625 14.875 16.625H11.375V14.875H16.625C18.0723 14.875 19.25 13.6973 19.25 12.25V5.25C19.25 3.80275 18.0723 2.625 16.625 2.625Z" fill="#28384F"/>
</svg>
