<svg width="25" height="25" viewBox="0 0 35 35" fill="none" xmlns="http://www.w3.org/2000/svg">
<path fill-rule="evenodd" clip-rule="evenodd" d="M8.0432 23.3335L9.76403 21.6097C10.3153 21.0585 10.6186 20.3264 10.6186 19.5476V12.727C10.6186 10.748 11.479 8.85658 12.9811 7.54116C14.4949 6.21408 16.4228 5.63075 18.4309 5.89471C21.8244 6.34533 24.3838 9.41366 24.3838 13.0332V19.5476C24.3838 20.3264 24.6872 21.0585 25.2369 21.6082L26.9592 23.3335H8.0432ZM20.4172 26.7474C20.4172 28.0585 19.0813 29.1668 17.5005 29.1668C15.9197 29.1668 14.5838 28.0585 14.5838 26.7474V26.2501H20.4172V26.7474ZM29.9269 22.1785L27.3005 19.5476V13.0332C27.3005 7.95679 23.6517 3.6445 18.813 3.00429C16.0101 2.63096 13.1809 3.487 11.059 5.34783C8.92403 7.21742 7.70195 9.90658 7.70195 12.727L7.70049 19.5476L5.07403 22.1785C4.39007 22.8639 4.18736 23.8832 4.55778 24.7772C4.92966 25.6726 5.79445 26.2501 6.76278 26.2501H11.6672V26.7474C11.6672 29.6903 14.2834 32.0835 17.5005 32.0835C20.7176 32.0835 23.3338 29.6903 23.3338 26.7474V26.2501H28.2382C29.2065 26.2501 30.0699 25.6726 30.4403 24.7787C30.8122 23.8833 30.6109 22.8624 29.9269 22.1785Z" fill="black"/>
</svg>
