<svg width="20" height="20" viewBox="0 0 20 20" fill="none" xmlns="http://www.w3.org/2000/svg">
<g clip-path="url(#clip0_4499_4691)">
<path d="M16.6667 5C16.6667 4.0111 16.3734 3.0444 15.824 2.22215C15.2746 1.39991 14.4937 0.759043 13.5801 0.380605C12.6665 0.00216643 11.6611 -0.0968503 10.6912 0.0960758C9.72131 0.289002 8.8304 0.765206 8.13113 1.46447C7.43187 2.16373 6.95567 3.05465 6.76274 4.02455C6.56981 4.99446 6.66883 5.99979 7.04727 6.91342C7.42571 7.82705 8.06657 8.60794 8.88882 9.15735C9.71106 9.70676 10.6778 10 11.6667 10C12.9923 9.99868 14.2633 9.47147 15.2007 8.53408C16.1381 7.59668 16.6653 6.32568 16.6667 5ZM8.33333 5C8.33333 4.34073 8.52883 3.69627 8.8951 3.1481C9.26137 2.59994 9.78197 2.1727 10.3911 1.9204C11.0001 1.66811 11.6704 1.6021 12.317 1.73072C12.9636 1.85934 13.5575 2.1768 14.0237 2.64298C14.4899 3.10915 14.8073 3.7031 14.936 4.3497C15.0646 4.9963 14.9986 5.66653 14.7463 6.27561C14.494 6.8847 14.0667 7.4053 13.5186 7.77157C12.9704 8.13784 12.3259 8.33334 11.6667 8.33334C10.7826 8.33334 9.93476 7.98215 9.30964 7.35703C8.68452 6.7319 8.33333 5.88406 8.33333 5ZM14.1667 11.6667H9.16667C7.62011 11.6684 6.13741 12.2836 5.04383 13.3772C3.95025 14.4707 3.3351 15.9534 3.33333 17.5V19.1667C3.33333 19.3877 3.42113 19.5996 3.57741 19.7559C3.73369 19.9122 3.94565 20 4.16667 20C4.38768 20 4.59964 19.9122 4.75592 19.7559C4.9122 19.5996 5 19.3877 5 19.1667V17.5C5.00132 16.3953 5.44073 15.3363 6.22185 14.5552C7.00296 13.7741 8.062 13.3347 9.16667 13.3333H14.1667C15.2713 13.3347 16.3304 13.7741 17.1115 14.5552C17.8926 15.3363 18.332 16.3953 18.3333 17.5V19.1667C18.3333 19.3877 18.4211 19.5996 18.5774 19.7559C18.7337 19.9122 18.9457 20 19.1667 20C19.3877 20 19.5996 19.9122 19.7559 19.7559C19.9122 19.5996 20 19.3877 20 19.1667V17.5C19.9982 15.9534 19.3831 14.4707 18.2895 13.3772C17.1959 12.2836 15.7132 11.6684 14.1667 11.6667ZM3.33333 5.83334C3.11232 5.83334 2.90036 5.92113 2.74408 6.07741C2.5878 6.23369 2.5 6.44566 2.5 6.66667V8.33334H0.833333C0.61232 8.33334 0.400358 8.42113 0.244078 8.57741C0.0877974 8.73369 0 8.94566 0 9.16667C0 9.38768 0.0877974 9.59964 0.244078 9.75593C0.400358 9.91221 0.61232 10 0.833333 10H2.5V11.6667C2.5 11.8877 2.5878 12.0996 2.74408 12.2559C2.90036 12.4122 3.11232 12.5 3.33333 12.5C3.55435 12.5 3.76631 12.4122 3.92259 12.2559C4.07887 12.0996 4.16667 11.8877 4.16667 11.6667V10H5.83333C6.05435 10 6.26631 9.91221 6.42259 9.75593C6.57887 9.59964 6.66667 9.38768 6.66667 9.16667C6.66667 8.94566 6.57887 8.73369 6.42259 8.57741C6.26631 8.42113 6.05435 8.33334 5.83333 8.33334H4.16667V6.66667C4.16667 6.44566 4.07887 6.23369 3.92259 6.07741C3.76631 5.92113 3.55435 5.83334 3.33333 5.83334Z" fill="#1DA0D6"/>
</g>
<defs>
<clipPath id="clip0_4499_4691">
<rect width="20" height="20" fill="white"/>
</clipPath>
</defs>
</svg>
