<svg width="20" height="20" viewBox="0 0 20 20" fill="none" xmlns="http://www.w3.org/2000/svg">
<g id="Icons / Pin">
<path id="Color" fillRule="evenodd" clipRule="evenodd" d="M9.99967 9.16658C9.31051 9.16658 8.74967 8.60574 8.74967 7.91658C8.74967 7.22741 9.31051 6.66658 9.99967 6.66658C10.6888 6.66658 11.2497 7.22741 11.2497 7.91658C11.2497 8.60574 10.6888 9.16658 9.99967 9.16658ZM9.99967 4.99991C8.39134 4.99991 7.08301 6.30824 7.08301 7.91658C7.08301 9.52491 8.39134 10.8332 9.99967 10.8332C11.608 10.8332 12.9163 9.52491 12.9163 7.91658C12.9163 6.30824 11.608 4.99991 9.99967 4.99991ZM9.99967 16.372C8.60384 15.052 4.99967 11.3462 4.99967 8.26866C4.99967 5.54783 7.24217 3.33366 9.99967 3.33366C12.7572 3.33366 14.9997 5.54783 14.9997 8.26866C14.9997 11.3462 11.3955 15.052 9.99967 16.372ZM9.99967 1.66699C6.32384 1.66699 3.33301 4.62783 3.33301 8.26866C3.33301 12.8312 9.20717 17.9178 9.45717 18.132C9.61384 18.2662 9.80634 18.3337 9.99967 18.3337C10.193 18.3337 10.3855 18.2662 10.5422 18.132C10.7922 17.9178 16.6663 12.8312 16.6663 8.26866C16.6663 4.62783 13.6755 1.66699 9.99967 1.66699Z" fill="black"/>
</g>
</svg>
