<svg width="25" height="23" viewBox="0 0 25 23" fill="none" xmlns="http://www.w3.org/2000/svg">
<path fill-rule="evenodd" clip-rule="evenodd" d="M9.77596 12.8504C4.88029 12.8504 0.895508 16.8339 0.895508 21.7309C0.895508 22.4312 1.46259 22.9995 2.16414 22.9995C2.8657 22.9995 3.43278 22.4312 3.43278 21.7309C3.43278 18.2332 6.27833 15.3877 9.77596 15.3877C13.2736 15.3877 16.1191 18.2332 16.1191 21.7309C16.1191 22.4312 16.6862 22.9995 17.3878 22.9995C18.0893 22.9995 18.6564 22.4312 18.6564 21.7309C18.6564 16.8339 14.6716 12.8504 9.77596 12.8504ZM7.23869 5.23861C7.23869 6.63791 8.37665 7.77588 9.77596 7.77588C11.1753 7.77588 12.3132 6.63791 12.3132 5.23861C12.3132 3.8393 11.1753 2.70133 9.77596 2.70133C8.37665 2.70133 7.23869 3.8393 7.23869 5.23861ZM4.70142 5.23861C4.70142 2.44 6.97735 0.164062 9.77596 0.164062C12.5746 0.164062 14.8505 2.44 14.8505 5.23861C14.8505 8.03722 12.5746 10.3132 9.77596 10.3132C6.97735 10.3132 4.70142 8.03722 4.70142 5.23861ZM24.9996 5.23861C24.9996 5.93636 24.4287 6.50724 23.731 6.50724H22.4623V7.77588C22.4623 8.47363 21.8914 9.04452 21.1937 9.04452C20.4959 9.04452 19.925 8.47363 19.925 7.77588V6.50724H18.6564C17.9587 6.50724 17.3878 5.93636 17.3878 5.23861C17.3878 4.54086 17.9587 3.96997 18.6564 3.96997H19.925V2.70133C19.925 2.00358 20.4959 1.4327 21.1937 1.4327C21.8914 1.4327 22.4623 2.00358 22.4623 2.70133V3.96997H23.731C24.4287 3.96997 24.9996 4.54086 24.9996 5.23861Z" fill="#111827"/>
</svg>
