<svg width="15" height="15" viewBox="0 0 16 18" fill="none" xmlns="http://www.w3.org/2000/svg">
<path id="Color" fillRule="evenodd" clipRule="evenodd" d="M7.73892 11.4754H11.0399C11.4938 11.4754 11.8651 11.8468 11.8651 12.3007C11.8651 12.7545 11.4938 13.1259 11.0399 13.1259H7.73892C7.28503 13.1259 6.91367 12.7545 6.91367 12.3007C6.91367 11.8468 7.28503 11.4754 7.73892 11.4754ZM3.6125 12.3008C3.6125 11.8469 3.98386 11.4756 4.43774 11.4756C4.89163 11.4756 5.26299 11.8469 5.26299 12.3008C5.26299 12.7547 4.89163 13.1261 4.43774 13.1261C3.98386 13.1261 3.6125 12.7547 3.6125 12.3008ZM12.6918 15.6024H2.78887C2.33416 15.6024 1.96362 15.2319 1.96362 14.7772V9.82573H13.517V14.7772C13.517 15.2319 13.1465 15.6024 12.6918 15.6024ZM2.78887 4.04902H3.61411V4.87427C3.61411 5.32815 3.98547 5.69951 4.43936 5.69951C4.89324 5.69951 5.2646 5.32815 5.2646 4.87427V4.04902H10.2161V4.87427C10.2161 5.32815 10.5874 5.69951 11.0413 5.69951C11.4952 5.69951 11.8666 5.32815 11.8666 4.87427V4.04902H12.6918C13.1465 4.04902 13.517 4.41956 13.517 4.87427V8.17524H1.96362V4.87427C1.96362 4.41956 2.33416 4.04902 2.78887 4.04902ZM12.6902 2.39854H11.8649V1.57329C11.8649 1.11941 11.4936 0.748047 11.0397 0.748047C10.5858 0.748047 10.2145 1.11941 10.2145 1.57329V2.39854H5.26299V1.57329C5.26299 1.11941 4.89163 0.748047 4.43774 0.748047C3.98386 0.748047 3.6125 1.11941 3.6125 1.57329V2.39854H2.78726C1.4223 2.39854 0.311523 3.50931 0.311523 4.87427V14.7772C0.311523 16.1422 1.4223 17.2529 2.78726 17.2529H12.6902C14.0551 17.2529 15.1659 16.1422 15.1659 14.7772V4.87427C15.1659 3.50931 14.0551 2.39854 12.6902 2.39854Z" fill="black"/>
</svg>
