<svg width="15" height="15" viewBox="0 0 25 25" fill="none" xmlns="http://www.w3.org/2000/svg">
<g id="Icons / Hash">
<path id="Color" fillRule="evenodd" clipRule="evenodd" d="M10.364 14.9789L11.093 10.9789H14.968L14.239 14.9789H10.364ZM20.666 14.9789H16.364L17.093 10.9789H20.666C21.216 10.9789 21.666 10.5289 21.666 9.97894C21.666 9.42894 21.216 8.97894 20.666 8.97894H17.456L18.15 5.16794C18.25 4.61994 17.868 4.09094 17.301 3.99494C16.734 3.89794 16.189 4.26794 16.089 4.81694L15.331 8.97894H11.456L12.15 5.16794C12.25 4.61994 11.868 4.09094 11.301 3.99494C10.734 3.89794 10.189 4.26794 10.089 4.81694L9.33102 8.97894H4.66602C4.11602 8.97894 3.66602 9.42894 3.66602 9.97894C3.66602 10.5289 4.11602 10.9789 4.66602 10.9789H8.96802L8.23902 14.9789H4.66602C4.11602 14.9789 3.66602 15.4289 3.66602 15.9789C3.66602 16.5289 4.11602 16.9789 4.66602 16.9789H7.87502L7.18102 20.7899C7.08202 21.3379 7.46402 21.8669 8.03102 21.9629C8.59702 22.0599 9.14302 21.6899 9.24202 21.1409L10 16.9789H13.875L13.181 20.7899C13.082 21.3379 13.464 21.8669 14.031 21.9629C14.597 22.0599 15.143 21.6899 15.242 21.1409L16 16.9789H20.666C21.216 16.9789 21.666 16.5289 21.666 15.9789C21.666 15.4289 21.216 14.9789 20.666 14.9789Z" fill="black"/>
</g>
</svg>
