<svg width="50" height="50" viewBox="0 0 50 50" fill="none" xmlns="http://www.w3.org/2000/svg">
<rect width="50" height="50" rx="25" fill="white"/>
<mask id="mask0_2333_4349" style="mask-type:luminance" maskUnits="userSpaceOnUse" x="9" y="4" width="32" height="32">
<path d="M9.83594 4.09758H40.9835V35.2451H9.83594V4.09758Z" fill="white"/>
</mask>
<g mask="url(#mask0_2333_4349)">
<path d="M40.0843 33.9136H10.7485V31.291C10.7485 31.2174 10.7778 31.1469 10.8298 31.0949C10.8818 31.0429 10.9523 31.0136 11.0259 31.0136H32.4778C32.5988 31.0136 32.7149 30.9655 32.8005 30.8799C32.886 30.7944 32.9341 30.6783 32.9341 30.5573C32.9341 30.4363 32.886 30.3203 32.8005 30.2347C32.7149 30.1491 32.5988 30.1011 32.4778 30.1011H29.7684V18.701H36.6473V30.1011H34.4222C34.3012 30.1011 34.1852 30.1491 34.0996 30.2347C34.014 30.3203 33.966 30.4363 33.966 30.5573C33.966 30.6783 34.014 30.7944 34.0996 30.8799C34.1852 30.9655 34.3012 31.0136 34.4222 31.0136H39.8069C39.8804 31.0136 39.9509 31.0429 40.003 31.0949C40.055 31.1469 40.0842 31.2174 40.0843 31.291V33.9136ZM14.1855 22.205H21.0644V30.101H14.1855V22.205ZM39.8069 30.1011H37.5598V18.6366C37.5598 18.1689 37.1793 17.7885 36.7117 17.7885H29.7684V14.483C29.7684 14.0153 29.3879 13.6348 28.9202 13.6348H21.9125C21.4448 13.6348 21.0644 14.0153 21.0644 14.483V17.7164C21.0644 17.8374 21.1125 17.9534 21.1981 18.039C21.2836 18.1246 21.3997 18.1726 21.5207 18.1726C21.6417 18.1726 21.7578 18.1246 21.8433 18.039C21.9289 17.9534 21.977 17.8374 21.977 17.7164V14.5474H28.8558V30.1011H21.977V19.6608C21.977 19.5398 21.9289 19.4237 21.8433 19.3382C21.7578 19.2526 21.6417 19.2045 21.5207 19.2045C21.3997 19.2045 21.2836 19.2526 21.1981 19.3382C21.1125 19.4237 21.0644 19.5398 21.0644 19.6608V21.2925H14.1211C13.6534 21.2925 13.2729 21.673 13.2729 22.1407V30.1011H11.0259C10.3698 30.1011 9.83594 30.6348 9.83594 31.291V34.3699C9.83594 34.4909 9.88401 34.607 9.96957 34.6925C10.0551 34.7781 10.1712 34.8262 10.2922 34.8262H40.5405C40.6615 34.8262 40.7776 34.7781 40.8632 34.6925C40.9487 34.607 40.9968 34.4909 40.9968 34.3699V31.291C40.9968 30.6348 40.463 30.1011 39.8069 30.1011Z" fill="black"/>
</g>
</svg>
