<svg width="15" height="15" viewBox="0 0 11 17" fill="none" xmlns="http://www.w3.org/2000/svg">
<path d="M5.06166 3.93726C4.85766 3.93726 4.65966 3.96726 4.46766 4.02726C4.27566 4.08726 4.10166 4.18326 3.94566 4.31526C3.78966 4.43526 3.66366 4.59126 3.56766 4.78326C3.48366 4.96326 3.44166 5.17926 3.44166 5.43126C3.44166 5.82726 3.56766 6.13326 3.81966 6.34926C4.07166 6.56526 4.48566 6.73926 5.06166 6.87126V3.93726ZM6.12366 13.1893C6.33966 13.1653 6.56166 13.1173 6.78966 13.0453C7.02966 12.9613 7.23966 12.8473 7.41966 12.7033C7.61166 12.5593 7.76766 12.3853 7.88766 12.1813C8.00766 11.9653 8.06766 11.7133 8.06766 11.4253C8.06766 11.1853 8.03166 10.9813 7.95966 10.8133C7.88766 10.6453 7.77366 10.5013 7.61766 10.3813C7.47366 10.2493 7.27566 10.1353 7.02366 10.0393C6.78366 9.93126 6.48366 9.82926 6.12366 9.73326V13.1893ZM3.13566 10.8133C3.12366 11.4853 3.30366 12.0253 3.67566 12.4333C4.04766 12.8293 4.50966 13.0813 5.06166 13.1893V9.42726C5.00166 9.40326 4.91766 9.37926 4.80966 9.35526C4.71366 9.31926 4.60566 9.28926 4.48566 9.26526C4.02966 9.14526 3.58566 9.00726 3.15366 8.85126C2.73366 8.68326 2.34966 8.46726 2.00166 8.20326C1.66566 7.92726 1.39566 7.59126 1.19166 7.19526C0.987656 6.78726 0.885656 6.28326 0.885656 5.68326C0.885656 5.07126 0.999656 4.53126 1.22766 4.06326C1.46766 3.59526 1.77966 3.20526 2.16366 2.89326C2.54766 2.56926 2.99166 2.32326 3.49566 2.15526C3.99966 1.97526 4.52166 1.86726 5.06166 1.83126V0.445257H6.12366V1.83126C6.66366 1.89126 7.16766 2.01126 7.63566 2.19126C8.11566 2.35926 8.53566 2.59926 8.89566 2.91126C9.25566 3.21126 9.54966 3.58926 9.77766 4.04526C10.0057 4.50126 10.1377 5.04126 10.1737 5.66526H7.61766C7.60566 5.18526 7.45566 4.77726 7.16766 4.44126C6.87966 4.10526 6.53166 3.93726 6.12366 3.93726V7.12326C6.26766 7.15926 6.41166 7.19526 6.55566 7.23126C6.71166 7.26726 6.87366 7.30926 7.04166 7.35726C7.91766 7.59726 8.59566 7.89726 9.07566 8.25726C9.56766 8.60526 9.92766 8.97126 10.1557 9.35526C10.3837 9.73926 10.5157 10.1233 10.5517 10.5073C10.5997 10.8913 10.6237 11.2333 10.6237 11.5333C10.6237 11.7853 10.5577 12.1153 10.4257 12.5233C10.2937 12.9193 10.0537 13.3153 9.70566 13.7113C9.36966 14.1073 8.91366 14.4553 8.33766 14.7553C7.76166 15.0553 7.02366 15.2353 6.12366 15.2953V16.8253H5.06166V15.2953C3.71766 15.1993 2.66766 14.7853 1.91166 14.0533C1.15566 13.3093 0.711656 12.2293 0.579656 10.8133H3.13566Z" fill="black"/>
</svg>
