<svg width="15" height="15" viewBox="0 0 25 24" fill="none" xmlns="http://www.w3.org/2000/svg">
<path id="Color" fillRule="evenodd" clipRule="evenodd" d="M15.5 12H13.5V10C13.5 9.447 13.052 9 12.5 9C11.948 9 11.5 9.447 11.5 10V13C11.5 13.553 11.948 14 12.5 14H15.5C16.052 14 16.5 13.553 16.5 13C16.5 12.447 16.052 12 15.5 12ZM12.5 19.75C8.778 19.75 5.75 16.722 5.75 13C5.75 9.278 8.778 6.25 12.5 6.25C16.222 6.25 19.25 9.278 19.25 13C19.25 16.722 16.222 19.75 12.5 19.75ZM13.488 4.058C13.49 4.037 13.5 4.021 13.5 4V3H14.5C15.052 3 15.5 2.553 15.5 2C15.5 1.447 15.052 1 14.5 1H10.5C9.948 1 9.5 1.447 9.5 2C9.5 2.553 9.948 3 10.5 3H11.5V4C11.5 4.021 11.51 4.037 11.512 4.058C7.013 4.552 3.5 8.372 3.5 13C3.5 17.963 7.538 22 12.5 22C17.462 22 21.5 17.963 21.5 13C21.5 8.372 17.987 4.552 13.488 4.058Z" fill="black"/>
</svg>
