<svg width="24" height="25" viewBox="0 0 24 25" fill="none" xmlns="http://www.w3.org/2000/svg">
<path fill-rule="evenodd" clip-rule="evenodd" d="M3 12.5C3 11.396 3.896 10.5 5 10.5C6.104 10.5 7 11.396 7 12.5C7 13.604 6.104 14.5 5 14.5C3.896 14.5 3 13.604 3 12.5ZM12 10.5C10.896 10.5 10 11.396 10 12.5C10 13.604 10.896 14.5 12 14.5C13.104 14.5 14 13.604 14 12.5C14 11.396 13.104 10.5 12 10.5ZM19 10.5C17.896 10.5 17 11.396 17 12.5C17 13.604 17.896 14.5 19 14.5C20.104 14.5 21 13.604 21 12.5C21 11.396 20.104 10.5 19 10.5Z" fill="black"/>
</svg>
