<svg  viewBox="0 0 15 15" fill="none" xmlns="http://www.w3.org/2000/svg">
<g clip-path="url(#clip0_3377_4085)">
<path d="M14.8682 2.42868L12.5713 0.131808C12.4868 0.0474091 12.3723 0 12.2529 0C12.1335 0 12.019 0.0474091 11.9345 0.131808L7.50012 4.56665L3.06551 0.132043C2.98104 0.0476435 2.86652 0.000234375 2.74711 0.000234375C2.6277 0.000234375 2.51318 0.0476435 2.42871 0.132043L0.131836 2.42892C-0.0439453 2.6047 -0.0439453 2.8897 0.131836 3.06571L4.56668 7.50009L0.13207 11.9347C-0.0437109 12.1105 -0.0437109 12.3955 0.13207 12.5715L2.42895 14.8684C2.60473 15.0442 2.88973 15.0442 3.06574 14.8684L7.50012 10.4335L11.9347 14.8681C12.1105 15.0439 12.3955 15.0439 12.5715 14.8681L14.8684 12.5713C15.0442 12.3955 15.0442 12.1105 14.8684 11.9345L10.4336 7.50009L14.8682 3.06548C14.91 3.02369 14.9432 2.97405 14.9659 2.91942C14.9885 2.86479 15.0002 2.80622 15.0002 2.74708C15.0002 2.68794 14.9885 2.62938 14.9659 2.57474C14.9432 2.52011 14.91 2.47048 14.8682 2.42868Z"/>
</g>
<defs>
<clipPath id="clip0_3377_4085">
<rect width="15" height="15" fill="white"/>
</clipPath>
</defs>
</svg>
