<svg width="20" height="20" viewBox="0 0 21 17" fill="none" xmlns="http://www.w3.org/2000/svg">
<path id="Color" fillRule="evenodd" clipRule="evenodd" d="M5.44661 2C4.58261 2 3.77261 2.334 3.16661 2.941C1.90861 4.201 1.90861 6.252 3.16761 7.514L10.2266 14.585L17.2866 7.514C18.5456 6.252 18.5456 4.201 17.2866 2.941C16.0746 1.726 13.9386 1.728 12.7266 2.941L10.9346 4.736C10.5586 5.113 9.89461 5.113 9.51861 4.736L7.72661 2.94C7.12061 2.334 6.31161 2 5.44661 2ZM10.2266 17C9.96161 17 9.70661 16.895 9.51961 16.706L1.75161 8.926C-0.284391 6.886 -0.284391 3.567 1.75161 1.527C2.73561 0.543 4.04761 0 5.44661 0C6.84561 0 8.15861 0.543 9.14161 1.527L10.2266 2.614L11.3116 1.528C12.2956 0.543 13.6076 0 15.0076 0C16.4056 0 17.7186 0.543 18.7016 1.527C20.7386 3.567 20.7386 6.886 18.7026 8.926L10.9346 16.707C10.7466 16.895 10.4926 17 10.2266 17Z"  />
</svg>
