<svg width="15" height="15" viewBox="0 0 14 14" fill="none" xmlns="http://www.w3.org/2000/svg">
<path id="Color" fillRule="evenodd" clipRule="evenodd" d="M11.5147 2.48526C11.3123 2.28226 10.9838 2.28226 10.7814 2.48526L2.48526 10.7814C2.38376 10.8829 2.33301 11.0153 2.33301 11.1483C2.33301 11.2808 2.38376 11.4138 2.48526 11.5147C2.68767 11.7171 3.01551 11.7171 3.21851 11.5147L11.5147 3.21851C11.7171 3.01551 11.7171 2.68767 11.5147 2.48526ZM9.33318 11.0832C8.85077 11.0832 8.45818 10.6906 8.45818 10.2082C8.45818 9.72577 8.85077 9.33318 9.33318 9.33318C9.8156 9.33318 10.2082 9.72577 10.2082 10.2082C10.2082 10.6906 9.8156 11.0832 9.33318 11.0832ZM9.33318 8.16652C8.20735 8.16652 7.29152 9.08235 7.29152 10.2082C7.29152 11.334 8.20735 12.2498 9.33318 12.2498C10.459 12.2498 11.3748 11.334 11.3748 10.2082C11.3748 9.08235 10.459 8.16652 9.33318 8.16652ZM4.66652 3.49985C5.14893 3.49985 5.54152 3.89243 5.54152 4.37485C5.54152 4.85727 5.14893 5.24985 4.66652 5.24985C4.1841 5.24985 3.79152 4.85727 3.79152 4.37485C3.79152 3.89243 4.1841 3.49985 4.66652 3.49985ZM4.66652 6.41652C5.79235 6.41652 6.70818 5.50068 6.70818 4.37485C6.70818 3.24902 5.79235 2.33318 4.66652 2.33318C3.54068 2.33318 2.62485 3.24902 2.62485 4.37485C2.62485 5.50068 3.54068 6.41652 4.66652 6.41652Z" />
</svg>
