<svg width="20" height="20" viewBox="0 0 30 31" fill="none" xmlns="http://www.w3.org/2000/svg">
<g id="Icons / Plus / Circle">
<path id="Color" fillRule="evenodd" clipRule="evenodd" d="M18.75 14.7393H16.25V12.2393C16.25 11.5518 15.6875 10.9893 15 10.9893C14.3125 10.9893 13.75 11.5518 13.75 12.2393V14.7393H11.25C10.5625 14.7393 10 15.3018 10 15.9893C10 16.6768 10.5625 17.2393 11.25 17.2393H13.75V19.7393C13.75 20.4268 14.3125 20.9893 15 20.9893C15.6875 20.9893 16.25 20.4268 16.25 19.7393V17.2393H18.75C19.4375 17.2393 20 16.6768 20 15.9893C20 15.3018 19.4375 14.7393 18.75 14.7393ZM15 25.9893C9.48625 25.9893 5 21.503 5 15.9893C5 10.4755 9.48625 5.98926 15 5.98926C20.5138 5.98926 25 10.4755 25 15.9893C25 21.503 20.5138 25.9893 15 25.9893ZM15 3.48926C8.1075 3.48926 2.5 9.09676 2.5 15.9893C2.5 22.8818 8.1075 28.4893 15 28.4893C21.8925 28.4893 27.5 22.8818 27.5 15.9893C27.5 9.09676 21.8925 3.48926 15 3.48926Z" fill="#095183"/>
</g>
</svg>
