<svg width="25" height="25" viewBox="0 0 25 25" fill="none" xmlns="http://www.w3.org/2000/svg">
<path fillRule="evenodd" clipRule="evenodd" d="M19.334 6.70626L17.896 8.09626C17.702 8.28326 17.451 8.37726 17.201 8.37726C16.939 8.37726 16.678 8.27426 16.482 8.07126C16.099 7.67526 16.109 7.04126 16.507 6.65826L17.945 5.26926C18.342 4.88626 18.978 4.89626 19.358 5.29326C19.742 5.68926 19.731 6.32326 19.334 6.70626ZM7.85002 8.07126C7.65402 8.27426 7.39302 8.37726 7.13102 8.37726C6.88102 8.37726 6.63002 8.28426 6.43602 8.09726L4.99702 6.70726C4.60002 6.32326 4.58902 5.68926 4.97302 5.29326C5.35702 4.89626 5.98902 4.88426 6.38702 5.26826L7.82602 6.65726C8.22302 7.04126 8.23402 7.67526 7.85002 8.07126ZM6.16602 12.2393C6.16602 12.7923 5.71802 13.2393 5.16602 13.2393H3.16602C2.61402 13.2393 2.16602 12.7923 2.16602 12.2393C2.16602 11.6863 2.61402 11.2393 3.16602 11.2393H5.16602C5.71802 11.2393 6.16602 11.6863 6.16602 12.2393ZM22.166 12.2393C22.166 12.7923 21.719 13.2393 21.166 13.2393H19.166C18.613 13.2393 18.166 12.7923 18.166 12.2393C18.166 11.6863 18.613 11.2393 19.166 11.2393H21.166C21.719 11.2393 22.166 11.6863 22.166 12.2393ZM11.166 5.23926V3.23926C11.166 2.68626 11.614 2.23926 12.166 2.23926C12.718 2.23926 13.166 2.68626 13.166 3.23926V5.23926C13.166 5.79226 12.718 6.23926 12.166 6.23926C11.614 6.23926 11.166 5.79226 11.166 5.23926ZM13.667 14.8323C13.357 15.0113 13.166 15.3423 13.166 15.6993V20.2393H11.166V15.6993C11.166 15.3423 10.975 15.0113 10.665 14.8323C9.74002 14.3013 9.16602 13.3073 9.16602 12.2393C9.16602 10.5853 10.512 9.23926 12.166 9.23926C13.82 9.23926 15.166 10.5853 15.166 12.2393C15.166 13.3073 14.592 14.3013 13.667 14.8323ZM12.166 7.23926C9.40902 7.23926 7.16602 9.48226 7.16602 12.2393C7.16602 13.8183 7.91902 15.3013 9.16602 16.2353V20.2393C9.16602 21.3423 10.063 22.2393 11.166 22.2393H13.166C14.269 22.2393 15.166 21.3423 15.166 20.2393V16.2353C16.412 15.3013 17.166 13.8183 17.166 12.2393C17.166 9.48226 14.923 7.23926 12.166 7.23926Z" fill="white"/>
</svg>
