<svg width="25" height="25" viewBox="0 0 25 25" fill="none" xmlns="http://www.w3.org/2000/svg">
<path fill-rule="evenodd" clip-rule="evenodd" d="M12.27 20.6641H13.521V19.8971C13.521 18.9621 14.096 18.1221 14.985 17.7551C15.905 17.3721 16.91 17.5601 17.572 18.2261L18.111 18.7671L18.999 17.8791L18.454 17.3351C17.791 16.6731 17.604 15.6691 17.977 14.7781C17.977 14.7781 17.978 14.7771 17.978 14.7761L17.989 14.7481C18.353 13.8651 19.194 13.2891 20.129 13.2891H20.895V12.0391H20.129C19.194 12.0391 18.353 11.4641 17.987 10.5751C17.602 9.65506 17.791 8.65006 18.457 7.98706L18.998 7.44806L18.111 6.56106L17.566 7.10606C16.904 7.76806 15.901 7.95506 15.01 7.58306C14.097 7.20606 13.521 6.36606 13.521 5.43106V4.66406H12.27V5.43106C12.27 6.36606 11.695 7.20606 10.806 7.57306C9.88702 7.95806 8.88202 7.76906 8.21902 7.10206L7.68002 6.56106L6.79202 7.44906L7.33702 7.99306C7.99902 8.65506 8.18702 9.65906 7.81402 10.5501C7.43802 11.4631 6.59702 12.0391 5.66202 12.0391H4.89502V13.2891H5.66202C6.59702 13.2891 7.43802 13.8641 7.80402 14.7531C8.18902 15.6731 8.00002 16.6781 7.33402 17.3411L6.79302 17.8801L7.68002 18.7671L8.22502 18.2221C8.88702 17.5601 9.89002 17.3731 10.781 17.7451C11.694 18.1221 12.27 18.9621 12.27 19.8971V20.6641ZM13.838 22.6641H11.946C11.022 22.6641 10.27 21.9121 10.27 20.9881V19.8971C10.27 19.7501 10.153 19.6491 10.043 19.6041C9.89902 19.5451 9.74502 19.5331 9.63902 19.6361L8.86902 20.4071C8.21302 21.0611 7.14702 21.0631 6.49202 20.4071L5.15202 19.0671C4.83402 18.7491 4.66002 18.3271 4.66002 17.8771C4.66102 17.4281 4.83602 17.0061 5.15502 16.6881L5.92302 15.9231C6.02802 15.8181 6.01702 15.6641 5.97002 15.5531C5.91002 15.4061 5.81002 15.2891 5.66202 15.2891H4.57802C3.65002 15.2891 2.89502 14.5351 2.89502 13.6071V11.7151C2.89502 10.7901 3.64702 10.0391 4.57202 10.0391H5.66202C5.80902 10.0391 5.91002 9.92106 5.95502 9.81106C6.01502 9.66706 6.02702 9.51206 5.92302 9.40806L5.15202 8.63806C4.49802 7.98106 4.49802 6.91506 5.15202 6.26106L6.49202 4.92106C6.81002 4.60306 7.23102 4.42906 7.68002 4.42906H7.68202C8.13102 4.42906 8.55402 4.60406 8.87102 4.92306L9.63602 5.69206C9.74102 5.79806 9.89602 5.78606 10.007 5.73906C10.153 5.67806 10.27 5.57806 10.27 5.43106V4.34706C10.27 3.41906 11.025 2.66406 11.953 2.66406H13.845C14.769 2.66406 15.521 3.41606 15.521 4.34006V5.43106C15.521 5.57806 15.638 5.67906 15.748 5.72406C15.893 5.78406 16.047 5.79706 16.152 5.69206L16.922 4.92106C17.578 4.26706 18.644 4.26506 19.299 4.92106L20.64 6.26206C20.958 6.57906 21.132 7.00106 21.131 7.45106C21.131 7.89906 20.956 8.32206 20.637 8.63906L19.868 9.40506C19.763 9.51006 19.774 9.66406 19.821 9.77506C19.881 9.92206 19.981 10.0391 20.129 10.0391H21.213C22.141 10.0391 22.895 10.7931 22.895 11.7211V13.6131C22.895 14.5381 22.144 15.2891 21.219 15.2891H20.129C19.982 15.2891 19.881 15.4071 19.836 15.5171C19.835 15.5181 19.823 15.5481 19.822 15.5501C19.776 15.6611 19.764 15.8161 19.868 15.9201L20.639 16.6901C21.293 17.3471 21.293 18.4131 20.639 19.0671L19.299 20.4071C18.981 20.7251 18.56 20.8991 18.111 20.8991H18.109C17.66 20.8991 17.237 20.7241 16.92 20.4051L16.155 19.6361C16.05 19.5311 15.894 19.5431 15.784 19.5891C15.638 19.6501 15.521 19.7501 15.521 19.8971V20.9811C15.521 21.9091 14.766 22.6641 13.838 22.6641ZM12.8955 11.1641C12.0685 11.1641 11.3955 11.8371 11.3955 12.6641C11.3955 13.4911 12.0685 14.1641 12.8955 14.1641C13.7225 14.1641 14.3955 13.4911 14.3955 12.6641C14.3955 11.8371 13.7225 11.1641 12.8955 11.1641ZM12.8955 16.1641C10.9655 16.1641 9.39552 14.5941 9.39552 12.6641C9.39552 10.7341 10.9655 9.16406 12.8955 9.16406C14.8255 9.16406 16.3955 10.7341 16.3955 12.6641C16.3955 14.5941 14.8255 16.1641 12.8955 16.1641Z" fill="#111827"/>
</svg>
