<svg width="20" height="20" viewBox="0 0 25 24" fill="none" xmlns="http://www.w3.org/2000/svg">
<g id="Icons / Options / Options 2">
<path id="Color" fillRule="evenodd" clipRule="evenodd" d="M11.1123 19C10.5603 19 10.1123 18.552 10.1123 18C10.1123 17.448 10.5603 17 11.1123 17C11.6643 17 12.1123 17.448 12.1123 18C12.1123 18.552 11.6643 19 11.1123 19ZM21.1123 17H13.9273C13.5133 15.839 12.4143 15 11.1123 15C9.8103 15 8.7113 15.839 8.2973 17H3.1123C2.5593 17 2.1123 17.447 2.1123 18C2.1123 18.553 2.5593 19 3.1123 19H8.2973C8.7113 20.161 9.8103 21 11.1123 21C12.4143 21 13.5133 20.161 13.9273 19H21.1123C21.6653 19 22.1123 18.553 22.1123 18C22.1123 17.447 21.6653 17 21.1123 17ZM19.1123 13C18.5603 13 18.1123 12.552 18.1123 12C18.1123 11.448 18.5603 11 19.1123 11C19.6643 11 20.1123 11.448 20.1123 12C20.1123 12.552 19.6643 13 19.1123 13ZM19.1123 9C17.8103 9 16.7113 9.839 16.2973 11H3.1123C2.5593 11 2.1123 11.447 2.1123 12C2.1123 12.553 2.5593 13 3.1123 13H16.2973C16.7113 14.161 17.8103 15 19.1123 15C20.7663 15 22.1123 13.654 22.1123 12C22.1123 10.346 20.7663 9 19.1123 9ZM7.1123 5C7.6643 5 8.1123 5.448 8.1123 6C8.1123 6.552 7.6643 7 7.1123 7C6.5603 7 6.1123 6.552 6.1123 6C6.1123 5.448 6.5603 5 7.1123 5ZM3.1123 7H4.2973C4.7113 8.161 5.8103 9 7.1123 9C8.4143 9 9.5133 8.161 9.9273 7H21.1123C21.6653 7 22.1123 6.553 22.1123 6C22.1123 5.447 21.6653 5 21.1123 5H9.9273C9.5133 3.839 8.4143 3 7.1123 3C5.8103 3 4.7113 3.839 4.2973 5H3.1123C2.5593 5 2.1123 5.447 2.1123 6C2.1123 6.553 2.5593 7 3.1123 7Z" fill="black"/>
</g>
</svg>
