<svg width="24" height="24" viewBox="0 0 24 24" fill="none" xmlns="http://www.w3.org/2000/svg">
<path d="M11.9999 21.1664C6.93738 21.1664 2.83338 17.0626 2.83338 12.0001C2.83338 6.93756 6.93738 2.83356 11.9999 2.83356C17.0626 2.83356 21.1664 6.93756 21.1664 12.0001C21.1664 12.3704 21.4669 12.6708 21.8371 12.6708C22.2072 12.6708 22.5076 12.3702 22.5076 12.0001C22.5076 6.19694 17.803 1.49219 11.9999 1.49219C6.19675 1.49219 1.49219 6.19694 1.49219 12.0001C1.49219 17.8032 6.19675 22.5079 11.9999 22.5079C12.1758 22.505 12.3436 22.433 12.467 22.3076C12.5904 22.1821 12.6595 22.0131 12.6595 21.8372C12.6595 21.6612 12.5904 21.4922 12.467 21.3668C12.3436 21.2413 12.1758 21.1693 11.9999 21.1664Z" fill="#1DA0D6"/>
<path d="M11.3312 4.84666V12.2242H7.53025C7.35232 12.2242 7.18168 12.2949 7.05587 12.4207C6.93006 12.5465 6.85938 12.7172 6.85938 12.8951C6.85938 13.073 6.93006 13.2437 7.05587 13.3695C7.18168 13.4953 7.35232 13.566 7.53025 13.566H12.0019C12.1798 13.5659 12.3504 13.4951 12.4762 13.3693C12.602 13.2434 12.6726 13.0728 12.6726 12.8949V4.84666C12.6726 4.47616 12.3721 4.17578 12.0019 4.17578C11.6318 4.17578 11.3312 4.47634 11.3312 4.84666ZM17.3676 12.2242C14.5276 12.2242 12.2254 14.5263 12.2254 17.3664C12.2254 20.2067 14.5274 22.5088 17.3676 22.5088C20.2075 22.5088 22.5096 20.2068 22.5096 17.3664C22.5096 14.5263 20.2077 12.2242 17.3676 12.2242ZM17.4299 19.6565C17.3768 19.7268 17.3103 19.786 17.2344 19.8306C17.1584 19.8752 17.0744 19.9045 16.9871 19.9166C16.8998 19.9288 16.811 19.9236 16.7258 19.9014C16.6405 19.8793 16.5604 19.8405 16.4901 19.7874L14.4392 18.237C14.2973 18.1297 14.2038 17.9703 14.1793 17.7941C14.1548 17.6178 14.2013 17.4391 14.3087 17.2971C14.416 17.1552 14.5753 17.0617 14.7515 17.0372C14.9278 17.0127 15.1066 17.0592 15.2485 17.1665L16.7644 18.3125L18.9016 15.4852C18.954 15.413 19.0202 15.352 19.0965 15.3058C19.1728 15.2595 19.2575 15.2289 19.3457 15.2158C19.4339 15.2027 19.5239 15.2073 19.6103 15.2293C19.6967 15.2514 19.7779 15.2904 19.849 15.3442C19.9202 15.398 19.9799 15.4655 20.0247 15.5426C20.0694 15.6198 20.0984 15.7051 20.1098 15.7935C20.1212 15.882 20.1149 15.9718 20.0911 16.0578C20.0674 16.1438 20.0268 16.2242 19.9716 16.2943L17.4299 19.6565Z" fill="#1DA0D6"/>
</svg>
