<svg width="15" height="15" viewBox="0 0 25 24" fill="#45062e" xmlns="http://www.w3.org/2000/svg">
<path fill-rule="evenodd" clip-rule="evenodd" d="M19.7915 20.8889C19.7915 21.5022 19.2926 22 18.6754 22C18.0582 22 17.5594 21.5022 17.5594 20.8889C17.5594 17.8256 15.056 15.3333 11.979 15.3333C8.90199 15.3333 6.39865 17.8256 6.39865 20.8889C6.39865 21.5022 5.89976 22 5.28258 22C4.66539 22 4.1665 21.5022 4.1665 20.8889C4.1665 16.6 7.67208 13.1111 11.979 13.1111C16.2859 13.1111 19.7915 16.6 19.7915 20.8889ZM11.979 4.22222C13.21 4.22222 14.2111 5.21889 14.2111 6.44444C14.2111 7.67 13.21 8.66667 11.979 8.66667C10.748 8.66667 9.74686 7.67 9.74686 6.44444C9.74686 5.21889 10.748 4.22222 11.979 4.22222ZM11.979 10.8889C14.4411 10.8889 16.4433 8.89556 16.4433 6.44444C16.4433 3.99333 14.4411 2 11.979 2C9.51695 2 7.51472 3.99333 7.51472 6.44444C7.51472 8.89556 9.51695 10.8889 11.979 10.8889Z" />
</svg>
