<svg width="26" height="26" viewBox="0 0 26 26" fill="none" xmlns="http://www.w3.org/2000/svg">
<path d="M18.8778 7.11875L17.5409 3.90741M20.3562 5.64032L19.0194 2.42902M17.4599 8.53663L16.123 5.32529C16.0863 5.23699 16.0766 5.13975 16.0951 5.04592C16.1137 4.95209 16.1597 4.8659 16.2274 4.79827L19.8842 1.14157C20.1273 0.898488 20.5393 0.980046 20.6714 1.29744L21.8553 4.14127L17.4599 8.53663Z" stroke="#111827" stroke-miterlimit="10" stroke-linecap="round" stroke-linejoin="round"/>
<path d="M21.8614 4.14123L24.7052 5.3251C25.0226 5.45722 25.1042 5.86926 24.8611 6.11234L21.2043 9.76905C21.1367 9.83669 21.0505 9.88272 20.9567 9.9013C20.8628 9.91988 20.7656 9.91017 20.6773 9.8734L17.466 8.53659L21.8614 4.14123ZM21.8614 4.14123L13.0029 12.9996M18.8839 7.11871L22.0953 8.45552M20.3623 5.64028L23.5737 6.97713M5.71875 3.46288C7.73853 1.91791 10.2635 1 13.0029 1C15.0329 1 16.9452 1.50408 18.6214 2.39388" stroke="#111827" stroke-miterlimit="10" stroke-linecap="round" stroke-linejoin="round"/>
<path d="M23.7136 7.59068C24.5362 9.21635 24.9996 11.0545 24.9996 13.001C24.9996 19.6281 19.6271 25.0005 12.9998 25.0005C6.37248 25.0005 1 19.6281 1 13.001C1 9.7395 2.30119 6.78196 4.41277 4.61914" stroke="#111827" stroke-miterlimit="10" stroke-linecap="round" stroke-linejoin="round"/>
<path d="M20.7657 17.4147C19.2287 20.1115 16.3273 21.9297 13.0012 21.9297C8.06878 21.9297 4.07031 17.9313 4.07031 12.999C4.07031 8.06675 8.06878 4.06836 13.0012 4.06836C14.144 4.06836 15.2366 4.283 16.241 4.67418M21.3262 9.75929C21.7174 10.7637 21.932 11.8563 21.932 12.999C21.932 13.9978 21.7681 14.9582 21.4656 15.8549" stroke="#111827" stroke-miterlimit="10" stroke-linecap="round" stroke-linejoin="round"/>
<path d="M13.0042 19.1194C16.3849 19.1194 19.1255 16.3788 19.1255 12.9982C19.1255 9.61752 16.3849 6.87695 13.0042 6.87695C9.62343 6.87695 6.88281 9.61752 6.88281 12.9982C6.88281 16.3788 9.62343 19.1194 13.0042 19.1194Z" stroke="#111827" stroke-miterlimit="10" stroke-linecap="round" stroke-linejoin="round"/>
<path d="M12.9976 16.2391C14.7868 16.2391 16.2373 14.7887 16.2373 12.9995C16.2373 11.2102 14.7868 9.75977 12.9976 9.75977C11.2083 9.75977 9.75781 11.2102 9.75781 12.9995C9.75781 14.7887 11.2083 16.2391 12.9976 16.2391Z" stroke="#111827" stroke-miterlimit="10" stroke-linecap="round" stroke-linejoin="round"/>
</svg>
