<svg width="59" height="52" viewBox="0 0 59 52" fill="none" xmlns="http://www.w3.org/2000/svg">
<path d="M0.0903389 0.301318L22.2903 0.30132L22.2903 22.5013C22.2903 26.5013 21.8903 30.2346 21.0903 33.7013C20.157 37.3013 18.8237 40.4347 17.0903 43.1013C15.2237 45.768 12.957 47.9013 10.2903 49.5013C7.49033 51.1013 4.157 51.9013 0.290332 51.9013L0.290333 41.9013C2.557 41.9013 4.42367 41.3013 5.89033 40.1013C7.357 39.0347 8.557 37.568 9.49033 35.7013C10.4237 33.8346 11.0903 31.7013 11.4903 29.3013C11.757 27.0347 11.8903 24.768 11.8903 22.5013L0.090337 22.5013L0.0903389 0.301318ZM36.6903 0.301321L58.8903 0.301323L58.8903 22.5013C58.8903 26.5013 58.4903 30.2347 57.6903 33.7013C56.757 37.3013 55.4237 40.4347 53.6903 43.1013C51.8237 45.768 49.557 47.9013 46.8903 49.5013C44.0903 51.1013 40.757 51.9013 36.8903 51.9013L36.8903 41.9013C39.157 41.9013 41.0237 41.3013 42.4903 40.1013C43.957 39.0347 45.157 37.568 46.0903 35.7013C47.0237 33.8347 47.6903 31.7013 48.0903 29.3013C48.357 27.0347 48.4903 24.768 48.4903 22.5013L36.6903 22.5013L36.6903 0.301321Z" fill="#111827"/>
</svg>
