<svg width="25" height="24" viewBox="0 0 25 24" fill="none" xmlns="http://www.w3.org/2000/svg">
<path d="M12.5084 5.37805C12.5505 4.79601 12.7427 4.23481 13.0663 3.74924C13.39 3.26366 13.834 2.8703 14.3551 2.60755C14.8761 2.34481 15.4564 2.22165 16.0393 2.25011C16.6221 2.27857 17.1876 2.45767 17.6806 2.76992C17.737 2.8068 17.7824 2.85818 17.812 2.91866C17.8417 2.97914 17.8545 3.04649 17.8491 3.11363C17.8437 3.18077 17.8204 3.24522 17.7815 3.30022C17.7426 3.35522 17.6896 3.39873 17.6281 3.42617C16.7711 3.81174 16.0437 4.43651 15.5331 5.22545C15.0226 6.01439 14.7507 6.93395 14.75 7.87367C14.75 7.98336 14.75 8.09305 14.7612 8.20086C14.7664 8.26901 14.7529 8.33727 14.7221 8.39827C14.6913 8.45927 14.6444 8.5107 14.5865 8.54699C14.5285 8.58328 14.4618 8.60305 14.3935 8.60417C14.3252 8.6053 14.2578 8.58773 14.1987 8.55336C13.6463 8.23733 13.1944 7.77152 12.8953 7.20967C12.5962 6.64782 12.4621 6.01285 12.5084 5.37805ZM23 15.0559C23.0013 15.4844 22.8826 15.9048 22.6573 16.2693C22.4319 16.6339 22.109 16.928 21.725 17.1184L21.6838 17.1371L18.0434 18.6877C18.0075 18.7036 17.9701 18.7161 17.9319 18.7252L11.9319 20.2252C11.8724 20.2405 11.8114 20.2484 11.75 20.2487H2C1.60218 20.2487 1.22064 20.0906 0.93934 19.8093C0.658035 19.528 0.5 19.1465 0.5 18.7487V14.9987C0.5 14.6009 0.658035 14.2193 0.93934 13.938C1.22064 13.6567 1.60218 13.4987 2 13.4987H4.68969L6.81031 11.3771C7.08838 11.0978 7.41904 10.8764 7.78319 10.7256C8.14733 10.5748 8.53775 10.4977 8.93188 10.4987H13.625C14.0212 10.4986 14.4122 10.5883 14.7688 10.7608C15.1254 10.9334 15.4383 11.1845 15.6841 11.4952C15.9298 11.8059 16.1021 12.1682 16.1879 12.5549C16.2738 12.9417 16.2709 13.3429 16.1797 13.7284L20.1022 12.8265C20.4437 12.7361 20.8013 12.7252 21.1477 12.7949C21.494 12.8645 21.8197 13.0128 22.0996 13.2282C22.3796 13.4435 22.6064 13.7204 22.7625 14.0372C22.9186 14.3541 22.9999 14.7026 23 15.0559ZM21.5 15.0559C21.4999 14.9319 21.4712 14.8095 21.4162 14.6984C21.3611 14.5873 21.2812 14.4903 21.1827 14.4151C21.0841 14.3398 20.9695 14.2883 20.8478 14.2645C20.7261 14.2406 20.6006 14.2452 20.4809 14.2777L20.4519 14.2852L14.1706 15.7299C14.1155 15.7422 14.0593 15.7485 14.0028 15.7487H11C10.8011 15.7487 10.6103 15.6697 10.4697 15.529C10.329 15.3884 10.25 15.1976 10.25 14.9987C10.25 14.7998 10.329 14.609 10.4697 14.4683C10.6103 14.3277 10.8011 14.2487 11 14.2487H13.625C13.9234 14.2487 14.2095 14.1301 14.4205 13.9192C14.6315 13.7082 14.75 13.422 14.75 13.1237C14.75 12.8253 14.6315 12.5392 14.4205 12.3282C14.2095 12.1172 13.9234 11.9987 13.625 11.9987H8.93188C8.73482 11.998 8.53961 12.0366 8.35758 12.1121C8.17555 12.1876 8.01035 12.2985 7.87156 12.4384L5.75 14.559V18.7487H11.6562L17.5091 17.2852L21.0716 15.7684C21.2012 15.7 21.3097 15.5975 21.3852 15.4719C21.4608 15.3463 21.5005 15.2024 21.5 15.0559ZM16.25 7.87367C16.25 8.54119 16.4479 9.19371 16.8188 9.74872C17.1896 10.3037 17.7167 10.7363 18.3334 10.9918C18.9501 11.2472 19.6287 11.314 20.2834 11.1838C20.9381 11.0536 21.5395 10.7322 22.0115 10.2602C22.4835 9.78816 22.8049 9.18679 22.9352 8.5321C23.0654 7.87742 22.9985 7.19882 22.7431 6.58212C22.4876 5.96542 22.0551 5.43831 21.5 5.06746C20.945 4.69661 20.2925 4.49867 19.625 4.49867C18.7299 4.49867 17.8715 4.85425 17.2385 5.48719C16.6056 6.12012 16.25 6.97857 16.25 7.87367Z" fill="#0b0b0b"/>
</svg>
