<svg width="131" height="52" viewBox="0 0 131 52" fill="none" xmlns="http://www.w3.org/2000/svg">
<g id="Frame" clip-path="url(#clip0_24_1713)">
<g id="Group">
<path id="Vector" d="M38.6901 40.1142C36.4369 41.8971 33.9878 42.7885 31.1468 42.7885C29.8732 42.7885 28.6976 42.5904 27.5221 42.2933C26.6404 45.1657 25.0729 47.4438 22.6238 49.3257C20.1747 51.1085 17.5296 52 14.4927 52C10.77 52 7.53713 50.6133 4.89207 47.939C2.247 45.2647 0.875488 41.9962 0.875488 38.2323V21.3942H9.98626V38.2323C9.98626 39.52 10.4761 40.6095 11.3578 41.5009C12.2395 42.3923 13.3171 42.8876 14.5906 42.8876C15.8642 42.8876 16.9418 42.3923 17.8235 41.5009C18.7052 40.6095 19.195 39.52 19.195 38.2323V15.2533H28.3058V30.5066C28.3058 31.3981 28.5997 32.0914 29.1875 32.6857C29.7753 33.28 30.2651 33.6762 31.1468 33.6762C32.0285 33.6762 32.7142 33.379 33.302 32.7847C33.8898 32.1904 34.1837 31.4971 34.1837 30.6057V15.2533H43.2945V30.5066C43.2945 31.3981 43.5884 32.0914 44.1762 32.6857C44.764 33.28 45.4497 33.5771 46.3314 33.5771C47.2131 33.5771 47.8988 33.28 48.4866 32.6857C49.0744 32.0914 49.3683 31.3981 49.3683 30.5066V15.2533H58.4791V29.0209C58.4791 30.3085 58.9689 31.3981 59.8506 32.2895C60.7323 33.1809 61.8099 33.6762 63.0835 33.6762V42.8876C59.8506 42.8876 57.0096 41.8971 54.4625 39.8171C52.2093 41.8971 49.4663 42.8876 46.4294 42.8876C43.3924 42.7885 40.9433 41.8971 38.6901 40.1142Z" fill="black"/>
<path id="Vector_2" d="M62.8877 33.6762H68.1778C67.688 32.1905 67.3941 30.7048 67.3941 29.12C67.3941 25.3562 68.7656 22.0876 71.4107 19.4133C74.0557 16.7391 77.2886 15.3524 81.0113 15.3524C84.734 15.3524 87.9668 16.7391 90.6119 19.4133C93.2569 22.0876 94.6285 25.3562 94.6285 29.12C94.6285 32.8838 93.2569 36.1524 90.6119 38.8267C87.9668 41.501 84.734 42.8876 81.0113 42.8876H62.8877V33.6762ZM85.5177 29.021C85.5177 27.7333 85.0279 26.6438 84.1462 25.7524C83.2645 24.861 82.1869 24.3657 80.9133 24.3657C79.6398 24.3657 78.5622 24.861 77.6805 25.7524C76.7988 26.6438 76.3089 27.7333 76.3089 29.021C76.3089 30.3086 76.7988 31.3981 77.6805 32.2895C78.5622 33.181 79.6398 33.6762 80.9133 33.6762C82.1869 33.6762 83.2645 33.181 84.1462 32.2895C85.0279 31.3981 85.5177 30.3086 85.5177 29.021ZM77.3866 8.61715C77.3866 7.62668 77.7784 6.73525 78.4642 6.04192C79.1499 5.34858 80.0316 4.95239 81.0113 4.95239C81.9909 4.95239 82.8726 5.34858 83.5584 6.04192C84.2441 6.73525 84.636 7.62668 84.636 8.61715C84.636 9.60763 84.2441 10.4991 83.5584 11.1924C82.8726 11.8857 81.9909 12.2819 81.0113 12.2819C80.0316 12.2819 79.1499 11.8857 78.4642 11.1924C77.7784 10.4991 77.3866 9.60763 77.3866 8.61715Z" fill="black"/>
<path id="Vector_3" d="M114.025 32.2895C114.907 33.181 115.985 33.6762 117.258 33.6762V42.8876C113.536 42.8876 110.303 41.501 107.658 38.8267C105.013 36.1524 103.641 32.8838 103.641 29.12V0H112.752V29.021C112.752 30.3086 113.144 31.3981 114.025 32.2895Z" fill="black"/>
<path id="Vector_4" d="M117.258 33.6762C118.532 33.6762 119.609 33.181 120.491 32.2895C121.373 31.3981 121.863 30.3086 121.863 29.021V15.2533H130.973V29.021C130.973 32.7848 129.602 36.0533 126.957 38.7276C124.312 41.4019 121.079 42.7886 117.356 42.7886V33.6762H117.258ZM123.724 11.1924C124.41 11.8857 125.291 12.2819 126.271 12.2819C127.251 12.2819 128.132 11.8857 128.818 11.1924C129.504 10.4991 129.896 9.60763 129.896 8.61715C129.896 7.62668 129.504 6.73525 128.818 6.04192C128.132 5.34858 127.349 4.95239 126.271 4.95239C125.291 4.95239 124.41 5.34858 123.724 6.04192C123.038 6.73525 122.646 7.62668 122.646 8.61715C122.646 9.60763 123.038 10.4991 123.724 11.1924Z" fill="black"/>
</g>
</g>
<defs>
<clipPath id="clip0_24_1713">
<rect width="130" height="52" fill="white" transform="translate(0.875488)"/>
</clipPath>
</defs>
</svg>
