<svg width="25" height="25" viewBox="0 0 25 25" fill="none" xmlns="http://www.w3.org/2000/svg">
<g id="Icons / Search">
<path id="Color" fillRule="evenodd" clipRule="evenodd" d="M5.87549 11.4438C5.87549 8.13485 8.56649 5.44385 11.8755 5.44385C15.1845 5.44385 17.8755 8.13485 17.8755 11.4438C17.8755 14.7528 15.1845 17.4438 11.8755 17.4438C8.56649 17.4438 5.87549 14.7528 5.87549 11.4438ZM21.5825 19.7368L18.1875 16.3408C19.2405 14.9868 19.8755 13.2898 19.8755 11.4438C19.8755 7.03285 16.2865 3.44385 11.8755 3.44385C7.46449 3.44385 3.87549 7.03285 3.87549 11.4438C3.87549 15.8548 7.46449 19.4438 11.8755 19.4438C13.7215 19.4438 15.4185 18.8088 16.7725 17.7558L20.1685 21.1508C20.3635 21.3458 20.6195 21.4438 20.8755 21.4438C21.1315 21.4438 21.3875 21.3458 21.5825 21.1508C21.9735 20.7598 21.9735 20.1278 21.5825 19.7368Z" fill="#095183"/>
</g>
</svg>
