<svg  xmlns="http://www.w3.org/2000/svg" viewBox="0 0 1000 569.67" fill="#0b0b0b"><path class="cls-1" d="M398.61,380.35c-13.7-7.23-28.92-10.85-45.66-10.85-15.48,0-30.44,2.73-44.91,8.18-14.46,5.46-27.65,13.77-39.58,24.93l33.49,36.15c6.09-5.83,13.19-10.46,21.31-13.89,8.12-3.42,16.23-5.14,24.35-5.14,8.62,0,16.17,1.84,22.64,5.52,6.47,3.68,9.7,9.45,9.7,17.31l.38,6.47c-13.7-2.28-26.89-3.42-39.58-3.42-25.37,0-45.67,4.89-60.89,14.65-15.22,9.77-22.83,24.68-22.83,44.71s6.15,34.44,18.46,46.24c12.3,11.8,29.87,17.7,52.71,17.7,14.71,0,27.33-2.66,37.86-7.99,10.53-5.33,18.2-12.68,23.02-22.07v25.5h53.66v-111.88c0-15.47-3.94-29.55-11.8-42.24-7.87-12.68-18.65-22.64-32.35-29.87ZM380.73,489.75c0,10.4-3.11,18.52-9.32,24.35-6.22,5.84-15.03,8.75-26.45,8.75-9.39,0-15.98-1.9-19.79-5.71-3.8-3.8-5.71-9.26-5.71-16.36,0-13.7,10.78-20.55,32.35-20.55,7.86,0,17.5,1.02,28.92,3.04v6.47Z"/><path class="cls-1" d="M504.45,325.3c-11.93,9.01-17.89,23.15-17.89,42.43v35.01h-34.25v56.32h34.25v105.28h63.93v-105.28h47.19v-56.32h-47.19v-30.06c0-3.55,1.01-5.33,3.04-5.33h44.14v-55.56h-49.09c-17.5,0-32.22,4.51-44.14,13.51Z"/><path class="cls-1" d="M787.14,395.57c-18.27-16.87-43.51-25.31-75.73-25.31-20.04,0-37.99,4.06-53.85,12.18-15.86,8.12-28.23,19.6-37.1,34.44-8.88,14.84-13.32,31.91-13.32,51.18s4.44,37.23,13.32,52.32c8.88,15.1,21.37,26.83,37.48,35.2,16.11,8.37,34.82,12.56,56.13,12.56,19.53,0,37.8-2.79,54.8-8.37,16.99-5.58,29.55-13.06,37.67-22.45l-34.63-38.05c-5.33,5.08-13.07,9.2-23.21,12.37-10.15,3.18-20.81,4.76-31.97,4.76s-22.07-2.91-31.2-8.75c-9.13-5.83-13.7-13.19-13.7-22.07h141.56c.76-6.59,1.14-12.81,1.14-18.65,0-30.69-9.13-54.48-27.4-71.35ZM671.07,446.75c0-4.31,1.84-8.75,5.52-13.32,3.67-4.57,8.62-8.43,14.84-11.61,6.21-3.17,12.87-4.76,19.98-4.76,12.18,0,21.75,2.92,28.73,8.75,6.98,5.84,10.47,12.81,10.47,20.93h-79.53Z"/><path class="cls-1" d="M942.54,446.37l-33.11-7.99c-6.34-1.52-10.85-3.17-13.51-4.95-2.66-1.77-4-3.93-4-6.47,0-3.04,1.77-5.52,5.33-7.42,3.55-1.9,8.62-2.85,15.22-2.85,17.25,0,36.02,6.34,56.32,19.03l28.16-43.38c-9.39-8.62-21.56-15.47-36.53-20.55-14.97-5.07-30.82-7.61-47.57-7.61-25.88,0-46.43,5.96-61.65,17.89-15.22,11.93-22.83,27.78-22.83,47.57,0,14.21,4.5,26.01,13.51,35.39,9,9.39,23.15,16.36,42.43,20.93l33.11,7.99c6.34,1.52,10.97,3.3,13.89,5.33,2.91,2.03,4.38,4.57,4.38,7.61,0,3.3-1.9,5.9-5.71,7.8-3.81,1.9-9.39,2.85-16.74,2.85-11.17,0-22.58-2.09-34.25-6.28-11.67-4.19-21.82-9.7-30.44-16.55l-27.4,43.76c10.14,9.89,23.27,17.57,39.39,23.02,16.11,5.45,33.42,8.18,51.94,8.18,27.4,0,48.83-5.9,64.31-17.7,15.47-11.8,23.21-27.97,23.21-48.52,0-14.46-4.51-26.32-13.51-35.58-9.01-9.26-23.66-16.42-43.95-21.5Z"/><path class="cls-1" d="M940.64,207.39c0,3.04-.95,5.52-2.86,7.42-1.9,1.9-4.37,2.85-7.42,2.85h-40.33c-2.54,0-4.82-1.01-6.85-3.04-2.03-2.03-3.04-4.31-3.04-6.85V0h-59.36v207.77c0,12.43,3.1,23.97,9.32,34.63,6.21,10.66,14.65,19.09,25.3,25.31,10.66,6.22,22.2,9.32,34.63,9.32h39.95c12.68,0,24.42-3.17,35.2-9.51,10.78-6.34,19.27-14.84,25.5-25.5,6.22-10.66,9.32-22.2,9.32-34.63v-120.63h-59.36v120.63Z"/><path class="cls-1" d="M266.49,357.71c11.16,0,21.44-2.73,30.82-8.18,9.38-5.46,16.8-12.88,22.26-22.26,5.45-9.39,8.18-19.66,8.18-30.82v-23.59c9.38,2.79,20.67,4.19,33.87,4.19,10.66,0,20.87-1.84,30.64-5.52,9.76-3.67,18.32-8.94,25.69-15.79,16.49,14.21,36.27,21.31,59.36,21.31,20.55,0,38.56-5.58,54.04-16.74,6.34,5.33,13.38,9.45,21.12,12.37,7.74,2.92,15.79,4.38,24.16,4.38h176.95c10.66,0,19.72-3.81,27.21-11.42,7.48-7.61,11.23-16.74,11.23-27.4V86.76h-92.47c-17,0-32.79,3.87-47.38,11.61-14.59,7.74-26.2,18.4-34.82,31.97-8.63,13.57-12.94,28.73-12.94,45.47v4.57c0,14.97,2.15,27.4,6.47,37.29h-34.25c-2.54,0-4.76-1.01-6.66-3.04-1.9-2.03-2.85-4.44-2.85-7.23v-120.63h-59.75v103.51c0,7.61-2.73,14.08-8.18,19.41-5.46,5.33-11.86,7.99-19.22,7.99-9.39,0-17-2.28-22.83-6.85-5.84-4.57-8.75-11.04-8.75-19.41v-65.45h-59.36v64.31c0,7.87-2.79,14.4-8.37,19.6-5.58,5.2-13.19,7.8-22.83,7.8s-16.74-2.41-22.07-7.23c-5.33-4.82-7.99-11.16-7.99-19.03v-67.74h-59.36v158.3c0,4.31-1.59,8.05-4.76,11.23-3.18,3.17-6.91,4.76-11.22,4.76h-76.22v158.68l-113.78-158.68H0v266.38h65.45v-158.68l113.78,158.68h62.41v-206.63h24.85ZM662.63,180.38c0-10.4,3.67-19.28,11.04-26.64,7.35-7.35,16.11-11.04,26.26-11.04h33.11v68.88c0,1.78-.57,3.23-1.71,4.38-1.14,1.14-2.47,1.71-4,1.71h-27.4c-9.64,0-18.14-3.36-25.5-10.08-7.36-6.72-11.29-15.03-11.8-24.93v-2.28Z"/><path class="cls-1" d="M707.89,65.83c9.14,0,16.94-3.23,23.41-9.7,6.47-6.47,9.7-14.27,9.7-23.4s-3.24-16.55-9.7-23.02c-6.47-6.47-14.27-9.7-23.41-9.7s-16.93,3.23-23.4,9.7c-6.47,6.47-9.7,14.15-9.7,23.02s3.24,16.93,9.7,23.4c6.47,6.47,14.27,9.7,23.4,9.7Z"/><path class="cls-1" d="M966.89,65.83c9.13,0,16.93-3.23,23.41-9.7,6.47-6.47,9.7-14.27,9.7-23.4s-3.24-16.55-9.7-23.02c-6.47-6.47-14.27-9.7-23.41-9.7s-16.93,3.23-23.4,9.7c-6.47,6.47-9.7,14.15-9.7,23.02s3.24,16.93,9.7,23.4c6.47,6.47,14.27,9.7,23.4,9.7Z"/><path class="cls-1" d="M59.36,101.95l139.84,139.84,42.25-42.25L101.65,59.74h82.49V0H61.27c-11.16,0-21.44,2.73-30.82,8.18-9.38,5.46-16.8,12.88-22.26,22.26C2.73,39.83,0,50.11,0,61.27v122.87h59.36v-82.19Z"/></svg>