<svg width="82" height="30" viewBox="0 0 82 30" fill="none" xmlns="http://www.w3.org/2000/svg">
<path d="M0 24.8078C0 19.864 4.00772 15.8563 8.95162 15.8563H15.5157C18.7757 15.8563 21.4184 13.2136 21.4184 9.95353C21.4184 6.6935 18.7757 4.05082 15.5157 4.05082H2.0237V0.00320373H15.5157C21.011 0.00320373 25.466 4.45817 25.466 9.95353C25.466 15.4489 21.011 19.9038 15.5157 19.9038H8.95162C6.24325 19.9038 4.04762 22.0995 4.04762 24.8078V28.8555H0V24.8078Z" fill="url(#paint0_linear_339_4976)"/>
<path d="M37.0617 26.103L24.8906 0.00215512H29.3566L40.7301 24.3925C40.8975 24.7517 41.3244 24.9071 41.6835 24.7397C41.8363 24.6683 41.9593 24.5454 42.0306 24.3925L53.4039 0.00215512H57.8699L45.6988 26.103C45.2254 27.1184 44.4094 27.9345 43.3942 28.4078C41.0091 29.5201 38.1738 28.4883 37.0617 26.103Z" fill="url(#paint1_linear_339_4976)"/>
<path d="M63.051 19.9766H59.3926L68.5297 9.08743L60.9044 -2.77727e-05H64.5628L70.3588 6.90752L76.155 -2.77727e-05H79.8133L63.051 19.9766Z" fill="url(#paint2_linear_339_4976)"/>
<path d="M77.667 19.9766L71.2598 12.3409L73.0889 10.1609L81.3253 19.9766H77.667Z" fill="url(#paint3_linear_339_4976)"/>
<path d="M59.3848 21.3654H64.6865V22.8516H59.3848V21.3654Z" fill="url(#paint4_linear_339_4976)"/>
<path d="M59.3848 24.3537H64.6865V25.8398H59.3848V24.3537Z" fill="url(#paint5_linear_339_4976)"/>
<path d="M59.3848 27.3381H64.6865V28.8242H59.3848V27.3381Z" fill="url(#paint6_linear_339_4976)"/>
<path d="M67.7012 21.3654H73.0029V22.8516H67.7012V21.3654Z" fill="url(#paint7_linear_339_4976)"/>
<path d="M81.3184 21.0117C81.5139 21.012 81.6729 21.1706 81.6729 21.3662V28.8262C81.6727 28.9973 81.551 29.1407 81.3896 29.1738L81.3184 29.1807H76.0166C75.8453 29.1807 75.7021 29.0589 75.6689 28.8975L75.6621 28.8262V21.3662C75.6621 21.1704 75.8208 21.0117 76.0166 21.0117H81.3184ZM77.502 22.4971C77.3064 22.4973 77.1476 22.656 77.1475 22.8516V27.3398L77.1543 27.4111C77.1872 27.5727 77.3307 27.6942 77.502 27.6943H79.8311L79.9033 27.6875C80.0647 27.6543 80.1855 27.511 80.1855 27.3398V22.8516C80.1854 22.6559 80.0267 22.4971 79.8311 22.4971H77.502Z" fill="url(#paint8_linear_339_4976)"/>
<path d="M73.002 23.9961C73.1975 23.9963 73.3564 24.156 73.3564 24.3516V28.8242C73.3564 28.9955 73.2347 29.1387 73.0732 29.1719L73.002 29.1787H67.7002C67.5288 29.1787 67.3855 29.0571 67.3525 28.8955L67.3457 28.8242V24.3516C67.3457 24.1558 67.5044 23.9961 67.7002 23.9961H73.002ZM69.1855 25.4824C68.99 25.4826 68.8313 25.6414 68.8311 25.8369V27.3379L68.8379 27.4092C68.8708 27.5707 69.0143 27.6922 69.1855 27.6924H71.5146L71.5859 27.6855C71.7477 27.6527 71.8691 27.5094 71.8691 27.3379V25.8369C71.8689 25.6413 71.7103 25.4824 71.5146 25.4824H69.1855Z" fill="url(#paint9_linear_339_4976)"/>
<defs>
<linearGradient id="paint0_linear_339_4976" x1="13" y1="40.5" x2="13" y2="-3.8452e-06" gradientUnits="userSpaceOnUse">
<stop stop-color="#2563EB"/>
<stop offset="1" stop-color="#8200FF"/>
</linearGradient>
<linearGradient id="paint1_linear_339_4976" x1="41" y1="40" x2="41" y2="3.60215e-06" gradientUnits="userSpaceOnUse">
<stop stop-color="#2563EB"/>
<stop offset="1" stop-color="#8200FF"/>
</linearGradient>
<linearGradient id="paint2_linear_339_4976" x1="69.1187" y1="19.292" x2="69.1187" y2="-11.5234" gradientUnits="userSpaceOnUse">
<stop stop-color="#8200FF"/>
<stop offset="1" stop-color="#2563EB"/>
</linearGradient>
<linearGradient id="paint3_linear_339_4976" x1="76.0538" y1="19.6402" x2="76.0538" y2="4.49883" gradientUnits="userSpaceOnUse">
<stop stop-color="#8200FF"/>
<stop offset="1" stop-color="#2563EB"/>
</linearGradient>
<linearGradient id="paint4_linear_339_4976" x1="61.9099" y1="22.8006" x2="61.9099" y2="19.3971" gradientUnits="userSpaceOnUse">
<stop stop-color="#8200FF"/>
<stop offset="1" stop-color="#2563EB"/>
</linearGradient>
<linearGradient id="paint5_linear_339_4976" x1="61.9099" y1="25.7889" x2="61.9099" y2="22.3854" gradientUnits="userSpaceOnUse">
<stop stop-color="#8200FF"/>
<stop offset="1" stop-color="#2563EB"/>
</linearGradient>
<linearGradient id="paint6_linear_339_4976" x1="61.9099" y1="28.7733" x2="61.9099" y2="25.3697" gradientUnits="userSpaceOnUse">
<stop stop-color="#8200FF"/>
<stop offset="1" stop-color="#2563EB"/>
</linearGradient>
<linearGradient id="paint7_linear_339_4976" x1="70.2263" y1="22.8006" x2="70.2263" y2="19.3971" gradientUnits="userSpaceOnUse">
<stop stop-color="#8200FF"/>
<stop offset="1" stop-color="#2563EB"/>
</linearGradient>
<linearGradient id="paint8_linear_339_4976" x1="78.525" y1="21.2917" x2="78.525" y2="40" gradientUnits="userSpaceOnUse">
<stop stop-color="#8200FF"/>
<stop offset="1" stop-color="#2563EB"/>
</linearGradient>
<linearGradient id="paint9_linear_339_4976" x1="70.2086" y1="24.1737" x2="70.2086" y2="36.0428" gradientUnits="userSpaceOnUse">
<stop stop-color="#8200FF"/>
<stop offset="1" stop-color="#2563EB"/>
</linearGradient>
</defs>
</svg>
