<svg width="24" height="24" viewBox="0 0 24 24" fill="none" xmlns="http://www.w3.org/2000/svg">
<path fill-rule="evenodd" clip-rule="evenodd" d="M19.7387 19.3979C18.7671 20.3696 17.6136 21.1403 16.3441 21.6662C15.0746 22.1921 13.7139 22.4627 12.3398 22.4627C6.56466 22.4627 1.87578 17.774 1.87578 11.9989C1.87578 6.2238 6.56466 1.53516 12.3398 1.53516C13.7139 1.53513 15.0746 1.80577 16.3441 2.33163C17.6136 2.85749 18.7671 3.62827 19.7387 4.59996C19.8762 4.74125 19.9525 4.93098 19.9512 5.1281C19.9498 5.32522 19.8709 5.51389 19.7315 5.65328C19.5921 5.79267 19.4034 5.87158 19.2063 5.87293C19.0092 5.87428 18.8195 5.79798 18.6782 5.66052C16.9971 3.97954 14.7171 3.03517 12.3398 3.03516C7.39242 3.03516 3.37602 7.05156 3.37602 11.9989C3.37602 16.9463 7.39242 20.9627 12.3398 20.9627C14.7171 20.9627 16.9971 20.0183 18.6782 18.3373C18.8195 18.1999 19.0092 18.1235 19.2063 18.1249C19.4034 18.1263 19.5921 18.2052 19.7315 18.3446C19.8709 18.4839 19.9498 18.6726 19.9512 18.8697C19.9525 19.0669 19.8762 19.2566 19.7387 19.3979Z" fill="#085186"/>
<path fill-rule="evenodd" clip-rule="evenodd" d="M7.14353 11.4219H21.2258C21.4214 11.4268 21.6073 11.508 21.744 11.6481C21.8806 11.7882 21.957 11.9762 21.957 12.1719C21.957 12.3676 21.8806 12.5555 21.744 12.6956C21.6073 12.8357 21.4214 12.9169 21.2258 12.9219H7.14353C6.9479 12.9169 6.76195 12.8357 6.62534 12.6956C6.48872 12.5555 6.41226 12.3676 6.41226 12.1719C6.41226 11.9762 6.48872 11.7882 6.62534 11.6481C6.76195 11.508 6.9479 11.4268 7.14353 11.4219Z" fill="#085186"/>
<path fill-rule="evenodd" clip-rule="evenodd" d="M16.4325 7.47439L21.0911 10.5315C21.3631 10.7101 21.5865 10.9535 21.7411 11.2398C21.8956 11.5261 21.9766 11.8464 21.9766 12.1718C21.9766 12.4972 21.8956 12.8175 21.7411 13.1038C21.5865 13.3901 21.3631 13.6335 21.0911 13.8121L16.4325 16.8692C16.2662 16.976 16.0645 17.0128 15.8711 16.9717C15.6778 16.9306 15.5086 16.8148 15.4002 16.6496C15.2917 16.4844 15.2529 16.2831 15.2921 16.0894C15.3313 15.8957 15.4454 15.7253 15.6095 15.6152L20.2679 12.5578C20.3321 12.5159 20.3848 12.4587 20.4213 12.3913C20.4578 12.3238 20.477 12.2484 20.477 12.1717C20.477 12.0951 20.4579 12.0196 20.4215 11.9522C20.385 11.8847 20.3323 11.8275 20.2681 11.7855L15.6095 8.72839C15.4454 8.61833 15.3313 8.44793 15.2921 8.25423C15.2529 8.06054 15.2917 7.85919 15.4002 7.69397C15.5086 7.52875 15.6778 7.413 15.8711 7.37188C16.0645 7.33077 16.2662 7.36761 16.4325 7.47439Z" fill="#085186"/>
</svg>
