<svg width="21" height="20" viewBox="0 0 21 20" fill="none" xmlns="http://www.w3.org/2000/svg">
<g id="Facebook" clip-path="url(#clip0_32_69)">
<path id="Vector" d="M20.4326 9.78451C20.4326 4.45982 15.9555 0.143311 10.4326 0.143311C4.90977 0.143311 0.432617 4.45982 0.432617 9.78451C0.432617 14.5966 4.08945 18.5853 8.87012 19.3086V12.5714H6.33105V9.78451H8.87012V7.66044C8.87012 5.24411 10.3631 3.90941 12.6473 3.90941C13.741 3.90941 14.8857 4.09771 14.8857 4.09771V6.47035H13.6248C12.3826 6.47035 11.9951 7.21359 11.9951 7.97679V9.78451H14.7686L14.3252 12.5714H11.9951V19.3086C16.7758 18.5853 20.4326 14.5966 20.4326 9.78451Z" fill="white"/>
</g>
<defs>
<clipPath id="clip0_32_69">
<rect width="20" height="19.2824" fill="white" transform="translate(0.432617 0.143311)"/>
</clipPath>
</defs>
</svg>
