<svg width="21" height="20" viewBox="0 0 21 20" fill="none" xmlns="http://www.w3.org/2000/svg">
<g id="Instagram" clip-path="url(#clip0_32_63)">
<g id="Group">
<path id="Vector" d="M10.4326 1.87948C13.1045 1.87948 13.4209 1.89078 14.4717 1.93597C15.4482 1.9774 15.9756 2.13558 16.3272 2.26739C16.792 2.44063 17.1279 2.65153 17.4756 2.98671C17.8272 3.32566 18.042 3.64578 18.2217 4.09394C18.3584 4.43289 18.5225 4.94508 18.5654 5.88284C18.6123 6.89969 18.624 7.20474 18.624 9.77698C18.624 12.353 18.6123 12.658 18.5654 13.6711C18.5225 14.6126 18.3584 15.1211 18.2217 15.46C18.042 15.9082 17.8232 16.2321 17.4756 16.5673C17.124 16.9062 16.792 17.1133 16.3272 17.2866C15.9756 17.4184 15.4443 17.5766 14.4717 17.618C13.417 17.6632 13.1006 17.6745 10.4326 17.6745C7.76074 17.6745 7.44434 17.6632 6.39356 17.618C5.41699 17.5766 4.88965 17.4184 4.53809 17.2866C4.07324 17.1133 3.7373 16.9024 3.38965 16.5673C3.03809 16.2283 2.82324 15.9082 2.64355 15.46C2.50684 15.1211 2.34277 14.6089 2.2998 13.6711C2.25293 12.6543 2.24121 12.3492 2.24121 9.77698C2.24121 7.20097 2.25293 6.89592 2.2998 5.88284C2.34277 4.94132 2.50684 4.43289 2.64355 4.09394C2.82324 3.64578 3.04199 3.32189 3.38965 2.98671C3.74121 2.64776 4.07324 2.44063 4.53809 2.26739C4.88965 2.13558 5.4209 1.9774 6.39356 1.93597C7.44434 1.89078 7.76074 1.87948 10.4326 1.87948ZM10.4326 0.143311C7.71777 0.143311 7.37793 0.154609 6.31152 0.199802C5.24902 0.244995 4.51856 0.410703 3.88574 0.647967C3.22559 0.89653 2.66699 1.22418 2.1123 1.76273C1.55371 2.29752 1.21387 2.83607 0.956055 3.46877C0.709961 4.08265 0.538086 4.78314 0.491211 5.80752C0.444336 6.83943 0.432617 7.16708 0.432617 9.78451C0.432617 12.402 0.444336 12.7296 0.491211 13.7577C0.538086 14.7821 0.709961 15.4864 0.956055 16.0965C1.21387 16.733 1.55371 17.2715 2.1123 17.8063C2.66699 18.3411 3.22559 18.6725 3.88184 18.9173C4.51856 19.1546 5.24512 19.3203 6.30762 19.3655C7.37402 19.4107 7.71387 19.422 10.4287 19.422C13.1436 19.422 13.4834 19.4107 14.5498 19.3655C15.6123 19.3203 16.3428 19.1546 16.9756 18.9173C17.6318 18.6725 18.1904 18.3411 18.7451 17.8063C19.2998 17.2715 19.6436 16.733 19.8975 16.1003C20.1436 15.4864 20.3154 14.7859 20.3623 13.7615C20.4092 12.7334 20.4209 12.4057 20.4209 9.78828C20.4209 7.17085 20.4092 6.84319 20.3623 5.81505C20.3154 4.79067 20.1436 4.08641 19.8975 3.4763C19.6514 2.83607 19.3115 2.29752 18.7529 1.76273C18.1982 1.22795 17.6397 0.89653 16.9834 0.651733C16.3467 0.414469 15.6201 0.248761 14.5576 0.203568C13.4873 0.154609 13.1475 0.143311 10.4326 0.143311Z" fill="white"/>
<path id="Vector_2" d="M10.4326 4.83203C7.59668 4.83203 5.2959 7.05026 5.2959 9.78445C5.2959 12.5186 7.59668 14.7369 10.4326 14.7369C13.2686 14.7369 15.5693 12.5186 15.5693 9.78445C15.5693 7.05026 13.2686 4.83203 10.4326 4.83203ZM10.4326 12.9969C8.59277 12.9969 7.10059 11.5583 7.10059 9.78445C7.10059 8.01062 8.59277 6.57197 10.4326 6.57197C12.2725 6.57197 13.7646 8.01062 13.7646 9.78445C13.7646 11.5583 12.2725 12.9969 10.4326 12.9969Z" fill="white"/>
<path id="Vector_3" d="M16.9717 4.63617C16.9717 5.27641 16.4326 5.79237 15.7725 5.79237C15.1084 5.79237 14.5732 5.27264 14.5732 4.63617C14.5732 3.99594 15.1123 3.47998 15.7725 3.47998C16.4326 3.47998 16.9717 3.9997 16.9717 4.63617Z" fill="white"/>
</g>
</g>
<defs>
<clipPath id="clip0_32_63">
<rect width="20" height="19.2824" fill="white" transform="translate(0.432617 0.143311)"/>
</clipPath>
</defs>
</svg>
