<svg width="20" height="21" viewBox="0 0 20 21" fill="none" xmlns="http://www.w3.org/2000/svg">
<g clip-path="url(#clip0_3566_6879)">
<path d="M19.784 7.07793C19.6055 6.86703 19.3433 6.74609 19.0649 6.74609H0.935074C0.656834 6.74609 0.394922 6.86703 0.216408 7.07769C0.134265 7.1744 0.0732562 7.28721 0.0372996 7.40889C0.00134292 7.53057 -0.00876664 7.65843 0.00762021 7.78425L1.07792 18.9538C1.07886 18.9625 1.0798 18.9711 1.08097 18.9795C1.17511 19.6842 1.77354 20.2155 2.47311 20.2155H17.5269C18.2624 20.2155 18.8757 19.6522 18.922 18.9538L19.9923 7.78448C20.0087 7.6587 19.9987 7.53087 19.9628 7.4092C19.9269 7.28753 19.866 7.17469 19.784 7.07793ZM17.5306 18.8187C17.5299 18.8176 17.5264 18.8169 17.5269 18.8173L2.48545 18.8194C2.4794 18.8166 2.47053 18.8062 2.46776 18.798L1.44655 8.14452H18.5533L17.5306 18.8187Z" fill="#28384F"/>
<path d="M18.2356 4.06308C18.0585 3.85918 17.801 3.74219 17.5288 3.74219H2.49839C2.22644 3.74219 1.96777 3.86359 1.78859 4.07519C1.60848 4.2882 1.53063 4.5655 1.57446 4.82718L1.99391 7.55364L3.376 7.3411L3.03741 5.14038H16.9901L16.6518 7.3411L18.0336 7.55364L18.454 4.81925C18.4931 4.54386 18.4137 4.26816 18.2356 4.06308Z" fill="#28384F"/>
<path d="M16.1586 1.10261C15.9815 0.898476 15.7237 0.78125 15.4511 0.78125H4.5686C4.29665 0.78125 4.03798 0.902655 3.8588 1.11426C3.67845 1.32726 3.60083 1.60456 3.64489 1.86812L4.06434 4.54798L5.44574 4.33173L5.10879 2.17944H14.9061L14.5516 4.32587L15.9312 4.55376L16.3762 1.85944C16.4158 1.58359 16.3364 1.30793 16.1586 1.10261ZM12.9344 11.1511H7.06202C6.67589 11.1511 6.36292 11.4641 6.36292 11.8502C6.36292 12.2364 6.67589 12.5493 7.06202 12.5493H12.9344C13.3205 12.5493 13.6335 12.2364 13.6335 11.8502C13.6334 11.4641 13.3205 11.1511 12.9344 11.1511Z" fill="#28384F"/>
</g>
<defs>
<clipPath id="clip0_3566_6879">
<rect width="20" height="20" fill="white" transform="translate(0 0.5)"/>
</clipPath>
</defs>
</svg>
