<svg width="18" height="18" viewBox="0 0 25 21" fill="none" xmlns="http://www.w3.org/2000/svg">
<path fill-rule="evenodd" clip-rule="evenodd" d="M22.7083 9.04162H5.40519L10.7033 2.68328C11.2196 2.06495 11.135 1.14474 10.5166 0.629949C9.89685 0.113699 8.9781 0.198282 8.46331 0.816615L1.17165 9.56662C1.11477 9.63516 1.0856 9.71537 1.04331 9.7912C1.00831 9.85245 0.966021 9.90495 0.939771 9.97203C0.874146 10.1397 0.834771 10.3162 0.834771 10.4941C0.834771 10.4956 0.833313 10.4985 0.833313 10.4999C0.833313 10.5014 0.834771 10.5043 0.834771 10.5058C0.834771 10.6837 0.874146 10.8602 0.939771 11.0279C0.966021 11.0949 1.00831 11.1474 1.04331 11.2087C1.0856 11.2845 1.11477 11.3647 1.17165 11.4333L8.46331 20.1833C8.75206 20.5289 9.16623 20.7083 9.58331 20.7083C9.9129 20.7083 10.2439 20.5975 10.5166 20.3699C11.135 19.8552 11.2196 18.9349 10.7033 18.3166L5.40519 11.9583H22.7083C23.5133 11.9583 24.1666 11.3049 24.1666 10.4999C24.1666 9.69495 23.5133 9.04162 22.7083 9.04162Z" fill="black"/>
</svg>
