<svg width="19" height="18" viewBox="0 0 19 18" fill="none" xmlns="http://www.w3.org/2000/svg">
<path fill-rule="evenodd" clip-rule="evenodd" d="M6.13281 7.60938C6.13281 7.19969 6.46531 6.86719 6.875 6.86719C7.28469 6.86719 7.61719 7.19969 7.61719 7.60938C7.61719 8.01906 7.28469 8.35156 6.875 8.35156C6.46531 8.35156 6.13281 8.01906 6.13281 7.60938ZM9.84375 6.86719C9.43406 6.86719 9.10156 7.19969 9.10156 7.60938C9.10156 8.01906 9.43406 8.35156 9.84375 8.35156C10.2534 8.35156 10.5859 8.01906 10.5859 7.60938C10.5859 7.19969 10.2534 6.86719 9.84375 6.86719ZM12.8125 6.86719C12.4028 6.86719 12.0703 7.19969 12.0703 7.60938C12.0703 8.01906 12.4028 8.35156 12.8125 8.35156C13.2222 8.35156 13.5547 8.01906 13.5547 7.60938C13.5547 7.19969 13.2222 6.86719 12.8125 6.86719ZM15.7812 11.3203C15.7812 11.7293 15.448 12.0625 15.0391 12.0625H7.28617C6.88316 12.0625 6.48684 12.1723 6.14023 12.3802L3.90625 13.7205V3.89844C3.90625 3.48949 4.23949 3.15625 4.64844 3.15625H15.0391C15.448 3.15625 15.7812 3.48949 15.7812 3.89844V11.3203ZM15.0391 1.67188H4.64844C3.42086 1.67188 2.42188 2.67086 2.42188 3.89844V15.0312C2.42188 15.2984 2.56586 15.5456 2.79816 15.677C2.91172 15.7415 3.03789 15.7734 3.16406 15.7734C3.29617 15.7734 3.42828 15.7386 3.54629 15.6673L6.90395 13.653C7.01973 13.5832 7.15184 13.5469 7.28617 13.5469H15.0391C16.2666 13.5469 17.2656 12.5479 17.2656 11.3203V3.89844C17.2656 2.67086 16.2666 1.67188 15.0391 1.67188Z" fill="black"/>
</svg>
