<svg width="25" height="25" viewBox="0 0 25 25" fill="none" xmlns="http://www.w3.org/2000/svg">
<circle cx="12.5" cy="12.5" r="12" fill="white" stroke="#095183"/>
<path fill-rule="evenodd" clip-rule="evenodd" d="M17.4609 11.7923H13.2109V7.54232C13.2109 7.15061 12.8936 6.83398 12.5026 6.83398C12.1116 6.83398 11.7943 7.15061 11.7943 7.54232V11.7923H7.54427C7.15327 11.7923 6.83594 12.1089 6.83594 12.5007C6.83594 12.8924 7.15327 13.209 7.54427 13.209H11.7943V17.459C11.7943 17.8507 12.1116 18.1673 12.5026 18.1673C12.8936 18.1673 13.2109 17.8507 13.2109 17.459V13.209H17.4609C17.8519 13.209 18.1693 12.8924 18.1693 12.5007C18.1693 12.1089 17.8519 11.7923 17.4609 11.7923" fill="#095183"/>
</svg>
