<svg width="24" height="24" viewBox="0 0 24 24" fill="none" xmlns="http://www.w3.org/2000/svg">
<g clip-path="url(#clip0_3142_2140)">
<path fill-rule="evenodd" clip-rule="evenodd" d="M12 0C5.38125 0 0 5.38125 0 12C0 18.6187 5.38125 24 12 24C18.6187 24 24 18.6187 24 12C24 5.38125 18.6187 0 12 0Z" fill="#4BAE4F"/>
<path d="M9.68906 17.4887C8.15625 15.9559 6.63281 14.409 5.09531 12.8762C4.92656 12.7074 4.92656 12.4262 5.09531 12.2574L6.8625 10.4902C7.03125 10.3215 7.3125 10.3215 7.48125 10.4902L10.0078 13.0168L16.5047 6.51523C16.6781 6.34648 16.9547 6.34648 17.1281 6.51523L18.9 8.28711C19.0734 8.46055 19.0734 8.73711 18.9 8.90586L10.3078 17.4887C10.1391 17.6621 9.8625 17.6621 9.68906 17.4887Z" fill="white"/>
</g>
<defs>
<clipPath id="clip0_3142_2140">
<rect width="24" height="24" fill="white"/>
</clipPath>
</defs>
</svg>
