<svg width="24" height="24" viewBox="0 0 20 20" fill="none" xmlns="http://www.w3.org/2000/svg">
<g clip-path="url(#clip0_4194_3518)">
<path fill-rule="evenodd" clip-rule="evenodd" d="M10 20C15.5077 20 20 15.5077 20 10C20 4.4923 15.5077 0 10 0C4.4923 0 0 4.4923 0 10C0 15.5077 4.4923 20 10 20Z" fill="#F34235"/>
<path d="M14.3091 6.69684H5.6909C5.66684 6.69685 5.64304 6.70175 5.62094 6.71125C5.59884 6.72076 5.5789 6.73466 5.56234 6.75211C5.54571 6.76958 5.53281 6.79027 5.52444 6.81289C5.51607 6.83552 5.51241 6.85962 5.51367 6.88371L5.96652 15.6216C5.98656 16.0103 6.30707 16.3148 6.69652 16.3148H13.3034C13.6929 16.3148 14.0134 16.0103 14.0334 15.6216L14.4863 6.88371C14.4876 6.85962 14.4839 6.83552 14.4755 6.81289C14.4671 6.79027 14.4543 6.76958 14.4376 6.75211C14.4211 6.73465 14.4011 6.72075 14.379 6.71125C14.357 6.70175 14.3332 6.69684 14.3091 6.69684ZM7.18668 8.45836C7.1834 8.33945 7.22676 8.22609 7.30891 8.13937C7.39105 8.05266 7.50187 8.00297 7.62078 7.99941C7.86824 7.99434 8.07363 8.18855 8.08074 8.43402L8.24531 14.5678C8.24714 14.6264 8.23727 14.6849 8.21629 14.7397C8.1953 14.7945 8.16362 14.8446 8.12309 14.887C8.08275 14.9297 8.0344 14.964 7.9808 14.988C7.9272 15.012 7.8694 15.0251 7.8107 15.0268H7.79754C7.68316 15.0268 7.57488 14.9834 7.49098 14.9038C7.44835 14.8636 7.41409 14.8154 7.39016 14.7619C7.36623 14.7084 7.3531 14.6507 7.35152 14.5921L7.18668 8.45836ZM9.55297 14.5731V8.43855C9.55297 8.19184 9.75355 7.99125 10 7.99125C10.2464 7.99125 10.447 8.19184 10.447 8.43855V14.5731C10.447 14.82 10.2464 15.0209 10 15.0209C9.75355 15.0209 9.55297 14.8201 9.55297 14.5731ZM12.6485 14.5916C12.647 14.6503 12.6339 14.708 12.6099 14.7616C12.586 14.8152 12.5517 14.8635 12.509 14.9038C12.4251 14.9834 12.3168 15.0267 12.2025 15.0267H12.1885C12.1299 15.0251 12.0722 15.0119 12.0187 14.9879C11.9652 14.9639 11.917 14.9295 11.8769 14.8868C11.8363 14.8443 11.8046 14.7942 11.7836 14.7393C11.7626 14.6845 11.7528 14.626 11.7546 14.5673L11.9192 8.43453C11.9263 8.18883 12.1302 7.99332 12.3761 7.99941H12.3792C12.4981 8.00297 12.6089 8.05266 12.6911 8.13937C12.7732 8.22609 12.8166 8.33945 12.8133 8.45836L12.6485 14.5916ZM15.1953 5.32984V5.80047H4.80469V5.32984C4.80469 5.0702 5.0159 4.85898 5.27555 4.85898H8.69336C8.7371 4.85897 8.77929 4.84281 8.81186 4.81361C8.84443 4.78441 8.86507 4.74422 8.86984 4.70074C8.93301 4.12312 9.41883 3.6875 10 3.6875C10.5812 3.6875 11.067 4.12312 11.1302 4.70074C11.1349 4.74422 11.1556 4.78441 11.1881 4.81361C11.2207 4.84281 11.2629 4.85897 11.3066 4.85898H14.7245C14.9841 4.85898 15.1953 5.0702 15.1953 5.32984Z" fill="white"/>
</g>
<defs>
<clipPath id="clip0_4194_3518">
<rect width="20" height="20" fill="white"/>
</clipPath>
</defs>
</svg>
