<svg width="19" height="18" viewBox="0 0 19 18" fill="none" xmlns="http://www.w3.org/2000/svg">
<path fill-rule="evenodd" clip-rule="evenodd" d="M9.50004 10.1257C8.87979 10.1257 8.37504 9.621 8.37504 9.00075C8.37504 8.3805 8.87979 7.87575 9.50004 7.87575C10.1203 7.87575 10.625 8.3805 10.625 9.00075C10.625 9.621 10.1203 10.1257 9.50004 10.1257M9.50004 6.37575C8.05254 6.37575 6.87504 7.55325 6.87504 9.00075C6.87504 10.4482 8.05254 11.6257 9.50004 11.6257C10.9475 11.6257 12.125 10.4482 12.125 9.00075C12.125 7.55325 10.9475 6.37575 9.50004 6.37575M9.66481 12.7489C6.43531 12.8239 4.32856 10.0617 3.62956 8.99745C4.39906 7.7937 6.33706 5.3292 9.33556 5.2527C12.5523 5.17095 14.6711 7.93995 15.3701 9.0042C14.6013 10.2079 12.6626 12.6724 9.66481 12.7489M16.9008 8.6277C16.4223 7.7937 13.7793 3.6132 9.29731 3.75345C5.15131 3.85845 2.74006 7.51095 2.09956 8.6277C1.96681 8.8587 1.96681 9.14295 2.09956 9.37395C2.57131 10.1967 5.12131 14.2504 9.51856 14.2504C9.58006 14.2504 9.64156 14.2497 9.70306 14.2482C13.8483 14.1424 16.2603 10.4907 16.9008 9.37395C17.0328 9.14295 17.0328 8.8587 16.9008 8.6277" fill="black"/>
</svg>
