<svg width="35" height="37" viewBox="0 0 35 37" fill="none" xmlns="http://www.w3.org/2000/svg">
<rect x="0.5" y="0.5" width="34" height="36" rx="3.5" fill="#F7F7F7" stroke="#F7F7F7"/>
<path fill-rule="evenodd" clip-rule="evenodd" d="M17.4971 20.582H14.3721C13.7971 20.582 13.3304 20.1154 13.3304 19.5404C13.3304 18.9654 13.7971 18.4987 14.3721 18.4987H17.4971C18.0721 18.4987 18.5388 18.9654 18.5388 19.5404C18.5388 20.1154 18.0721 20.582 17.4971 20.582ZM14.3721 22.6654H20.6221C21.1981 22.6654 21.6637 23.132 21.6637 23.707C21.6637 24.282 21.1981 24.7487 20.6221 24.7487H14.3721C13.7971 24.7487 13.3304 24.282 13.3304 23.707C13.3304 23.132 13.7971 22.6654 14.3721 22.6654ZM23.1682 26.832H11.8255C11.5068 26.832 11.2474 26.5987 11.2474 26.3112V10.6862C11.2474 10.3987 11.5068 10.1654 11.8255 10.1654H17.4974V13.4466C17.4974 15.0841 18.7651 16.4154 20.3245 16.4154H23.7474V26.3112C23.7474 26.5987 23.488 26.832 23.1682 26.832V26.832ZM19.5807 11.1841L22.437 14.332H20.3245C19.9141 14.332 19.5807 13.9352 19.5807 13.4466V11.1841ZM25.5599 14.6737L19.8891 8.4237C19.6911 8.20599 19.412 8.08203 19.1172 8.08203H11.8255C10.3578 8.08203 9.16406 9.25078 9.16406 10.6862V26.3112C9.16406 27.7466 10.3578 28.9154 11.8255 28.9154H23.1682C24.6359 28.9154 25.8307 27.7466 25.8307 26.3112V15.3737C25.8307 15.1143 25.7339 14.8654 25.5599 14.6737V14.6737Z" fill="#3C3C3C"/>
</svg>
