<svg width="22" height="21" viewBox="0 0 22 21" fill="none" xmlns="http://www.w3.org/2000/svg">
<g clip-path="url(#clip0_3567_6952)">
<path d="M20.9617 0.136719H1.78151C1.33258 0.136719 0.96875 0.485391 0.96875 0.915614C0.96875 3.08464 1.93898 5.15541 3.6307 6.59652L7.19018 9.62845C7.49548 9.88873 7.73985 10.208 7.90723 10.5652C8.07461 10.9224 8.16122 11.3096 8.16135 11.7012V19.2966C8.16135 19.9173 8.88523 20.2894 9.42478 19.9445L14.2199 16.8811C14.3312 16.81 14.4225 16.7136 14.4856 16.6006C14.5488 16.4875 14.5818 16.3613 14.5818 16.2331V11.7012C14.582 11.3096 14.6686 10.9224 14.836 10.5652C15.0034 10.208 15.2477 9.88872 15.553 9.62845L19.1124 6.59652C20.8041 5.15541 21.7743 3.08464 21.7743 0.915614C21.7743 0.485391 21.4105 0.136719 20.9617 0.136719ZM18.0324 5.43215L14.4731 8.4642C13.5092 9.28538 12.9563 10.4651 12.9563 11.701V15.8163L9.78671 17.8412V11.7012C9.78647 11.0896 9.6512 10.4851 9.38978 9.92717C9.12837 9.36928 8.74673 8.87071 8.26993 8.46423L4.71061 5.43235C3.56991 4.4604 2.84175 3.12865 2.64681 1.69443H20.0962C19.9013 3.12865 19.1733 4.46036 18.0324 5.43215Z" fill="black"/>
</g>
<defs>
<clipPath id="clip0_3567_6952">
<rect width="20.8067" height="19.9397" fill="white" transform="translate(0.929688 0.136719)"/>
</clipPath>
</defs>
</svg>
