<svg width="17" height="17" viewBox="0 0 17 17" fill="none" xmlns="http://www.w3.org/2000/svg">
<path fill-rule="evenodd" clip-rule="evenodd" d="M7.78906 13.4583C7.39806 13.4583 7.08073 13.141 7.08073 12.75C7.08073 12.359 7.39806 12.0417 7.78906 12.0417C8.18006 12.0417 8.4974 12.359 8.4974 12.75C8.4974 13.141 8.18006 13.4583 7.78906 13.4583ZM14.8724 12.0417H9.78302C9.48977 11.2193 8.71131 10.625 7.78906 10.625C6.86681 10.625 6.08835 11.2193 5.7951 12.0417H2.1224C1.73069 12.0417 1.41406 12.3583 1.41406 12.75C1.41406 13.1417 1.73069 13.4583 2.1224 13.4583H5.7951C6.08835 14.2807 6.86681 14.875 7.78906 14.875C8.71131 14.875 9.48977 14.2807 9.78302 13.4583H14.8724C15.2641 13.4583 15.5807 13.1417 15.5807 12.75C15.5807 12.3583 15.2641 12.0417 14.8724 12.0417ZM13.4557 9.20833C13.0647 9.20833 12.7474 8.891 12.7474 8.5C12.7474 8.109 13.0647 7.79167 13.4557 7.79167C13.8467 7.79167 14.1641 8.109 14.1641 8.5C14.1641 8.891 13.8467 9.20833 13.4557 9.20833ZM13.4557 6.375C12.5335 6.375 11.755 6.96929 11.4618 7.79167H2.1224C1.73069 7.79167 1.41406 8.10829 1.41406 8.5C1.41406 8.89171 1.73069 9.20833 2.1224 9.20833H11.4618C11.755 10.0307 12.5335 10.625 13.4557 10.625C14.6273 10.625 15.5807 9.67158 15.5807 8.5C15.5807 7.32842 14.6273 6.375 13.4557 6.375ZM4.95573 3.54167C5.34673 3.54167 5.66406 3.859 5.66406 4.25C5.66406 4.641 5.34673 4.95833 4.95573 4.95833C4.56473 4.95833 4.2474 4.641 4.2474 4.25C4.2474 3.859 4.56473 3.54167 4.95573 3.54167ZM2.1224 4.95833H2.96177C3.25502 5.78071 4.03348 6.375 4.95573 6.375C5.87798 6.375 6.65644 5.78071 6.94969 4.95833H14.8724C15.2641 4.95833 15.5807 4.64171 15.5807 4.25C15.5807 3.85829 15.2641 3.54167 14.8724 3.54167H6.94969C6.65644 2.71929 5.87798 2.125 4.95573 2.125C4.03348 2.125 3.25502 2.71929 2.96177 3.54167H2.1224C1.73069 3.54167 1.41406 3.85829 1.41406 4.25C1.41406 4.64171 1.73069 4.95833 2.1224 4.95833Z" fill="#373737"/>
</svg>
