<svg width="18" height="18" viewBox="0 0 18 18" fill="none" xmlns="http://www.w3.org/2000/svg">
<path fill-rule="evenodd" clip-rule="evenodd" d="M3 10.3162V13.551C3 13.7295 3.168 13.875 3.375 13.875H14.625C14.832 13.875 15 13.7295 15 13.551V7.1085C15 6.92925 14.832 6.7845 14.625 6.7845H9C8.775 6.7845 8.562 6.68325 8.4195 6.5085L6.4695 4.125H3.375C3.168 4.125 3 4.26975 3 4.44825V10.3162ZM14.625 15.375H3.375C2.3415 15.375 1.5 14.5568 1.5 13.551V4.44825C1.5 3.4425 2.3415 2.625 3.375 2.625H6.82575C7.05 2.625 7.26375 2.7255 7.40625 2.90025L9.3555 5.2845H14.625C15.6585 5.2845 16.5 6.102 16.5 7.1085V13.551C16.5 14.5568 15.6585 15.375 14.625 15.375Z" fill="#313131"/>
</svg>
