<svg width="21" height="21" viewBox="0 0 21 21" fill="none" xmlns="http://www.w3.org/2000/svg">
<path fill-rule="evenodd" clip-rule="evenodd" d="M3.5 12.0356V15.8095C3.5 16.0178 3.696 16.1875 3.9375 16.1875H17.0625C17.304 16.1875 17.5 16.0178 17.5 15.8095V8.29325C17.5 8.08413 17.304 7.91525 17.0625 7.91525H10.5C10.2375 7.91525 9.989 7.79713 9.82275 7.59325L7.54775 4.8125H3.9375C3.696 4.8125 3.5 4.98137 3.5 5.18963V12.0356ZM17.0625 17.9375H3.9375C2.73175 17.9375 1.75 16.9829 1.75 15.8095V5.18963C1.75 4.01625 2.73175 3.0625 3.9375 3.0625H7.96338C8.225 3.0625 8.47437 3.17975 8.64062 3.38363L10.9148 6.16525H17.0625C18.2682 6.16525 19.25 7.119 19.25 8.29325V15.8095C19.25 16.9829 18.2682 17.9375 17.0625 17.9375Z" />
</svg>
