<svg width="35" height="35" viewBox="0 0 35 35" fill="none" xmlns="http://www.w3.org/2000/svg">
<g clip-path="url(#clip0_3142_2494)">
<path d="M28.4349 5.10352H6.55987C4.54635 5.10352 2.91406 6.7358 2.91406 8.74933V10.2076C2.91406 10.6103 3.24055 10.9368 3.64325 10.9368H9.88494C10.0367 10.9375 10.1846 10.9849 10.3086 11.0726C10.4325 11.1602 10.5264 11.2839 10.5776 11.4268L11.3724 13.8316C11.5221 14.2623 11.8016 14.6359 12.1725 14.901C12.5434 15.1661 12.9874 15.3096 13.4433 15.3118H31.3516C31.7543 15.3118 32.0808 14.9853 32.0808 14.5826V8.74933C32.0807 6.7358 30.4484 5.10352 28.4349 5.10352Z" fill="#C5E6E4"/>
<path d="M32.8125 13.8535H13.4458C13.2944 13.8514 13.1471 13.8034 13.0235 13.716C12.8998 13.6285 12.8056 13.5056 12.7531 13.3635L11.9583 10.9587C11.8085 10.5282 11.5289 10.1547 11.1581 9.88961C10.7872 9.62454 10.3433 9.48092 9.88751 9.47852H2.18751C0.979394 9.47852 9.43032e-06 10.4579 9.43032e-06 11.666C-0.0019075 13.6729 0.28843 15.6695 0.861884 17.5927L3.77857 27.2935C4.24061 28.8393 5.66372 29.8976 7.27714 29.8952H27.8688C29.3939 29.8996 30.7606 28.9541 31.2944 27.5254L34.4444 19.1224C34.8114 18.1365 34.9996 17.093 35 16.041C35 14.8329 34.0206 13.8535 32.8125 13.8535Z" fill="#34C0B8"/>
</g>
<defs>
<clipPath id="clip0_3142_2494">
<rect width="35" height="35" fill="white"/>
</clipPath>
</defs>
</svg>
