<svg width="24" height="24" viewBox="0 0 24 24" fill="none" xmlns="http://www.w3.org/2000/svg">
<path fill-rule="evenodd" clip-rule="evenodd" d="M11.9993 0C5.37211 0 0 5.37211 0 11.9993C0 18.6266 5.37211 23.9987 11.9993 23.9987C18.6266 23.9987 23.9987 18.6266 23.9987 11.9993C23.9987 5.37211 18.6266 0 11.9993 0ZM11.151 6.35126C11.376 6.1263 11.6812 5.99993 11.9993 5.99993C12.3175 5.99993 12.6227 6.1263 12.8477 6.35126L17.6474 11.151C17.8724 11.376 17.9988 11.6812 17.9988 11.9993C17.9988 12.3175 17.8724 12.6227 17.6474 12.8477L12.8477 17.6474C12.6214 17.866 12.3183 17.987 12.0037 17.9842C11.689 17.9815 11.3881 17.8553 11.1656 17.6328C10.9431 17.4103 10.8169 17.1094 10.8142 16.7948C10.8115 16.4802 10.9324 16.177 11.151 15.9507L13.9024 13.1993L7.19961 13.1993C6.88137 13.1993 6.57616 13.0729 6.35113 12.8478C6.1261 12.6228 5.99967 12.3176 5.99967 11.9993C5.99967 11.6811 6.1261 11.3759 6.35113 11.1509C6.57616 10.9258 6.88137 10.7994 7.19961 10.7994L13.9024 10.7994L11.151 8.04796C10.926 7.82294 10.7997 7.51779 10.7997 7.19961C10.7997 6.88143 10.926 6.57628 11.151 6.35126Z" fill="#1DA0D6"/>
</svg>
