<svg width="24" height="24" viewBox="0 0 24 24" fill="none" xmlns="http://www.w3.org/2000/svg">
<path fill-rule="evenodd" clip-rule="evenodd" d="M12.0007 24C18.6279 24 24 18.6279 24 12.0007C24 5.37341 18.6279 0.00130128 12.0006 0.00130186C5.37341 0.00130244 0.00129918 5.37341 0.00129976 12.0007C0.00130034 18.6279 5.37341 24 12.0007 24ZM12.849 17.6487C12.624 17.8737 12.3188 18.0001 12.0006 18.0001C11.6825 18.0001 11.3773 17.8737 11.1523 17.6487L6.35255 12.849C6.1276 12.624 6.00123 12.3188 6.00123 12.0007C6.00123 11.6825 6.1276 11.3773 6.35255 11.1523L11.1523 6.35256C11.3786 6.13398 11.6817 6.01303 11.9963 6.01577C12.3109 6.0185 12.6119 6.1447 12.8344 6.36717C13.0569 6.58965 13.1831 6.89061 13.1858 7.20523C13.1885 7.51985 13.0676 7.82295 12.849 8.04927L10.0976 10.8007L16.8004 10.8007C17.1186 10.8007 17.4238 10.9271 17.6489 11.1522C17.8739 11.3772 18.0003 11.6824 18.0003 12.0007C18.0003 12.3189 17.8739 12.6241 17.6489 12.8491C17.4238 13.0742 17.1186 13.2006 16.8004 13.2006L10.0976 13.2006L12.849 15.952C13.074 16.1771 13.2003 16.4822 13.2003 16.8004C13.2003 17.1186 13.074 17.4237 12.849 17.6487Z" fill="#1DA0D6"/>
</svg>
