<svg width="18" height="18" viewBox="0 0 22 18" fill="none" xmlns="http://www.w3.org/2000/svg">
<path d="M21.2141 6.97523C21.0124 6.63707 20.6258 6.45473 20.2359 6.51357L17.9431 6.86208C17.5261 5.31223 16.7237 3.90399 15.5863 2.74662C14.2098 1.34549 12.4705 0.437695 10.5566 0.120872C8.61301 -0.201123 6.56983 0.125399 4.80338 1.03836C3.00008 1.97073 1.56145 3.48242 0.753228 5.29413C-0.719026 8.59361 0.00966545 12.5862 2.56558 15.2288C3.81218 16.5174 5.40017 17.4019 7.15757 17.7873C7.80608 17.9295 8.46236 18 9.11605 18C10.234 18 11.3448 17.7931 12.4 17.3838C12.8992 17.1898 13.1468 16.628 12.9535 16.1288C12.7595 15.6297 12.1976 15.382 11.6985 15.5753C9.00548 16.6209 5.96787 15.9555 3.96025 13.88C1.94939 11.8006 1.37265 8.66796 2.52485 6.08425C3.80701 3.21021 7.05218 1.50713 10.2404 2.03409C12.9981 2.48993 15.2113 4.49496 16.0105 7.15562L14.0999 7.44593C13.9146 7.47413 13.7414 7.55538 13.6014 7.67986C13.4613 7.80434 13.3602 7.96673 13.3105 8.1474C13.2607 8.32806 13.2643 8.51928 13.3208 8.69795C13.3774 8.87661 13.4845 9.03508 13.6291 9.15419L16.9875 11.917C17.162 12.0605 17.3799 12.1381 17.6037 12.1381C17.754 12.138 17.9023 12.1029 18.0368 12.0357C18.1714 11.9685 18.2885 11.871 18.3789 11.7508L21.1572 8.0563C21.2729 7.90223 21.3402 7.71724 21.3504 7.52484C21.3607 7.33245 21.3134 7.14136 21.2148 6.97587L21.2141 6.97523Z" fill="#54585F"/>
</svg>
