<svg width="24" height="24" viewBox="0 0 18 18" fill="none" xmlns="http://www.w3.org/2000/svg">
<path fill-rule="evenodd" clip-rule="evenodd" d="M4.13893 8.42033C4.13893 6.14926 6.06029 4.30235 8.4229 4.30235C10.7855 4.30235 12.7069 6.14926 12.7069 8.42033C12.7069 10.6914 10.7855 12.5383 8.4229 12.5383C6.06029 12.5383 4.13893 10.6914 4.13893 8.42033M15.3536 14.1121L12.9296 11.7813C13.6815 10.852 14.1349 9.6873 14.1349 8.42033C14.1349 5.39293 11.5723 2.92969 8.4229 2.92969C5.27347 2.92969 2.71094 5.39293 2.71094 8.42033C2.71094 11.4477 5.27347 13.911 8.4229 13.911C9.74093 13.911 10.9526 13.4752 11.9193 12.7525L14.3441 15.0825C14.4833 15.2164 14.6661 15.2836 14.8489 15.2836C15.0316 15.2836 15.2144 15.2164 15.3536 15.0825C15.6328 14.8142 15.6328 14.3804 15.3536 14.1121" fill="#111827"/>
</svg>
