<svg width="24" height="15" viewBox="0 0 24 15" fill="none" xmlns="http://www.w3.org/2000/svg">
<path d="M22.1102 0.738281H1.54856C1.2456 0.738281 0.955052 0.858632 0.740826 1.07286C0.526601 1.28708 0.40625 1.57763 0.40625 1.8806C0.40625 2.18356 0.526601 2.47411 0.740826 2.68833C0.955052 2.90256 1.2456 3.02291 1.54856 3.02291H22.1102C22.4132 3.02291 22.7037 2.90256 22.918 2.68833C23.1322 2.47411 23.2525 2.18356 23.2525 1.8806C23.2525 1.57763 23.1322 1.28708 22.918 1.07286C22.7037 0.858632 22.4132 0.738281 22.1102 0.738281ZM15.2563 6.44985H1.54856C1.2456 6.44985 0.955052 6.5702 0.740826 6.78443C0.526601 6.99865 0.40625 7.28921 0.40625 7.59217C0.40625 7.89513 0.526601 8.18568 0.740826 8.3999C0.955052 8.61413 1.2456 8.73448 1.54856 8.73448H15.2563C15.5593 8.73448 15.8498 8.61413 16.0641 8.3999C16.2783 8.18568 16.3987 7.89513 16.3987 7.59217C16.3987 7.28921 16.2783 6.99865 16.0641 6.78443C15.8498 6.5702 15.5593 6.44985 15.2563 6.44985ZM8.40245 12.1614H1.54856C1.2456 12.1614 0.955052 12.2818 0.740826 12.496C0.526601 12.7102 0.40625 13.0008 0.40625 13.3037C0.40625 13.6067 0.526601 13.8972 0.740826 14.1115C0.955052 14.3257 1.2456 14.4461 1.54856 14.4461H8.40245C8.70541 14.4461 8.99596 14.3257 9.21019 14.1115C9.42441 13.8972 9.54476 13.6067 9.54476 13.3037C9.54476 13.0008 9.42441 12.7102 9.21019 12.496C8.99596 12.2818 8.70541 12.1614 8.40245 12.1614Z" fill="black"/>
</svg>
