<svg width="16" height="16" viewBox="0 0 18 18" fill="none" xmlns="http://www.w3.org/2000/svg">
<g clip-path="url(#clip0_5255_8297)">
<path d="M16.125 17.25H1.875C1.3779 17.2494 0.901334 17.0517 0.549832 16.7002C0.198331 16.3487 0.000595447 15.8721 0 15.375L0 2.625C0 1.5915 0.8415 0.75 1.875 0.75H16.125C17.1585 0.75 18 1.5915 18 2.625V15.375C18 16.4085 17.1585 17.25 16.125 17.25ZM1.875 1.5C1.25475 1.5 0.75 2.00475 0.75 2.625V15.375C0.75 15.9953 1.25475 16.5 1.875 16.5H16.125C16.7453 16.5 17.25 15.9953 17.25 15.375V2.625C17.25 2.00475 16.7453 1.5 16.125 1.5H1.875Z" />
<path d="M17.625 6H0.375C0.275544 6 0.180161 5.96049 0.109835 5.89016C0.0395088 5.81984 0 5.72446 0 5.625C0 5.52554 0.0395088 5.43016 0.109835 5.35984C0.180161 5.28951 0.275544 5.25 0.375 5.25H17.625C17.7245 5.25 17.8198 5.28951 17.8902 5.35984C17.9605 5.43016 18 5.52554 18 5.625C18 5.72446 17.9605 5.81984 17.8902 5.89016C17.8198 5.96049 17.7245 6 17.625 6ZM17.625 9.75H0.375C0.275544 9.75 0.180161 9.71049 0.109835 9.64017C0.0395088 9.56984 0 9.47446 0 9.375C0 9.27554 0.0395088 9.18016 0.109835 9.10983C0.180161 9.03951 0.275544 9 0.375 9H17.625C17.7245 9 17.8198 9.03951 17.8902 9.10983C17.9605 9.18016 18 9.27554 18 9.375C18 9.47446 17.9605 9.56984 17.8902 9.64017C17.8198 9.71049 17.7245 9.75 17.625 9.75ZM17.625 13.5H0.375C0.275544 13.5 0.180161 13.4605 0.109835 13.3902C0.0395088 13.3198 0 13.2245 0 13.125C0 13.0255 0.0395088 12.9302 0.109835 12.8598C0.180161 12.7895 0.275544 12.75 0.375 12.75H17.625C17.7245 12.75 17.8198 12.7895 17.8902 12.8598C17.9605 12.9302 18 13.0255 18 13.125C18 13.2245 17.9605 13.3198 17.8902 13.3902C17.8198 13.4605 17.7245 13.5 17.625 13.5Z" />
<path d="M4.875 17.25C4.77554 17.25 4.68016 17.2105 4.60984 17.1402C4.53951 17.0698 4.5 16.9745 4.5 16.875V5.625C4.5 5.52554 4.53951 5.43016 4.60984 5.35984C4.68016 5.28951 4.77554 5.25 4.875 5.25C4.97446 5.25 5.06984 5.28951 5.14016 5.35984C5.21049 5.43016 5.25 5.52554 5.25 5.625V16.875C5.25 16.9745 5.21049 17.0698 5.14016 17.1402C5.06984 17.2105 4.97446 17.25 4.875 17.25ZM9 17.25C8.90054 17.25 8.80516 17.2105 8.73483 17.1402C8.66451 17.0698 8.625 16.9745 8.625 16.875V5.625C8.625 5.52554 8.66451 5.43016 8.73483 5.35984C8.80516 5.28951 8.90054 5.25 9 5.25C9.09946 5.25 9.19484 5.28951 9.26517 5.35984C9.33549 5.43016 9.375 5.52554 9.375 5.625V16.875C9.375 16.9745 9.33549 17.0698 9.26517 17.1402C9.19484 17.2105 9.09946 17.25 9 17.25ZM13.125 17.25C13.0255 17.25 12.9302 17.2105 12.8598 17.1402C12.7895 17.0698 12.75 16.9745 12.75 16.875V5.625C12.75 5.52554 12.7895 5.43016 12.8598 5.35984C12.9302 5.28951 13.0255 5.25 13.125 5.25C13.2245 5.25 13.3198 5.28951 13.3902 5.35984C13.4605 5.43016 13.5 5.52554 13.5 5.625V16.875C13.5 16.9745 13.4605 17.0698 13.3902 17.1402C13.3198 17.2105 13.2245 17.25 13.125 17.25Z" />
</g>
<defs>
<clipPath id="clip0_5255_8297">
<rect width="18" height="18" />
</clipPath>
</defs>
</svg>
