<svg width="18" height="19" viewBox="0 0 18 19" fill="none" xmlns="http://www.w3.org/2000/svg">
<path fill-rule="evenodd" clip-rule="evenodd" d="M11.25 9.5H9.75V8C9.75 7.58525 9.414 7.25 9 7.25C8.586 7.25 8.25 7.58525 8.25 8V10.25C8.25 10.6648 8.586 11 9 11H11.25C11.664 11 12 10.6648 12 10.25C12 9.83525 11.664 9.5 11.25 9.5ZM9 15.3125C6.2085 15.3125 3.9375 13.0415 3.9375 10.25C3.9375 7.4585 6.2085 5.1875 9 5.1875C11.7915 5.1875 14.0625 7.4585 14.0625 10.25C14.0625 13.0415 11.7915 15.3125 9 15.3125ZM9.741 3.5435C9.7425 3.52775 9.75 3.51575 9.75 3.5V2.75H10.5C10.914 2.75 11.25 2.41475 11.25 2C11.25 1.58525 10.914 1.25 10.5 1.25H7.5C7.086 1.25 6.75 1.58525 6.75 2C6.75 2.41475 7.086 2.75 7.5 2.75H8.25V3.5C8.25 3.51575 8.2575 3.52775 8.259 3.5435C4.88475 3.914 2.25 6.779 2.25 10.25C2.25 13.9722 5.2785 17 9 17C12.7215 17 15.75 13.9722 15.75 10.25C15.75 6.779 13.1152 3.914 9.741 3.5435Z"/>
</svg>
