<svg width="17" height="18" viewBox="0 0 17 18" fill="none" xmlns="http://www.w3.org/2000/svg">
<path fill-rule="evenodd" clip-rule="evenodd" d="M6.66976 12.2701C6.66976 12.7327 6.31351 13.1112 5.87809 13.1112C5.44268 13.1112 5.08643 12.7327 5.08643 12.2701V8.90548C5.08643 8.44285 5.44268 8.06433 5.87809 8.06433C6.31351 8.06433 6.66976 8.44285 6.66976 8.90548V12.2701ZM11.4198 12.2701C11.4198 12.7327 11.0635 13.1112 10.6281 13.1112C10.1927 13.1112 9.83643 12.7327 9.83643 12.2701V8.90548C9.83643 8.44285 10.1927 8.06433 10.6281 8.06433C11.0635 8.06433 11.4198 8.44285 11.4198 8.90548V12.2701ZM12.9995 14.7936C12.9995 15.2571 12.6448 15.6348 12.2078 15.6348H4.29118C3.85418 15.6348 3.49951 15.2571 3.49951 14.7936V5.54102H12.9995V14.7936ZM6.67236 2.45156C6.67236 2.32118 6.84178 2.17566 7.0682 2.17566H9.4432C9.66961 2.17566 9.83903 2.32118 9.83903 2.45156V3.85795H6.67236V2.45156ZM15.3776 3.85872H14.5859H11.4193V2.45233C11.4193 1.3723 10.5318 0.494141 9.4401 0.494141H7.0651C5.9734 0.494141 5.08594 1.3723 5.08594 2.45233V3.85872H1.91927H1.1276C0.692187 3.85872 0.335938 4.23724 0.335938 4.69987C0.335938 5.1625 0.692187 5.54102 1.1276 5.54102H1.91927V14.7936C1.91927 16.1849 2.98485 17.3171 4.29427 17.3171H12.2109C13.5204 17.3171 14.5859 16.1849 14.5859 14.7936V5.54102H15.3776C15.813 5.54102 16.1693 5.1625 16.1693 4.69987C16.1693 4.23724 15.813 3.85872 15.3776 3.85872Z" fill="#262626"/>
</svg>
