<svg width="24" height="24" viewBox="0 0 24 24" fill="none" xmlns="http://www.w3.org/2000/svg">
<path d="M11.9981 24C18.6245 24 23.9963 18.6274 23.9963 12C23.9963 5.37258 18.6245 0 11.9981 0C5.37174 0 0 5.37258 0 12C0 18.6274 5.37174 24 11.9981 24Z" fill="#111827"/>
<path d="M8.9375 17.4133L15.1069 23.5837C20.2165 22.2209 24.0014 17.5647 24.0014 12.0001V11.6594L19.1567 7.1925L8.9375 17.4133Z" fill="#111827"/>
<path d="M12.2934 14.6854C12.8233 15.2154 12.8233 16.1239 12.2934 16.6539L11.1958 17.7517C10.6659 18.2816 9.75756 18.2816 9.22767 17.7517L4.42085 12.9062C3.89097 12.3763 3.89097 11.4677 4.42085 10.9378L5.51847 9.83998C6.04836 9.31001 6.95673 9.31001 7.48662 9.83998L12.2934 14.6854Z" fill="white"/>
<path d="M16.4976 6.31874C17.0275 5.78877 17.9359 5.78877 18.4658 6.31874L19.5634 7.41653C20.0933 7.9465 20.0933 8.85502 19.5634 9.38499L11.2366 17.6752C10.7067 18.2052 9.79836 18.2052 9.26847 17.6752L8.17085 16.5774C7.64097 16.0474 7.64097 15.1389 8.17085 14.609L16.4976 6.31874Z" fill="white"/>
</svg>
