<svg width="50" height="50" viewBox="0 0 119 120" fill="none" xmlns="http://www.w3.org/2000/svg">
<path d="M105.823 43.3099C104.903 42.6233 104.184 41.7011 103.744 40.6405C103.303 39.5798 103.157 38.42 103.321 37.2833C105.466 23.8 103.014 19.6631 101.176 17.8245C99.3369 15.9858 95.2511 13.5854 81.7678 15.7305C80.6317 15.8831 79.4755 15.7319 78.4169 15.2923C77.3582 14.8527 76.435 14.1404 75.7412 13.2279C66.8545 1.37897 62.2069 0 59.5 0C56.7931 0 52.1455 1.37897 43.2588 13.2279C42.565 14.1404 41.6418 14.8527 40.5831 15.2923C39.5245 15.7319 38.3683 15.8831 37.2322 15.7305C23.7489 13.5854 19.6631 16.0369 17.8245 17.8245C15.9858 19.612 13.5343 23.8 15.6794 37.2833C15.8429 38.42 15.6967 39.5798 15.2563 40.6405C14.8159 41.7011 14.0975 42.6233 13.1768 43.3099C1.3279 52.1966 0 56.8442 0 59.5511C0 62.2579 1.3279 66.9056 13.1768 75.7923C14.0975 76.4788 14.8159 77.401 15.2563 78.4617C15.6967 79.5223 15.8429 80.6821 15.6794 81.8189C13.7386 95.4043 15.9858 99.4391 17.8245 101.278C19.6631 103.116 23.6468 105.312 37.2322 103.372C38.3689 103.208 39.5288 103.354 40.5894 103.795C41.65 104.235 42.5722 104.954 43.2588 105.874C52.1455 117.723 56.7931 119.102 59.5 119.102C62.2069 119.102 66.8545 117.723 75.7412 105.874C76.4278 104.954 77.35 104.235 78.4106 103.795C79.4712 103.354 80.6311 103.208 81.7678 103.372C95.4043 105.312 99.3369 103.065 101.176 101.278C103.014 99.4901 105.261 95.4043 103.321 81.8189C103.157 80.6821 103.303 79.5223 103.744 78.4617C104.184 77.401 104.903 76.4788 105.823 75.7923C117.672 66.9056 119 62.2579 119 59.5511C119 56.8442 117.672 52.1966 105.823 43.3099Z" />
<path d="M56.9468 77.4266C56.2746 77.4305 55.6083 77.3016 54.9861 77.0475C54.3638 76.7933 53.7978 76.4188 53.3206 75.9455L43.106 65.7309C42.1443 64.7691 41.604 63.4648 41.604 62.1047C41.604 60.7446 42.1443 59.4402 43.106 58.4785C44.0677 57.5168 45.3721 56.9765 46.7322 56.9765C48.0923 56.9765 49.3967 57.5168 50.3584 58.4785L56.9468 65.118L73.7498 48.2639C74.2246 47.7852 74.7895 47.4053 75.4118 47.146C76.0342 46.8867 76.7018 46.7532 77.376 46.7532C78.0502 46.7532 78.7178 46.8867 79.3401 47.146C79.9625 47.4053 80.5274 47.7852 81.0022 48.2639C81.4808 48.7387 81.8608 49.3036 82.1201 49.9259C82.3794 50.5483 82.5129 51.2159 82.5129 51.8901C82.5129 52.5643 82.3794 53.2319 82.1201 53.8542C81.8608 54.4766 81.4808 55.0415 81.0022 55.5163L60.573 75.9455C60.0957 76.4188 59.5298 76.7933 58.9075 77.0475C58.2853 77.3016 57.6189 77.4305 56.9468 77.4266Z" fill="white"/>
</svg>
