<svg width="16" height="16" viewBox="0 0 19 20" fill="none" xmlns="http://www.w3.org/2000/svg">
<g clip-path="url(#clip0_3569_6783)">
<path d="M16.2869 6.60551H12.8941C12.5193 6.60551 12.2155 6.90932 12.2155 7.2841C12.2155 7.65888 12.5193 7.96269 12.8941 7.96269H16.2869C16.6617 7.96269 16.9655 8.2665 16.9655 8.64128V17.4628C16.9655 17.8376 16.6617 18.1414 16.2869 18.1414H2.71542C2.34064 18.1414 2.03683 17.8376 2.03683 17.4628V8.64124C2.03683 8.26646 2.34064 7.96265 2.71542 7.96265H6.10829C6.48307 7.96265 6.78688 7.65884 6.78688 7.28406C6.78688 6.90928 6.48307 6.60547 6.10829 6.60547H2.71542C1.59111 6.60547 0.679688 7.5169 0.679688 8.6412V17.4627C0.679688 18.587 1.59111 19.4984 2.71542 19.4984H16.2869C17.4112 19.4984 18.3227 18.587 18.3227 17.4627V8.64124C18.3227 7.51694 17.4112 6.60551 16.2869 6.60551Z" fill="black"/>
<path d="M13.3733 4.09156L9.98038 0.698692C9.71542 0.433769 9.28585 0.433769 9.02089 0.698692L5.62798 4.09156C5.36763 4.36114 5.3751 4.79071 5.64468 5.05106C5.90765 5.30505 6.32454 5.30505 6.58751 5.05106L8.82208 2.81649V14.0714C8.82208 14.4462 9.12589 14.75 9.50067 14.75C9.87545 14.75 10.1793 14.4462 10.1793 14.0714V2.81653L12.4138 5.0511C12.6834 5.31145 13.113 5.30397 13.3733 5.0344C13.6272 4.77142 13.6272 4.35454 13.3733 4.09156Z" fill="black"/>
</g>
<defs>
<clipPath id="clip0_3569_6783">
<rect width="19" height="19" fill="white" transform="translate(0 0.5)"/>
</clipPath>
</defs>
</svg>
