<svg width="64" height="50" viewBox="0 0 48 34" fill="none" xmlns="http://www.w3.org/2000/svg">
<path d="M38.306 12.0375C37.6586 5.29227 32.0427 0 25.1288 0C19.779 0 15.198 3.17523 13.0869 7.73129C12.4512 7.52871 11.7889 7.39129 11.0868 7.39129C7.41328 7.39129 4.43467 10.3714 4.43467 14.0434C4.43467 14.7736 4.58103 15.4641 4.79832 16.1189C1.94093 17.785 0 20.8435 0 24.3883C0 29.6953 4.30172 33.997 9.60871 33.997V34H36.2158V33.997C42.3417 33.997 47.3012 29.0345 47.3012 22.9101C47.3012 17.5055 43.4281 13.0161 38.306 12.0375ZM29.2384 20.5478H26.6071V26.4786C26.6071 27.296 25.9477 27.9598 25.1288 27.9598H22.1724C21.3565 27.9598 20.6942 27.296 20.6942 26.4786V20.5478H18.0613C16.4559 20.5478 15.8011 19.4761 16.6023 18.1693L22.1916 12.6599C23.287 11.566 23.9802 11.5291 25.1097 12.6599L30.6989 18.1693C31.5031 19.4775 30.8438 20.5478 29.2384 20.5478Z"/>
</svg>
