<svg width="15" height="18" viewBox="0 0 15 18" fill="none" xmlns="http://www.w3.org/2000/svg">
<path d="M10.1725 8.21983C11.3068 7.39256 12.0455 6.05374 12.0455 4.54546C12.0455 2.03909 10.0064 0 7.5 0C4.99363 0 2.95454 2.03909 2.95454 4.54546C2.95454 6.05374 3.69317 7.39256 4.82751 8.21983C2.00776 9.29887 0 12.0328 0 15.2273C0 16.6058 1.12149 17.7273 2.5 17.7273H12.5C13.8785 17.7273 15 16.6058 15 15.2273C15 12.0328 12.9922 9.29887 10.1725 8.21983ZM4.31819 4.54546C4.31819 2.79101 5.74555 1.36365 7.5 1.36365C9.25445 1.36365 10.6818 2.79101 10.6818 4.54546C10.6818 6.29991 9.25445 7.7273 7.5 7.7273C5.74555 7.7273 4.31819 6.29991 4.31819 4.54546ZM12.5 16.3637H2.5C1.87342 16.3637 1.36365 15.8539 1.36365 15.2273C1.36365 11.8436 4.11637 9.09089 7.50004 9.09089C10.8837 9.09089 13.6364 11.8436 13.6364 15.2273C13.6364 15.8539 13.1266 16.3637 12.5 16.3637Z" fill="black"/>
</svg>
