<svg width="15" height="15" viewBox="0 0 18 21" fill="none" xmlns="http://www.w3.org/2000/svg">
<path fillRule="evenodd" clipRule="evenodd" d="M4 14.5C4 13.95 4.45 13.5 5 13.5C5.55 13.5 6 13.95 6 14.5C6 15.05 5.55 15.5 5 15.5C4.45 15.5 4 15.05 4 14.5ZM9 13.5H13C13.55 13.5 14 13.95 14 14.5C14 15.05 13.55 15.5 13 15.5H9C8.45 15.5 8 15.05 8 14.5C8 13.95 8.45 13.5 9 13.5ZM15 18.5H3C2.449 18.5 2 18.051 2 17.5V11.5H16V17.5C16 18.051 15.551 18.5 15 18.5ZM3 4.5H4V5.5C4 6.05 4.45 6.5 5 6.5C5.55 6.5 6 6.05 6 5.5V4.5H12V5.5C12 6.05 12.45 6.5 13 6.5C13.55 6.5 14 6.05 14 5.5V4.5H15C15.551 4.5 16 4.949 16 5.5V9.5H2V5.5C2 4.949 2.449 4.5 3 4.5ZM15 2.5H14V1.5C14 0.95 13.55 0.5 13 0.5C12.45 0.5 12 0.95 12 1.5V2.5H6V1.5C6 0.95 5.55 0.5 5 0.5C4.45 0.5 4 0.95 4 1.5V2.5H3C1.346 2.5 0 3.846 0 5.5V17.5C0 19.154 1.346 20.5 3 20.5H15C16.654 20.5 18 19.154 18 17.5V5.5C18 3.846 16.654 2.5 15 2.5Z"/>
</svg>
