<svg width="21" height="21" viewBox="0 0 21 21" fill="none" xmlns="http://www.w3.org/2000/svg">
<g id="vuesax/outline/eye">
<g id="eye">
<path id="Vector" d="M10.9433 14.3584C8.95163 14.3584 7.33496 12.7417 7.33496 10.7501C7.33496 8.75839 8.95163 7.14172 10.9433 7.14172C12.935 7.14172 14.5516 8.75839 14.5516 10.7501C14.5516 12.7417 12.935 14.3584 10.9433 14.3584ZM10.9433 8.39172C9.64329 8.39172 8.58496 9.45006 8.58496 10.7501C8.58496 12.0501 9.64329 13.1084 10.9433 13.1084C12.2433 13.1084 13.3016 12.0501 13.3016 10.7501C13.3016 9.45006 12.2433 8.39172 10.9433 8.39172Z" fill="#292D32"/>
<path id="Vector_2" d="M10.9438 18.2666C7.81042 18.2666 4.85208 16.4333 2.81875 13.2499C1.93542 11.8749 1.93542 9.63328 2.81875 8.24994C4.86042 5.06661 7.81875 3.23328 10.9438 3.23328C14.0688 3.23328 17.0271 5.06661 19.0604 8.24994C19.9438 9.62494 19.9438 11.8666 19.0604 13.2499C17.0271 16.4333 14.0688 18.2666 10.9438 18.2666ZM10.9438 4.48328C8.25208 4.48328 5.67708 6.09994 3.87708 8.92494C3.25208 9.89994 3.25208 11.5999 3.87708 12.5749C5.67708 15.3999 8.25208 17.0166 10.9438 17.0166C13.6354 17.0166 16.2104 15.3999 18.0104 12.5749C18.6354 11.5999 18.6354 9.89994 18.0104 8.92494C16.2104 6.09994 13.6354 4.48328 10.9438 4.48328Z" fill="#0A0A0C"/>
</g>
</g>
</svg>
