<svg width="15" height="15" viewBox="0 0 15 15" fill="none" xmlns="http://www.w3.org/2000/svg">
<path fill-rule="evenodd" clip-rule="evenodd" d="M7.59017 7.41189L7.59013 3.8345C7.59013 3.50868 7.3268 3.24535 7.00098 3.24534C6.67516 3.24534 6.41183 3.50866 6.41184 3.83449L6.41187 7.41187L2.83449 7.41184C2.50866 7.41183 2.24534 7.67516 2.24534 8.00098C2.24535 8.3268 2.50868 8.59013 2.8345 8.59013L6.41189 8.59017L6.41192 12.1676C6.41193 12.4934 6.67525 12.7567 7.00108 12.7567C7.16357 12.7567 7.31107 12.6909 7.41773 12.5842C7.52439 12.4776 7.59022 12.3301 7.59022 12.1676L7.59018 8.59018L11.1676 8.59022C11.3301 8.59022 11.4776 8.52439 11.5842 8.41773C11.6909 8.31107 11.7567 8.16357 11.7567 8.00108C11.7567 7.67526 11.4934 7.41193 11.1676 7.41192L7.59017 7.41189Z" fill="#1DA0D6"/>
</svg>
