<svg width="34" height="34" viewBox="0 0 34 34" fill="none" xmlns="http://www.w3.org/2000/svg">
<path fill-rule="evenodd" clip-rule="evenodd" d="M17.9705 16.0002L17.9705 9.92893C17.9705 9.37598 17.5236 8.92908 16.9706 8.92908C16.4177 8.92908 15.9708 9.37597 15.9708 9.92893L15.9708 16.0002L9.89955 16.0002C9.34659 16.0002 8.8997 16.447 8.8997 17C8.8997 17.553 9.34659 17.9998 9.89955 17.9998L15.9708 17.9998L15.9708 24.0711C15.9708 24.624 16.4177 25.0709 16.9706 25.0709C17.2464 25.0709 17.4967 24.9592 17.6777 24.7782C17.8587 24.5972 17.9705 24.3468 17.9705 24.0711L17.9705 17.9998L24.0417 17.9998C24.3175 17.9998 24.5678 17.8881 24.7488 17.7071C24.9298 17.5261 25.0415 17.2758 25.0415 17C25.0415 16.447 24.5946 16.0002 24.0417 16.0002L17.9705 16.0002Z" fill="#505050"/>
</svg>
