<svg width="24" height="25" viewBox="0 0 24 25" fill="none" xmlns="http://www.w3.org/2000/svg">
<path fill-rule="evenodd" clip-rule="evenodd" d="M19 11.5H7.135L10.768 7.14003C11.122 6.71603 11.064 6.08503 10.64 5.73203C10.215 5.37803 9.585 5.43603 9.232 5.86003L4.232 11.86C4.193 11.907 4.173 11.962 4.144 12.014C4.12 12.056 4.091 12.092 4.073 12.138C4.028 12.253 4.001 12.374 4.001 12.496C4.001 12.497 4 12.499 4 12.5C4 12.501 4.001 12.503 4.001 12.504C4.001 12.626 4.028 12.747 4.073 12.862C4.091 12.908 4.12 12.944 4.144 12.986C4.173 13.038 4.193 13.093 4.232 13.14L9.232 19.14C9.43 19.377 9.714 19.5 10 19.5C10.226 19.5 10.453 19.424 10.64 19.268C11.064 18.915 11.122 18.284 10.768 17.86L7.135 13.5H19C19.552 13.5 20 13.052 20 12.5C20 11.948 19.552 11.5 19 11.5Z" fill="black"/>
</svg>
