<svg width="40" height="41" viewBox="0 0 40 41" fill="none" xmlns="http://www.w3.org/2000/svg">
<path fill-rule="evenodd" clip-rule="evenodd" d="M26.0503 19.1015L14.2257 19.1015L17.8463 14.7494C18.1991 14.3261 18.1413 13.6963 17.7188 13.3439C17.2952 12.9905 16.6674 13.0484 16.3146 13.4717L11.3316 19.4609C11.2927 19.5078 11.2738 19.5627 11.2449 19.6146C11.221 19.6565 11.1921 19.6925 11.1741 19.7384C11.1293 19.8532 11.1024 19.974 11.1024 20.0958C11.1024 20.0968 11.1014 20.0987 11.1014 20.0997C11.1014 20.1007 11.1024 20.1027 11.1024 20.1037C11.1024 20.2255 11.1293 20.3463 11.1741 20.4611C11.1921 20.507 11.221 20.5429 11.2449 20.5849C11.2738 20.6368 11.2927 20.6917 11.3316 20.7386L16.3146 26.7278C16.5129 26.9644 16.7959 27.0872 17.0809 27.0872C17.3062 27.0872 17.5324 27.0113 17.7188 26.8556C18.1413 26.5032 18.1991 25.8733 17.8463 25.4501L14.2257 21.0979L26.0503 21.0979C26.6004 21.0979 27.0469 20.6507 27.0469 20.0997C27.0469 19.5487 26.6004 19.1015 26.0503 19.1015Z" fill="white"/>
</svg>
