<svg width="34" height="33" viewBox="0 0 34 33" fill="none" xmlns="http://www.w3.org/2000/svg">
<path fill-rule="evenodd" clip-rule="evenodd" d="M15.3027 16.6044C15.3001 16.5699 15.2988 16.5351 15.2988 16.5V5.5C15.2988 4.741 15.9135 4.125 16.6738 4.125C17.4342 4.125 18.0488 4.741 18.0488 5.5V16.4998L21.3488 14.025C21.9566 13.5671 22.8187 13.6922 23.2738 14.3C23.7303 14.9077 23.6066 15.7699 22.9988 16.225L17.4988 20.35C17.2555 20.5329 16.964 20.625 16.6738 20.625C16.3975 20.625 16.1211 20.5411 15.8832 20.3748L10.3832 16.5055C9.7617 16.0682 9.61183 15.2102 10.0491 14.5901C10.4863 13.9686 11.343 13.8187 11.9645 14.256L15.3027 16.6044ZM8.42383 23.375V24.75H24.9238V23.375C24.9238 22.6187 25.5426 22 26.2988 22C27.0551 22 27.6738 22.6187 27.6738 23.375V26.125C27.6738 26.8813 27.0551 27.5 26.2988 27.5H7.04883C6.29258 27.5 5.67383 26.8813 5.67383 26.125V23.375C5.67383 22.6187 6.29258 22 7.04883 22C7.80508 22 8.42383 22.6187 8.42383 23.375Z" fill="black"/>
</svg>
