<svg width="16" height="16" viewBox="0 0 21 20" fill="none" xmlns="http://www.w3.org/2000/svg">
<path d="M10.4482 13.6083C8.45651 13.6083 6.83984 11.9916 6.83984 9.99993C6.83984 8.00827 8.45651 6.3916 10.4482 6.3916C12.4398 6.3916 14.0565 8.00827 14.0565 9.99993C14.0565 11.9916 12.4398 13.6083 10.4482 13.6083ZM10.4482 7.6416C9.14818 7.6416 8.08984 8.69993 8.08984 9.99993C8.08984 11.2999 9.14818 12.3583 10.4482 12.3583C11.7482 12.3583 12.8065 11.2999 12.8065 9.99993C12.8065 8.69993 11.7482 7.6416 10.4482 7.6416Z" fill="#363939"/>
<path d="M10.4477 17.5167C7.31432 17.5167 4.35599 15.6834 2.32266 12.5001C1.43932 11.1251 1.43932 8.8834 2.32266 7.50007C4.36432 4.31673 7.32266 2.4834 10.4477 2.4834C13.5727 2.4834 16.531 4.31673 18.5643 7.50007C19.4477 8.87507 19.4477 11.1167 18.5643 12.5001C16.531 15.6834 13.5727 17.5167 10.4477 17.5167ZM10.4477 3.7334C7.75599 3.7334 5.18099 5.35007 3.38099 8.17507C2.75599 9.15007 2.75599 10.8501 3.38099 11.8251C5.18099 14.6501 7.75599 16.2667 10.4477 16.2667C13.1393 16.2667 15.7143 14.6501 17.5143 11.8251C18.1393 10.8501 18.1393 9.15007 17.5143 8.17507C15.7143 5.35007 13.1393 3.7334 10.4477 3.7334Z" fill="#363939"/>
</svg>
