<svg width="25" height="34" viewBox="0 0 25 34" fill="none" xmlns="http://www.w3.org/2000/svg">
<path d="M24.7965 7.14792L17.8521 0.203451C17.7219 0.0732422 17.5456 0 17.3611 0H2.77773C1.24577 0 0 1.24577 0 2.7778V30.5556C0 32.0876 1.24577 33.3333 2.7778 33.3333H22.2223C23.7542 33.3333 25 32.0876 25 30.5555V7.63887C25 7.45443 24.9268 7.27812 24.7965 7.14792ZM18.0555 2.3709L22.6291 6.94447H19.4444C18.6788 6.94447 18.0555 6.32122 18.0555 5.5556V2.3709ZM23.6111 30.5555C23.6111 31.3212 22.9879 31.9444 22.2223 31.9444H2.7778C2.01217 31.9444 1.38893 31.3212 1.38893 30.5555V2.7778C1.38893 2.01217 2.01217 1.38893 2.7778 1.38893H16.6667V5.5556C16.6667 7.08756 17.9124 8.33333 19.4445 8.33333H23.6111V30.5555Z" fill="#1DA0D6"/>
<path d="M16.042 20.3847C15.3991 19.8788 14.7881 19.3587 14.3812 18.9518C13.8522 18.4228 13.3809 17.9101 12.9713 17.4218C13.6102 15.4477 13.8902 14.4298 13.8902 13.8872C13.8902 11.5821 13.0574 11.1094 11.8069 11.1094C10.8568 11.1094 9.72357 11.6031 9.72357 13.9536C9.72357 14.9899 10.2912 16.2479 11.4163 17.71C11.141 18.5503 10.8174 19.5194 10.454 20.6119C10.279 21.1361 10.0891 21.6217 9.88835 22.0706C9.72821 22.1414 9.56971 22.2158 9.41296 22.2937C8.86094 22.5698 8.33672 22.818 7.85046 23.0486C5.63281 24.0984 4.16797 24.7928 4.16797 26.1641C4.16797 27.1596 5.24967 27.776 6.2513 27.776C7.54251 27.776 9.49225 26.0514 10.9164 23.1462C12.3948 22.563 14.2327 22.1309 15.6833 21.8604C16.8456 22.7542 18.1294 23.6094 18.7513 23.6094C20.4732 23.6094 20.8346 22.6138 20.8346 21.779C20.8346 20.1371 18.9588 20.1371 18.0568 20.1371C17.7768 20.1372 17.0254 20.2199 16.042 20.3847ZM6.2513 26.3872C5.85456 26.3872 5.586 26.2 5.55684 26.1641C5.55684 25.6717 7.02506 24.9759 8.44518 24.3032C8.53535 24.2605 8.62695 24.2177 8.71986 24.1736C7.67682 25.686 6.64531 26.3872 6.2513 26.3872ZM11.1124 13.9536C11.1124 12.4983 11.5641 12.4983 11.8069 12.4983C12.2979 12.4983 12.5014 12.4983 12.5014 13.8872C12.5014 14.1801 12.3061 14.9126 11.9486 16.056C11.4033 15.2164 11.1124 14.4969 11.1124 13.9536ZM11.6448 21.4176C11.6885 21.2961 11.7306 21.174 11.771 21.0514C12.0286 20.2783 12.2606 19.5838 12.4674 18.9585C12.7557 19.2759 13.0663 19.6008 13.3993 19.9337C13.5295 20.0639 13.8523 20.3569 14.2823 20.7238C13.4263 20.9103 12.5156 21.1415 11.6448 21.4176ZM19.4458 21.779C19.4458 22.091 19.4458 22.2205 18.8015 22.2246C18.6123 22.1839 18.1749 21.9262 17.635 21.5587C17.831 21.537 17.9755 21.5261 18.0568 21.5261C19.0829 21.5261 19.3739 21.6264 19.4458 21.779Z" fill="#1DA0D6"/>
</svg>
