<svg width="41" height="41" viewBox="0 0 41 41" fill="none" xmlns="http://www.w3.org/2000/svg">
<circle cx="20.0684" cy="20.0684" r="18.0684" fill="#1DA0D6" stroke="#1DA0D6" stroke-width="4"/>
<path fill-rule="evenodd" clip-rule="evenodd" d="M13 21H24.865L21.232 25.36C20.878 25.784 20.936 26.415 21.36 26.768C21.785 27.122 22.415 27.064 22.769 26.64L27.769 20.64C27.808 20.593 27.827 20.538 27.856 20.486C27.88 20.444 27.909 20.408 27.927 20.362C27.972 20.247 27.999 20.126 27.999 20.004C27.999 20.003 28 20.001 28 20C28 19.999 27.999 19.997 27.999 19.996C27.999 19.874 27.972 19.753 27.927 19.638C27.909 19.592 27.88 19.556 27.856 19.514C27.827 19.462 27.808 19.407 27.769 19.36L22.769 13.36C22.57 13.123 22.286 13 22 13C21.774 13 21.547 13.076 21.36 13.232C20.936 13.585 20.878 14.216 21.232 14.64L24.865 19H13C12.448 19 12 19.448 12 20C12 20.552 12.448 21 13 21Z" fill="white"/>
</svg>
