<svg width="27" height="27" viewBox="0 0 27 27" fill="none" xmlns="http://www.w3.org/2000/svg">
<path fill-rule="evenodd" clip-rule="evenodd" d="M4.5 15.4749V20.327C4.5 20.5947 4.752 20.813 5.0625 20.813H21.9375C22.248 20.813 22.5 20.5947 22.5 20.327V10.6632C22.5 10.3944 22.248 10.1772 21.9375 10.1772H13.5C13.1625 10.1772 12.843 10.0254 12.6292 9.76324L9.70425 6.18799H5.0625C4.752 6.18799 4.5 6.40511 4.5 6.67286V15.4749ZM21.9375 23.063H5.0625C3.51225 23.063 2.25 21.8356 2.25 20.327V6.67286C2.25 5.16424 3.51225 3.93799 5.0625 3.93799H10.2386C10.575 3.93799 10.8956 4.08874 11.1094 4.35086L14.0332 7.92724H21.9375C23.4877 7.92724 24.75 9.15349 24.75 10.6632V20.327C24.75 21.8356 23.4877 23.063 21.9375 23.063Z" fill="#1DA0D6"/>
</svg>
