<svg width="680" height="97" viewBox="0 0 680 97" fill="none" xmlns="http://www.w3.org/2000/svg">
<g clip-path="url(#clip0_1176_5219)">
<path d="M25.8228 0L0 24.2963" stroke="#D7F0EF" stroke-opacity="0.08" stroke-width="3.5"/>
<path d="M25.8281 0L51.6509 24.2963" stroke="#D7F0EF" stroke-opacity="0.08" stroke-width="3.5"/>
<path d="M51.6406 0L77.4634 24.2963" stroke="#D7F0EF" stroke-opacity="0.08" stroke-width="3.5"/>
<path d="M103.299 0L77.4766 24.2963" stroke="#D7F0EF" stroke-opacity="0.08" stroke-width="3.5"/>
<path d="M103.289 0L129.112 24.2963" stroke="#D7F0EF" stroke-opacity="0.08" stroke-width="3.5"/>
<path d="M129.117 0L154.94 24.2963" stroke="#D7F0EF" stroke-opacity="0.08" stroke-width="3.5"/>
<path d="M154.93 0L180.752 24.2963" stroke="#D7F0EF" stroke-opacity="0.08" stroke-width="3.5"/>
<path d="M180.766 0L206.588 24.2963" stroke="#D7F0EF" stroke-opacity="0.08" stroke-width="3.5"/>
<path d="M232.409 0L206.586 24.2963" stroke="#D7F0EF" stroke-opacity="0.08" stroke-width="3.5"/>
<path d="M258.229 0L232.406 24.2963" stroke="#D7F0EF" stroke-opacity="0.08" stroke-width="3.5"/>
<path d="M284.049 0L258.227 24.2963" stroke="#D7F0EF" stroke-opacity="0.08" stroke-width="3.5"/>
<path d="M309.877 0L284.055 24.2963" stroke="#D7F0EF" stroke-opacity="0.08" stroke-width="3.5"/>
<path d="M309.875 0L335.698 24.2963" stroke="#D7F0EF" stroke-opacity="0.08" stroke-width="3.5"/>
<path d="M361.518 0L335.695 24.2963" stroke="#D7F0EF" stroke-opacity="0.08" stroke-width="3.5"/>
<path d="M387.338 0L361.516 24.2963" stroke="#D7F0EF" stroke-opacity="0.08" stroke-width="3.5"/>
<path d="M413.167 0L387.344 24.2963" stroke="#D7F0EF" stroke-opacity="0.08" stroke-width="3.5"/>
<path d="M438.987 0L413.164 24.2963" stroke="#D7F0EF" stroke-opacity="0.08" stroke-width="3.5"/>
<path d="M464.815 0L438.992 24.2963" stroke="#D7F0EF" stroke-opacity="0.08" stroke-width="3.5"/>
<path d="M464.805 0L490.627 24.2963" stroke="#D7F0EF" stroke-opacity="0.08" stroke-width="3.5"/>
<path d="M490.625 0L516.448 24.2963" stroke="#D7F0EF" stroke-opacity="0.08" stroke-width="3.5"/>
<path d="M542.268 0L516.445 24.2963" stroke="#D7F0EF" stroke-opacity="0.08" stroke-width="3.5"/>
<path d="M542.281 0L568.104 24.2963" stroke="#D7F0EF" stroke-opacity="0.08" stroke-width="3.5"/>
<path d="M593.924 0L568.102 24.2963" stroke="#D7F0EF" stroke-opacity="0.08" stroke-width="3.5"/>
<path d="M593.922 0L619.745 24.2963" stroke="#D7F0EF" stroke-opacity="0.08" stroke-width="3.5"/>
<path d="M619.742 0L645.565 24.2963" stroke="#D7F0EF" stroke-opacity="0.08" stroke-width="3.5"/>
<path d="M645.578 0L671.401 24.2963" stroke="#D7F0EF" stroke-opacity="0.08" stroke-width="3.5"/>
<path d="M671.391 0L697.213 24.2963" stroke="#D7F0EF" stroke-opacity="0.08" stroke-width="3.5"/>
<path opacity="0.94" d="M0 24.2964L25.8228 48.5927" stroke="#D7F0EF" stroke-opacity="0.08" stroke-width="3.5"/>
<path opacity="0.94" d="M51.6509 24.2964L25.8281 48.5927" stroke="#D7F0EF" stroke-opacity="0.08" stroke-width="3.5"/>
<path opacity="0.94" d="M51.6406 24.2964L77.4634 48.5927" stroke="#D7F0EF" stroke-opacity="0.08" stroke-width="3.5"/>
<path opacity="0.94" d="M103.299 24.2964L77.4766 48.5927" stroke="#D7F0EF" stroke-opacity="0.08" stroke-width="3.5"/>
<path opacity="0.94" d="M129.112 24.2964L103.289 48.5927" stroke="#D7F0EF" stroke-opacity="0.08" stroke-width="3.5"/>
<path opacity="0.94" d="M129.117 24.2964L154.94 48.5927" stroke="#D7F0EF" stroke-opacity="0.08" stroke-width="3.5"/>
<path opacity="0.94" d="M154.93 24.2964L180.752 48.5927" stroke="#D7F0EF" stroke-opacity="0.08" stroke-width="3.5"/>
<path opacity="0.94" d="M206.588 24.2964L180.766 48.5927" stroke="#D7F0EF" stroke-opacity="0.08" stroke-width="3.5"/>
<path opacity="0.94" d="M232.409 24.2964L206.586 48.5927" stroke="#D7F0EF" stroke-opacity="0.08" stroke-width="3.5"/>
<path opacity="0.94" d="M232.406 24.2964L258.229 48.5927" stroke="#D7F0EF" stroke-opacity="0.08" stroke-width="3.5"/>
<path opacity="0.94" d="M258.227 24.2964L284.049 48.5927" stroke="#D7F0EF" stroke-opacity="0.08" stroke-width="3.5"/>
<path opacity="0.94" d="M284.055 24.2964L309.877 48.5927" stroke="#D7F0EF" stroke-opacity="0.08" stroke-width="3.5"/>
<path opacity="0.94" d="M335.698 24.2964L309.875 48.5927" stroke="#D7F0EF" stroke-opacity="0.08" stroke-width="3.5"/>
<path opacity="0.94" d="M361.518 24.2964L335.695 48.5927" stroke="#D7F0EF" stroke-opacity="0.08" stroke-width="3.5"/>
<path opacity="0.94" d="M361.516 24.2964L387.338 48.5927" stroke="#D7F0EF" stroke-opacity="0.08" stroke-width="3.5"/>
<path opacity="0.94" d="M413.167 24.2964L387.344 48.5927" stroke="#D7F0EF" stroke-opacity="0.08" stroke-width="3.5"/>
<path opacity="0.94" d="M413.164 24.2964L438.987 48.5927" stroke="#D7F0EF" stroke-opacity="0.08" stroke-width="3.5"/>
<path opacity="0.94" d="M464.815 24.2964L438.992 48.5927" stroke="#D7F0EF" stroke-opacity="0.08" stroke-width="3.5"/>
<path opacity="0.94" d="M490.627 24.2964L464.805 48.5927" stroke="#D7F0EF" stroke-opacity="0.08" stroke-width="3.5"/>
<path opacity="0.94" d="M490.625 24.2964L516.448 48.5927" stroke="#D7F0EF" stroke-opacity="0.08" stroke-width="3.5"/>
<path opacity="0.94" d="M516.445 24.2964L542.268 48.5927" stroke="#D7F0EF" stroke-opacity="0.08" stroke-width="3.5"/>
<path opacity="0.94" d="M568.104 24.2964L542.281 48.5927" stroke="#D7F0EF" stroke-opacity="0.08" stroke-width="3.5"/>
<path opacity="0.94" d="M568.102 24.2964L593.924 48.5927" stroke="#D7F0EF" stroke-opacity="0.08" stroke-width="3.5"/>
<path opacity="0.94" d="M619.745 24.2964L593.922 48.5927" stroke="#D7F0EF" stroke-opacity="0.08" stroke-width="3.5"/>
<path opacity="0.94" d="M619.742 24.2964L645.565 48.5927" stroke="#D7F0EF" stroke-opacity="0.08" stroke-width="3.5"/>
<path opacity="0.94" d="M645.578 24.2964L671.401 48.5927" stroke="#D7F0EF" stroke-opacity="0.08" stroke-width="3.5"/>
<path opacity="0.94" d="M697.213 24.2964L671.391 48.5927" stroke="#D7F0EF" stroke-opacity="0.08" stroke-width="3.5"/>
<path opacity="0.87" d="M0 48.5925L25.8228 72.8889" stroke="#D7F0EF" stroke-opacity="0.08" stroke-width="3.5"/>
<path opacity="0.87" d="M25.8281 48.5925L51.6509 72.8889" stroke="#D7F0EF" stroke-opacity="0.08" stroke-width="3.5"/>
<path opacity="0.87" d="M51.6406 48.5925L77.4634 72.8889" stroke="#D7F0EF" stroke-opacity="0.08" stroke-width="3.5"/>
<path opacity="0.87" d="M103.299 48.5925L77.4766 72.8889" stroke="#D7F0EF" stroke-opacity="0.08" stroke-width="3.5"/>
<path opacity="0.87" d="M103.289 48.5925L129.112 72.8889" stroke="#D7F0EF" stroke-opacity="0.08" stroke-width="3.5"/>
<path opacity="0.87" d="M129.117 48.5925L154.94 72.8889" stroke="#D7F0EF" stroke-opacity="0.08" stroke-width="3.5"/>
<path opacity="0.87" d="M180.752 48.5925L154.93 72.8889" stroke="#D7F0EF" stroke-opacity="0.08" stroke-width="3.5"/>
<path opacity="0.87" d="M206.588 48.5925L180.766 72.8889" stroke="#D7F0EF" stroke-opacity="0.08" stroke-width="3.5"/>
<path opacity="0.87" d="M232.409 48.5925L206.586 72.8889" stroke="#D7F0EF" stroke-opacity="0.08" stroke-width="3.5"/>
<path opacity="0.87" d="M232.406 48.5925L258.229 72.8889" stroke="#D7F0EF" stroke-opacity="0.08" stroke-width="3.5"/>
<path opacity="0.87" d="M258.227 48.5925L284.049 72.8889" stroke="#D7F0EF" stroke-opacity="0.08" stroke-width="3.5"/>
<path opacity="0.87" d="M309.877 48.5925L284.055 72.8889" stroke="#D7F0EF" stroke-opacity="0.08" stroke-width="3.5"/>
<path opacity="0.87" d="M309.875 48.5925L335.698 72.8889" stroke="#D7F0EF" stroke-opacity="0.08" stroke-width="3.5"/>
<path opacity="0.87" d="M335.695 48.5925L361.518 72.8889" stroke="#D7F0EF" stroke-opacity="0.08" stroke-width="3.5"/>
<path opacity="0.87" d="M387.338 48.5925L361.516 72.8889" stroke="#D7F0EF" stroke-opacity="0.08" stroke-width="3.5"/>
<path opacity="0.87" d="M387.344 48.5925L413.167 72.8889" stroke="#D7F0EF" stroke-opacity="0.08" stroke-width="3.5"/>
<path opacity="0.87" d="M438.987 48.5925L413.164 72.8889" stroke="#D7F0EF" stroke-opacity="0.08" stroke-width="3.5"/>
<path opacity="0.87" d="M464.815 48.5925L438.992 72.8889" stroke="#D7F0EF" stroke-opacity="0.08" stroke-width="3.5"/>
<path opacity="0.87" d="M464.805 48.5925L490.627 72.8889" stroke="#D7F0EF" stroke-opacity="0.08" stroke-width="3.5"/>
<path opacity="0.87" d="M490.625 48.5925L516.448 72.8889" stroke="#D7F0EF" stroke-opacity="0.08" stroke-width="3.5"/>
<path opacity="0.87" d="M516.445 48.5925L542.268 72.8889" stroke="#D7F0EF" stroke-opacity="0.08" stroke-width="3.5"/>
<path opacity="0.87" d="M542.281 48.5925L568.104 72.8889" stroke="#D7F0EF" stroke-opacity="0.08" stroke-width="3.5"/>
<path opacity="0.87" d="M568.102 48.5925L593.924 72.8889" stroke="#D7F0EF" stroke-opacity="0.08" stroke-width="3.5"/>
<path opacity="0.87" d="M593.922 48.5925L619.745 72.8889" stroke="#D7F0EF" stroke-opacity="0.08" stroke-width="3.5"/>
<path opacity="0.87" d="M645.565 48.5925L619.742 72.8889" stroke="#D7F0EF" stroke-opacity="0.08" stroke-width="3.5"/>
<path opacity="0.87" d="M645.578 48.5928L671.401 72.8891" stroke="#D7F0EF" stroke-opacity="0.08" stroke-width="3.5"/>
<path opacity="0.87" d="M671.391 48.5925L697.213 72.8889" stroke="#D7F0EF" stroke-opacity="0.08" stroke-width="3.5"/>
<path opacity="0.81" d="M0 72.8889L25.8228 97.1852" stroke="#D7F0EF" stroke-opacity="0.08" stroke-width="3.5"/>
<path opacity="0.81" d="M51.6509 72.8892L25.8281 97.1855" stroke="#D7F0EF" stroke-opacity="0.08" stroke-width="3.5"/>
<path opacity="0.81" d="M77.4634 72.8892L51.6406 97.1855" stroke="#D7F0EF" stroke-opacity="0.08" stroke-width="3.5"/>
<path opacity="0.81" d="M77.4766 72.8892L103.299 97.1855" stroke="#D7F0EF" stroke-opacity="0.08" stroke-width="3.5"/>
<path opacity="0.81" d="M129.112 72.8892L103.289 97.1855" stroke="#D7F0EF" stroke-opacity="0.08" stroke-width="3.5"/>
<path opacity="0.81" d="M129.117 72.8892L154.94 97.1855" stroke="#D7F0EF" stroke-opacity="0.08" stroke-width="3.5"/>
<path opacity="0.81" d="M154.93 72.8892L180.752 97.1855" stroke="#D7F0EF" stroke-opacity="0.08" stroke-width="3.5"/>
<path opacity="0.81" d="M180.766 72.8892L206.588 97.1855" stroke="#D7F0EF" stroke-opacity="0.08" stroke-width="3.5"/>
<path opacity="0.81" d="M206.586 72.8892L232.409 97.1855" stroke="#D7F0EF" stroke-opacity="0.08" stroke-width="3.5"/>
<path opacity="0.81" d="M232.406 72.8892L258.229 97.1855" stroke="#D7F0EF" stroke-opacity="0.08" stroke-width="3.5"/>
<path opacity="0.81" d="M258.227 72.8892L284.049 97.1855" stroke="#D7F0EF" stroke-opacity="0.08" stroke-width="3.5"/>
<path opacity="0.81" d="M284.055 72.8892L309.877 97.1855" stroke="#D7F0EF" stroke-opacity="0.08" stroke-width="3.5"/>
<path opacity="0.81" d="M335.698 72.8892L309.875 97.1855" stroke="#D7F0EF" stroke-opacity="0.08" stroke-width="3.5"/>
<path opacity="0.81" d="M361.518 72.8892L335.695 97.1855" stroke="#D7F0EF" stroke-opacity="0.08" stroke-width="3.5"/>
<path opacity="0.81" d="M387.338 72.8892L361.516 97.1855" stroke="#D7F0EF" stroke-opacity="0.08" stroke-width="3.5"/>
<path opacity="0.81" d="M413.167 72.8892L387.344 97.1855" stroke="#D7F0EF" stroke-opacity="0.08" stroke-width="3.5"/>
<path opacity="0.81" d="M413.164 72.8892L438.987 97.1855" stroke="#D7F0EF" stroke-opacity="0.08" stroke-width="3.5"/>
<path opacity="0.81" d="M464.815 72.8892L438.992 97.1855" stroke="#D7F0EF" stroke-opacity="0.08" stroke-width="3.5"/>
<path opacity="0.81" d="M490.627 72.8892L464.805 97.1855" stroke="#D7F0EF" stroke-opacity="0.08" stroke-width="3.5"/>
<path opacity="0.81" d="M516.448 72.8892L490.625 97.1855" stroke="#D7F0EF" stroke-opacity="0.08" stroke-width="3.5"/>
<path opacity="0.81" d="M516.445 72.8892L542.268 97.1855" stroke="#D7F0EF" stroke-opacity="0.08" stroke-width="3.5"/>
<path opacity="0.81" d="M542.281 72.8892L568.104 97.1855" stroke="#D7F0EF" stroke-opacity="0.08" stroke-width="3.5"/>
<path opacity="0.81" d="M593.924 72.8892L568.102 97.1855" stroke="#D7F0EF" stroke-opacity="0.08" stroke-width="3.5"/>
<path opacity="0.81" d="M619.745 72.8892L593.922 97.1855" stroke="#D7F0EF" stroke-opacity="0.08" stroke-width="3.5"/>
<path opacity="0.81" d="M619.742 72.8892L645.565 97.1855" stroke="#D7F0EF" stroke-opacity="0.08" stroke-width="3.5"/>
<path opacity="0.81" d="M645.578 72.8889L671.401 97.1852" stroke="#D7F0EF" stroke-opacity="0.08" stroke-width="3.5"/>
<path opacity="0.81" d="M671.391 72.8892L697.213 97.1855" stroke="#D7F0EF" stroke-opacity="0.08" stroke-width="3.5"/>
<path opacity="0.74" d="M0 97.1853L25.8228 121.482" stroke="#D7F0EF" stroke-opacity="0.08" stroke-width="3.5"/>
<path opacity="0.74" d="M51.6509 97.1853L25.8281 121.482" stroke="#D7F0EF" stroke-opacity="0.08" stroke-width="3.5"/>
<path opacity="0.74" d="M51.6406 97.1853L77.4634 121.482" stroke="#D7F0EF" stroke-opacity="0.08" stroke-width="3.5"/>
<path opacity="0.74" d="M103.299 97.1853L77.4766 121.482" stroke="#D7F0EF" stroke-opacity="0.08" stroke-width="3.5"/>
<path opacity="0.74" d="M129.112 97.1853L103.289 121.482" stroke="#D7F0EF" stroke-opacity="0.08" stroke-width="3.5"/>
<path opacity="0.74" d="M129.117 97.1853L154.94 121.482" stroke="#D7F0EF" stroke-opacity="0.08" stroke-width="3.5"/>
<path opacity="0.74" d="M180.752 97.1853L154.93 121.482" stroke="#D7F0EF" stroke-opacity="0.08" stroke-width="3.5"/>
<path opacity="0.74" d="M180.766 97.1853L206.588 121.482" stroke="#D7F0EF" stroke-opacity="0.08" stroke-width="3.5"/>
<path opacity="0.74" d="M206.586 97.1853L232.409 121.482" stroke="#D7F0EF" stroke-opacity="0.08" stroke-width="3.5"/>
<path opacity="0.74" d="M258.229 97.1853L232.406 121.482" stroke="#D7F0EF" stroke-opacity="0.08" stroke-width="3.5"/>
<path opacity="0.74" d="M284.049 97.1853L258.227 121.482" stroke="#D7F0EF" stroke-opacity="0.08" stroke-width="3.5"/>
<path opacity="0.74" d="M309.877 97.1853L284.055 121.482" stroke="#D7F0EF" stroke-opacity="0.08" stroke-width="3.5"/>
<path opacity="0.74" d="M309.875 97.1853L335.698 121.482" stroke="#D7F0EF" stroke-opacity="0.08" stroke-width="3.5"/>
<path opacity="0.74" d="M335.695 97.1853L361.518 121.482" stroke="#D7F0EF" stroke-opacity="0.08" stroke-width="3.5"/>
<path opacity="0.74" d="M361.516 97.1853L387.338 121.482" stroke="#D7F0EF" stroke-opacity="0.08" stroke-width="3.5"/>
<path opacity="0.74" d="M387.344 97.1853L413.167 121.482" stroke="#D7F0EF" stroke-opacity="0.08" stroke-width="3.5"/>
<path opacity="0.74" d="M413.164 97.1853L438.987 121.482" stroke="#D7F0EF" stroke-opacity="0.08" stroke-width="3.5"/>
<path opacity="0.74" d="M464.815 97.1853L438.992 121.482" stroke="#D7F0EF" stroke-opacity="0.08" stroke-width="3.5"/>
<path opacity="0.74" d="M490.627 97.1853L464.805 121.482" stroke="#D7F0EF" stroke-opacity="0.08" stroke-width="3.5"/>
<path opacity="0.74" d="M490.625 97.1853L516.448 121.482" stroke="#D7F0EF" stroke-opacity="0.08" stroke-width="3.5"/>
<path opacity="0.74" d="M516.445 97.1853L542.268 121.482" stroke="#D7F0EF" stroke-opacity="0.08" stroke-width="3.5"/>
<path opacity="0.74" d="M542.281 97.1853L568.104 121.482" stroke="#D7F0EF" stroke-opacity="0.08" stroke-width="3.5"/>
<path opacity="0.74" d="M593.924 97.1853L568.102 121.482" stroke="#D7F0EF" stroke-opacity="0.08" stroke-width="3.5"/>
<path opacity="0.74" d="M619.745 97.1853L593.922 121.482" stroke="#D7F0EF" stroke-opacity="0.08" stroke-width="3.5"/>
<path opacity="0.74" d="M645.565 97.1853L619.742 121.482" stroke="#D7F0EF" stroke-opacity="0.08" stroke-width="3.5"/>
<path opacity="0.74" d="M671.401 97.1853L645.578 121.482" stroke="#D7F0EF" stroke-opacity="0.08" stroke-width="3.5"/>
<path opacity="0.74" d="M671.391 97.1853L697.213 121.482" stroke="#D7F0EF" stroke-opacity="0.08" stroke-width="3.5"/>
</g>
<defs>
<clipPath id="clip0_1176_5219">
<rect width="680" height="97" fill="white"/>
</clipPath>
</defs>
</svg>
