<svg width="28" height="28" viewBox="0 0 28 28" fill="none" xmlns="http://www.w3.org/2000/svg">
<path d="M6.71188 11.4257C6.68441 12.0574 6.65695 12.387 6.65695 12.744C6.65695 15.0512 6.62948 17.3857 6.65695 19.6928C6.65695 20.4619 6.38229 20.7915 5.58579 20.764C4.07518 20.7365 2.53711 20.7365 1.0265 20.764C0.284927 20.764 0.0102708 20.4619 0.0102708 19.7478C0.0377364 15.5455 -0.0446609 11.3708 0.0377359 7.16852C0.0926672 3.79025 1.85047 1.31835 4.70689 0.357053C5.3386 0.137328 5.99777 0.0274657 6.65695 0.0274657C10.9965 1.04364e-07 15.3635 0.0274656 19.7031 0C20.6095 0 20.9391 0.329587 20.9116 1.23595C20.8567 2.66416 20.8567 4.09238 20.9116 5.52059C20.9391 6.39949 20.582 6.67414 19.7306 6.67414C17.4509 6.64668 15.1713 6.64668 12.8642 6.67414C12.5346 6.67414 12.205 6.70161 11.6008 6.72907C11.9853 7.16852 12.2325 7.44318 12.4797 7.71784C17.1763 12.4145 21.8454 17.1111 26.5695 21.7802C27.2012 22.4119 27.2836 22.7965 26.597 23.4556C25.4984 24.4993 24.4547 25.6254 23.4384 26.7515C22.8891 27.3557 22.5321 27.2733 21.9828 26.724C17.2312 21.945 12.4797 17.1935 7.72811 12.4419C7.48092 12.1398 7.20626 11.8926 6.71188 11.4257Z" fill="#095183"/>
</svg>
