<svg width="28" height="32" viewBox="0 0 28 32" fill="none" xmlns="http://www.w3.org/2000/svg">
<path d="M27.2221 4.64968C22.6975 4.64968 16.7442 3.12286 14.6222 0.294101C14.3399 -0.0496325 13.8325 -0.0991885 13.4887 0.183147C13.4482 0.216384 13.411 0.253571 13.3777 0.294162C11.2555 3.12261 5.30236 4.64968 0.777955 4.64968C0.348227 4.64968 0 4.99784 0 5.42745V15.5384C0 24.0909 7.42689 29.2468 13.7865 31.0635C13.926 31.1041 14.074 31.1041 14.2135 31.0635C20.5731 29.2468 28 24.0909 28 15.5384V5.42745C28 4.99784 27.6517 4.64962 27.2221 4.64962V4.64968ZM26.4443 15.5384C26.4443 23.1309 19.7907 27.7852 14 29.5066C8.20922 27.7853 1.55542 23.1309 1.55542 15.5384V6.19162C6.05123 6.03961 11.3675 4.59034 14 1.94262C16.6328 4.59034 21.9488 6.03961 26.4445 6.19144V15.5384L26.4443 15.5384Z" fill="black"/>
<path d="M10.8897 12.4282V13.9837H10.1119C9.68225 13.9837 9.33403 14.3319 9.33403 14.7616V20.9836C9.33403 21.4132 9.68225 21.7614 10.1119 21.7614H17.8896C18.3193 21.7614 18.6676 21.4132 18.6676 20.9836V14.7616C18.6676 14.3319 18.3193 13.9837 17.8896 13.9837H17.1118V12.4282C17.1118 10.7099 15.719 9.31714 14.0007 9.31714C12.2825 9.31714 10.8897 10.7099 10.8897 12.4282ZM17.1118 20.2059H10.8897V15.5392H17.1117L17.1118 20.2059ZM15.5563 12.4282V13.9837H12.4452V12.4282C12.4452 11.5691 13.1415 10.8727 14.0007 10.8727C14.8598 10.8727 15.5563 11.5691 15.5563 12.4282Z" fill="black"/>
</svg>
