<svg width="16" height="16" viewBox="0 0 16 16" fill="none" xmlns="http://www.w3.org/2000/svg">
<path fill-rule="evenodd" clip-rule="evenodd" d="M3.20494 8.94692H10.8102L8.48148 11.7416C8.25457 12.0134 8.29175 12.4178 8.56353 12.6441C8.83594 12.871 9.23976 12.8338 9.46666 12.562L12.6716 8.71617C12.6966 8.68604 12.7087 8.65079 12.7273 8.61746C12.7427 8.59054 12.7613 8.56746 12.7728 8.53798C12.8017 8.46426 12.819 8.38671 12.819 8.30851C12.819 8.30787 12.8196 8.30658 12.8196 8.30594C12.8196 8.3053 12.819 8.30402 12.819 8.30338C12.819 8.22518 12.8017 8.14762 12.7728 8.07391C12.7613 8.04442 12.7427 8.02135 12.7273 7.99443C12.7087 7.9611 12.6966 7.92584 12.6716 7.89572L9.46666 4.04984C9.33911 3.89793 9.15707 3.81909 8.97375 3.81909C8.82889 3.81909 8.68339 3.86781 8.56353 3.9678C8.29175 4.19406 8.25457 4.59852 8.48148 4.8703L10.8102 7.66496H3.20494C2.85112 7.66496 2.56396 7.95212 2.56396 8.30594C2.56396 8.65976 2.85112 8.94692 3.20494 8.94692" fill="#095183"/>
</svg>
