<svg width="24" height="24" viewBox="0 0 24 24" fill="none" xmlns="http://www.w3.org/2000/svg">
<path d="M5.92876 15.4913L14.4888 19.7713C20.2388 22.6513 22.5988 20.2913 19.7188 14.5413L18.8488 12.8013C18.5988 12.2913 18.5988 11.7013 18.8488 11.1913L19.7188 9.46133C22.5988 3.71133 20.2488 1.35133 14.4888 4.23133L5.92876 8.51133C2.08876 10.4313 2.08876 13.5713 5.92876 15.4913ZM9.15876 11.2513L14.5588 11.2513C14.9688 11.2513 15.3088 11.5913 15.3088 12.0013C15.3088 12.4113 14.9688 12.7513 14.5588 12.7513L9.15876 12.7513C8.74876 12.7513 8.40876 12.4113 8.40876 12.0013C8.40876 11.5913 8.74876 11.2513 9.15876 11.2513Z" fill="#095183"/>
</svg>
