<svg width="50" height="44" viewBox="0 0 50 44" fill="none" xmlns="http://www.w3.org/2000/svg">
<path d="M33.3951 4.60938C29.6638 4.60938 26.5295 7.0937 25.5229 10.4758L26.2051 11.7373C26.744 11.8981 27.3077 11.59 27.4667 11.0544C28.2401 8.45575 30.6797 6.63772 33.3951 6.63772C33.9551 6.63772 34.4093 6.18358 34.4093 5.62355C34.4093 5.0635 33.9551 4.60938 33.3951 4.60938ZM25.5228 10.4761C25.3628 11.0133 25.6689 11.5773 26.205 11.7373L25.5228 10.4761Z" fill="#095183" fill-opacity="0.52"/>
<path d="M33.3951 4.60938C29.6638 4.60938 26.5295 7.0937 25.5229 10.4758L26.2051 11.7373C26.744 11.8981 27.3077 11.59 27.4667 11.0544C28.2401 8.45575 30.6797 6.63772 33.3951 6.63772C33.9551 6.63772 34.4093 6.18358 34.4093 5.62355C34.4093 5.0635 33.9551 4.60938 33.3951 4.60938ZM25.5228 10.4761C25.3628 11.0133 25.6689 11.5773 26.205 11.7373L25.5228 10.4761Z" stroke="#67C7C1"/>
<path d="M33.3951 4.60938C29.6638 4.60938 26.5295 7.0937 25.5229 10.4758L26.2051 11.7373C26.744 11.8981 27.3077 11.59 27.4667 11.0544C28.2401 8.45575 30.6797 6.63772 33.3951 6.63772C33.9551 6.63772 34.4093 6.18358 34.4093 5.62355C34.4093 5.0635 33.9551 4.60938 33.3951 4.60938ZM25.5228 10.4761C25.3628 11.0133 25.6689 11.5773 26.205 11.7373L25.5228 10.4761Z" stroke="#C1DEDA"/>
<path d="M37.5064 30.9704L40.5911 30.9704C45.4936 30.9704 49.482 26.9824 49.482 22.0795C49.482 17.3968 45.8439 13.5487 41.2453 13.2129C41.4717 8.75097 37.8944 4.96236 33.3928 4.96236C31.9563 4.96236 30.5757 5.3448 29.3592 6.07516C25.4257 -0.352385 16.3157 -0.962712 11.547 4.87123L11.547 4.87124C9.6263 7.22126 8.77801 10.2212 9.1665 13.2074C4.53057 13.5044 0.85 17.3703 0.85 22.0799C0.85 26.9824 4.83844 30.9708 9.74091 30.9708H12.8259C13.1926 30.9708 13.4901 30.6734 13.4901 30.3066C13.4901 29.9399 13.1926 29.6425 12.8259 29.6425H9.74091C5.57125 29.6425 2.17839 26.2496 2.17839 22.0799C2.17839 17.9103 5.57125 14.5174 9.74091 14.5174H9.94695C10.3659 14.5174 10.6813 14.1332 10.5979 13.721L10.5978 13.7209C10.0202 10.8753 10.741 7.95618 12.5755 5.71188C16.9304 0.384647 25.33 1.20719 28.5459 7.3309L28.5459 7.33096C28.7352 7.691 29.2001 7.79772 29.5274 7.55723L29.5274 7.5572C30.6549 6.72817 31.9911 6.29029 33.393 6.29029C36.9956 6.29029 39.9272 9.22189 39.9272 12.8245C39.9272 13.1305 39.9046 13.4451 39.8597 13.7585C39.8322 13.9493 39.8892 14.1424 40.0152 14.2879C40.1414 14.4335 40.3246 14.517 40.5172 14.517H40.5914C44.761 14.517 48.1539 17.9099 48.1539 22.0795C48.1539 26.2492 44.761 29.6421 40.5914 29.6421H37.5064C37.1396 29.6421 36.8422 29.9395 36.8422 30.3062C36.8422 30.673 37.1396 30.9704 37.5064 30.9704Z" fill="#095183" fill-opacity="0.52" stroke="#095183" stroke-width="0.3"/>
<path d="M12.0922 30.0145C12.0922 37.1853 17.9259 43.0189 25.0966 43.0189C32.2674 43.0189 38.1009 37.1852 38.1009 30.0145C38.1009 22.8437 32.2674 17.0102 25.0966 17.0102C17.9258 17.0102 12.0922 22.8438 12.0922 30.0145ZM13.4208 30.0145C13.4208 23.5767 18.6587 18.3387 25.0966 18.3387C31.5344 18.3387 36.7724 23.5766 36.7724 30.0145C36.7724 36.4523 31.5344 41.6903 25.0966 41.6903C18.6588 41.6903 13.4208 36.4524 13.4208 30.0145Z" fill="#095183" fill-opacity="0.52" stroke="#095183" stroke-width="0.3"/>
<path d="M24.457 35.1949C24.457 35.6789 24.8495 36.0714 25.3335 36.0714C25.8172 36.0714 26.2099 35.6794 26.2099 35.1949V25.4077C26.2099 24.9237 25.8175 24.5312 25.3335 24.5312C24.8495 24.5312 24.457 24.9237 24.457 25.4077V35.1949Z" fill="#095183" fill-opacity="0.52" stroke="#095183"/>
<path d="M27.7249 29.0389C27.7249 29.0389 27.7249 29.0389 27.7249 29.0389L25.3332 26.6472L22.9419 29.0386L27.7249 29.0389ZM27.7249 29.0389C27.8959 29.2098 28.1212 29.2956 28.3446 29.2956L27.7249 29.0389ZM24.7132 24.7883L21.7021 27.7994C21.3597 28.1418 21.3597 28.6966 21.7021 29.0389C22.0441 29.3809 22.5992 29.3815 22.9415 29.0389L24.7132 24.7883ZM24.7132 24.7883C24.7132 24.7882 24.7133 24.7882 24.7134 24.7881M24.7132 24.7883L24.7134 24.7881M24.7135 24.788C25.0558 24.4454 25.6109 24.446 25.953 24.788L28.9644 27.7994C29.3066 28.1416 29.3067 28.6962 28.9647 29.0386C28.793 29.2107 28.5671 29.2956 28.3447 29.2956L24.7135 24.788ZM24.7135 24.788C24.7134 24.788 24.7134 24.7881 24.7134 24.7881M24.7135 24.788L24.7134 24.7881" fill="#095183" fill-opacity="0.52" stroke="#095183"/>
</svg>
