<svg width="116" height="83" viewBox="0 0 116 83" fill="none" xmlns="http://www.w3.org/2000/svg">
<path d="M93.5118 29.3856C91.9313 12.9194 78.2219 0 61.3439 0C48.2841 0 37.101 7.7513 31.9474 18.8734C30.3956 18.3789 28.7788 18.0434 27.0648 18.0434C18.0971 18.0434 10.8258 25.3184 10.8258 34.2824C10.8258 36.0651 11.1831 37.7505 11.7135 39.3491C4.73814 43.4163 0 50.8826 0 59.5362C0 72.4915 10.5013 82.9927 23.4566 82.9927V83H88.4091V82.9927C103.363 82.9927 115.471 70.8783 115.471 55.9276C115.471 42.7341 106.016 31.7746 93.5118 29.3856ZM71.3761 50.1608H64.9525V64.6389C64.9525 66.6343 63.343 68.2547 61.3439 68.2547H54.1267C52.1349 68.2547 50.5181 66.6343 50.5181 64.6389V50.1608H44.0909C40.1719 50.1608 38.5732 47.5445 40.5291 44.3545L54.1735 30.9051C56.8476 28.2347 58.5399 28.1446 61.2971 30.9051L74.9415 44.3545C76.9046 47.5481 75.2951 50.1608 71.3761 50.1608Z" fill="#095183"/>
</svg>
