<svg width="45" height="45" viewBox="0 0 45 45" fill="none" xmlns="http://www.w3.org/2000/svg">
<circle cx="22.5" cy="22.5" r="22.5" fill="#FEEDED"/>
<circle cx="22.5001" cy="22.5" r="18.9474" fill="#F9D4D3"/>
<path fill-rule="evenodd" clip-rule="evenodd" d="M23.6846 27.2373C23.6846 27.891 23.1541 28.4215 22.5004 28.4215C21.8467 28.4215 21.3162 27.891 21.3162 27.2373C21.3162 26.5836 21.8467 26.0531 22.5004 26.0531C23.1541 26.0531 23.6846 26.5836 23.6846 27.2373ZM23.6846 23.6846C23.6846 24.3383 23.1541 24.8688 22.5004 24.8688C21.8467 24.8688 21.3162 24.3383 21.3162 23.6846L21.3162 17.7636C21.3162 17.1099 21.8467 16.5794 22.5004 16.5794C23.1541 16.5794 23.6846 17.1099 23.6846 17.7636L23.6846 23.6846ZM22.5004 13.0267C27.724 13.0267 31.9741 17.2769 31.9741 22.5004C31.9741 27.724 27.724 31.9741 22.5004 31.9741C17.2769 31.9741 13.0267 27.724 13.0267 22.5004C13.0267 17.2769 17.2769 13.0267 22.5004 13.0267ZM22.5004 34.3425C29.0408 34.3425 34.3425 29.0408 34.3425 22.5004C34.3425 15.96 29.0408 10.6583 22.5004 10.6583C15.9612 10.6583 10.6583 15.96 10.6583 22.5004C10.6583 29.0408 15.9612 34.3425 22.5004 34.3425Z" fill="#F54A42"/>
</svg>
