<svg width="16" height="18" viewBox="0 0 16 18" fill="none" xmlns="http://www.w3.org/2000/svg">
<path fillRule="evenodd" clipRule="evenodd" d="M8.00001 11.5556H11.5556C12.0445 11.5556 12.4445 11.9556 12.4445 12.4444C12.4445 12.9333 12.0445 13.3333 11.5556 13.3333H8.00001C7.51112 13.3333 7.11112 12.9333 7.11112 12.4444C7.11112 11.9556 7.51112 11.5556 8.00001 11.5556ZM3.55556 12.4446C3.55556 11.9557 3.95556 11.5557 4.44444 11.5557C4.93333 11.5557 5.33333 11.9557 5.33333 12.4446C5.33333 12.9334 4.93333 13.3334 4.44444 13.3334C3.95556 13.3334 3.55556 12.9334 3.55556 12.4446ZM13.3333 16H2.66667C2.17689 16 1.77778 15.6009 1.77778 15.1111V9.77778H14.2222V15.1111C14.2222 15.6009 13.8231 16 13.3333 16M2.66667 3.55556H3.55556V4.44444C3.55556 4.93333 3.95556 5.33333 4.44444 5.33333C4.93333 5.33333 5.33333 4.93333 5.33333 4.44444V3.55556H10.6667V4.44444C10.6667 4.93333 11.0667 5.33333 11.5556 5.33333C12.0444 5.33333 12.4444 4.93333 12.4444 4.44444V3.55556H13.3333C13.8231 3.55556 14.2222 3.95467 14.2222 4.44444V8H1.77778V4.44444C1.77778 3.95467 2.17689 3.55556 2.66667 3.55556M13.3333 1.77778H12.4444V0.888889C12.4444 0.4 12.0444 0 11.5556 0C11.0667 0 10.6667 0.4 10.6667 0.888889V1.77778H5.33333V0.888889C5.33333 0.4 4.93333 0 4.44444 0C3.95556 0 3.55556 0.4 3.55556 0.888889V1.77778H2.66667C1.19644 1.77778 0 2.97422 0 4.44444V15.1111C0 16.5813 1.19644 17.7778 2.66667 17.7778H13.3333C14.8036 17.7778 16 16.5813 16 15.1111V4.44444C16 2.97422 14.8036 1.77778 13.3333 1.77778" fill="#A5A5A5"/>
</svg>
