<svg width="24" height="25" viewBox="0 0 24 25" fill="none" xmlns="http://www.w3.org/2000/svg">
<path fillRule="evenodd" clipRule="evenodd" d="M19 21.3889C19 22.0022 18.5211 22.5 17.9286 22.5C17.3361 22.5 16.8571 22.0022 16.8571 21.3889C16.8571 18.3256 14.4539 15.8333 11.5 15.8333C8.54607 15.8333 6.14286 18.3256 6.14286 21.3889C6.14286 22.0022 5.66393 22.5 5.07143 22.5C4.47893 22.5 4 22.0022 4 21.3889C4 17.1 7.36536 13.6111 11.5 13.6111C15.6346 13.6111 19 17.1 19 21.3889ZM11.5 4.72222C12.6818 4.72222 13.6429 5.71889 13.6429 6.94444C13.6429 8.17 12.6818 9.16667 11.5 9.16667C10.3182 9.16667 9.35714 8.17 9.35714 6.94444C9.35714 5.71889 10.3182 4.72222 11.5 4.72222ZM11.5 11.3889C13.8636 11.3889 15.7857 9.39556 15.7857 6.94444C15.7857 4.49333 13.8636 2.5 11.5 2.5C9.13643 2.5 7.21429 4.49333 7.21429 6.94444C7.21429 9.39556 9.13643 11.3889 11.5 11.3889Z" fill="black"/>
</svg>
