<svg width="25" height="24" viewBox="0 0 25 24" fill="none" xmlns="http://www.w3.org/2000/svg">
<g id="Icons / Monitor">
<path id="Color" fillRule="evenodd" clipRule="evenodd" d="M20.166 14C20.166 14.551 19.718 15 19.166 15H12.253H12.079H5.16602C4.61402 15 4.16602 14.551 4.16602 14V6C4.16602 5.449 4.61402 5 5.16602 5H19.166C19.718 5 20.166 5.449 20.166 6V14ZM19.166 3H5.16602C3.51202 3 2.16602 4.346 2.16602 6V14C2.16602 15.654 3.51202 17 5.16602 17H11.166V19H7.16602C6.61602 19 6.16602 19.45 6.16602 20C6.16602 20.55 6.61602 21 7.16602 21H17.166C17.716 21 18.166 20.55 18.166 20C18.166 19.45 17.716 19 17.166 19H13.166V17H19.166C20.82 17 22.166 15.654 22.166 14V6C22.166 4.346 20.82 3 19.166 3Z"/>
</g>
</svg>
