<svg width="25" height="24" viewBox="0 0 25 24" fill="none" xmlns="http://www.w3.org/2000/svg">
<g id="Icons / Folder / Folder">
<path id="Color" fillRule="evenodd" clipRule="evenodd" d="M4.16602 13.755V18.068C4.16602 18.306 4.39002 18.5 4.66602 18.5H19.666C19.942 18.5 20.166 18.306 20.166 18.068V9.478C20.166 9.239 19.942 9.046 19.666 9.046H12.166C11.866 9.046 11.582 8.911 11.392 8.678L8.79202 5.5H4.66602C4.39002 5.5 4.16602 5.693 4.16602 5.931V13.755ZM19.666 20.5H4.66602C3.28802 20.5 2.16602 19.409 2.16602 18.068V5.931C2.16602 4.59 3.28802 3.5 4.66602 3.5H9.26702C9.56602 3.5 9.85102 3.634 10.041 3.867L12.64 7.046H19.666C21.044 7.046 22.166 8.136 22.166 9.478V18.068C22.166 19.409 21.044 20.5 19.666 20.5Z" />
</g>
</svg>
