<svg width="25" height="24" viewBox="0 0 25 24" fill="none" xmlns="http://www.w3.org/2000/svg">
<g id="Icons / Clipboard">
<path id="Color" fillRule="evenodd" clipRule="evenodd" d="M19.166 19C19.166 19.552 18.717 20 18.166 20H6.16602C5.61502 20 5.16602 19.552 5.16602 19V8C5.16602 7.448 5.61502 7 6.16602 7V8C6.16602 9.103 7.06302 10 8.16602 10H16.166C17.269 10 18.166 9.103 18.166 8V7C18.717 7 19.166 7.448 19.166 8V19ZM8.16602 4L16.166 4.003V5V8H8.16602V5V4ZM18.166 5V4C18.166 2.897 17.269 2 16.166 2H8.16602C7.06302 2 6.16602 2.897 6.16602 4V5C4.51202 5 3.16602 6.346 3.16602 8V19C3.16602 20.654 4.51202 22 6.16602 22H18.166C19.82 22 21.166 20.654 21.166 19V8C21.166 6.346 19.82 5 18.166 5Z"/>
</g>
</svg>
