<svg width="24" height="24" viewBox="0 0 24 24" fill="none" xmlns="http://www.w3.org/2000/svg">
<path fill-rule="evenodd" clip-rule="evenodd" d="M11.9997 14H8.9997C8.4477 14 7.9997 13.552 7.9997 13C7.9997 12.448 8.4477 12 8.9997 12H11.9997C12.5517 12 12.9997 12.448 12.9997 13C12.9997 13.552 12.5517 14 11.9997 14ZM8.9997 16H14.9997C15.5527 16 15.9997 16.448 15.9997 17C15.9997 17.552 15.5527 18 14.9997 18H8.9997C8.4477 18 7.9997 17.552 7.9997 17C7.9997 16.448 8.4477 16 8.9997 16ZM17.4475 20H6.55854C6.25254 20 6.00354 19.776 6.00354 19.5V4.50001C6.00354 4.22401 6.25254 4.00001 6.55854 4.00001H12.0035V7.15001C12.0035 8.72201 13.2205 10 14.7175 10H18.0035V19.5C18.0035 19.776 17.7545 20 17.4475 20ZM14.0031 4.97802L16.7451 8.00002H14.7171C14.3231 8.00002 14.0031 7.61902 14.0031 7.15002V4.97802ZM19.74 8.328L14.296 2.328C14.106 2.119 13.838 2 13.555 2H6.555C5.146 2 4 3.122 4 4.5V19.5C4 20.878 5.146 22 6.555 22H17.444C18.853 22 20 20.878 20 19.5V9C20 8.751 19.907 8.512 19.74 8.328Z" />
</svg>
