<svg width="25" height="24" viewBox="0 0 25 24" fill="none" xmlns="http://www.w3.org/2000/svg">
<g id="Icons / Settings / Setting 2">
<path id="Color" fillRule="evenodd" clipRule="evenodd" d="M11.541 20H12.792V19.233C12.792 18.298 13.367 17.458 14.256 17.091C15.176 16.708 16.181 16.896 16.843 17.562L17.382 18.103L18.27 17.215L17.725 16.671C17.062 16.009 16.875 15.005 17.248 14.114C17.248 14.114 17.249 14.113 17.249 14.112L17.26 14.084C17.624 13.201 18.465 12.625 19.4 12.625H20.166V11.375H19.4C18.465 11.375 17.624 10.8 17.258 9.911C16.873 8.991 17.062 7.986 17.728 7.323L18.269 6.784L17.382 5.897L16.837 6.442C16.175 7.104 15.172 7.291 14.281 6.919C13.368 6.542 12.792 5.702 12.792 4.767V4H11.541V4.767C11.541 5.702 10.966 6.542 10.077 6.909C9.15802 7.294 8.15302 7.105 7.49002 6.438L6.95102 5.897L6.06302 6.785L6.60802 7.329C7.27002 7.991 7.45802 8.995 7.08502 9.886C6.70902 10.799 5.86802 11.375 4.93302 11.375H4.16602V12.625H4.93302C5.86802 12.625 6.70902 13.2 7.07502 14.089C7.46002 15.009 7.27102 16.014 6.60502 16.677L6.06402 17.216L6.95102 18.103L7.49602 17.558C8.15802 16.896 9.16102 16.709 10.052 17.081C10.965 17.458 11.541 18.298 11.541 19.233V20ZM13.109 22H11.217C10.293 22 9.54102 21.248 9.54102 20.324V19.233C9.54102 19.086 9.42402 18.985 9.31402 18.94C9.17002 18.881 9.01602 18.869 8.91002 18.972L8.14002 19.743C7.48402 20.397 6.41802 20.399 5.76302 19.743L4.42302 18.403C4.10502 18.085 3.93102 17.663 3.93102 17.213C3.93202 16.764 4.10702 16.342 4.42602 16.024L5.19402 15.259C5.29902 15.154 5.28802 15 5.24102 14.889C5.18102 14.742 5.08102 14.625 4.93302 14.625H3.84902C2.92102 14.625 2.16602 13.871 2.16602 12.943V11.051C2.16602 10.126 2.91802 9.375 3.84302 9.375H4.93302C5.08002 9.375 5.18102 9.257 5.22602 9.147C5.28602 9.003 5.29802 8.848 5.19402 8.744L4.42302 7.974C3.76902 7.317 3.76902 6.251 4.42302 5.597L5.76302 4.257C6.08102 3.939 6.50202 3.765 6.95102 3.765H6.95302C7.40202 3.765 7.82502 3.94 8.14202 4.259L8.90702 5.028C9.01202 5.134 9.16702 5.122 9.27802 5.075C9.42402 5.014 9.54102 4.914 9.54102 4.767V3.683C9.54102 2.755 10.296 2 11.224 2H13.116C14.04 2 14.792 2.752 14.792 3.676V4.767C14.792 4.914 14.909 5.015 15.019 5.06C15.164 5.12 15.318 5.133 15.423 5.028L16.193 4.257C16.849 3.603 17.915 3.601 18.57 4.257L19.911 5.598C20.229 5.915 20.403 6.337 20.402 6.787C20.402 7.235 20.227 7.658 19.908 7.975L19.139 8.741C19.034 8.846 19.045 9 19.092 9.111C19.152 9.258 19.252 9.375 19.4 9.375H20.484C21.412 9.375 22.166 10.129 22.166 11.057V12.949C22.166 13.874 21.415 14.625 20.49 14.625H19.4C19.253 14.625 19.152 14.743 19.107 14.853C19.106 14.854 19.094 14.884 19.093 14.886C19.047 14.997 19.035 15.152 19.139 15.256L19.91 16.026C20.564 16.683 20.564 17.749 19.91 18.403L18.57 19.743C18.252 20.061 17.831 20.235 17.382 20.235H17.38C16.931 20.235 16.508 20.06 16.191 19.741L15.426 18.972C15.321 18.867 15.165 18.879 15.055 18.925C14.909 18.986 14.792 19.086 14.792 19.233V20.317C14.792 21.245 14.037 22 13.109 22ZM12.1665 10.5C11.3395 10.5 10.6665 11.173 10.6665 12C10.6665 12.827 11.3395 13.5 12.1665 13.5C12.9935 13.5 13.6665 12.827 13.6665 12C13.6665 11.173 12.9935 10.5 12.1665 10.5ZM12.1665 15.5C10.2365 15.5 8.66652 13.93 8.66652 12C8.66652 10.07 10.2365 8.5 12.1665 8.5C14.0965 8.5 15.6665 10.07 15.6665 12C15.6665 13.93 14.0965 15.5 12.1665 15.5Z" />
</g>
</svg>
