<svg width="35" height="35" viewBox="0 0 35 35" fill="none" xmlns="http://www.w3.org/2000/svg">
<path d="M27.2222 35H7.77775C5.70037 35 3.74722 34.191 2.2781 32.7218C0.809041 31.2529 0 29.2997 0 27.2222V25.2777C0 24.2037 0.870512 23.3331 1.94446 23.3331C3.0184 23.3331 3.88891 24.2037 3.88891 25.2777V27.2222C3.88891 28.2609 4.29347 29.2375 5.02786 29.9719C5.76245 30.7065 6.739 31.1111 7.77775 31.1111H27.2222C28.2609 31.1111 29.2374 30.7065 29.9719 29.9719C30.7065 29.2373 31.1111 28.2608 31.1111 27.2222V25.2777C31.1111 24.2037 31.9816 23.3331 33.0555 23.3331C34.1294 23.3331 35 24.2037 35 25.2777V27.2222C35 29.2996 34.191 31.2526 32.7218 32.7218C31.2527 34.191 29.2996 35 27.2222 35ZM17.5 27.2221C16.9922 27.2228 16.5045 27.0242 16.1416 26.6691L16.1415 26.6689L16.1376 26.6651L16.1365 26.664C16.1354 26.6631 16.1345 26.6621 16.1335 26.6611L16.1315 26.6591C16.1308 26.6584 16.1301 26.6577 16.1293 26.657L16.1251 26.6528L8.3473 18.8749C7.58798 18.1156 7.58798 16.8844 8.3473 16.125C9.10662 15.3657 10.3379 15.3656 11.0972 16.125L15.5556 20.5834V1.94446C15.5555 0.870512 16.426 0 17.5 0C18.5739 0 19.4445 0.870512 19.4445 1.94446V20.5833L23.9028 16.125C24.6621 15.3657 25.8934 15.3657 26.6527 16.125C27.412 16.8843 27.412 18.1156 26.6527 18.8749L18.8749 26.6526L18.8707 26.6568L18.8685 26.659L18.8665 26.6609C18.8656 26.662 18.8645 26.663 18.8635 26.6639L18.8624 26.665C18.8611 26.6663 18.8599 26.6676 18.8586 26.6688L18.8584 26.6689C18.837 26.6898 18.8154 26.71 18.7932 26.7297C18.6345 26.8716 18.4534 26.9862 18.2573 27.069L18.2554 27.0698C18.2547 27.0701 18.2541 27.0705 18.2533 27.0707C18.0148 27.171 17.7587 27.2225 17.5 27.2221Z" fill="#333"/>
</svg>
