<svg width="23" height="17" viewBox="0 0 23 17" fill="none" xmlns="http://www.w3.org/2000/svg">
<path fill-rule="evenodd" clip-rule="evenodd" d="M22.1867 1.16301C22.4871 1.46351 22.6558 1.87101 22.6558 2.29591C22.6558 2.72081 22.4871 3.12831 22.1867 3.42881L9.36742 16.248C9.06693 16.5485 8.65942 16.7172 8.23452 16.7172C7.80962 16.7172 7.40212 16.5485 7.10162 16.248L0.692001 9.83843C0.40011 9.53621 0.238597 9.13144 0.242248 8.7113C0.245899 8.29115 0.414422 7.88925 0.711521 7.59215C1.00862 7.29505 1.41052 7.12653 1.83067 7.12288C2.25081 7.11923 2.65558 7.28074 2.9578 7.57263L8.23452 12.8493L19.9209 1.16301C20.2214 0.862606 20.6289 0.693848 21.0538 0.693848C21.4787 0.693848 21.8862 0.862606 22.1867 1.16301Z" fill="white"/>
</svg>
