<svg width="117" height="117" viewBox="0 0 117 117" fill="none" xmlns="http://www.w3.org/2000/svg">
<path d="M58.4996 116.999C90.8081 116.999 116.999 90.8081 116.999 58.4996C116.999 26.1912 90.8081 0 58.4996 0C26.1912 0 0 26.1912 0 58.4996C0 90.8081 26.1912 116.999 58.4996 116.999Z" fill="#00B11E"/>
<path d="M86.2542 34.3914C73.7085 45.3212 61.7458 57.6468 50.6028 71.3102C44.9813 65.1417 39.5271 58.666 34.2646 51.8916C32.6297 49.7829 29.8793 49.6683 28.1198 51.7189C26.4986 53.6113 24.8919 55.5298 23.3005 57.4734C21.5731 59.5767 21.5669 63.0605 23.2875 65.1699C28.7975 71.9459 34.4938 78.4177 40.3522 84.5786C42.9979 87.3611 45.6765 90.0802 48.3857 92.7351C50.4974 94.8002 53.584 94.4763 55.2892 92.117C57.4888 89.0801 59.7288 86.1028 62.0071 83.1859C72.6657 69.5393 84.17 57.2083 96.281 46.2555C98.0634 44.6389 98.2368 41.9137 96.6737 40.0839C95.2266 38.3955 93.7949 36.6826 92.3769 34.9453C90.8451 33.0643 88.1077 32.7793 86.2542 34.3914Z" fill="white"/>
</svg>
