<svg width="115" height="115" viewBox="0 0 115 115" fill="none" xmlns="http://www.w3.org/2000/svg">
<path d="M57.4996 114.999C89.2558 114.999 114.999 89.2558 114.999 57.4996C114.999 25.7435 89.2558 0 57.4996 0C25.7435 0 0 25.7435 0 57.4996C0 89.2558 25.7435 114.999 57.4996 114.999Z" fill="#F20000"/>
<path d="M84.8916 34.7873C83.7435 33.4393 82.6043 32.0756 81.4749 30.6969C79.7071 28.5342 76.5502 28.2023 74.4138 30.0654C68.8838 34.8939 63.4688 39.9958 58.1882 45.3666C53.3198 39.6196 48.6069 33.6121 44.0689 27.3507C42.3245 24.9379 39.1675 24.6068 37.0078 26.7192C35.6344 28.0656 34.2692 29.4286 32.9122 30.8088C30.778 32.9723 30.5332 36.7758 32.3723 39.1931C37.1295 45.4657 42.0572 51.4807 47.135 57.2299C42.0572 62.9799 37.1295 68.9942 32.3723 75.2676C30.5325 77.6856 30.7773 81.4891 32.9122 83.6518C34.2692 85.0313 35.6351 86.395 37.0078 87.7415C39.1675 89.8546 42.3245 89.5219 44.0689 87.1099C48.6069 80.8486 53.3198 74.841 58.1882 69.0941C63.4688 74.4648 68.8838 79.5667 74.4138 84.3953C76.5502 86.2576 79.7071 85.9249 81.4749 83.7637C82.6043 82.385 83.7435 81.0213 84.8916 79.6733C86.6887 77.5572 86.4866 74.419 84.4336 72.5514C79.0966 67.7123 73.8791 62.6037 68.8012 57.2307C73.8791 51.8577 79.0966 46.7483 84.4336 41.91C86.4866 40.0424 86.6887 36.9034 84.8916 34.7873Z" fill="white"/>
</svg>
