<svg width="16" height="20" viewBox="0 0 16 20" fill="none" xmlns="http://www.w3.org/2000/svg">
<path fill-rule="evenodd" clip-rule="evenodd" d="M10.8503 4.29258C10.8504 4.70818 10.7499 5.11762 10.5574 5.48593C10.3649 5.85424 10.086 6.17048 9.74473 6.40762C9.40344 6.64477 9.00981 6.79577 8.59748 6.84774C8.18514 6.89971 7.76635 6.8511 7.37689 6.70605L8.9132 8.53676C9.66739 8.42334 10.3777 8.11102 10.9711 7.63194C11.5646 7.15287 12.0196 6.52433 12.2895 5.811C12.5593 5.09768 12.6343 4.32533 12.5065 3.57344C12.3788 2.82154 12.0531 2.11726 11.5628 1.53305C11.0725 0.948846 10.4355 0.505818 9.71714 0.249556C8.99882 -0.00670536 8.22519 -0.0669458 7.47585 0.0750336C6.72652 0.217013 6.02855 0.556084 5.45376 1.05736C4.87898 1.55863 4.44813 2.204 4.20556 2.92706L5.74273 4.75948C5.67836 4.40772 5.68798 4.04641 5.77095 3.69856C5.85393 3.35072 6.00846 3.02398 6.22468 2.73915C6.4409 2.45433 6.71409 2.21766 7.02683 2.04424C7.33956 1.87082 7.68499 1.76444 8.04111 1.73189C8.39723 1.69933 8.75622 1.74132 9.09522 1.85516C9.43422 1.96901 9.74578 2.15222 10.0101 2.39312C10.2743 2.63402 10.4856 2.92733 10.6302 3.25436C10.7749 3.5814 10.8499 3.93498 10.8503 4.29258ZM5.72385 10.4138L0.222298 3.90807C0.144959 3.82273 0.0855868 3.7227 0.0477189 3.61393C0.00985101 3.50516 -0.00573825 3.38988 0.00187955 3.27496C0.00949735 3.16004 0.0401664 3.04783 0.09206 2.94501C0.143954 2.84219 0.21601 2.75087 0.303937 2.67648C0.391864 2.6021 0.493863 2.54617 0.603859 2.51203C0.713854 2.47789 0.829596 2.46624 0.944189 2.47776C1.05878 2.48929 1.16988 2.52377 1.27087 2.57913C1.37187 2.6345 1.46068 2.70963 1.53203 2.80004L14.5718 18.2173C14.7189 18.3911 14.7909 18.6161 14.7719 18.843C14.753 19.0699 14.6448 19.2799 14.471 19.427C14.2972 19.574 14.0721 19.646 13.8452 19.6271C13.6183 19.6082 13.4083 19.4999 13.2612 19.3261L11.9412 17.7649C11.3846 17.9378 10.805 18.0255 10.2221 18.025H6.32893C4.79654 18.025 3.3269 17.4163 2.24333 16.3327C1.15976 15.2491 0.551018 13.7795 0.551018 12.2471C0.551018 11.9106 0.727822 11.6017 1.0368 11.4686C1.74917 11.1631 3.26489 10.6421 5.72385 10.4138ZM10.6873 16.2818C10.5345 16.299 10.3791 16.3084 10.2221 16.3084H6.32893C5.35124 16.3084 4.40638 15.9557 3.66775 15.3151C2.92913 14.6746 2.44631 13.7891 2.30791 12.8213C3.18593 12.526 4.74713 12.1407 7.10052 12.0411L10.6873 16.2818ZM10.4615 10.3829L12.0717 12.3012C12.8082 12.4161 13.5344 12.59 14.2431 12.8213C14.1704 13.3372 13.9984 13.8341 13.7367 14.2846L14.8868 15.657C15.6119 14.6681 16.0019 13.4733 16 12.2471C16 11.9106 15.8232 11.6017 15.5142 11.4686C14.7675 11.1476 13.1368 10.5915 10.4615 10.3829Z" fill="white"/>
</svg>
