<svg width="32" height="23" viewBox="0 0 32 23" fill="none" xmlns="http://www.w3.org/2000/svg">
<path d="M4.73571 9.92162C6.47708 9.92162 7.89286 8.50584 7.89286 6.76448C7.89286 5.02312 6.47708 3.60734 4.73571 3.60734C2.99435 3.60734 1.57857 5.02312 1.57857 6.76448C1.57857 8.50584 2.99435 9.92162 4.73571 9.92162ZM26.8357 9.92162C28.5771 9.92162 29.9929 8.50584 29.9929 6.76448C29.9929 5.02312 28.5771 3.60734 26.8357 3.60734C25.0944 3.60734 23.6786 5.02312 23.6786 6.76448C23.6786 8.50584 25.0944 9.92162 26.8357 9.92162ZM28.4143 11.5002H25.2571C24.3889 11.5002 23.6046 11.8504 23.0323 12.4177C25.0204 13.5079 26.4312 15.4762 26.7371 17.8145H29.9929C30.866 17.8145 31.5714 17.1091 31.5714 16.2359V14.6573C31.5714 12.916 30.1556 11.5002 28.4143 11.5002ZM15.7857 11.5002C18.8393 11.5002 21.3107 9.02874 21.3107 5.9752C21.3107 2.92165 18.8393 0.450195 15.7857 0.450195C12.7322 0.450195 10.2607 2.92165 10.2607 5.9752C10.2607 9.02874 12.7322 11.5002 15.7857 11.5002ZM19.5743 13.0788H19.1648C18.1388 13.5721 16.9992 13.8681 15.7857 13.8681C14.5722 13.8681 13.4376 13.5721 12.4066 13.0788H11.9971C8.85973 13.0788 6.31429 15.6242 6.31429 18.7616V20.1823C6.31429 21.4896 7.37489 22.5502 8.68214 22.5502H22.8893C24.1965 22.5502 25.2571 21.4896 25.2571 20.1823V18.7616C25.2571 15.6242 22.7117 13.0788 19.5743 13.0788ZM8.53909 12.4177C7.96685 11.8504 7.1825 11.5002 6.31429 11.5002H3.15714C1.41578 11.5002 0 12.916 0 14.6573V16.2359C0 17.1091 0.705424 17.8145 1.57857 17.8145H4.82944C5.14022 15.4762 6.55107 13.5079 8.53909 12.4177Z" fill="white"/>
</svg>
