<svg width="17" height="17" viewBox="0 0 17 17" fill="none" xmlns="http://www.w3.org/2000/svg">
<path fill-rule="evenodd" clip-rule="evenodd" d="M6.99538 13.4596C6.83788 14.0677 6.48297 14.6063 5.98633 14.9909C5.4897 15.3755 4.87944 15.5843 4.2513 15.5846C2.68801 15.5846 1.41797 14.3153 1.41797 12.7513C1.41797 11.1873 2.68801 9.91797 4.2513 9.91797C4.87947 9.91817 5.48979 10.127 5.98645 10.5116C6.48311 10.8962 6.83799 11.4348 6.99538 12.043H14.8763C14.9694 12.0427 15.0616 12.0608 15.1477 12.0963C15.2338 12.1318 15.312 12.184 15.3778 12.2498C15.4436 12.3156 15.4958 12.3938 15.5313 12.4799C15.5668 12.566 15.5849 12.6582 15.5846 12.7513C15.5846 12.9392 15.51 13.1193 15.3772 13.2522C15.2443 13.385 15.0642 13.4596 14.8763 13.4596H14.168V14.8763C14.168 15.0642 14.0933 15.2443 13.9605 15.3772C13.8277 15.51 13.6475 15.5846 13.4596 15.5846C13.2718 15.5846 13.0916 15.51 12.9588 15.3772C12.8259 15.2443 12.7513 15.0642 12.7513 14.8763V13.4596H11.3346V14.8763C11.3346 15.0642 11.26 15.2443 11.1272 15.3772C10.9943 15.51 10.8142 15.5846 10.6263 15.5846C10.4384 15.5846 10.2583 15.51 10.1254 15.3772C9.9926 15.2443 9.91797 15.0642 9.91797 14.8763V13.4596H6.99538ZM4.2513 11.3346C4.43739 11.3347 4.62164 11.3714 4.79355 11.4426C4.96545 11.5139 5.12163 11.6183 5.25318 11.7499C5.38473 11.8815 5.48907 12.0378 5.56024 12.2097C5.63141 12.3817 5.66802 12.5659 5.66797 12.752C5.66792 12.9381 5.63122 13.1224 5.55997 13.2943C5.48871 13.4662 5.3843 13.6223 5.25268 13.7539C5.12107 13.8854 4.96483 13.9898 4.79289 14.0609C4.62095 14.1321 4.43668 14.1687 4.25059 14.1687C3.87478 14.1686 3.51439 14.0192 3.24871 13.7534C2.98304 13.4876 2.83383 13.1271 2.83393 12.7513C2.83402 12.3755 2.9834 12.0151 3.24921 11.7494C3.51502 11.4837 3.87548 11.3345 4.2513 11.3346ZM15.5846 9.91797V2.83464C15.5846 2.64677 15.51 2.46661 15.3772 2.33377C15.2443 2.20093 15.0642 2.1263 14.8763 2.1263C14.6884 2.1263 14.5083 2.20093 14.3754 2.33377C14.2426 2.46661 14.168 2.64677 14.168 2.83464V9.91797C14.168 10.1058 14.2426 10.286 14.3754 10.4188C14.5083 10.5517 14.6884 10.6263 14.8763 10.6263C15.0642 10.6263 15.2443 10.5517 15.3772 10.4188C15.51 10.286 15.5846 10.1058 15.5846 9.91797ZM9.91797 9.91797V2.1263C9.91797 1.93844 9.84334 1.75827 9.7105 1.62543C9.57766 1.4926 9.3975 1.41797 9.20964 1.41797C9.02177 1.41797 8.84161 1.4926 8.70877 1.62543C8.57593 1.75827 8.5013 1.93844 8.5013 2.1263V9.91797C8.5013 10.1058 8.57593 10.286 8.70877 10.4188C8.84161 10.5517 9.02177 10.6263 9.20964 10.6263C9.3975 10.6263 9.57766 10.5517 9.7105 10.4188C9.84334 10.286 9.91797 10.1058 9.91797 9.91797ZM12.7513 9.91797V4.60547C12.7513 4.41761 12.6767 4.23744 12.5438 4.1046C12.411 3.97176 12.2308 3.89714 12.043 3.89714C11.8551 3.89714 11.6749 3.97176 11.5421 4.1046C11.4093 4.23744 11.3346 4.41761 11.3346 4.60547V9.91797C11.3346 10.1058 11.4093 10.286 11.5421 10.4188C11.6749 10.5517 11.8551 10.6263 12.043 10.6263C12.2308 10.6263 12.411 10.5517 12.5438 10.4188C12.6767 10.286 12.7513 10.1058 12.7513 9.91797ZM7.08464 8.5013V5.66797C7.08464 5.48011 7.01001 5.29994 6.87717 5.1671C6.74433 5.03426 6.56416 4.95964 6.3763 4.95964C6.18844 4.95964 6.00827 5.03426 5.87543 5.1671C5.7426 5.29994 5.66797 5.48011 5.66797 5.66797V8.5013C5.66797 8.68916 5.7426 8.86933 5.87543 9.00217C6.00827 9.13501 6.18844 9.20964 6.3763 9.20964C6.56416 9.20964 6.74433 9.13501 6.87717 9.00217C7.01001 8.86933 7.08464 8.68916 7.08464 8.5013Z" fill="white"/>
</svg>
