 <svg
                    width="17"
                    height="21"
                    viewBox="0 0 17 21"
                    fill="none"
                    xmlns="http://www.w3.org/2000/svg"
                  >
                    <path
                      d="M0.322754 10.6836C0.322754 9.58059 1.21975 8.68359 2.32275 8.68359H3.32275V5.68359C3.32275 2.92659 5.56575 0.683594 8.32275 0.683594C11.0798 0.683594 13.3228 2.92659 13.3228 5.68359V8.68359H14.3228C15.4258 8.68359 16.3228 9.58059 16.3228 10.6836V18.6836C16.3228 19.7866 15.4258 20.6836 14.3228 20.6836H2.32275C1.21975 20.6836 0.322754 19.7866 0.322754 18.6836V10.6836ZM11.3228 5.68359C11.3228 4.02959 9.97675 2.68359 8.32275 2.68359C6.66875 2.68359 5.32275 4.02959 5.32275 5.68359V8.68359H11.3228V5.68359Z"
                      fill="#0044f1ff"
                    />
                  </svg>