<svg width="20" height="20" viewBox="0 0 16 16" fill="none" xmlns="http://www.w3.org/2000/svg">
<path d="M13.7074 4.59015C13.6108 4.45378 13.4647 4.36067 13.3003 4.33076C13.1359 4.30086 12.9663 4.33653 12.8279 4.43015C12.5239 4.63815 12.46 5.03783 12.6679 5.34183C13.4196 6.39719 13.8194 7.74055 13.6754 9.16391C13.4196 11.8506 11.2608 14.0255 8.57396 14.2974C5.00756 14.6494 2.01716 11.6906 2.321 8.12439C2.577 5.19783 5.07172 2.91095 7.99828 2.91095H8.01428V3.72647C8.01428 4.04647 8.36612 4.25431 8.65396 4.07847L10.9728 2.62311C11.2287 2.46311 11.2287 2.07927 10.9728 1.91943L8.65396 0.463911C8.38196 0.287911 8.01428 0.495911 8.01428 0.815911V1.63143C4.46388 1.61543 1.48948 4.20615 1.07348 7.74039C0.545804 12.0903 4.0322 15.7846 8.31812 15.5926C11.8844 15.4326 14.7789 12.5542 14.9709 8.98775C15.0509 7.34055 14.5709 5.82151 13.7074 4.59015Z" fill="#333333"/>
</svg>
