<svg width="18" height="20" viewBox="0 0 18 20" fill="none" xmlns="http://www.w3.org/2000/svg">
<path d="M9 20L6 17H2C0.89543 17 0 16.1046 0 15V2C0 0.89543 0.89543 0 2 0H16C17.1046 0 18 0.89543 18 2V15C18 16.1046 17.1046 17 16 17H12L9 20ZM2 2V15H7L9 17L11 15H16V2H2ZM13 12.986H5V12.6C5.11835 10.5051 6.90424 8.89779 9 9C11.0958 8.89779 12.8816 10.5051 13 12.6V12.985V12.986ZM9 8C8.46407 8.01862 7.94447 7.8139 7.56529 7.43471C7.1861 7.05553 6.98138 6.53593 7 6C6.98168 5.46416 7.1865 4.94474 7.56562 4.56562C7.94474 4.1865 8.46416 3.98168 9 4C9.53584 3.98168 10.0553 4.1865 10.4344 4.56562C10.8135 4.94474 11.0183 5.46416 11 6C11.0186 6.53593 10.8139 7.05553 10.4347 7.43471C10.0555 7.8139 9.53593 8.01862 9 8Z" fill="#0b0b0b"/>
</svg>
