<svg width="20" height="21" viewBox="0 0 20 21" fill="none" xmlns="http://www.w3.org/2000/svg">
<path fill-rule="evenodd" clip-rule="evenodd" d="M19.75 18.75V18C19.75 16.6076 19.1969 15.2723 18.2123 14.2877C17.2277 13.3031 15.8924 12.75 14.5 12.75H5.5C4.10761 12.75 2.77226 13.3031 1.78769 14.2877C0.803123 15.2723 0.25 16.6076 0.25 18V18.75C0.25 19.347 0.487 19.9193 0.90925 20.3407C1.11804 20.5498 1.36601 20.7157 1.63897 20.8288C1.91193 20.9419 2.20453 21.0001 2.5 21H17.5C18.097 21 18.6693 20.763 19.0907 20.3407C19.2998 20.132 19.4657 19.884 19.5788 19.611C19.6919 19.3381 19.7501 19.0455 19.75 18.75ZM18.25 18V18.75C18.2503 18.8486 18.2311 18.9462 18.1935 19.0374C18.1559 19.1285 18.1007 19.2113 18.031 19.281C17.9613 19.3507 17.8785 19.4059 17.7874 19.4435C17.6962 19.4811 17.5986 19.5003 17.5 19.5H2.5C2.40143 19.5003 2.30376 19.4811 2.21264 19.4435C2.12151 19.4059 2.03871 19.3507 1.96901 19.281C1.8993 19.2113 1.84407 19.1285 1.80649 19.0374C1.7689 18.9462 1.7497 18.8486 1.75 18.75V18C1.75 17.0054 2.14509 16.0516 2.84835 15.3483C3.55161 14.6451 4.50544 14.25 5.5 14.25H14.5C15.4946 14.25 16.4484 14.6451 17.1516 15.3483C17.8549 16.0516 18.25 17.0054 18.25 18ZM10 0C6.89575 0 4.375 2.52075 4.375 5.625C4.375 8.72925 6.89575 11.25 10 11.25C13.1042 11.25 15.625 8.72925 15.625 5.625C15.625 2.52075 13.1042 0 10 0ZM10 1.5C12.277 1.5 14.125 3.348 14.125 5.625C14.125 7.902 12.277 9.75 10 9.75C7.723 9.75 5.875 7.902 5.875 5.625C5.875 3.348 7.723 1.5 10 1.5Z" fill="#0b0b0b"/>
</svg>
