<svg width="31" height="32" viewBox="0 0 31 32" fill="none" xmlns="http://www.w3.org/2000/svg">
<path d="M30.9058 9.27595C30.9058 7.29646 29.2959 5.68611 27.3169 5.68611H23.6357V5.20564C23.6357 2.65095 21.5571 0.571854 19.0019 0.571854H12.0146C9.45947 0.571854 7.38086 2.65095 7.38086 5.20564V5.68611H3.69971C1.72071 5.68611 0.11084 7.29646 0.11084 9.27595V10.9029C0.11084 13.0484 0.88318 15.0156 2.16211 16.5455V25.8931C2.16211 29.024 4.70947 31.5719 7.84082 31.5719H23.1758C26.3071 31.5719 28.8545 29.024 28.8545 25.8931V16.5455C30.1334 15.0156 30.9058 13.0484 30.9058 10.9029V9.27595ZM10.3809 5.20564C10.3809 4.30525 11.1138 3.57185 12.0146 3.57185H19.0019C19.9028 3.57185 20.6357 4.30525 20.6357 5.20564V5.68611H10.3809V5.20564ZM3.11084 9.27595C3.11084 8.95075 3.375 8.68611 3.69971 8.68611H27.3169C27.6416 8.68611 27.9058 8.95076 27.9058 9.27595V10.9029C27.9058 12.4547 27.2908 13.8629 26.2966 14.9064C26.2932 14.9098 26.2903 14.9136 26.2869 14.9171C25.2282 16.0228 23.7417 16.7154 22.0938 16.7154H21.3545V16.3053C21.3545 15.4771 20.6831 14.8053 19.8545 14.8053C19.0259 14.8053 18.3545 15.4771 18.3545 16.3053V16.7154H12.6621V16.3053C12.6621 15.4771 11.9907 14.8053 11.1621 14.8053C10.3335 14.8053 9.66212 15.4771 9.66212 16.3053V16.7154H8.92285C7.27496 16.7154 5.78839 16.0228 4.72967 14.9171C4.72631 14.9137 4.72338 14.9098 4.72003 14.9065C3.72577 13.8629 3.11084 12.4547 3.11084 10.9029V9.27595ZM23.1758 28.5719H7.84082C6.36377 28.5719 5.16211 27.3697 5.16211 25.8931V18.8606C6.30457 19.4029 7.57642 19.7154 8.92285 19.7154H9.66211V20.1256C9.66211 20.9537 10.3335 21.6256 11.1621 21.6256C11.9907 21.6256 12.6621 20.9537 12.6621 20.1256V19.7154H18.3545V20.1256C18.3545 20.9537 19.0259 21.6256 19.8545 21.6256C20.6831 21.6256 21.3545 20.9537 21.3545 20.1256V19.7154H22.0938C23.4402 19.7154 24.712 19.4029 25.8545 18.8606V25.8931C25.8545 27.3697 24.6528 28.5719 23.1758 28.5719Z" fill="#111827"/>
</svg>
