<svg width="49" height="49" viewBox="0 0 49 49" fill="none" xmlns="http://www.w3.org/2000/svg">
<rect width="49" height="49" rx="11" fill="#111827"/>
<path fillRule="evenodd" clipRule="evenodd" d="M34.0354 16.2533L32.0222 18.1993C31.7506 18.4611 31.3992 18.5927 31.0492 18.5927C30.6824 18.5927 30.317 18.4485 30.0426 18.1643C29.5064 17.6099 29.5204 16.7223 30.0776 16.1861L32.0908 14.2415C32.6466 13.7053 33.537 13.7193 34.069 14.2751C34.6066 14.8295 34.5912 15.7171 34.0354 16.2533M17.9577 18.1644C17.6833 18.4486 17.3179 18.5928 16.9511 18.5928C16.6011 18.5928 16.2497 18.4626 15.9781 18.2008L13.9635 16.2548C13.4077 15.7172 13.3923 14.8296 13.9299 14.2752C14.4675 13.7194 15.3523 13.7026 15.9095 14.2402L17.9241 16.1848C18.4799 16.7224 18.4953 17.61 17.9577 18.1644M15.6 23.9998C15.6 24.774 14.9728 25.3998 14.2 25.3998H11.4C10.6272 25.3998 10 24.774 10 23.9998C10 23.2256 10.6272 22.5998 11.4 22.5998H14.2C14.9728 22.5998 15.6 23.2256 15.6 23.9998M38.0002 23.9998C38.0002 24.774 37.3744 25.3998 36.6002 25.3998H33.8002C33.026 25.3998 32.4002 24.774 32.4002 23.9998C32.4002 23.2256 33.026 22.5998 33.8002 22.5998H36.6002C37.3744 22.5998 38.0002 23.2256 38.0002 23.9998M22.5998 14.2V11.4C22.5998 10.6258 23.227 10 23.9998 10C24.7726 10 25.3998 10.6258 25.3998 11.4V14.2C25.3998 14.9742 24.7726 15.6 23.9998 15.6C23.227 15.6 22.5998 14.9742 22.5998 14.2M26.1013 27.6307C25.6673 27.8813 25.3999 28.3447 25.3999 28.8445V35.2005H22.5999V28.8445C22.5999 28.3447 22.3325 27.8813 21.8985 27.6307C20.6035 26.8873 19.7999 25.4957 19.7999 24.0005C19.7999 21.6849 21.6843 19.8005 23.9999 19.8005C26.3155 19.8005 28.1999 21.6849 28.1999 24.0005C28.1999 25.4957 27.3963 26.8873 26.1013 27.6307M24 17C20.1402 17 17 20.1402 17 24C17 26.2106 18.0542 28.2868 19.8 29.5944V35.2C19.8 36.7442 21.0558 38 22.6 38H25.4C26.9442 38 28.2 36.7442 28.2 35.2V29.5944C29.9444 28.2868 31 26.2106 31 24C31 20.1402 27.8598 17 24 17" fill="white"/>
</svg>
