<svg width="49" height="49" viewBox="0 0 49 49" fill="none" xmlns="http://www.w3.org/2000/svg">
<rect width="49" height="49" rx="11" fill="#095183"/>
<path d="M29.2728 8.62954C23.3932 7.73537 17.8692 11.5595 16.6835 17.3419C16.4726 18.3752 16.1552 19.2117 15.7156 19.8988C15.6766 19.9608 15.6414 20.0258 15.6111 20.0927L13.4811 24.8329C13.2789 25.2837 13.3111 25.8042 13.567 26.2262C13.8239 26.649 14.2712 26.9176 14.7644 26.946L17.1914 27.0837V29.7597C17.1914 31.087 18.2706 32.1662 19.5969 32.1662H20.9692V35.3658C20.9692 36.194 21.6411 36.8659 22.4693 36.8659H32.5173C33.3455 36.8659 34.0174 36.194 34.0174 35.3658C34.0174 32.7542 34.8417 28.7928 36.6818 25.8277C36.6827 25.8267 36.6827 25.8257 36.6837 25.8247C38.3675 23.3694 38.9779 20.3764 38.4007 17.3888C38.4007 17.3883 38.4007 17.3883 38.4007 17.3883C37.5236 12.8487 33.8553 9.32882 29.2728 8.62954ZM34.1844 24.1639C34.16 24.1991 34.1376 24.2357 34.1161 24.2728C32.4821 26.9167 31.3511 30.5391 31.0796 33.8656H23.9695V31.5714C23.9695 30.2451 22.8903 29.1659 21.563 29.1659H20.1917V26.5221C20.1917 25.2475 19.1946 24.1927 17.9219 24.12L17.1113 24.0741L18.3048 21.418C18.9142 20.437 19.3459 19.2991 19.6233 17.944C20.4877 13.7287 24.535 10.9393 28.8196 11.5957C32.0992 12.0957 34.8271 14.7122 35.4551 17.9572C35.8809 20.1649 35.4297 22.3693 34.1844 24.1639ZM12.5874 31.4015C12.5874 34.102 14.7849 36.2995 17.4854 36.2995C18.3136 36.2995 18.9855 35.6275 18.9855 34.7993C18.9855 33.9711 18.3136 33.2992 17.4854 33.2992C16.4394 33.2992 15.5877 32.4475 15.5877 31.4015C15.5877 30.5733 14.9158 29.9013 14.0876 29.9013C13.2593 29.9013 12.5874 30.5733 12.5874 31.4015Z" fill="white"/>
</svg>
