<svg width="50" height="50" viewBox="0 0 61 60" fill="none" xmlns="http://www.w3.org/2000/svg">
<rect x="0.666016" width="60" height="60" rx="30" fill="#F7F8FA"/>
<path d="M41.3324 42V39.3333C41.3324 37.9188 40.7705 36.5623 39.7703 35.5621C38.7701 34.5619 37.4135 34 35.999 34H25.3324C23.9179 34 22.5613 34.5619 21.5611 35.5621C20.5609 36.5623 19.999 37.9188 19.999 39.3333V42" stroke="#999EAD" stroke-width="2" stroke-linecap="round" stroke-linejoin="round"/>
<path d="M30.6663 28.6667C33.6119 28.6667 35.9997 26.2789 35.9997 23.3333C35.9997 20.3878 33.6119 18 30.6663 18C27.7208 18 25.333 20.3878 25.333 23.3333C25.333 26.2789 27.7208 28.6667 30.6663 28.6667Z" stroke="#999EAD" stroke-width="2" stroke-linecap="round" stroke-linejoin="round"/>
</svg>
