<svg width="30" height="30" viewBox="0 0 30 30" fill="none" xmlns="http://www.w3.org/2000/svg">
<path fillRule="evenodd" clipRule="evenodd" d="M12.5 16.25C7.67625 16.25 3.75 20.175 3.75 25C3.75 25.69 4.30875 26.25 5 26.25C5.69125 26.25 6.25 25.69 6.25 25C6.25 21.5538 9.05375 18.75 12.5 18.75C15.9462 18.75 18.75 21.5538 18.75 25C18.75 25.69 19.3088 26.25 20 26.25C20.6912 26.25 21.25 25.69 21.25 25C21.25 20.175 17.3237 16.25 12.5 16.25M10 8.75C10 10.1288 11.1212 11.25 12.5 11.25C13.8788 11.25 15 10.1288 15 8.75C15 7.37125 13.8788 6.25 12.5 6.25C11.1212 6.25 10 7.37125 10 8.75M7.5 8.75C7.5 5.9925 9.7425 3.75 12.5 3.75C15.2575 3.75 17.5 5.9925 17.5 8.75C17.5 11.5075 15.2575 13.75 12.5 13.75C9.7425 13.75 7.5 11.5075 7.5 8.75M27.5 8.75C27.5 9.4375 26.9375 10 26.25 10H25V11.25C25 11.9375 24.4375 12.5 23.75 12.5C23.0625 12.5 22.5 11.9375 22.5 11.25V10H21.25C20.5625 10 20 9.4375 20 8.75C20 8.0625 20.5625 7.5 21.25 7.5H22.5V6.25C22.5 5.5625 23.0625 5 23.75 5C24.4375 5 25 5.5625 25 6.25V7.5H26.25C26.9375 7.5 27.5 8.0625 27.5 8.75" fill="#111827"/>
</svg>
