<svg width="30" height="30" viewBox="0 0 30 30" fill="none" xmlns="http://www.w3.org/2000/svg">
<path fillRule="evenodd" clipRule="evenodd" d="M18.75 13.75H16.25V11.25C16.25 10.5625 15.6875 10 15 10C14.3125 10 13.75 10.5625 13.75 11.25V13.75H11.25C10.5625 13.75 10 14.3125 10 15C10 15.6875 10.5625 16.25 11.25 16.25H13.75V18.75C13.75 19.4375 14.3125 20 15 20C15.6875 20 16.25 19.4375 16.25 18.75V16.25H18.75C19.4375 16.25 20 15.6875 20 15C20 14.3125 19.4375 13.75 18.75 13.75M15 25C9.48625 25 5 20.5137 5 15C5 9.48625 9.48625 5 15 5C20.5137 5 25 9.48625 25 15C25 20.5137 20.5137 25 15 25M15 2.5C8.1075 2.5 2.5 8.1075 2.5 15C2.5 21.8925 8.1075 27.5 15 27.5C21.8925 27.5 27.5 21.8925 27.5 15C27.5 8.1075 21.8925 2.5 15 2.5" fill="#111827"/>
</svg>
