<svg width="65" height="65" viewBox="0 0 65 65" fill="none" xmlns="http://www.w3.org/2000/svg">
<g clip-path="url(#clip0_677_11780)">
<path d="M32.5 65C50.4493 65 65 50.4493 65 32.5C65 14.5507 50.4493 0 32.5 0C14.5507 0 0 14.5507 0 32.5C0 50.4493 14.5507 65 32.5 65Z" fill="url(#paint0_linear_677_11780)"/>
<path d="M37.62 32.5009L46.2822 23.8387C47.2393 22.8816 47.2393 21.33 46.2822 20.3744L45.1274 19.2196C44.17 18.2622 42.6184 18.2622 41.6628 19.2196L33.0009 27.8815L24.3387 19.2178C23.3816 18.2607 21.83 18.2607 20.8744 19.2178L19.7178 20.3726C18.7607 21.33 18.7607 22.8816 19.7178 23.8372L28.3815 32.5009L19.7196 41.1628C18.7622 42.1202 18.7622 43.6718 19.7196 44.6274L20.8744 45.7822C21.8315 46.7393 23.3831 46.7393 24.3387 45.7822L33.0009 37.12L41.6628 45.7822C42.6202 46.7393 44.1718 46.7393 45.1274 45.7822L46.2822 44.6274C47.2393 43.67 47.2393 42.1184 46.2822 41.1628L37.62 32.5009Z" fill="white"/>
</g>
<defs>
<linearGradient id="paint0_linear_677_11780" x1="48.2502" y1="5.44657" x2="-13.5" y2="86.5" gradientUnits="userSpaceOnUse">
<stop stop-color="#A43A56"/>
<stop offset="1" stop-color="#EC5555"/>
</linearGradient>
<clipPath id="clip0_677_11780">
<rect width="65" height="65" fill="white"/>
</clipPath>
</defs>
</svg>
