<svg width="25" height="25" viewBox="0 0 25 25" fill="none" xmlns="http://www.w3.org/2000/svg">
<g id="Icons / Bell / On">
<path id="Color" fillRule="evenodd" clipRule="evenodd" d="M5.68037 16.6248L6.86037 15.4428C7.23837 15.0648 7.44637 14.5628 7.44637 14.0288V9.35183C7.44637 7.99483 8.03637 6.69783 9.06637 5.79583C10.1044 4.88583 11.4264 4.48583 12.8034 4.66683C15.1304 4.97583 16.8854 7.07983 16.8854 9.56183V14.0288C16.8854 14.5628 17.0934 15.0648 17.4704 15.4418L18.6514 16.6248H5.68037ZM14.1654 18.9658C14.1654 19.8648 13.2494 20.6248 12.1654 20.6248C11.0814 20.6248 10.1654 19.8648 10.1654 18.9658V18.6248H14.1654V18.9658ZM20.6864 15.8328L18.8854 14.0288V9.56183C18.8854 6.08083 16.3834 3.12383 13.0654 2.68483C11.1434 2.42883 9.20337 3.01583 7.74837 4.29183C6.28437 5.57383 5.44637 7.41783 5.44637 9.35183L5.44537 14.0288L3.64437 15.8328C3.17537 16.3028 3.03637 17.0018 3.29037 17.6148C3.54537 18.2288 4.13837 18.6248 4.80237 18.6248H8.16537V18.9658C8.16537 20.9838 9.95937 22.6248 12.1654 22.6248C14.3714 22.6248 16.1654 20.9838 16.1654 18.9658V18.6248H19.5284C20.1924 18.6248 20.7844 18.2288 21.0384 17.6158C21.2934 17.0018 21.1554 16.3018 20.6864 15.8328Z" fill="#095183"/>
</g>
</svg>
