<svg width="16" height="15" viewBox="0 0 16 15" fill="none" xmlns="http://www.w3.org/2000/svg">
<path fillRule="evenodd" clipRule="evenodd" d="M15 6.50003H3.135L6.768 2.14003C7.122 1.71603 7.064 1.08503 6.64 0.732031C6.215 0.378031 5.585 0.436031 5.232 0.860031L0.232 6.86003C0.193 6.90703 0.173 6.96203 0.144 7.01403C0.12 7.05603 0.091 7.09203 0.073 7.13803C0.028 7.25303 0.001 7.37403 0.001 7.49603C0.001 7.49703 0 7.49903 0 7.50003C0 7.50103 0.001 7.50303 0.001 7.50403C0.001 7.62603 0.028 7.74703 0.073 7.86203C0.091 7.90803 0.12 7.94403 0.144 7.98603C0.173 8.03803 0.193 8.09303 0.232 8.14003L5.232 14.14C5.43 14.377 5.714 14.5 6 14.5C6.226 14.5 6.453 14.424 6.64 14.268C7.064 13.915 7.122 13.284 6.768 12.86L3.135 8.50003H15C15.552 8.50003 16 8.05203 16 7.50003C16 6.94803 15.552 6.50003 15 6.50003Z" fill="black"/>
</svg>
