<svg width="23" height="24" viewBox="0 0 23 24" fill="none" xmlns="http://www.w3.org/2000/svg">
<path d="M17.4157 10.8408C18.2748 9.76464 18.7903 8.39957 18.7903 6.91479V6.27914C18.7903 2.81673 15.9921 0 12.5526 0H6.23772C2.79822 0 0 2.81673 0 6.27914V17.7209C0 21.1831 2.79822 24 6.23772 24H16.7624C20.2019 24 23 21.1833 23 17.7209V17.0852C23 13.845 20.5492 11.1706 17.4157 10.8408ZM2.37218 6.27914C2.37218 4.1334 4.10608 2.38787 6.23772 2.38787H12.5526C14.6843 2.38787 16.4182 4.1334 16.4182 6.27914V6.91479C16.4182 9.06053 14.6841 10.8061 12.5526 10.8061H2.37218V6.27914ZM16.7624 21.6121H6.23772C4.10624 21.6121 2.37218 19.8666 2.37218 17.7209V13.1939H16.7624C18.8938 13.1939 20.6278 14.9395 20.6278 17.085V17.7207C20.6278 19.8664 18.8938 21.6121 16.7624 21.6121Z" fill="white"/>
</svg>
