<svg width="21" height="19" viewBox="0 0 21 19" fill="none" xmlns="http://www.w3.org/2000/svg">
<path fillRule="evenodd" clipRule="evenodd" d="M17.4609 -0.000976562H3.46094C1.80694 -0.000976562 0.460938 1.34502 0.460938 2.99902V17.999C0.460938 18.359 0.654938 18.692 0.967938 18.869C1.12094 18.956 1.29094 18.999 1.46094 18.999C1.63894 18.999 1.81694 18.952 1.97594 18.856L6.49994 16.142C6.65594 16.048 6.83394 15.999 7.01494 15.999H17.4609C19.1149 15.999 20.4609 14.653 20.4609 12.999V2.99902C20.4609 1.34502 19.1149 -0.000976562 17.4609 -0.000976562Z" fill="#231F20"/>
<path fillRule="evenodd" clipRule="evenodd" d="M18.4609 12.999C18.4609 13.55 18.0119 13.999 17.4609 13.999H7.01494C6.47194 13.999 5.93794 14.147 5.47094 14.427L2.46094 16.233V2.99902C2.46094 2.44802 2.90994 1.99902 3.46094 1.99902H17.4609C18.0119 1.99902 18.4609 2.44802 18.4609 2.99902V12.999Z" fill="white"/>
<path fillRule="evenodd" clipRule="evenodd" d="M12.3972 7.76929H11.1057V6.47778C11.1057 6.12262 10.8151 5.83203 10.46 5.83203C10.1048 5.83203 9.81421 6.12262 9.81421 6.47778V7.76929H8.52271C8.16754 7.76929 7.87695 8.05988 7.87695 8.41504C7.87695 8.7702 8.16754 9.06079 8.52271 9.06079H9.81421V10.3523C9.81421 10.7075 10.1048 10.998 10.46 10.998C10.8151 10.998 11.1057 10.7075 11.1057 10.3523V9.06079H12.3972C12.7524 9.06079 13.043 8.7702 13.043 8.41504C13.043 8.05988 12.7524 7.76929 12.3972 7.76929Z" fill="#231F20"/>
</svg>
