<svg width="65" height="65" viewBox="0 0 65 65" fill="none" xmlns="http://www.w3.org/2000/svg">
<g clip-path="url(#clip0_673_11770)">
<path d="M32.5 65C50.4493 65 65 50.4493 65 32.5C65 14.5507 50.4493 0 32.5 0C14.5507 0 0 14.5507 0 32.5C0 50.4493 14.5507 65 32.5 65Z" fill="url(#paint0_linear_673_11770)"/>
<path d="M29.0192 44.9991C28.6947 45.3206 28.2519 45.5 27.7919 45.5C27.332 45.5 26.8892 45.3206 26.5646 44.9991L16.7629 35.3446C15.7457 34.3428 15.7457 32.7184 16.7629 31.7185L17.9902 30.5095C19.0077 29.5077 20.6553 29.5077 21.6725 30.5095L27.7919 36.5364L44.3275 20.2513C45.345 19.2496 46.9942 19.2496 48.0098 20.2513L49.2371 21.4603C50.2543 22.4621 50.2543 24.0862 49.2371 25.0864L29.0192 44.9991Z" fill="white"/>
</g>
<defs>
<linearGradient id="paint0_linear_673_11770" x1="48.2502" y1="5.44657" x2="15.5" y2="55.5" gradientUnits="userSpaceOnUse">
<stop stop-color="#2CB887"/>
<stop offset="1" stop-color="#4580ffff"/>
</linearGradient>
<clipPath id="clip0_673_11770">
<rect width="65" height="65" fill="white"/>
</clipPath>
</defs>
</svg>
