<svg width="22" height="22" viewBox="0 0 46 45" fill="none" xmlns="http://www.w3.org/2000/svg">
<path fillRule="evenodd" clipRule="evenodd" 
d="M29.213 25.6155L26.0311 22.5334L29.1132 19.3515C29.9608 18.4765 29.9383 17.0672 29.0633 16.2196C28.1883 15.372 26.7789 15.3945 25.9314 16.2695L22.8493 19.4513L19.6675 16.3692C18.7924 15.5216 17.3831 15.5441 16.5355 16.4191C15.6879 17.2941 15.7104 18.7035 16.5854 19.5511L19.7672 22.6331L16.6851 25.815C15.8376 26.69 15.86 28.0994 16.735 28.9469C17.61 29.7945 19.0194 29.7721 19.867 28.8971L22.949 25.7152L26.1309 28.7973C27.0059 29.6449 28.4153 29.6224 29.2628 28.7474C30.1104 27.8724 30.088 26.463 29.213 25.6155ZM10.5708 35.3106C3.5533 28.5131 3.37429 17.2725 10.1718 10.2549C16.9694 3.2374 28.21 3.05839 35.2275 9.85592C42.245 16.6534 42.424 27.894 35.6265 34.9116C28.829 41.9291 17.5884 42.1081 10.5708 35.3106ZM38.3096 6.67408C29.5372 -1.82322 15.4873 -1.59947 6.98998 7.17285C-1.50731 15.9452 -1.28356 29.9951 7.48876 38.4924C16.2611 46.9897 30.311 46.766 38.8083 37.9937C47.3056 29.2213 47.0819 15.1714 38.3096 6.67408Z" fill="#111827"/>
</svg>
