<svg width="24" height="24" viewBox="0 0 24 24" fill="none" xmlns="http://www.w3.org/2000/svg">
<path fill-rule="evenodd" clip-rule="evenodd" d="M12 1.84615C9.30703 1.84615 6.72436 2.91593 4.82015 4.82015C2.91593 6.72436 1.84615 9.30703 1.84615 12C1.84615 14.693 2.91593 17.2756 4.82015 19.1799C6.72436 21.0841 9.30703 22.1538 12 22.1538C14.693 22.1538 17.2756 21.0841 19.1799 19.1799C21.0841 17.2756 22.1538 14.693 22.1538 12C22.1538 9.30703 21.0841 6.72436 19.1799 4.82015C17.2756 2.91593 14.693 1.84615 12 1.84615ZM0 12C0 5.37354 5.37231 0 12 0C18.6277 0 24 5.37354 24 12C24 18.6277 18.6277 24 12 24C5.37231 24 0 18.6277 0 12Z" fill="#095183"/>
<path fill-rule="evenodd" clip-rule="evenodd" d="M8.41016 9.51001C8.41016 8.60485 8.76973 7.73676 9.40978 7.09671C10.0498 6.45667 10.9179 6.09709 11.8231 6.09709H12.7954C13.5354 6.09709 14.2451 6.39105 14.7683 6.91431C15.2916 7.43756 15.5855 8.14725 15.5855 8.88725C15.5855 9.13206 15.4883 9.36685 15.3152 9.53996C15.1421 9.71307 14.9073 9.81032 14.6625 9.81032C14.4176 9.81032 14.1829 9.71307 14.0098 9.53996C13.8366 9.36685 13.7394 9.13206 13.7394 8.88725C13.7394 8.63688 13.6399 8.39677 13.4629 8.21974C13.2859 8.0427 13.0458 7.94325 12.7954 7.94325H11.8231C11.4075 7.94325 11.009 8.10832 10.7152 8.40214C10.4214 8.69597 10.2563 9.09448 10.2563 9.51001C10.2563 9.92555 10.4214 10.3241 10.7152 10.6179C11.009 10.9117 11.4075 11.0768 11.8231 11.0768H12.1726C13.0779 11.0768 13.9462 11.4364 14.5864 12.0766C15.2265 12.7167 15.5862 13.585 15.5862 14.4903C15.5862 15.3956 15.2265 16.2639 14.5864 16.9041C13.9462 17.5442 13.0779 17.9039 12.1726 17.9039H11.2003C10.8338 17.9039 10.4709 17.8317 10.1323 17.6914C9.79368 17.5511 9.48604 17.3454 9.22694 17.0862C8.96783 16.827 8.76234 16.5193 8.62219 16.1806C8.48205 15.8419 8.40999 15.479 8.41016 15.1125C8.41016 14.8677 8.50741 14.6329 8.68052 14.4598C8.85363 14.2867 9.08842 14.1894 9.33323 14.1894C9.57805 14.1894 9.81284 14.2867 9.98595 14.4598C10.1591 14.6329 10.2563 14.8677 10.2563 15.1125C10.2563 15.6343 10.6785 16.0577 11.2003 16.0577H12.1726C12.5882 16.0577 12.9867 15.8926 13.2805 15.5988C13.5743 15.305 13.7394 14.9065 13.7394 14.4909C13.7394 14.0754 13.5743 13.6769 13.2805 13.3831C12.9867 13.0892 12.5882 12.9242 12.1726 12.9242H11.8231C11.3748 12.9242 10.9309 12.8358 10.5167 12.6643C10.1026 12.4927 9.72628 12.2412 9.40934 11.9241C9.09241 11.6071 8.84104 11.2307 8.6696 10.8165C8.49815 10.4022 8.40999 9.95831 8.41016 9.51001Z" fill="#095183"/>
<path fill-rule="evenodd" clip-rule="evenodd" d="M11.9973 4.60295C12.2421 4.60295 12.4769 4.7002 12.65 4.87331C12.8231 5.04642 12.9204 5.28121 12.9204 5.52603V7.02018C12.9204 7.265 12.8231 7.49979 12.65 7.6729C12.4769 7.84601 12.2421 7.94326 11.9973 7.94326C11.7525 7.94326 11.5177 7.84601 11.3446 7.6729C11.1715 7.49979 11.0742 7.265 11.0742 7.02018V5.52603C11.0742 5.28121 11.1715 5.04642 11.3446 4.87331C11.5177 4.7002 11.7525 4.60295 11.9973 4.60295ZM11.9973 16.0577C12.2421 16.0577 12.4769 16.155 12.65 16.3281C12.8231 16.5012 12.9204 16.736 12.9204 16.9808V18.475C12.9204 18.7198 12.8231 18.9546 12.65 19.1277C12.4769 19.3008 12.2421 19.398 11.9973 19.398C11.7525 19.398 11.5177 19.3008 11.3446 19.1277C11.1715 18.9546 11.0742 18.7198 11.0742 18.475V16.9808C11.0742 16.736 11.1715 16.5012 11.3446 16.3281C11.5177 16.155 11.7525 16.0577 11.9973 16.0577Z" fill="#095183"/>
</svg>
