<svg width="16" height="18" viewBox="0 0 16 18" fill="none" xmlns="http://www.w3.org/2000/svg">
<path fillRule="evenodd" clipRule="evenodd" d="M8.15786 11.4752H11.4588C11.9127 11.4752 12.2841 11.8466 12.2841 12.3005C12.2841 12.7544 11.9127 13.1257 11.4588 13.1257H8.15786C7.70398 13.1257 7.33262 12.7544 7.33262 12.3005C7.33262 11.8466 7.70398 11.4752 8.15786 11.4752ZM4.03145 12.3007C4.03145 11.8468 4.40281 11.4754 4.85669 11.4754C5.31057 11.4754 5.68193 11.8468 5.68193 12.3007C5.68193 12.7545 5.31057 13.1259 4.85669 13.1259C4.40281 13.1259 4.03145 12.7545 4.03145 12.3007ZM13.1107 15.6024H3.20781C2.7531 15.6024 2.38257 15.2319 2.38257 14.7772V9.82573H13.936V14.7772C13.936 15.2319 13.5655 15.6024 13.1107 15.6024ZM3.20781 4.04902H4.03306V4.87427C4.03306 5.32815 4.40442 5.69951 4.8583 5.69951C5.31219 5.69951 5.68355 5.32815 5.68355 4.87427V4.04902H10.635V4.87427C10.635 5.32815 11.0064 5.69951 11.4603 5.69951C11.9141 5.69951 12.2855 5.32815 12.2855 4.87427V4.04902H13.1107C13.5655 4.04902 13.936 4.41956 13.936 4.87427V8.17524H2.38257V4.87427C2.38257 4.41956 2.7531 4.04902 3.20781 4.04902ZM13.1091 2.39854H12.2839V1.57329C12.2839 1.11941 11.9125 0.748047 11.4586 0.748047C11.0048 0.748047 10.6334 1.11941 10.6334 1.57329V2.39854H5.68193V1.57329C5.68193 1.11941 5.31057 0.748047 4.85669 0.748047C4.40281 0.748047 4.03145 1.11941 4.03145 1.57329V2.39854H3.2062C1.84125 2.39854 0.730469 3.50931 0.730469 4.87427V14.7772C0.730469 16.1422 1.84125 17.2529 3.2062 17.2529H13.1091C14.4741 17.2529 15.5849 16.1422 15.5849 14.7772V4.87427C15.5849 3.50931 14.4741 2.39854 13.1091 2.39854Z" fill="black"/>
</svg>
