<svg width="25" height="25" viewBox="0 0 25 25" fill="none" xmlns="http://www.w3.org/2000/svg">
<rect x="0.35" y="0.35" width="24.3" height="24.3" rx="2.65" stroke="#C3C3D7" stroke-width="0.7"/>
<path fill-rule="evenodd" clip-rule="evenodd" d="M18.14 13.6335C17.845 13.2802 17.32 13.2318 16.9667 13.5268L13.3334 16.5543V6.66683C13.3334 6.20683 12.96 5.8335 12.5 5.8335C12.04 5.8335 11.6667 6.20683 11.6667 6.66683V16.5543L8.03337 13.5268C7.6792 13.2318 7.1542 13.2802 6.86003 13.6335C6.56503 13.9868 6.61253 14.5127 6.9667 14.8068L11.9667 18.9735C12.0059 19.0068 12.0525 19.0227 12.0959 19.0477C12.13 19.0677 12.16 19.091 12.1975 19.106C12.295 19.1443 12.3967 19.1668 12.5 19.1668C12.6034 19.1668 12.705 19.1443 12.8025 19.106C12.84 19.091 12.87 19.0677 12.9042 19.0477C12.9475 19.0227 12.9942 19.0068 13.0334 18.9735L18.0334 14.8068C18.3867 14.5127 18.435 13.9868 18.14 13.6335Z" fill="#C3C3D7"/>
</svg>
