<svg width="25" height="25" viewBox="0 0 20 20" fill="none" xmlns="http://www.w3.org/2000/svg">
<rect x="0.5" y="0.5" width="19" height="19" rx="2.5" fill="#2464ed" stroke="#2464ed"/>
<rect x="2.5" y="2.5" width="15" height="15" fill="#2464ed"/>
<rect x="2.5" y="2.5" width="15" height="15" stroke="#2464ed"/>
<path fill-rule="evenodd" clip-rule="evenodd" d="M14.5123 10.9065C14.2763 10.6238 13.8563 10.5852 13.5737 10.8212L10.667 13.2432V5.33317C10.667 4.96517 10.3683 4.6665 10.0003 4.6665C9.63232 4.6665 9.33365 4.96517 9.33365 5.33317V13.2432L6.42699 10.8212C6.14365 10.5852 5.72365 10.6238 5.48832 10.9065C5.25232 11.1892 5.29032 11.6098 5.57365 11.8452L9.57365 15.1785C9.60499 15.2052 9.64232 15.2178 9.67699 15.2378C9.70432 15.2538 9.72832 15.2725 9.75832 15.2845C9.83632 15.3152 9.91765 15.3332 10.0003 15.3332C10.083 15.3332 10.1643 15.3152 10.2423 15.2845C10.2723 15.2725 10.2963 15.2538 10.3237 15.2378C10.3583 15.2178 10.3957 15.2052 10.427 15.1785L14.427 11.8452C14.7097 11.6098 14.7483 11.1892 14.5123 10.9065" fill="white"/>
</svg>
