<svg width="31" height="33" viewBox="0 0 31 33" fill="none" xmlns="http://www.w3.org/2000/svg">
<path fillRule="evenodd" clipRule="evenodd" d="M14.209 10.832C14.209 10.096 14.7877 9.4987 15.5007 9.4987C16.2137 9.4987 16.7923 10.096 16.7923 10.832C16.7923 11.568 16.2137 12.1654 15.5007 12.1654C14.7877 12.1654 14.209 11.568 14.209 10.832ZM14.209 14.832C14.209 14.096 14.7877 13.4987 15.5007 13.4987C16.2137 13.4987 16.7923 14.096 16.7923 14.832V21.4987C16.7923 22.2347 16.2137 22.832 15.5007 22.832C14.7877 22.832 14.209 22.2347 14.209 21.4987V14.832ZM15.5007 26.832C9.80311 26.832 5.16732 22.0467 5.16732 16.1654C5.16732 10.284 9.80311 5.4987 15.5007 5.4987C21.1982 5.4987 25.834 10.284 25.834 16.1654C25.834 22.0467 21.1982 26.832 15.5007 26.832ZM15.5007 2.83203C8.36678 2.83203 2.58398 8.80136 2.58398 16.1654C2.58398 23.5294 8.36678 29.4987 15.5007 29.4987C22.6332 29.4987 28.4173 23.5294 28.4173 16.1654C28.4173 8.80136 22.6332 2.83203 15.5007 2.83203Z" fill="#111827"/>
</svg>
