<svg width="402" height="150" viewBox="0 0 402 150" fill="none" xmlns="http://www.w3.org/2000/svg">
<path d="M0 64C0 50.1929 11.1929 39 25 39H364V125C364 138.807 352.807 150 339 150H25C11.1929 150 0 138.807 0 125V64Z" fill="#095183"/>
<path d="M143.056 78.2C143.056 78.44 143.086 78.7 143.146 78.98C143.206 79.24 143.316 79.48 143.476 79.7C143.636 79.9 143.846 80.07 144.106 80.21C144.386 80.35 144.736 80.42 145.156 80.42C145.416 80.42 145.676 80.41 145.936 80.39C146.216 80.37 146.496 80.31 146.776 80.21V76.07H145.276C144.536 76.07 143.976 76.27 143.596 76.67C143.236 77.05 143.056 77.56 143.056 78.2ZM151.426 86C150.946 86 150.476 85.97 150.016 85.91C149.576 85.83 149.166 85.7 148.786 85.52C148.406 85.34 148.066 85.1 147.766 84.8C147.486 84.48 147.266 84.07 147.106 83.57C146.766 83.65 146.416 83.72 146.056 83.78C145.696 83.82 145.336 83.84 144.976 83.84C144.476 83.84 143.896 83.77 143.236 83.63C142.576 83.47 141.946 83.19 141.346 82.79C140.766 82.39 140.266 81.84 139.846 81.14C139.446 80.42 139.246 79.5 139.246 78.38C139.246 77.28 139.436 76.35 139.816 75.59C140.216 74.83 140.716 74.21 141.316 73.73C141.936 73.25 142.616 72.91 143.356 72.71C144.116 72.49 144.856 72.38 145.576 72.38H150.676V81.35C150.676 81.81 150.736 82.13 150.856 82.31C150.976 82.47 151.256 82.55 151.696 82.55H152.416C152.576 82.55 152.726 82.57 152.866 82.61C153.006 82.63 153.126 82.7 153.226 82.82C153.346 82.92 153.436 83.08 153.496 83.3C153.556 83.52 153.586 83.82 153.586 84.2C153.586 84.88 153.486 85.35 153.286 85.61C153.106 85.87 152.816 86 152.416 86H151.426ZM141.256 67.37C141.256 66.79 141.466 66.29 141.886 65.87C142.306 65.45 142.806 65.24 143.386 65.24C143.966 65.24 144.466 65.45 144.886 65.87C145.306 66.29 145.516 66.79 145.516 67.37C145.516 67.95 145.306 68.45 144.886 68.87C144.466 69.29 143.966 69.5 143.386 69.5C142.806 69.5 142.306 69.29 141.886 68.87C141.466 68.45 141.256 67.95 141.256 67.37ZM146.146 67.37C146.146 66.79 146.356 66.29 146.776 65.87C147.196 65.45 147.696 65.24 148.276 65.24C148.856 65.24 149.356 65.45 149.776 65.87C150.196 66.29 150.406 66.79 150.406 67.37C150.406 67.95 150.196 68.45 149.776 68.87C149.356 69.29 148.856 69.5 148.276 69.5C147.696 69.5 147.196 69.29 146.776 68.87C146.356 68.45 146.146 67.95 146.146 67.37ZM153.06 82.55C153.5 82.55 153.86 82.54 154.14 82.52C154.44 82.5 154.68 82.44 154.86 82.34C155.04 82.24 155.17 82.1 155.25 81.92C155.33 81.72 155.37 81.45 155.37 81.11V75.38H159.21V80.48C159.21 81.12 159.38 81.63 159.72 82.01C160.08 82.37 160.63 82.55 161.37 82.55C161.95 82.55 162.44 82.46 162.84 82.28C163.26 82.1 163.47 81.71 163.47 81.11V75.38H167.37V80.48C167.37 81.86 167.96 82.55 169.14 82.55H171V74.06H174.9V86H170.31C169.25 86 168.45 85.88 167.91 85.64C167.37 85.38 166.91 84.98 166.53 84.44C166.23 84.82 165.91 85.12 165.57 85.34C165.23 85.54 164.88 85.69 164.52 85.79C164.16 85.89 163.8 85.95 163.44 85.97C163.1 85.99 162.77 86 162.45 86C161.43 86 160.57 85.84 159.87 85.52C159.19 85.18 158.7 84.82 158.4 84.44C157.86 85.14 157.16 85.58 156.3 85.76C155.44 85.92 154.34 86 153 86H151.83C151.67 86 151.52 85.99 151.38 85.97C151.24 85.93 151.12 85.86 151.02 85.76C150.9 85.64 150.81 85.47 150.75 85.25C150.69 85.03 150.66 84.73 150.66 84.35C150.66 83.67 150.76 83.2 150.96 82.94C151.14 82.68 151.43 82.55 151.83 82.55H153.06ZM160.71 68.87C160.71 68.29 160.92 67.79 161.34 67.37C161.76 66.95 162.26 66.74 162.84 66.74C163.42 66.74 163.92 66.95 164.34 67.37C164.76 67.79 164.97 68.29 164.97 68.87C164.97 69.45 164.76 69.95 164.34 70.37C163.92 70.79 163.42 71 162.84 71C162.26 71 161.76 70.79 161.34 70.37C160.92 69.95 160.71 69.45 160.71 68.87ZM165.6 68.87C165.6 68.29 165.81 67.79 166.23 67.37C166.65 66.95 167.15 66.74 167.73 66.74C168.31 66.74 168.81 66.95 169.23 67.37C169.65 67.79 169.86 68.29 169.86 68.87C169.86 69.45 169.65 69.95 169.23 70.37C168.81 70.79 168.31 71 167.73 71C167.15 71 166.65 70.79 166.23 70.37C165.81 69.95 165.6 69.45 165.6 68.87ZM163.23 64.52C163.23 63.94 163.44 63.44 163.86 63.02C164.28 62.6 164.78 62.39 165.36 62.39C165.94 62.39 166.44 62.6 166.86 63.02C167.28 63.44 167.49 63.94 167.49 64.52C167.49 65.1 167.28 65.6 166.86 66.02C166.44 66.44 165.94 66.65 165.36 66.65C164.78 66.65 164.28 66.44 163.86 66.02C163.44 65.6 163.23 65.1 163.23 64.52ZM188.193 82.22C188.193 82.74 188.103 83.23 187.923 83.69C187.763 84.15 187.513 84.55 187.173 84.89C186.833 85.23 186.393 85.5 185.853 85.7C185.313 85.9 184.673 86 183.933 86H176.673V82.55H182.553C183.013 82.55 183.373 82.51 183.633 82.43C183.893 82.33 184.023 82.16 184.023 81.92C184.023 81.8 184.003 81.68 183.963 81.56C183.943 81.44 183.873 81.28 183.753 81.08C183.633 80.86 183.453 80.58 183.213 80.24C182.993 79.9 182.693 79.45 182.313 78.89L179.943 75.35C180.543 74.95 181.123 74.57 181.683 74.21C182.263 73.83 182.863 73.45 183.483 73.07L186.093 77.3C186.793 78.44 187.313 79.39 187.653 80.15C188.013 80.91 188.193 81.6 188.193 82.22ZM192.674 75.38H196.574V84.32C196.574 85.76 196.464 86.98 196.244 87.98C196.024 88.98 195.634 89.79 195.074 90.41C194.534 91.05 193.774 91.51 192.794 91.79C191.834 92.07 190.604 92.22 189.104 92.24V88.58C189.924 88.56 190.564 88.47 191.024 88.31C191.504 88.15 191.864 87.89 192.104 87.53C192.344 87.19 192.494 86.75 192.554 86.21C192.634 85.69 192.674 85.06 192.674 84.32V75.38ZM211.824 86C211.244 86 210.744 85.97 210.324 85.91C209.924 85.85 209.574 85.76 209.274 85.64C208.974 85.52 208.694 85.37 208.434 85.19C208.174 84.99 207.904 84.76 207.624 84.5C207.044 85.16 206.414 85.58 205.734 85.76C205.074 85.92 204.354 86 203.574 86H198.354V82.55H204.294C204.774 82.55 205.124 82.48 205.344 82.34C205.584 82.18 205.704 82 205.704 81.8C205.704 81.58 205.604 81.31 205.404 80.99C205.224 80.67 204.874 80.14 204.354 79.4L201.624 75.35L205.194 73.07L208.794 79.16C209.174 79.8 209.504 80.34 209.784 80.78C210.064 81.22 210.314 81.57 210.534 81.83C210.774 82.09 210.994 82.28 211.194 82.4C211.394 82.5 211.604 82.55 211.824 82.55C211.984 82.55 212.134 82.57 212.274 82.61C212.414 82.63 212.534 82.7 212.634 82.82C212.754 82.92 212.844 83.08 212.904 83.3C212.964 83.52 212.994 83.82 212.994 84.2C212.994 84.88 212.894 85.35 212.694 85.61C212.514 85.87 212.224 86 211.824 86ZM214.667 82.55V64.58H218.597V86H211.217C211.057 86 210.907 85.99 210.767 85.97C210.627 85.93 210.507 85.86 210.407 85.76C210.287 85.64 210.197 85.47 210.137 85.25C210.077 85.03 210.047 84.73 210.047 84.35C210.047 83.67 210.147 83.2 210.347 82.94C210.527 82.68 210.817 82.55 211.217 82.55H214.667ZM225.457 64.58V86H221.587V64.58H225.457ZM245.237 86H235.547V82.55H237.077C236.937 82.29 236.827 81.98 236.747 81.62C236.667 81.26 236.627 80.96 236.627 80.72C236.627 79.92 236.757 79.22 237.017 78.62C237.297 78 237.657 77.49 238.097 77.09C238.537 76.67 239.037 76.36 239.597 76.16C240.177 75.96 240.767 75.86 241.367 75.86C241.927 75.86 242.437 75.92 242.897 76.04C243.377 76.14 243.797 76.25 244.157 76.37V79.46C243.717 79.36 243.317 79.29 242.957 79.25C242.597 79.21 242.327 79.19 242.147 79.19C241.487 79.19 240.997 79.35 240.677 79.67C240.357 79.99 240.197 80.41 240.197 80.93C240.197 81.45 240.387 81.85 240.767 82.13C241.147 82.41 241.647 82.55 242.267 82.55H245.237V86ZM259.566 86C258.986 86 258.486 85.97 258.066 85.91C257.666 85.85 257.316 85.76 257.016 85.64C256.716 85.52 256.436 85.37 256.176 85.19C255.916 84.99 255.646 84.76 255.366 84.5C254.786 85.16 254.156 85.58 253.476 85.76C252.816 85.92 252.096 86 251.316 86H246.096V82.55H252.036C252.516 82.55 252.866 82.48 253.086 82.34C253.326 82.18 253.446 82 253.446 81.8C253.446 81.58 253.346 81.31 253.146 80.99C252.966 80.67 252.616 80.14 252.096 79.4L249.366 75.35L252.936 73.07L256.536 79.16C256.916 79.8 257.246 80.34 257.526 80.78C257.806 81.22 258.056 81.57 258.276 81.83C258.516 82.09 258.736 82.28 258.936 82.4C259.136 82.5 259.346 82.55 259.566 82.55C259.726 82.55 259.876 82.57 260.016 82.61C260.156 82.63 260.276 82.7 260.376 82.82C260.496 82.92 260.586 83.08 260.646 83.3C260.706 83.52 260.736 83.82 260.736 84.2C260.736 84.88 260.636 85.35 260.436 85.61C260.256 85.87 259.966 86 259.566 86ZM262.409 82.55V74.06H266.339V86H258.959C258.799 86 258.649 85.99 258.509 85.97C258.369 85.93 258.249 85.86 258.149 85.76C258.029 85.64 257.939 85.47 257.879 85.25C257.819 85.03 257.789 84.73 257.789 84.35C257.789 83.67 257.889 83.2 258.089 82.94C258.269 82.68 258.559 82.55 258.959 82.55H262.409ZM261.929 90.95C261.929 90.37 262.139 89.87 262.559 89.45C262.979 89.03 263.479 88.82 264.059 88.82C264.639 88.82 265.139 89.03 265.559 89.45C265.979 89.87 266.189 90.37 266.189 90.95C266.189 91.53 265.979 92.03 265.559 92.45C265.139 92.87 264.639 93.08 264.059 93.08C263.479 93.08 262.979 92.87 262.559 92.45C262.139 92.03 261.929 91.53 261.929 90.95ZM273.199 64.58V86H269.329V64.58H273.199ZM86.7617 104.78C86.6817 104.24 86.5017 103.75 86.2217 103.31C85.9417 102.85 85.5917 102.45 85.1717 102.11C84.7517 101.77 84.2717 101.51 83.7317 101.33C83.2117 101.13 82.6617 101.03 82.0817 101.03C81.0217 101.03 80.1217 101.24 79.3817 101.66C78.6417 102.06 78.0417 102.61 77.5817 103.31C77.1217 103.99 76.7817 104.77 76.5617 105.65C76.3617 106.53 76.2617 107.44 76.2617 108.38C76.2617 109.28 76.3617 110.16 76.5617 111.02C76.7817 111.86 77.1217 112.62 77.5817 113.3C78.0417 113.98 78.6417 114.53 79.3817 114.95C80.1217 115.35 81.0217 115.55 82.0817 115.55C83.5217 115.55 84.6417 115.11 85.4417 114.23C86.2617 113.33 86.7617 112.17 86.9417 110.75H91.5017C91.3817 112.09 91.0717 113.3 90.5717 114.38C90.0717 115.46 89.4117 116.38 88.5917 117.14C87.7717 117.9 86.8117 118.49 85.7117 118.91C84.6117 119.31 83.4017 119.51 82.0817 119.51C80.4217 119.51 78.9417 119.22 77.6417 118.64C76.3417 118.06 75.2417 117.27 74.3417 116.27C73.4417 115.27 72.7517 114.09 72.2717 112.73C71.7917 111.37 71.5517 109.92 71.5517 108.38C71.5517 106.8 71.7917 105.32 72.2717 103.94C72.7517 102.56 73.4417 101.36 74.3417 100.34C75.2417 99.32 76.3417 98.52 77.6417 97.94C78.9417 97.36 80.4217 97.07 82.0817 97.07C83.2617 97.07 84.3717 97.24 85.4117 97.58C86.4717 97.92 87.4117 98.42 88.2317 99.08C89.0717 99.72 89.7617 100.52 90.3017 101.48C90.8417 102.44 91.1817 103.54 91.3217 104.78H86.7617ZM93.668 97.58H97.928V105.65H98.018C98.558 104.77 99.248 104.12 100.088 103.7C100.928 103.28 101.748 103.07 102.548 103.07C103.688 103.07 104.618 103.23 105.338 103.55C106.078 103.85 106.658 104.28 107.078 104.84C107.498 105.38 107.788 106.05 107.948 106.85C108.128 107.63 108.218 108.5 108.218 109.46V119H103.958V110.24C103.958 108.96 103.748 108.01 103.328 107.39C102.928 106.75 102.228 106.43 101.228 106.43C100.068 106.43 99.228 106.78 98.708 107.48C98.188 108.16 97.928 109.29 97.928 110.87V119H93.668V97.58ZM120.511 111.41C120.331 111.57 120.101 111.7 119.821 111.8C119.561 111.88 119.271 111.95 118.951 112.01C118.651 112.07 118.321 112.12 117.961 112.16C117.621 112.2 117.291 112.25 116.971 112.31C116.631 112.37 116.311 112.45 116.011 112.55C115.711 112.65 115.441 112.79 115.201 112.97C114.981 113.13 114.801 113.35 114.661 113.63C114.521 113.89 114.451 114.21 114.451 114.59C114.451 114.99 114.521 115.32 114.661 115.58C114.801 115.82 114.991 116.02 115.231 116.18C115.471 116.32 115.751 116.42 116.071 116.48C116.391 116.54 116.721 116.57 117.061 116.57C117.901 116.57 118.551 116.43 119.011 116.15C119.471 115.87 119.811 115.54 120.031 115.16C120.251 114.76 120.381 114.36 120.421 113.96C120.481 113.56 120.511 113.24 120.511 113V111.41ZM110.671 108.26C110.731 107.26 110.981 106.43 111.421 105.77C111.861 105.11 112.421 104.58 113.101 104.18C113.781 103.78 114.541 103.5 115.381 103.34C116.221 103.16 117.081 103.07 117.961 103.07C118.741 103.07 119.531 103.13 120.331 103.25C121.131 103.35 121.861 103.56 122.521 103.88C123.181 104.2 123.721 104.65 124.141 105.23C124.561 105.81 124.771 106.56 124.771 107.48V115.55C124.771 116.25 124.811 116.92 124.891 117.56C124.971 118.2 125.111 118.68 125.311 119H120.991C120.911 118.76 120.841 118.52 120.781 118.28C120.741 118.02 120.711 117.76 120.691 117.5C120.011 118.2 119.211 118.7 118.291 119C117.371 119.28 116.431 119.42 115.471 119.42C114.731 119.42 114.041 119.32 113.401 119.12C112.761 118.94 112.201 118.66 111.721 118.28C111.241 117.9 110.861 117.42 110.581 116.84C110.321 116.26 110.191 115.57 110.191 114.77C110.191 113.89 110.341 113.17 110.641 112.61C110.941 112.03 111.341 111.57 111.841 111.23C112.341 110.89 112.901 110.64 113.521 110.48C114.161 110.3 114.811 110.16 115.471 110.06C116.131 109.96 116.761 109.88 117.361 109.82C117.961 109.76 118.491 109.67 118.951 109.55C119.431 109.43 119.811 109.26 120.091 109.04C120.371 108.8 120.511 108.46 120.511 108.02C120.511 107.56 120.431 107.2 120.271 106.94C120.131 106.66 119.931 106.45 119.671 106.31C119.431 106.15 119.141 106.05 118.801 106.01C118.481 105.95 118.131 105.92 117.751 105.92C116.931 105.92 116.271 106.1 115.771 106.46C115.291 106.82 115.011 107.42 114.931 108.26H110.671ZM132.878 103.49H135.998V106.34H132.878V114.02C132.878 114.74 132.998 115.22 133.238 115.46C133.478 115.7 133.958 115.82 134.678 115.82C135.158 115.82 135.598 115.78 135.998 115.7V119.03C135.638 119.09 135.238 119.13 134.798 119.15C134.358 119.17 133.928 119.18 133.508 119.18C132.848 119.18 132.218 119.13 131.618 119.03C131.038 118.95 130.518 118.78 130.058 118.52C129.618 118.24 129.268 117.86 129.008 117.38C128.748 116.9 128.618 116.27 128.618 115.49V106.34H126.038V103.49H128.618V98.84H132.878V103.49ZM163.564 119C163.604 119.18 163.634 119.38 163.654 119.6C163.694 119.82 163.714 120.08 163.714 120.38C163.714 121.2 163.554 121.95 163.234 122.63C162.934 123.31 162.394 123.9 161.614 124.4C160.834 124.9 159.784 125.29 158.464 125.57C157.144 125.85 155.474 125.99 153.454 125.99C151.494 125.99 149.874 125.8 148.594 125.42C147.334 125.06 146.324 124.55 145.564 123.89C144.824 123.25 144.304 122.49 144.004 121.61C143.704 120.75 143.554 119.81 143.554 118.79V113.81H147.454V118.67C147.454 119.97 147.924 120.91 148.864 121.49C149.804 122.09 151.354 122.39 153.514 122.39C154.914 122.39 156.034 122.31 156.874 122.15C157.734 121.99 158.394 121.79 158.854 121.55C159.334 121.31 159.644 121.06 159.784 120.8C159.944 120.54 160.024 120.31 160.024 120.11C160.024 119.85 159.884 119.61 159.604 119.39C159.344 119.19 158.964 118.99 158.464 118.79C157.964 118.59 157.364 118.4 156.664 118.22C155.964 118.02 155.184 117.81 154.324 117.59V114.02C155.644 114.44 156.904 114.8 158.104 115.1C159.324 115.4 160.404 115.55 161.344 115.55H165.094C165.254 115.55 165.404 115.57 165.544 115.61C165.684 115.63 165.804 115.7 165.904 115.82C166.024 115.92 166.114 116.08 166.174 116.3C166.234 116.52 166.264 116.82 166.264 117.2C166.264 117.88 166.164 118.35 165.964 118.61C165.784 118.87 165.494 119 165.094 119H163.564ZM148.864 130.31C148.864 129.73 149.074 129.23 149.494 128.81C149.914 128.39 150.414 128.18 150.994 128.18C151.574 128.18 152.074 128.39 152.494 128.81C152.914 129.23 153.124 129.73 153.124 130.31C153.124 130.89 152.914 131.39 152.494 131.81C152.074 132.23 151.574 132.44 150.994 132.44C150.414 132.44 149.914 132.23 149.494 131.81C149.074 131.39 148.864 130.89 148.864 130.31ZM153.754 130.31C153.754 129.73 153.964 129.23 154.384 128.81C154.804 128.39 155.304 128.18 155.884 128.18C156.464 128.18 156.964 128.39 157.384 128.81C157.804 129.23 158.014 129.73 158.014 130.31C158.014 130.89 157.804 131.39 157.384 131.81C156.964 132.23 156.464 132.44 155.884 132.44C155.304 132.44 154.804 132.23 154.384 131.81C153.964 131.39 153.754 130.89 153.754 130.31ZM167.937 115.55V107.06H171.867V119H164.487C164.327 119 164.177 118.99 164.037 118.97C163.897 118.93 163.777 118.86 163.677 118.76C163.557 118.64 163.467 118.47 163.407 118.25C163.347 118.03 163.317 117.73 163.317 117.35C163.317 116.67 163.417 116.2 163.617 115.94C163.797 115.68 164.087 115.55 164.487 115.55H167.937ZM164.997 101.87C164.997 101.29 165.207 100.79 165.627 100.37C166.047 99.95 166.547 99.74 167.127 99.74C167.707 99.74 168.207 99.95 168.627 100.37C169.047 100.79 169.257 101.29 169.257 101.87C169.257 102.45 169.047 102.95 168.627 103.37C168.207 103.79 167.707 104 167.127 104C166.547 104 166.047 103.79 165.627 103.37C165.207 102.95 164.997 102.45 164.997 101.87ZM169.887 101.87C169.887 101.29 170.097 100.79 170.517 100.37C170.937 99.95 171.437 99.74 172.017 99.74C172.597 99.74 173.097 99.95 173.517 100.37C173.937 100.79 174.147 101.29 174.147 101.87C174.147 102.45 173.937 102.95 173.517 103.37C173.097 103.79 172.597 104 172.017 104C171.437 104 170.937 103.79 170.517 103.37C170.097 102.95 169.887 102.45 169.887 101.87ZM181.937 117.2C181.937 117.88 181.837 118.35 181.637 118.61C181.457 118.87 181.167 119 180.767 119H179.507C178.827 119 178.197 118.93 177.617 118.79C177.057 118.63 176.567 118.38 176.147 118.04C175.747 117.68 175.427 117.21 175.187 116.63C174.967 116.05 174.857 115.33 174.857 114.47V97.58H178.757V113.93C178.757 114.63 178.877 115.08 179.117 115.28C179.377 115.46 179.737 115.55 180.197 115.55H180.767C180.927 115.55 181.077 115.57 181.217 115.61C181.357 115.63 181.477 115.7 181.577 115.82C181.697 115.92 181.787 116.08 181.847 116.3C181.907 116.52 181.937 116.82 181.937 117.2ZM181.363 115.55C181.803 115.55 182.163 115.54 182.443 115.52C182.743 115.5 182.983 115.44 183.163 115.34C183.343 115.24 183.473 115.1 183.553 114.92C183.633 114.72 183.673 114.45 183.673 114.11V108.38H187.513V113.48C187.513 114.12 187.683 114.63 188.023 115.01C188.383 115.37 188.933 115.55 189.673 115.55C190.253 115.55 190.743 115.46 191.143 115.28C191.563 115.1 191.773 114.71 191.773 114.11V108.38H195.673V113.48C195.673 114.86 196.263 115.55 197.443 115.55H199.303V107.06H203.203V119H198.613C197.553 119 196.753 118.88 196.213 118.64C195.673 118.38 195.213 117.98 194.833 117.44C194.533 117.82 194.213 118.12 193.873 118.34C193.533 118.54 193.183 118.69 192.823 118.79C192.463 118.89 192.103 118.95 191.743 118.97C191.403 118.99 191.073 119 190.753 119C189.733 119 188.873 118.84 188.173 118.52C187.493 118.18 187.003 117.82 186.703 117.44C186.163 118.14 185.463 118.58 184.603 118.76C183.743 118.92 182.643 119 181.303 119H180.133C179.973 119 179.823 118.99 179.683 118.97C179.543 118.93 179.423 118.86 179.323 118.76C179.203 118.64 179.113 118.47 179.053 118.25C178.993 118.03 178.963 117.73 178.963 117.35C178.963 116.67 179.063 116.2 179.263 115.94C179.443 115.68 179.733 115.55 180.133 115.55H181.363ZM210.076 97.58V119H206.206V97.58H210.076ZM221.267 119C221.007 119 220.647 118.94 220.187 118.82C219.727 118.7 219.327 118.44 218.987 118.04C218.967 119.4 218.807 120.53 218.507 121.43C218.207 122.35 217.757 123.09 217.157 123.65C216.557 124.21 215.797 124.61 214.877 124.85C213.957 125.09 212.857 125.22 211.577 125.24V121.58C212.397 121.56 213.047 121.47 213.527 121.31C214.007 121.15 214.367 120.89 214.607 120.53C214.847 120.19 214.997 119.75 215.057 119.21C215.137 118.69 215.177 118.06 215.177 117.32V108.38H219.047V113.48C219.047 113.88 219.107 114.21 219.227 114.47C219.367 114.73 219.537 114.94 219.737 115.1C219.957 115.26 220.197 115.38 220.457 115.46C220.737 115.52 221.007 115.55 221.267 115.55C221.427 115.55 221.577 115.57 221.717 115.61C221.857 115.63 221.977 115.7 222.077 115.82C222.197 115.92 222.287 116.08 222.347 116.3C222.407 116.52 222.437 116.82 222.437 117.2C222.437 117.88 222.337 118.35 222.137 118.61C221.957 118.87 221.667 119 221.267 119ZM227.657 115.55C228.077 115.55 228.477 115.47 228.857 115.31C229.237 115.13 229.427 114.78 229.427 114.26C229.427 113.9 229.197 113.42 228.737 112.82C228.297 112.2 227.707 111.55 226.967 110.87C226.227 110.19 225.387 109.52 224.447 108.86C223.507 108.18 222.557 107.59 221.597 107.09C221.737 106.43 221.897 105.89 222.077 105.47C222.277 105.03 222.477 104.68 222.677 104.42C222.877 104.16 223.067 103.97 223.247 103.85C223.447 103.71 223.607 103.61 223.727 103.55L234.197 98.93V102.95L227.117 105.89V105.98C228.317 106.76 229.307 107.53 230.087 108.29C230.867 109.05 231.487 109.79 231.947 110.51C232.427 111.23 232.757 111.92 232.937 112.58C233.117 113.22 233.207 113.82 233.207 114.38C233.207 114.86 233.137 115.37 232.997 115.91C232.877 116.45 232.627 116.95 232.247 117.41C231.867 117.87 231.327 118.25 230.627 118.55C229.947 118.85 229.047 119 227.927 119H220.667C220.507 119 220.357 118.99 220.217 118.97C220.077 118.93 219.957 118.86 219.857 118.76C219.737 118.64 219.647 118.47 219.587 118.25C219.527 118.03 219.497 117.73 219.497 117.35C219.497 116.67 219.597 116.2 219.797 115.94C219.977 115.68 220.267 115.55 220.667 115.55H227.657ZM251.14 110.06C250.5 110.06 249.94 110.15 249.46 110.33C248.98 110.49 248.6 110.67 248.32 110.87C248.5 111.13 248.71 111.41 248.95 111.71C249.19 112.01 249.44 112.31 249.7 112.61C249.96 112.91 250.21 113.2 250.45 113.48C250.71 113.76 250.95 114 251.17 114.2C251.71 113.86 252.14 113.42 252.46 112.88C252.78 112.32 252.94 111.84 252.94 111.44C252.94 111.3 252.92 111.15 252.88 110.99C252.84 110.81 252.75 110.66 252.61 110.54C252.49 110.4 252.31 110.29 252.07 110.21C251.83 110.11 251.52 110.06 251.14 110.06ZM254.02 119C253.5 119 252.91 118.9 252.25 118.7C251.61 118.5 251.02 118.2 250.48 117.8C249.28 118.4 248.3 119.1 247.54 119.9C246.78 120.7 246.4 121.58 246.4 122.54C246.4 123.68 246.82 124.53 247.66 125.09C248.5 125.67 249.55 125.96 250.81 125.96C251.47 125.96 252.2 125.86 253 125.66C253.8 125.46 254.82 125.1 256.06 124.58L257.56 127.4C256.84 127.86 256.14 128.23 255.46 128.51C254.78 128.81 254.14 129.04 253.54 129.2C252.94 129.36 252.39 129.47 251.89 129.53C251.39 129.59 250.95 129.62 250.57 129.62C249.39 129.62 248.29 129.47 247.27 129.17C246.27 128.87 245.39 128.43 244.63 127.85C243.89 127.29 243.31 126.59 242.89 125.75C242.47 124.91 242.26 123.95 242.26 122.87C242.26 121.15 242.75 119.69 243.73 118.49C244.71 117.29 246.09 116.32 247.87 115.58L244.69 111.77C244.75 111.51 244.83 111.24 244.93 110.96C245.05 110.66 245.17 110.38 245.29 110.12C245.41 109.84 245.54 109.59 245.68 109.37C245.82 109.15 245.95 108.97 246.07 108.83C246.71 108.17 247.48 107.65 248.38 107.27C249.3 106.87 250.29 106.67 251.35 106.67C252.27 106.67 253.07 106.79 253.75 107.03C254.43 107.27 254.99 107.59 255.43 107.99C255.89 108.37 256.23 108.81 256.45 109.31C256.67 109.81 256.78 110.32 256.78 110.84C256.78 111.52 256.54 112.3 256.06 113.18C255.6 114.06 254.92 114.85 254.02 115.55H258.85C259.01 115.55 259.16 115.57 259.3 115.61C259.44 115.63 259.56 115.7 259.66 115.82C259.78 115.92 259.87 116.08 259.93 116.3C259.99 116.52 260.02 116.82 260.02 117.2C260.02 117.88 259.92 118.35 259.72 118.61C259.54 118.87 259.25 119 258.85 119H254.02ZM269.702 113.42C269.702 113.12 269.662 112.82 269.582 112.52C269.522 112.22 269.412 111.96 269.252 111.74C269.112 111.5 268.912 111.31 268.652 111.17C268.412 111.01 268.112 110.93 267.752 110.93C267.132 110.93 266.542 111.24 265.982 111.86C265.442 112.48 264.992 113.42 264.632 114.68C265.132 114.98 265.632 115.24 266.132 115.46C266.652 115.66 267.172 115.76 267.692 115.76C268.332 115.76 268.822 115.55 269.162 115.13C269.522 114.69 269.702 114.12 269.702 113.42ZM259.562 115.55C260.102 115.55 260.512 115.35 260.792 114.95C261.072 114.55 261.352 113.97 261.632 113.21C262.052 111.99 262.512 110.99 263.012 110.21C263.532 109.43 264.072 108.83 264.632 108.41C265.192 107.99 265.752 107.71 266.312 107.57C266.892 107.43 267.452 107.36 267.992 107.36C268.832 107.36 269.592 107.51 270.272 107.81C270.952 108.11 271.532 108.53 272.012 109.07C272.492 109.61 272.862 110.26 273.122 111.02C273.382 111.78 273.512 112.61 273.512 113.51C273.512 114.35 273.402 115.13 273.182 115.85C272.962 116.55 272.632 117.17 272.192 117.71C271.752 118.23 271.192 118.64 270.512 118.94C269.852 119.22 269.072 119.36 268.172 119.36C267.372 119.36 266.562 119.24 265.742 119C264.942 118.76 264.092 118.35 263.192 117.77C262.672 118.35 262.142 118.7 261.602 118.82C261.062 118.94 260.472 119 259.832 119H258.242C258.082 119 257.932 118.99 257.792 118.97C257.652 118.93 257.532 118.86 257.432 118.76C257.312 118.64 257.222 118.47 257.162 118.25C257.102 118.03 257.072 117.73 257.072 117.35C257.072 116.67 257.172 116.2 257.372 115.94C257.552 115.68 257.842 115.55 258.242 115.55H259.562Z" fill="white"/>
<g clip-path="url(#clip0_474_121)">
<path d="M314.755 64.687L317.917 52.6489C312.887 52.2137 308 49.1679 308 45.2519V9.1374C308 4.78626 313.893 0 319.067 0H377.997C383.028 0 387.914 4.78626 387.914 9.1374V15.9542V45.2519C387.914 49.7481 383.171 52.9389 377.997 52.9389H334.878L314.755 64.687Z" fill="#67C7C1"/>
<path d="M314.755 64.687L317.917 52.6489C312.887 52.2137 308 49.1679 308 45.2519V9.1374C308 4.78626 313.893 0 319.067 0H377.997C383.028 0 387.914 4.78626 387.914 9.1374V15.9542V45.2519C387.914 49.7481 383.171 52.9389 377.997 52.9389H334.878L314.755 64.687Z" fill="#C1DEDA"/>
<path d="M402 27.4125V59.1759C402 63.2369 399.988 67.153 395.388 67.153H394.813L396.826 75.8552L382.021 67.153H343.214C338.615 67.153 334.303 63.0919 334.303 59.1759V58.0155H384.896C390.07 58.0155 392.657 53.9545 392.657 49.4583V20.5957H395.245C399.844 20.5957 402 23.6415 402 27.4125Z" fill="#095183"/>
<path d="M326.973 25.6726C326.973 28.8635 329.56 31.4741 332.722 31.4741C335.884 31.4741 338.471 28.8635 338.471 25.6726C338.471 22.4818 335.884 19.8711 332.722 19.8711C329.56 19.8711 326.973 22.4818 326.973 25.6726Z" fill="#095183"/>
<path d="M343.789 25.6726C343.789 28.8635 346.376 31.4741 349.538 31.4741C352.7 31.4741 355.288 28.8635 355.288 25.6726C355.288 22.4818 352.7 19.8711 349.538 19.8711C346.52 19.8711 343.789 22.4818 343.789 25.6726Z" fill="#095183"/>
<path d="M359.6 25.6726C359.6 28.8635 362.187 31.4741 365.349 31.4741C368.511 31.4741 371.098 28.8635 371.098 25.6726C371.098 22.4818 368.511 19.8711 365.349 19.8711C362.33 19.8711 359.6 22.4818 359.6 25.6726Z" fill="#095183"/>
</g>
<defs>
<clipPath id="clip0_474_121">
<rect width="94" height="76" fill="white" transform="translate(308)"/>
</clipPath>
</defs>
</svg>
