<svg width="82" height="30" viewBox="0 0 82 30" fill="none" xmlns="http://www.w3.org/2000/svg">
<path d="M63.052 19.9766H59.3935L68.5306 9.08743L60.9053 -2.77727e-05H64.5638L70.3598 6.90752L76.1559 -2.77727e-05H79.8142L63.052 19.9766Z" fill="url(#paint0_linear_69_20)"/>
<path d="M77.6677 19.9766L71.2605 12.3409L73.0897 10.1609L81.326 19.9766H77.6677Z" fill="url(#paint1_linear_69_20)"/>
<path d="M0 24.8047C0 19.8608 4.00772 15.8531 8.95162 15.8531H15.5157C18.7757 15.8531 21.4184 13.2104 21.4184 9.95035C21.4184 6.69032 18.7757 4.04765 15.5157 4.04765H2.0237V2.99043e-05H15.5157C21.011 2.99043e-05 25.466 4.455 25.466 9.95035C25.466 15.4457 21.011 19.9007 15.5157 19.9007H8.95162C6.24325 19.9007 4.04762 22.0963 4.04762 24.8047V28.8523H0V24.8047Z" fill="url(#paint2_linear_69_20)"/>
<path d="M37.0615 26.1008L24.8904 -4.31587e-05H29.3564L40.7298 24.3903C40.8973 24.7495 41.3242 24.9049 41.6832 24.7375C41.8361 24.6661 41.9591 24.5432 42.0303 24.3903L53.4036 -4.31587e-05H57.8697L45.6986 26.1008C45.2252 27.1163 44.4091 27.9323 43.3939 28.4057C41.0088 29.5179 38.1735 28.4861 37.0615 26.1008Z" fill="url(#paint3_linear_69_20)"/>
<path d="M59.3849 21.363H64.6867V22.8491H59.3849V21.363Z" fill="#3B8CDD" fill-opacity="0.5" stroke="#286FCE" stroke-width="0.2" stroke-miterlimit="10" stroke-linecap="round" stroke-linejoin="round"/>
<path d="M59.3849 24.3503H64.6867V25.8364H59.3849V24.3503Z" fill="#3B8CDD" fill-opacity="0.5" stroke="#286FCE" stroke-width="0.2" stroke-miterlimit="10" stroke-linecap="round" stroke-linejoin="round"/>
<path d="M59.3849 27.3371H64.6867V28.8232H59.3849V27.3371Z" fill="#3B8CDD" fill-opacity="0.5" stroke="#286FCE" stroke-width="0.2" stroke-miterlimit="10" stroke-linecap="round" stroke-linejoin="round"/>
<path d="M67.7004 21.363H73.0022V22.8491H67.7004V21.363Z" fill="#3B8CDD" fill-opacity="0.5" stroke="#286FCE" stroke-width="0.2" stroke-miterlimit="10" stroke-linecap="round" stroke-linejoin="round"/>
<path d="M81.3178 21.009C81.5134 21.0093 81.6723 21.1679 81.6723 21.3635V28.8235C81.6722 28.9946 81.5505 29.1381 81.3891 29.1711L81.3178 29.178H76.0161C75.8448 29.178 75.7015 29.0562 75.6684 28.8948L75.6616 28.8235V21.3635C75.6616 21.1677 75.8203 21.009 76.0161 21.009H81.3178ZM77.5014 22.4944C77.3059 22.4946 77.1471 22.6533 77.1469 22.8489V27.3372L77.1538 27.4084C77.1867 27.57 77.3302 27.6915 77.5014 27.6917H79.8305L79.9028 27.6848C80.0642 27.6516 80.185 27.5083 80.185 27.3372V22.8489C80.1849 22.6532 80.0262 22.4944 79.8305 22.4944H77.5014Z" fill="#3B8CDD" fill-opacity="0.5"/>
<path d="M81.3178 21.009L81.318 20.909H81.3178V21.009ZM81.6723 28.8235L81.7723 28.8236V28.8235H81.6723ZM81.3891 29.1711L81.3987 29.2713L81.4092 29.2691L81.3891 29.1711ZM81.3178 29.178V29.2784L81.3274 29.2775L81.3178 29.178ZM75.6684 28.8948L75.5683 28.9044L75.5705 28.9149L75.6684 28.8948ZM75.6616 28.8235H75.5611L75.562 28.833L75.6616 28.8235ZM77.5014 22.4944V22.3944L77.5013 22.3944L77.5014 22.4944ZM77.1469 22.8489L77.0469 22.8488V22.8489H77.1469ZM77.1469 27.3372H77.0465L77.0474 27.3467L77.1469 27.3372ZM77.1538 27.4084L77.0537 27.418L77.0558 27.4284L77.1538 27.4084ZM77.5014 27.6917L77.5013 27.7917H77.5014V27.6917ZM79.8305 27.6917V27.7921L79.84 27.7912L79.8305 27.6917ZM79.9028 27.6848L79.9123 27.785L79.9229 27.7828L79.9028 27.6848ZM80.185 22.8489L80.285 22.8489L80.285 22.8488L80.185 22.8489ZM81.3178 21.009L81.3177 21.109C81.4583 21.1092 81.5723 21.2232 81.5723 21.3635H81.6723H81.7723C81.7723 21.1125 81.5686 20.9093 81.318 20.909L81.3178 21.009ZM81.6723 21.3635H81.5723V28.8235H81.6723H81.7723V21.3635H81.6723ZM81.6723 28.8235L81.5723 28.8234C81.5722 28.9463 81.4847 29.0495 81.369 29.0732L81.3891 29.1711L81.4092 29.2691C81.6163 29.2267 81.7722 29.043 81.7723 28.8236L81.6723 28.8235ZM81.3891 29.1711L81.3796 29.0716L81.3083 29.0784L81.3178 29.178L81.3274 29.2775L81.3987 29.2707L81.3891 29.1711ZM81.3178 29.178V29.078H76.0161V29.178V29.278H81.3178V29.178ZM76.0161 29.178V29.078C75.8932 29.078 75.7902 28.9906 75.7664 28.8747L75.6684 28.8948L75.5705 28.9149C75.6129 29.1219 75.7964 29.278 76.0161 29.278V29.178ZM75.6684 28.8948L75.768 28.8852L75.7611 28.8139L75.6616 28.8235L75.562 28.833L75.5689 28.9043L75.6684 28.8948ZM75.6616 28.8235H75.7616V21.3635H75.6616H75.5616V28.8235H75.6616ZM75.6616 21.3635H75.7616C75.7616 21.223 75.8755 21.109 76.0161 21.109V21.009V20.909C75.7651 20.909 75.5616 21.1125 75.5616 21.3635H75.6616ZM76.0161 21.009V21.109H81.3178V21.009V20.909H76.0161V21.009ZM77.5014 22.4944L77.5013 22.3944C77.2507 22.3946 77.0471 22.5981 77.0469 22.8488L77.1469 22.8489L77.2469 22.849C77.2471 22.7086 77.3611 22.5945 77.5015 22.5944L77.5014 22.4944ZM77.1469 22.8489H77.0469V27.3372H77.1469H77.2469V22.8489H77.1469ZM77.1469 27.3372L77.0474 27.3467L77.0542 27.418L77.1538 27.4084L77.2533 27.3989L77.2465 27.3276L77.1469 27.3372ZM77.1538 27.4084L77.0558 27.4284C77.0981 27.6358 77.2819 27.7914 77.5013 27.7917L77.5014 27.6917L77.5015 27.5917C77.3785 27.5915 77.2754 27.5041 77.2518 27.3885L77.1538 27.4084ZM77.5014 27.6917V27.7917H79.8305V27.6917V27.5917H77.5014V27.6917ZM79.8305 27.6917L79.84 27.7912L79.9122 27.7844L79.9028 27.6848L79.8934 27.5853L79.8211 27.5921L79.8305 27.6917ZM79.9028 27.6848L79.9229 27.7828C80.1302 27.7401 80.285 27.5564 80.285 27.3372H80.185H80.085C80.085 27.4603 79.9981 27.5631 79.8827 27.5869L79.9028 27.6848ZM80.185 27.3372H80.285V22.8489H80.185H80.085V27.3372H80.185ZM80.185 22.8489L80.285 22.8488C80.2848 22.5981 80.0815 22.3944 79.8305 22.3944V22.4944V22.5944C79.9709 22.5944 80.0849 22.7084 80.085 22.849L80.185 22.8489ZM79.8305 22.4944V22.3944H77.5014V22.4944V22.5944H79.8305V22.4944Z" fill="#286FCE"/>
<path d="M73.0026 23.9951C73.1981 23.9954 73.357 24.155 73.3571 24.3506V28.8232C73.3571 28.9945 73.2353 29.1378 73.0739 29.1709L73.0026 29.1777H67.7008C67.5294 29.1777 67.3861 29.0562 67.3532 28.8945L67.3463 28.8232V24.3506C67.3464 24.1548 67.5051 23.9951 67.7008 23.9951H73.0026ZM69.1862 25.4814C68.9907 25.4816 68.8319 25.6404 68.8317 25.8359V27.3369L68.8385 27.4082C68.8715 27.5698 69.0149 27.6913 69.1862 27.6914H71.5153L71.5866 27.6846C71.7483 27.6517 71.8698 27.5084 71.8698 27.3369V25.8359C71.8696 25.6403 71.7109 25.4814 71.5153 25.4814H69.1862Z" fill="#3B8CDD" fill-opacity="0.5"/>
<path d="M73.0026 23.9951L73.0027 23.8951H73.0026V23.9951ZM73.3571 24.3506L73.4571 24.3506L73.4571 24.3506L73.3571 24.3506ZM73.0739 29.1709L73.0835 29.271L73.094 29.2689L73.0739 29.1709ZM73.0026 29.1777V29.2782L73.0121 29.2773L73.0026 29.1777ZM67.3532 28.8945L67.2531 28.9041L67.2552 28.9145L67.3532 28.8945ZM67.3463 28.8232H67.2459L67.2468 28.8328L67.3463 28.8232ZM67.3463 24.3506L67.2463 24.3506V24.3506H67.3463ZM69.1862 25.4814V25.3814L69.1861 25.3814L69.1862 25.4814ZM68.8317 25.8359L68.7317 25.8358V25.8359H68.8317ZM68.8317 27.3369H68.7312L68.7321 27.3465L68.8317 27.3369ZM68.8385 27.4082L68.7384 27.4178L68.7405 27.4282L68.8385 27.4082ZM69.1862 27.6914L69.1861 27.7914H69.1862V27.6914ZM71.5153 27.6914V27.7919L71.5248 27.7909L71.5153 27.6914ZM71.5866 27.6846L71.5962 27.7847L71.6065 27.7826L71.5866 27.6846ZM71.8698 25.8359L71.9698 25.8359L71.9698 25.8358L71.8698 25.8359ZM73.0026 23.9951L73.0025 24.0951C73.1426 24.0953 73.257 24.21 73.2571 24.3506L73.3571 24.3506L73.4571 24.3506C73.457 24.1 73.2537 23.8954 73.0027 23.8951L73.0026 23.9951ZM73.3571 24.3506H73.2571V28.8232H73.3571H73.4571V24.3506H73.3571ZM73.3571 28.8232H73.2571C73.2571 28.9461 73.1696 29.0492 73.0538 29.0729L73.0739 29.1709L73.094 29.2689C73.301 29.2264 73.4571 29.0429 73.4571 28.8232H73.3571ZM73.0739 29.1709L73.0643 29.0714L72.993 29.0782L73.0026 29.1777L73.0121 29.2773L73.0834 29.2704L73.0739 29.1709ZM73.0026 29.1777V29.0777H67.7008V29.1777V29.2777H73.0026V29.1777ZM67.7008 29.1777V29.0777C67.5778 29.0777 67.4748 28.9904 67.4511 28.8745L67.3532 28.8945L67.2552 28.9145C67.2975 29.1219 67.4811 29.2777 67.7008 29.2777V29.1777ZM67.3532 28.8945L67.4527 28.885L67.4459 28.8137L67.3463 28.8232L67.2468 28.8328L67.2536 28.9041L67.3532 28.8945ZM67.3463 28.8232H67.4463V24.3506H67.3463H67.2463V28.8232H67.3463ZM67.3463 24.3506L67.4463 24.3506C67.4464 24.2097 67.5607 24.0951 67.7008 24.0951V23.9951V23.8951C67.4495 23.8951 67.2464 24.1 67.2463 24.3506L67.3463 24.3506ZM67.7008 23.9951V24.0951H73.0026V23.9951V23.8951H67.7008V23.9951ZM69.1862 25.4814L69.1861 25.3814C68.9354 25.3817 68.732 25.5852 68.7317 25.8358L68.8317 25.8359L68.9317 25.836C68.9318 25.6957 69.0459 25.5816 69.1863 25.5814L69.1862 25.4814ZM68.8317 25.8359H68.7317V27.3369H68.8317H68.9317V25.8359H68.8317ZM68.8317 27.3369L68.7321 27.3465L68.739 27.4177L68.8385 27.4082L68.9381 27.3987L68.9312 27.3274L68.8317 27.3369ZM68.8385 27.4082L68.7405 27.4282C68.7828 27.6356 68.9667 27.7912 69.1861 27.7914L69.1862 27.6914L69.1863 27.5914C69.0632 27.5913 68.9601 27.5039 68.9365 27.3882L68.8385 27.4082ZM69.1862 27.6914V27.7914H71.5153V27.6914V27.5914H69.1862V27.6914ZM71.5153 27.6914L71.5248 27.7909L71.5961 27.7841L71.5866 27.6846L71.577 27.585L71.5057 27.5919L71.5153 27.6914ZM71.5866 27.6846L71.6065 27.7826C71.8141 27.7403 71.9698 27.5567 71.9698 27.3369H71.8698H71.7698C71.7698 27.4601 71.6825 27.563 71.5666 27.5866L71.5866 27.6846ZM71.8698 27.3369H71.9698V25.8359H71.8698H71.7698V27.3369H71.8698ZM71.8698 25.8359L71.9698 25.8358C71.9695 25.5852 71.7663 25.3814 71.5153 25.3814V25.4814V25.5814C71.6556 25.5814 71.7696 25.6955 71.7698 25.836L71.8698 25.8359ZM71.5153 25.4814V25.3814H69.1862V25.4814V25.5814H71.5153V25.4814Z" fill="#286FCE"/>
<defs>
<linearGradient id="paint0_linear_69_20" x1="69.6039" y1="19.9766" x2="69.6039" y2="-2.86102e-05" gradientUnits="userSpaceOnUse">
<stop stop-color="#50ACEE"/>
<stop offset="1" stop-color="#286FCE"/>
</linearGradient>
<linearGradient id="paint1_linear_69_20" x1="76.2933" y1="19.9766" x2="76.2933" y2="10.1609" gradientUnits="userSpaceOnUse">
<stop stop-color="#50ACEE"/>
<stop offset="1" stop-color="#286FCE"/>
</linearGradient>
<linearGradient id="paint2_linear_69_20" x1="12.733" y1="28.8523" x2="12.733" y2="3.05176e-05" gradientUnits="userSpaceOnUse">
<stop stop-color="#50ACEE"/>
<stop offset="1" stop-color="#286FCE"/>
</linearGradient>
<linearGradient id="paint3_linear_69_20" x1="41.38" y1="28.8533" x2="41.38" y2="-4.19617e-05" gradientUnits="userSpaceOnUse">
<stop stop-color="#50ACEE"/>
<stop offset="1" stop-color="#286FCE"/>
</linearGradient>
</defs>
</svg>
