<svg width="165" height="59" viewBox="0 0 165 59" fill="none" xmlns="http://www.w3.org/2000/svg">
<path d="M126.745 40.1562H119.391L137.758 18.2673L122.43 -4.86613e-05H129.784L141.435 13.8853L153.086 -4.86613e-05H160.44L126.745 40.1562Z" fill="url(#paint0_linear_69_20)"/>
<path d="M156.125 40.1562L143.246 24.8072L146.923 20.4252L163.479 40.1562H156.125Z" fill="url(#paint1_linear_69_20)"/>
<path d="M0 49.8614C0 39.9234 8.05619 31.8672 17.9943 31.8672H31.1891C37.7423 31.8672 43.0546 26.5549 43.0546 20.0017C43.0546 13.4485 37.7423 8.13631 31.1891 8.13631H4.06799V-8.64644e-05H31.1891C42.2357 -8.64644e-05 51.191 8.95515 51.191 20.0017C51.191 31.0483 42.2357 40.0035 31.1891 40.0035H17.9943C12.55 40.0035 8.1364 44.4171 8.1364 49.8614V57.9978H0V49.8614Z" fill="url(#paint2_linear_69_20)"/>
<path d="M74.4998 52.4671L50.0338 8.78134e-07H59.0113L81.8738 49.0287C82.2104 49.7508 83.0685 50.0631 83.7903 49.7265C84.0976 49.5832 84.3447 49.3361 84.488 49.0287L107.35 8.78134e-07H116.328L91.8618 52.4671C90.9102 54.5083 89.2698 56.1486 87.229 57.1002C82.4346 59.336 76.7352 57.2619 74.4998 52.4671Z" fill="url(#paint3_linear_69_20)"/>
<path d="M119.374 42.9433H130.031V45.9307H119.374V42.9433Z" fill="#3B8CDD" fill-opacity="0.5" stroke="#286FCE" stroke-miterlimit="10" stroke-linecap="round" stroke-linejoin="round"/>
<path d="M119.374 48.9481H130.031V51.9355H119.374V48.9481Z" fill="#3B8CDD" fill-opacity="0.5" stroke="#286FCE" stroke-miterlimit="10" stroke-linecap="round" stroke-linejoin="round"/>
<path d="M119.374 54.952H130.031V57.9395H119.374V54.952Z" fill="#3B8CDD" fill-opacity="0.5" stroke="#286FCE" stroke-miterlimit="10" stroke-linecap="round" stroke-linejoin="round"/>
<path d="M136.089 42.9433H146.747V45.9307H136.089V42.9433Z" fill="#3B8CDD" fill-opacity="0.5" stroke="#286FCE" stroke-miterlimit="10" stroke-linecap="round" stroke-linejoin="round"/>
<path d="M163.461 42.5889C163.657 42.5889 163.816 42.7476 163.816 42.9434V57.9395C163.816 58.1352 163.657 58.2939 163.461 58.2939H152.804C152.633 58.2939 152.49 58.1723 152.457 58.0107L152.45 57.9395V42.9434C152.45 42.7476 152.608 42.5889 152.804 42.5889H163.461ZM155.792 45.5762C155.596 45.5762 155.437 45.735 155.437 45.9307V54.9521L155.444 55.0234C155.477 55.1851 155.62 55.3066 155.792 55.3066H160.474L160.545 55.2998C160.707 55.2668 160.829 55.1235 160.829 54.9521V45.9307C160.829 45.7349 160.67 45.5762 160.474 45.5762H155.792Z" fill="#3B8CDD" fill-opacity="0.5"/>
<path d="M163.461 42.5889L163.462 42.0889H163.461V42.5889ZM163.816 57.9395L164.316 57.9396V57.9395H163.816ZM163.461 58.2939L163.461 58.7939L163.462 58.7939L163.461 58.2939ZM152.457 58.0107L151.959 58.0585C151.961 58.076 151.963 58.0935 151.967 58.1108L152.457 58.0107ZM152.45 57.9395H151.95C151.95 57.9554 151.951 57.9713 151.952 57.9872L152.45 57.9395ZM155.792 45.5762L155.792 45.0762L155.792 45.0762L155.792 45.5762ZM155.437 45.9307L154.937 45.9305V45.9307H155.437ZM155.437 54.9521H154.937C154.937 54.9681 154.938 54.984 154.939 54.9999L155.437 54.9521ZM155.444 55.0234L154.946 55.0712C154.948 55.0887 154.95 55.1061 154.954 55.1234L155.444 55.0234ZM155.792 55.3066L155.792 55.8066H155.792V55.3066ZM160.474 55.3066V55.8066C160.49 55.8066 160.506 55.8059 160.522 55.8044L160.474 55.3066ZM160.545 55.2998L160.593 55.7975C160.611 55.7958 160.628 55.7932 160.645 55.7897L160.545 55.2998ZM160.829 45.9307L161.329 45.9307L161.329 45.9305L160.829 45.9307ZM163.461 42.5889L163.461 43.0889C163.381 43.0888 163.316 43.0239 163.316 42.9434H163.816H164.316C164.316 42.4713 163.933 42.089 163.462 42.0889L163.461 42.5889ZM163.816 42.9434H163.316V57.9395H163.816H164.316V42.9434H163.816ZM163.816 57.9395L163.316 57.9393C163.316 57.859 163.381 57.794 163.461 57.7939L163.461 58.2939L163.462 58.7939C163.933 58.7938 164.316 58.4113 164.316 57.9396L163.816 57.9395ZM163.461 58.2939V57.7939H152.804V58.2939V58.7939H163.461V58.2939ZM152.804 58.2939V57.7939C152.875 57.7939 152.933 57.8436 152.946 57.9107L152.457 58.0107L151.967 58.1108C152.046 58.5011 152.391 58.7939 152.804 58.7939V58.2939ZM152.457 58.0107L152.954 57.963L152.947 57.8917L152.45 57.9395L151.952 57.9872L151.959 58.0585L152.457 58.0107ZM152.45 57.9395H152.95V42.9434H152.45H151.95V57.9395H152.45ZM152.45 42.9434H152.95C152.95 43.0237 152.885 43.0889 152.804 43.0889V42.5889V42.0889C152.332 42.0889 151.95 42.4714 151.95 42.9434H152.45ZM152.804 42.5889V43.0889H163.461V42.5889V42.0889H152.804V42.5889ZM155.792 45.5762L155.792 45.0762C155.32 45.0762 154.937 45.459 154.937 45.9305L155.437 45.9307L155.937 45.9309C155.937 46.011 155.872 46.0762 155.792 46.0762L155.792 45.5762ZM155.437 45.9307H154.937V54.9521H155.437H155.937V45.9307H155.437ZM155.437 54.9521L154.939 54.9999L154.946 55.0712L155.444 55.0234L155.942 54.9757L155.935 54.9044L155.437 54.9521ZM155.444 55.0234L154.954 55.1234C155.034 55.5139 155.379 55.8066 155.792 55.8066L155.792 55.3066L155.792 54.8066C155.862 54.8066 155.92 54.8563 155.934 54.9235L155.444 55.0234ZM155.792 55.3066V55.8066H160.474V55.3066V54.8066H155.792V55.3066ZM160.474 55.3066L160.522 55.8044L160.593 55.7975L160.545 55.2998L160.498 54.8021L160.426 54.8089L160.474 55.3066ZM160.545 55.2998L160.645 55.7897C161.036 55.7101 161.329 55.3652 161.329 54.9521H160.829H160.329C160.329 54.8819 160.378 54.8236 160.446 54.8099L160.545 55.2998ZM160.829 54.9521H161.329V45.9307H160.829H160.329V54.9521H160.829ZM160.829 45.9307L161.329 45.9305C161.328 45.459 160.946 45.0762 160.474 45.0762V45.5762V46.0762C160.394 46.0762 160.329 46.0109 160.329 45.9309L160.829 45.9307ZM160.474 45.5762V45.0762H155.792V45.5762V46.0762H160.474V45.5762Z" fill="#286FCE"/>
<path d="M146.746 48.5935C146.942 48.5935 147.101 48.7524 147.101 48.948V57.9402C147.101 58.1357 146.942 58.2947 146.746 58.2947H136.089C135.918 58.2947 135.775 58.1729 135.742 58.0115L135.735 57.9402V48.948C135.735 48.7524 135.894 48.5935 136.089 48.5935H146.746ZM139.076 51.5808C138.881 51.5808 138.722 51.7397 138.722 51.9353V54.9519L138.729 55.0232C138.762 55.1848 138.905 55.3064 139.076 55.3064H143.759L143.83 55.2996C143.992 55.2664 144.114 55.1231 144.114 54.9519V51.9353C144.113 51.7398 143.955 51.581 143.759 51.5808H139.076Z" fill="#3B8CDD" fill-opacity="0.5"/>
<path d="M146.746 48.5935L146.746 48.0935H146.746V48.5935ZM147.101 48.948L147.601 48.948L147.601 48.9474L147.101 48.948ZM147.101 57.9402L147.601 57.9409V57.9402H147.101ZM146.746 58.2947L146.746 58.7947L146.746 58.7947L146.746 58.2947ZM135.742 58.0115L135.244 58.0592C135.246 58.077 135.248 58.0946 135.252 58.1121L135.742 58.0115ZM135.735 57.9402H135.235C135.235 57.9561 135.235 57.972 135.237 57.9879L135.735 57.9402ZM135.735 48.948L135.235 48.9474V48.948H135.735ZM138.722 51.9353L138.222 51.9346V51.9353H138.722ZM138.722 54.9519H138.222C138.222 54.9678 138.223 54.9838 138.224 54.9996L138.722 54.9519ZM138.729 55.0232L138.231 55.0709C138.233 55.0884 138.235 55.1059 138.239 55.1231L138.729 55.0232ZM143.759 55.3064V55.8064C143.775 55.8064 143.791 55.8056 143.807 55.8041L143.759 55.3064ZM143.83 55.2996L143.878 55.7973C143.896 55.7956 143.913 55.7929 143.931 55.7894L143.83 55.2996ZM144.114 51.9353L144.614 51.9353L144.614 51.9346L144.114 51.9353ZM143.759 51.5808L143.76 51.0808H143.759V51.5808ZM146.746 48.5935L146.746 49.0935C146.665 49.0935 146.601 49.0282 146.601 48.9486L147.101 48.948L147.601 48.9474C147.6 48.4767 147.219 48.0936 146.746 48.0935L146.746 48.5935ZM147.101 48.948H146.601V57.9402H147.101H147.601V48.948H147.101ZM147.101 57.9402L146.601 57.9395C146.601 57.86 146.665 57.7947 146.746 57.7947L146.746 58.2947L146.746 58.7947C147.219 58.7946 147.6 58.4114 147.601 57.9409L147.101 57.9402ZM146.746 58.2947V57.7947H136.089V58.2947V58.7947H146.746V58.2947ZM136.089 58.2947V57.7947C136.16 57.7947 136.218 57.8446 136.231 57.9109L135.742 58.0115L135.252 58.1121C135.332 58.5012 135.676 58.7947 136.089 58.7947V58.2947ZM135.742 58.0115L136.239 57.9637L136.232 57.8925L135.735 57.9402L135.237 57.9879L135.244 58.0592L135.742 58.0115ZM135.735 57.9402H136.235V48.948H135.735H135.235V57.9402H135.735ZM135.735 48.948L136.235 48.9486C136.235 49.0281 136.17 49.0935 136.089 49.0935V48.5935V48.0935C135.617 48.0935 135.235 48.4767 135.235 48.9474L135.735 48.948ZM136.089 48.5935V49.0935H146.746V48.5935V48.0935H136.089V48.5935ZM139.076 51.5808V51.0808C138.604 51.0808 138.223 51.4641 138.222 51.9346L138.722 51.9353L139.222 51.936C139.222 52.0154 139.158 52.0808 139.076 52.0808V51.5808ZM138.722 51.9353H138.222V54.9519H138.722H139.222V51.9353H138.722ZM138.722 54.9519L138.224 54.9996L138.231 55.0709L138.729 55.0232L139.227 54.9755L139.22 54.9042L138.722 54.9519ZM138.729 55.0232L138.239 55.1231C138.319 55.5137 138.663 55.8064 139.076 55.8064V55.3064V54.8064C139.147 54.8064 139.205 54.856 139.219 54.9233L138.729 55.0232ZM139.076 55.3064V55.8064H143.759V55.3064V54.8064H139.076V55.3064ZM143.759 55.3064L143.807 55.8041L143.878 55.7973L143.83 55.2996L143.783 54.8018L143.711 54.8087L143.759 55.3064ZM143.83 55.2996L143.931 55.7894C144.32 55.7095 144.614 55.3653 144.614 54.9519H144.114H143.614C143.614 54.881 143.663 54.8234 143.73 54.8098L143.83 55.2996ZM144.114 54.9519H144.614V51.9353H144.114H143.614V54.9519H144.114ZM144.114 51.9353L144.614 51.9346C144.613 51.4638 144.231 51.0812 143.76 51.0808L143.759 51.5808L143.759 52.0808C143.678 52.0807 143.614 52.0159 143.614 51.936L144.114 51.9353ZM143.759 51.5808V51.0808H139.076V51.5808V52.0808H143.759V51.5808Z" fill="#286FCE"/>
<defs>
<linearGradient id="paint0_linear_69_20" x1="139.915" y1="40.1562" x2="139.915" y2="-4.95911e-05" gradientUnits="userSpaceOnUse">
<stop stop-color="#50ACEE"/>
<stop offset="1" stop-color="#286FCE"/>
</linearGradient>
<linearGradient id="paint1_linear_69_20" x1="153.362" y1="40.1562" x2="153.362" y2="20.4252" gradientUnits="userSpaceOnUse">
<stop stop-color="#50ACEE"/>
<stop offset="1" stop-color="#286FCE"/>
</linearGradient>
<linearGradient id="paint2_linear_69_20" x1="25.5955" y1="57.9978" x2="25.5955" y2="-8.7738e-05" gradientUnits="userSpaceOnUse">
<stop stop-color="#50ACEE"/>
<stop offset="1" stop-color="#286FCE"/>
</linearGradient>
<linearGradient id="paint3_linear_69_20" x1="83.1808" y1="58" x2="83.1808" y2="0" gradientUnits="userSpaceOnUse">
<stop stop-color="#50ACEE"/>
<stop offset="1" stop-color="#286FCE"/>
</linearGradient>
</defs>
</svg>
