<svg width="2001" height="762" viewBox="0 0 2001 762" fill="none" xmlns="http://www.w3.org/2000/svg">
<path d="M1528.57 511.621H1442.2L1657.92 254.543L1477.9 40H1564.27L1701.1 203.078L1837.94 40H1924.31L1528.57 511.621Z" fill="url(#paint0_linear_0_1)"/>
<path d="M1873.63 511.621L1722.37 331.352L1765.55 279.887L1960 511.621H1873.63Z" fill="url(#paint1_linear_0_1)"/>
<path d="M40 625.605C40 508.887 134.617 414.27 251.336 414.27H406.305C483.27 414.27 545.66 351.879 545.66 274.914C545.66 197.949 483.27 135.559 406.305 135.559H87.777V40H406.305C536.043 40 641.219 145.176 641.219 274.914C641.219 404.652 536.043 509.828 406.305 509.828H251.336C187.395 509.828 135.559 561.664 135.559 625.605V721.164H40V625.605Z" fill="url(#paint2_linear_0_1)"/>
<path d="M914.973 656.207L627.629 40H733.066L1001.58 615.824C1005.53 624.305 1015.61 627.973 1024.09 624.02C1027.7 622.336 1030.6 619.434 1032.28 615.824L1300.79 40H1406.23L1118.88 656.207C1107.71 680.18 1088.44 699.445 1064.47 710.621C1008.16 736.879 941.227 712.52 914.973 656.207Z" fill="url(#paint3_linear_0_1)"/>
<path d="M1442 544.354H1567.17V579.44H1442V544.354Z" fill="#3B8CDD" fill-opacity="0.5" stroke="#286FCE" stroke-miterlimit="10" stroke-linecap="round" stroke-linejoin="round"/>
<path d="M1442 614.878H1567.17V649.964H1442V614.878Z" fill="#3B8CDD" fill-opacity="0.5" stroke="#286FCE" stroke-miterlimit="10" stroke-linecap="round" stroke-linejoin="round"/>
<path d="M1442 685.393H1567.17V720.479H1442V685.393Z" fill="#3B8CDD" fill-opacity="0.5" stroke="#286FCE" stroke-miterlimit="10" stroke-linecap="round" stroke-linejoin="round"/>
<path d="M1638.32 544.354H1763.48V579.44H1638.32V544.354Z" fill="#3B8CDD" fill-opacity="0.5" stroke="#286FCE" stroke-miterlimit="10" stroke-linecap="round" stroke-linejoin="round"/>
<path d="M1959.8 544C1959.99 544 1960.15 544.159 1960.15 544.354V720.479C1960.15 720.651 1960.03 720.794 1959.87 720.827L1959.8 720.834H1834.63C1834.46 720.834 1834.31 720.712 1834.28 720.551L1834.27 720.479V544.354C1834.27 544.159 1834.43 544 1834.63 544H1959.8ZM1869.71 579.086C1869.52 579.086 1869.36 579.245 1869.36 579.44V685.397L1869.37 685.469C1869.4 685.63 1869.54 685.752 1869.71 685.752H1924.71L1924.78 685.745C1924.94 685.712 1925.07 685.569 1925.07 685.397V579.44C1925.07 579.245 1924.91 579.086 1924.71 579.086H1869.71Z" fill="#3B8CDD" fill-opacity="0.5"/>
<path d="M1960.15 720.479L1960.65 720.48V720.479H1960.15ZM1959.87 720.827L1959.92 721.325C1959.93 721.323 1959.95 721.321 1959.97 721.317L1959.87 720.827ZM1959.8 720.834V721.334C1959.81 721.334 1959.83 721.333 1959.84 721.332L1959.8 720.834ZM1834.28 720.551L1833.78 720.599C1833.79 720.616 1833.79 720.634 1833.79 720.651L1834.28 720.551ZM1834.27 720.479H1833.77C1833.77 720.495 1833.78 720.511 1833.78 720.527L1834.27 720.479ZM1869.36 579.44L1868.86 579.44V579.44H1869.36ZM1869.36 685.397H1868.86C1868.86 685.413 1868.86 685.429 1868.86 685.445L1869.36 685.397ZM1869.37 685.469L1868.87 685.516C1868.87 685.534 1868.87 685.552 1868.88 685.569L1869.37 685.469ZM1924.71 685.752V686.252C1924.73 686.252 1924.74 686.251 1924.76 686.25L1924.71 685.752ZM1924.78 685.745L1924.83 686.243C1924.85 686.241 1924.87 686.239 1924.88 686.235L1924.78 685.745ZM1925.07 685.397L1925.57 685.398V685.397H1925.07ZM1925.07 579.44H1925.57V579.44L1925.07 579.44ZM1924.71 579.086L1924.71 578.586H1924.71V579.086ZM1959.8 544V544.5C1959.72 544.5 1959.65 544.435 1959.65 544.354H1960.15H1960.65C1960.65 543.883 1960.27 543.5 1959.8 543.5V544ZM1960.15 544.354H1959.65V720.479H1960.15H1960.65V544.354H1960.15ZM1960.15 720.479L1959.65 720.479C1959.65 720.409 1959.7 720.351 1959.77 720.337L1959.87 720.827L1959.97 721.317C1960.36 721.237 1960.65 720.892 1960.65 720.48L1960.15 720.479ZM1959.87 720.827L1959.82 720.329L1959.75 720.336L1959.8 720.834L1959.84 721.332L1959.92 721.325L1959.87 720.827ZM1959.8 720.834V720.334H1834.63V720.834V721.334H1959.8V720.834ZM1834.63 720.834V720.334C1834.7 720.334 1834.76 720.384 1834.77 720.451L1834.28 720.551L1833.79 720.651C1833.87 721.041 1834.22 721.334 1834.63 721.334V720.834ZM1834.28 720.551L1834.78 720.503L1834.77 720.432L1834.27 720.479L1833.78 720.527L1833.78 720.599L1834.28 720.551ZM1834.27 720.479H1834.77V544.354H1834.27H1833.77V720.479H1834.27ZM1834.27 544.354H1834.77C1834.77 544.435 1834.71 544.5 1834.63 544.5V544V543.5C1834.16 543.5 1833.77 543.883 1833.77 544.354H1834.27ZM1834.63 544V544.5H1959.8V544V543.5H1834.63V544ZM1869.71 579.086V578.586C1869.24 578.586 1868.86 578.969 1868.86 579.44L1869.36 579.44L1869.86 579.441C1869.86 579.521 1869.8 579.586 1869.71 579.586V579.086ZM1869.36 579.44H1868.86V685.397H1869.36H1869.86V579.44H1869.36ZM1869.36 685.397L1868.86 685.445L1868.87 685.516L1869.37 685.469L1869.87 685.421L1869.86 685.35L1869.36 685.397ZM1869.37 685.469L1868.88 685.569C1868.96 685.959 1869.3 686.252 1869.71 686.252V685.752V685.252C1869.79 685.252 1869.84 685.302 1869.86 685.369L1869.37 685.469ZM1869.71 685.752V686.252H1924.71V685.752V685.252H1869.71V685.752ZM1924.71 685.752L1924.76 686.25L1924.83 686.243L1924.78 685.745L1924.73 685.247L1924.66 685.254L1924.71 685.752ZM1924.78 685.745L1924.88 686.235C1925.27 686.155 1925.57 685.81 1925.57 685.398L1925.07 685.397L1924.57 685.397C1924.57 685.327 1924.62 685.269 1924.68 685.255L1924.78 685.745ZM1925.07 685.397H1925.57V579.44H1925.07H1924.57V685.397H1925.07ZM1925.07 579.44L1925.57 579.44C1925.57 578.968 1925.18 578.586 1924.71 578.586L1924.71 579.086L1924.71 579.586C1924.63 579.586 1924.57 579.521 1924.57 579.441L1925.07 579.44ZM1924.71 579.086V578.586H1869.71V579.086V579.586H1924.71V579.086Z" fill="#286FCE"/>
<path d="M1763.49 614.523C1763.68 614.524 1763.84 614.683 1763.84 614.878V720.483C1763.84 720.655 1763.72 720.798 1763.56 720.831L1763.49 720.838H1638.32C1638.15 720.838 1638 720.716 1637.97 720.555L1637.96 720.483V614.878C1637.96 614.682 1638.12 614.523 1638.32 614.523H1763.49ZM1673.4 649.61C1673.21 649.61 1673.05 649.769 1673.05 649.965V685.398L1673.05 685.47C1673.09 685.631 1673.23 685.753 1673.4 685.753H1728.39L1728.47 685.746C1728.63 685.713 1728.75 685.57 1728.75 685.398V649.965C1728.75 649.769 1728.59 649.611 1728.39 649.61H1673.4Z" fill="#3B8CDD" fill-opacity="0.5"/>
<path d="M1763.49 614.523L1763.49 614.023H1763.49V614.523ZM1763.84 614.878H1764.34V614.877L1763.84 614.878ZM1763.84 720.483L1764.34 720.483V720.483H1763.84ZM1763.56 720.831L1763.6 721.329C1763.62 721.327 1763.64 721.324 1763.66 721.321L1763.56 720.831ZM1763.49 720.838V721.338C1763.5 721.338 1763.52 721.337 1763.53 721.336L1763.49 720.838ZM1637.97 720.555L1637.47 720.602C1637.47 720.62 1637.48 720.638 1637.48 720.655L1637.97 720.555ZM1637.96 720.483H1637.46C1637.46 720.499 1637.46 720.515 1637.47 720.531L1637.96 720.483ZM1637.96 614.878L1637.46 614.877V614.878H1637.96ZM1673.05 685.398H1672.55C1672.55 685.414 1672.55 685.43 1672.55 685.446L1673.05 685.398ZM1673.05 685.47L1672.56 685.517C1672.56 685.535 1672.56 685.553 1672.56 685.57L1673.05 685.47ZM1728.39 685.753V686.253C1728.41 686.253 1728.43 686.252 1728.44 686.251L1728.39 685.753ZM1728.47 685.746L1728.51 686.244C1728.53 686.242 1728.55 686.239 1728.57 686.236L1728.47 685.746ZM1728.75 685.398L1729.25 685.399V685.398H1728.75ZM1728.39 649.61L1728.4 649.11H1728.39V649.61ZM1763.49 614.523L1763.48 615.023C1763.4 615.023 1763.34 614.959 1763.34 614.879L1763.84 614.878L1764.34 614.877C1764.34 614.406 1763.96 614.024 1763.49 614.023L1763.49 614.523ZM1763.84 614.878H1763.34V720.483H1763.84H1764.34V614.878H1763.84ZM1763.84 720.483L1763.34 720.483C1763.34 720.412 1763.39 720.355 1763.46 720.341L1763.56 720.831L1763.66 721.321C1764.05 721.241 1764.34 720.897 1764.34 720.483L1763.84 720.483ZM1763.56 720.831L1763.51 720.333L1763.44 720.34L1763.49 720.838L1763.53 721.336L1763.6 721.329L1763.56 720.831ZM1763.49 720.838V720.338H1638.32V720.838V721.338H1763.49V720.838ZM1638.32 720.838V720.338C1638.39 720.338 1638.45 720.388 1638.46 720.455L1637.97 720.555L1637.48 720.655C1637.56 721.045 1637.9 721.338 1638.32 721.338V720.838ZM1637.97 720.555L1638.47 720.507L1638.46 720.436L1637.96 720.483L1637.47 720.531L1637.47 720.602L1637.97 720.555ZM1637.96 720.483H1638.46V614.878H1637.96H1637.46V720.483H1637.96ZM1637.96 614.878L1638.46 614.879C1638.46 614.958 1638.4 615.023 1638.32 615.023V614.523V614.023C1637.85 614.023 1637.46 614.407 1637.46 614.877L1637.96 614.878ZM1638.32 614.523V615.023H1763.49V614.523V614.023H1638.32V614.523ZM1673.4 649.61V649.11C1672.93 649.11 1672.55 649.493 1672.55 649.965H1673.05H1673.55C1673.55 650.045 1673.48 650.11 1673.4 650.11V649.61ZM1673.05 649.965H1672.55V685.398H1673.05H1673.55V649.965H1673.05ZM1673.05 685.398L1672.55 685.446L1672.56 685.517L1673.05 685.47L1673.55 685.422L1673.55 685.351L1673.05 685.398ZM1673.05 685.47L1672.56 685.57C1672.64 685.96 1672.99 686.253 1673.4 686.253V685.753V685.253C1673.47 685.253 1673.53 685.303 1673.54 685.37L1673.05 685.47ZM1673.4 685.753V686.253H1728.39V685.753V685.253H1673.4V685.753ZM1728.39 685.753L1728.44 686.251L1728.51 686.244L1728.47 685.746L1728.42 685.248L1728.35 685.255L1728.39 685.753ZM1728.47 685.746L1728.57 686.236C1728.96 686.156 1729.25 685.812 1729.25 685.399L1728.75 685.398L1728.25 685.398C1728.25 685.327 1728.3 685.27 1728.37 685.256L1728.47 685.746ZM1728.75 685.398H1729.25V649.965H1728.75H1728.25V685.398H1728.75ZM1728.75 649.965H1729.25C1729.25 649.492 1728.87 649.111 1728.4 649.11L1728.39 649.61L1728.39 650.11C1728.31 650.11 1728.25 650.046 1728.25 649.965H1728.75ZM1728.39 649.61V649.11H1673.4V649.61V650.11H1728.39V649.61Z" fill="#286FCE"/>
<rect x="40" y="4" width="61.125" height="30" rx="3" fill="white"/>
<rect x="40.5" y="4.5" width="60.125" height="29" rx="2.5" stroke="black" stroke-opacity="0.2"/>
<path d="M51.3438 16C51.2969 15.6042 51.1068 15.2969 50.7734 15.0781C50.4401 14.8594 50.0313 14.75 49.5469 14.75C49.1927 14.75 48.8828 14.8073 48.6172 14.9219C48.3542 15.0365 48.1484 15.194 48 15.3945C47.8542 15.5951 47.7813 15.8229 47.7813 16.0781C47.7813 16.2917 47.832 16.4753 47.9336 16.6289C48.0378 16.7799 48.1706 16.9062 48.332 17.0078C48.4935 17.1068 48.6628 17.1888 48.8398 17.2539C49.0169 17.3164 49.1797 17.3672 49.3281 17.4062L50.1406 17.625C50.349 17.6797 50.5807 17.7552 50.8359 17.8516C51.0938 17.9479 51.3398 18.0794 51.5742 18.2461C51.8112 18.4102 52.0065 18.6211 52.1602 18.8789C52.3138 19.1367 52.3906 19.4531 52.3906 19.8281C52.3906 20.2604 52.2773 20.651 52.0508 21C51.8268 21.349 51.4987 21.6263 51.0664 21.832C50.6367 22.0378 50.1146 22.1406 49.5 22.1406C48.9271 22.1406 48.431 22.0482 48.0117 21.8633C47.5951 21.6784 47.2669 21.4206 47.0273 21.0898C46.7904 20.7591 46.6563 20.375 46.625 19.9375H47.625C47.651 20.2396 47.7526 20.4896 47.9297 20.6875C48.1094 20.8828 48.3359 21.0286 48.6094 21.125C48.8854 21.2187 49.1823 21.2656 49.5 21.2656C49.8698 21.2656 50.2018 21.2057 50.4961 21.0859C50.7904 20.9635 51.0234 20.7943 51.1953 20.5781C51.3672 20.3594 51.4531 20.1042 51.4531 19.8125C51.4531 19.5469 51.3789 19.3307 51.2305 19.1641C51.082 18.9974 50.8867 18.862 50.6445 18.7578C50.4023 18.6536 50.1406 18.5625 49.8594 18.4844L48.875 18.2031C48.25 18.0234 47.7552 17.7669 47.3906 17.4336C47.026 17.1003 46.8438 16.6641 46.8438 16.125C46.8438 15.6771 46.9648 15.2865 47.207 14.9531C47.4518 14.6172 47.7799 14.3568 48.1914 14.1719C48.6055 13.9844 49.0677 13.8906 49.5781 13.8906C50.0938 13.8906 50.5521 13.9831 50.9531 14.168C51.3542 14.3503 51.6719 14.6003 51.9062 14.918C52.1432 15.2357 52.2682 15.5964 52.2813 16H51.3438ZM56.374 22.125C55.7959 22.125 55.2972 21.9974 54.8779 21.7422C54.4613 21.4844 54.1396 21.125 53.9131 20.6641C53.6891 20.2005 53.5771 19.6615 53.5771 19.0469C53.5771 18.4323 53.6891 17.8906 53.9131 17.4219C54.1396 16.9505 54.4548 16.5833 54.8584 16.3203C55.2646 16.0547 55.7386 15.9219 56.2803 15.9219C56.5928 15.9219 56.9014 15.974 57.2061 16.0781C57.5107 16.1823 57.7881 16.3516 58.0381 16.5859C58.2881 16.8177 58.4873 17.125 58.6357 17.5078C58.7842 17.8906 58.8584 18.362 58.8584 18.9219V19.3125H54.2334V18.5156H57.9209C57.9209 18.1771 57.8532 17.875 57.7178 17.6094C57.585 17.3437 57.3949 17.1341 57.1475 16.9805C56.9027 16.8268 56.6136 16.75 56.2803 16.75C55.9131 16.75 55.5954 16.8411 55.3271 17.0234C55.0615 17.2031 54.8571 17.4375 54.7139 17.7266C54.5706 18.0156 54.499 18.3255 54.499 18.6562V19.1875C54.499 19.6406 54.5771 20.0247 54.7334 20.3398C54.8923 20.6523 55.1123 20.8906 55.3936 21.0547C55.6748 21.2161 56.0016 21.2969 56.374 21.2969C56.6162 21.2969 56.835 21.263 57.0303 21.1953C57.2282 21.125 57.3988 21.0208 57.542 20.8828C57.6852 20.7422 57.7959 20.5677 57.874 20.3594L58.7646 20.6094C58.6709 20.9115 58.5133 21.1771 58.292 21.4062C58.0706 21.6328 57.7972 21.8099 57.4717 21.9375C57.1462 22.0625 56.7803 22.125 56.374 22.125ZM62.6982 22.125C62.1357 22.125 61.6514 21.9922 61.2451 21.7266C60.8389 21.4609 60.5264 21.0951 60.3076 20.6289C60.0889 20.1628 59.9795 19.6302 59.9795 19.0312C59.9795 18.4219 60.0915 17.8841 60.3154 17.418C60.542 16.9492 60.8571 16.5833 61.2607 16.3203C61.667 16.0547 62.141 15.9219 62.6826 15.9219C63.1045 15.9219 63.4847 16 63.8232 16.1562C64.1618 16.3125 64.4391 16.5312 64.6553 16.8125C64.8714 17.0937 65.0055 17.4219 65.0576 17.7969H64.1357C64.0654 17.5234 63.9092 17.2812 63.667 17.0703C63.4274 16.8568 63.1045 16.75 62.6982 16.75C62.3389 16.75 62.0238 16.8437 61.7529 17.0312C61.4847 17.2161 61.2751 17.4779 61.124 17.8164C60.9756 18.1523 60.9014 18.5469 60.9014 19C60.9014 19.4635 60.9743 19.8672 61.1201 20.2109C61.2686 20.5547 61.4769 20.8216 61.7451 21.0117C62.016 21.2018 62.3337 21.2969 62.6982 21.2969C62.9378 21.2969 63.1553 21.2552 63.3506 21.1719C63.5459 21.0885 63.7113 20.9688 63.8467 20.8125C63.9821 20.6562 64.0785 20.4687 64.1357 20.25H65.0576C65.0055 20.6042 64.8766 20.9232 64.6709 21.207C64.4678 21.4883 64.1982 21.7122 63.8623 21.8789C63.529 22.043 63.141 22.125 62.6982 22.125ZM69.0146 16V16.7812H65.9053V16H69.0146ZM66.8115 14.5625H67.7334V20.2812C67.7334 20.5417 67.7712 20.737 67.8467 20.8672C67.9248 20.9948 68.0238 21.0807 68.1436 21.125C68.266 21.1667 68.3949 21.1875 68.5303 21.1875C68.6318 21.1875 68.7152 21.1823 68.7803 21.1719C68.8454 21.1589 68.8975 21.1484 68.9365 21.1406L69.124 21.9687C69.0615 21.9922 68.9743 22.0156 68.8623 22.0391C68.7503 22.0651 68.6084 22.0781 68.4365 22.0781C68.1761 22.0781 67.9209 22.0221 67.6709 21.9102C67.4235 21.7982 67.2178 21.6276 67.0537 21.3984C66.8923 21.1693 66.8115 20.8802 66.8115 20.5312V14.5625ZM70.4014 22V16H71.3232V22H70.4014ZM70.8701 15C70.6904 15 70.5355 14.9388 70.4053 14.8164C70.2777 14.694 70.2139 14.5469 70.2139 14.375C70.2139 14.2031 70.2777 14.056 70.4053 13.9336C70.5355 13.8112 70.6904 13.75 70.8701 13.75C71.0498 13.75 71.2035 13.8112 71.3311 13.9336C71.4613 14.056 71.5264 14.2031 71.5264 14.375C71.5264 14.5469 71.4613 14.694 71.3311 14.8164C71.2035 14.9388 71.0498 15 70.8701 15ZM75.4492 22.125C74.9076 22.125 74.4323 21.9961 74.0234 21.7383C73.6172 21.4805 73.2995 21.1198 73.0703 20.6562C72.8438 20.1927 72.7305 19.651 72.7305 19.0312C72.7305 18.4062 72.8438 17.8607 73.0703 17.3945C73.2995 16.9284 73.6172 16.5664 74.0234 16.3086C74.4323 16.0508 74.9076 15.9219 75.4492 15.9219C75.9909 15.9219 76.4648 16.0508 76.8711 16.3086C77.2799 16.5664 77.5977 16.9284 77.8242 17.3945C78.0534 17.8607 78.168 18.4062 78.168 19.0312C78.168 19.651 78.0534 20.1927 77.8242 20.6562C77.5977 21.1198 77.2799 21.4805 76.8711 21.7383C76.4648 21.9961 75.9909 22.125 75.4492 22.125ZM75.4492 21.2969C75.8607 21.2969 76.1992 21.1914 76.4648 20.9805C76.7305 20.7695 76.9271 20.4922 77.0547 20.1484C77.1823 19.8047 77.2461 19.4323 77.2461 19.0312C77.2461 18.6302 77.1823 18.2565 77.0547 17.9102C76.9271 17.5638 76.7305 17.2839 76.4648 17.0703C76.1992 16.8568 75.8607 16.75 75.4492 16.75C75.0378 16.75 74.6992 16.8568 74.4336 17.0703C74.168 17.2839 73.9714 17.5638 73.8438 17.9102C73.7161 18.2565 73.6523 18.6302 73.6523 19.0312C73.6523 19.4323 73.7161 19.8047 73.8438 20.1484C73.9714 20.4922 74.168 20.7695 74.4336 20.9805C74.6992 21.1914 75.0378 21.2969 75.4492 21.2969ZM80.4971 18.3906V22H79.5752V16H80.4658V16.9375H80.5439C80.6846 16.6328 80.8981 16.388 81.1846 16.2031C81.471 16.0156 81.8408 15.9219 82.2939 15.9219C82.7002 15.9219 83.0557 16.0052 83.3604 16.1719C83.665 16.3359 83.902 16.5859 84.0713 16.9219C84.2406 17.2552 84.3252 17.6771 84.3252 18.1875V22H83.4033V18.25C83.4033 17.7786 83.2809 17.4115 83.0361 17.1484C82.7913 16.8828 82.4554 16.75 82.0283 16.75C81.734 16.75 81.471 16.8138 81.2393 16.9414C81.0101 17.069 80.8291 17.2552 80.6963 17.5C80.5635 17.7448 80.4971 18.0417 80.4971 18.3906ZM91.7441 22.1094C91.416 22.1042 91.0879 22.0417 90.7598 21.9219C90.4316 21.8021 90.1322 21.6003 89.8613 21.3164C89.5905 21.0299 89.373 20.6432 89.209 20.1562C89.0449 19.6667 88.9629 19.0521 88.9629 18.3125C88.9629 17.6042 89.0293 16.9766 89.1621 16.4297C89.2949 15.8802 89.4876 15.418 89.7402 15.043C89.9928 14.6654 90.2975 14.3789 90.6543 14.1836C91.0137 13.9883 91.4186 13.8906 91.8691 13.8906C92.3171 13.8906 92.7155 13.9805 93.0645 14.1602C93.416 14.3372 93.7025 14.5846 93.9238 14.9023C94.1452 15.2201 94.2884 15.5859 94.3535 16H93.4004C93.3118 15.6406 93.14 15.3424 92.8848 15.1055C92.6296 14.8685 92.291 14.75 91.8691 14.75C91.2493 14.75 90.7611 15.0195 90.4043 15.5586C90.0501 16.0977 89.8717 16.8542 89.8691 17.8281H89.9316C90.0775 17.6068 90.2507 17.418 90.4512 17.2617C90.6543 17.1029 90.8783 16.9805 91.123 16.8945C91.3678 16.8086 91.627 16.7656 91.9004 16.7656C92.3587 16.7656 92.778 16.8802 93.1582 17.1094C93.5384 17.3359 93.8431 17.6497 94.0723 18.0508C94.3014 18.4492 94.416 18.9062 94.416 19.4219C94.416 19.9167 94.3053 20.3698 94.084 20.7812C93.8626 21.1901 93.5514 21.5156 93.1504 21.7578C92.752 21.9974 92.2832 22.1146 91.7441 22.1094ZM91.7441 21.25C92.0723 21.25 92.3665 21.168 92.627 21.0039C92.89 20.8398 93.097 20.6198 93.248 20.3437C93.4017 20.0677 93.4785 19.7604 93.4785 19.4219C93.4785 19.0911 93.4043 18.7904 93.2559 18.5195C93.11 18.2461 92.9082 18.0286 92.6504 17.8672C92.3952 17.7057 92.1035 17.625 91.7754 17.625C91.528 17.625 91.2975 17.6745 91.084 17.7734C90.8704 17.8698 90.6829 18.0026 90.5215 18.1719C90.3626 18.3411 90.2376 18.5352 90.1465 18.7539C90.0553 18.9701 90.0098 19.1979 90.0098 19.4375C90.0098 19.7552 90.084 20.0521 90.2324 20.3281C90.3835 20.6042 90.5892 20.8268 90.8496 20.9961C91.1126 21.1654 91.4108 21.25 91.7441 21.25Z" fill="black"/>
<defs>
<linearGradient id="paint0_linear_0_1" x1="1683.26" y1="511.621" x2="1683.26" y2="40" gradientUnits="userSpaceOnUse">
<stop stop-color="#50ACEE"/>
<stop offset="1" stop-color="#286FCE"/>
</linearGradient>
<linearGradient id="paint1_linear_0_1" x1="1841.18" y1="511.621" x2="1841.18" y2="279.887" gradientUnits="userSpaceOnUse">
<stop stop-color="#50ACEE"/>
<stop offset="1" stop-color="#286FCE"/>
</linearGradient>
<linearGradient id="paint2_linear_0_1" x1="340.609" y1="721.164" x2="340.609" y2="40" gradientUnits="userSpaceOnUse">
<stop stop-color="#50ACEE"/>
<stop offset="1" stop-color="#286FCE"/>
</linearGradient>
<linearGradient id="paint3_linear_0_1" x1="1016.93" y1="721.189" x2="1016.93" y2="40" gradientUnits="userSpaceOnUse">
<stop stop-color="#50ACEE"/>
<stop offset="1" stop-color="#286FCE"/>
</linearGradient>
</defs>
</svg>
