<svg width="459" height="374" viewBox="0 0 459 374" fill="none" xmlns="http://www.w3.org/2000/svg">
<path d="M186.837 373.333C155.616 373.362 124.887 365.559 97.4615 350.639C70.0365 335.719 46.7918 314.159 29.8549 287.931C12.918 261.704 2.82997 231.647 0.514238 200.512C-1.8015 169.378 3.729 138.159 16.5995 109.715C29.47 81.2704 49.2694 56.5085 74.1855 37.6955C99.1015 18.8826 128.338 6.61956 159.22 2.02894C190.101 -2.56169 221.641 0.666715 250.952 11.4186C280.263 22.1706 306.409 40.1026 326.997 63.5733C329.725 66.8176 331.074 71.0012 330.755 75.228C330.436 79.4548 328.474 83.3885 325.29 86.1866C323.695 87.5638 321.844 88.6124 319.843 89.2722C317.842 89.932 315.73 90.19 313.629 90.0314C311.527 89.8728 309.478 89.3008 307.599 88.3481C305.719 87.3954 304.047 86.0809 302.677 84.48C285.68 64.8818 264.026 49.8737 239.709 40.8371C215.392 31.8004 189.192 29.0254 163.521 32.7675C137.851 36.5096 113.534 46.6486 92.8083 62.2513C72.0829 77.854 55.6149 98.4191 44.9202 122.054C34.2254 145.689 29.6473 171.634 31.6073 197.502C33.5673 223.37 42.0023 248.329 56.1362 270.083C70.27 291.836 89.6486 309.686 112.488 321.987C135.328 334.289 160.895 340.648 186.837 340.48C208.775 340.525 230.468 335.864 250.452 326.811C270.435 317.758 288.244 304.523 302.677 288C304.047 286.399 305.719 285.085 307.599 284.132C309.478 283.179 311.527 282.607 313.629 282.449C315.73 282.29 317.842 282.548 319.843 283.208C321.844 283.868 323.695 284.916 325.29 286.293C328.474 289.091 330.436 293.025 330.755 297.252C331.074 301.479 329.725 305.662 326.997 308.907C309.611 329.056 288.099 345.237 263.918 356.352C239.737 367.467 213.45 373.258 186.837 373.333ZM378.837 266.667C376.734 266.677 374.651 266.267 372.71 265.461C370.768 264.655 369.007 263.469 367.53 261.973C364.534 258.973 362.851 254.907 362.851 250.667C362.851 246.427 364.534 242.36 367.53 239.36L420.223 186.667L367.53 133.973C364.704 130.94 363.165 126.929 363.238 122.784C363.311 118.638 364.99 114.684 367.922 111.752C370.853 108.821 374.808 107.141 378.953 107.068C383.098 106.995 387.11 108.534 390.143 111.36L454.143 175.36C457.139 178.36 458.822 182.427 458.822 186.667C458.822 190.907 457.139 194.973 454.143 197.973L390.143 261.973C388.666 263.469 386.905 264.655 384.963 265.461C383.022 266.267 380.939 266.677 378.837 266.667Z" fill="#095183"/>
<path d="M442.837 202.667H208.17C203.926 202.667 199.857 200.981 196.856 197.98C193.856 194.98 192.17 190.91 192.17 186.667C192.17 182.423 193.856 178.354 196.856 175.353C199.857 172.352 203.926 170.667 208.17 170.667H442.837C447.08 170.667 451.15 172.352 454.15 175.353C457.151 178.354 458.837 182.423 458.837 186.667C458.837 190.91 457.151 194.98 454.15 197.98C451.15 200.981 447.08 202.667 442.837 202.667Z" fill="#095183"/>
</svg>
