<svg width="204" height="204" viewBox="0 0 204 204" fill="none" xmlns="http://www.w3.org/2000/svg">
<rect width="204" height="204" rx="40" fill="#F3F7FF"/>
<path fill-rule="evenodd" clip-rule="evenodd" d="M122.161 106.716C122.169 106.499 122.103 106.286 121.973 106.112C121.843 105.939 121.658 105.815 121.447 105.762C121.237 105.709 121.015 105.73 120.818 105.821C120.621 105.913 120.462 106.069 120.367 106.264C117.223 112.717 110.946 118.073 106.157 120.468C105.963 120.565 105.808 120.725 105.719 120.922C105.629 121.119 105.609 121.341 105.663 121.55C105.717 121.76 105.841 121.944 106.015 122.073C106.189 122.202 106.402 122.268 106.618 122.259C108.821 122.172 111.723 122.321 115.12 123.113C115.364 123.17 115.62 123.128 115.833 122.996C116.045 122.864 116.197 122.653 116.255 122.41C117.23 118.287 120.053 116.861 122.303 116.354C122.424 116.327 122.539 116.275 122.64 116.203C122.742 116.131 122.828 116.04 122.894 115.934C122.96 115.828 123.005 115.711 123.025 115.588C123.046 115.465 123.042 115.339 123.014 115.218C122.351 112.435 122.064 109.575 122.161 106.716Z" fill="#2464ED" fill-opacity="0.65"/>
<path fill-rule="evenodd" clip-rule="evenodd" d="M76.8483 70.728C75.1203 71.5428 71.8306 74.4279 70.0251 77.5531C68.2706 80.5914 67.3461 84.089 67.3423 86.4712C67.3418 86.7219 67.4409 86.9626 67.6178 87.1402C67.7948 87.3178 68.035 87.4179 68.2857 87.4184C68.5364 87.4189 68.7771 87.3198 68.9547 87.1429C69.1323 86.966 69.2324 86.7257 69.2329 86.475C69.2367 84.3405 70.0913 81.2191 71.6624 78.4985C73.2562 75.7381 76.128 73.1574 77.6538 72.439C77.7661 72.3861 77.8669 72.3116 77.9505 72.2198C78.034 72.1279 78.0987 72.0205 78.1407 71.9037C78.1828 71.7868 78.2014 71.6629 78.1955 71.5388C78.1897 71.4148 78.1594 71.2931 78.1066 71.1808C78.0537 71.0684 77.9792 70.9676 77.8873 70.8841C77.7955 70.8005 77.6881 70.7358 77.5712 70.6938C77.4544 70.6518 77.3304 70.6331 77.2064 70.639C77.0824 70.6449 76.9607 70.6751 76.8483 70.728Z" fill="#738BAB" fill-opacity="0.78"/>
<path fill-rule="evenodd" clip-rule="evenodd" d="M70.2179 70.3157C81.2856 59.248 99.256 59.248 110.324 70.3157C121.391 81.3834 121.391 99.3538 110.324 110.422C99.256 121.489 81.2856 121.489 70.2179 110.422C61.1448 101.348 59.5094 87.6376 65.3117 76.8913C65.4308 76.6707 65.4574 76.4118 65.3856 76.1716C65.3138 75.9313 65.1495 75.7295 64.9288 75.6104C64.7082 75.4913 64.4493 75.4648 64.2091 75.5365C63.9689 75.6083 63.767 75.7726 63.648 75.9933C57.458 87.4542 59.2031 102.08 68.8812 111.758C80.6863 123.563 99.8553 123.563 111.66 111.758C123.465 99.9531 123.465 80.7841 111.66 68.979C99.8553 57.174 80.6863 57.174 68.8812 68.979C68.709 69.1573 68.6137 69.3961 68.6159 69.644C68.618 69.8918 68.7174 70.1289 68.8927 70.3042C69.068 70.4795 69.3051 70.5789 69.5529 70.581C69.8008 70.5832 70.0396 70.4879 70.2179 70.3157Z" fill="#738BAB" fill-opacity="0.78"/>
<path fill-rule="evenodd" clip-rule="evenodd" d="M123.214 98.9076C121.699 104.785 118.632 110.147 114.334 114.432C101.054 127.713 79.4875 127.713 66.2078 114.432C52.9261 101.152 52.9261 79.5854 66.2078 66.3057C79.4875 53.024 101.054 53.024 114.334 66.3057C117.604 69.569 120.173 73.4658 121.884 77.7571C123.595 82.0484 124.412 86.6439 124.284 91.2619C124.276 91.3887 124.294 91.5158 124.336 91.6356C124.378 91.7554 124.444 91.8654 124.53 91.9591C124.616 92.0528 124.72 92.1283 124.835 92.181C124.951 92.2337 125.076 92.2626 125.203 92.2659C125.33 92.2692 125.456 92.2469 125.574 92.2002C125.693 92.1536 125.8 92.0837 125.891 91.9945C125.981 91.9054 126.053 91.799 126.101 91.6815C126.15 91.5641 126.174 91.4381 126.173 91.3111C126.308 86.4363 125.446 81.5854 123.64 77.0554C121.834 72.5255 119.122 68.412 115.67 64.9671C101.651 50.9481 78.8882 50.9481 64.8692 64.9671C50.8502 78.9861 50.8502 101.751 64.8692 115.77C78.8882 129.789 101.651 129.789 115.67 115.77C120.208 111.246 123.445 105.585 125.044 99.3803C125.078 99.2591 125.088 99.1324 125.072 99.0074C125.057 98.8825 125.016 98.762 124.954 98.6528C124.891 98.5437 124.807 98.4482 124.707 98.3719C124.607 98.2957 124.492 98.2402 124.371 98.2087C124.249 98.1772 124.122 98.1704 123.997 98.1886C123.873 98.2069 123.753 98.2498 123.645 98.3149C123.537 98.38 123.444 98.466 123.37 98.5678C123.296 98.6695 123.243 98.7851 123.214 98.9076ZM156.292 145.695C156.196 146.037 156.068 146.368 155.908 146.686C155.177 148.054 153.679 149.953 151.766 151.864C149.855 153.777 147.957 155.275 146.588 156.006C146.271 156.166 145.939 156.294 145.597 156.39L123.127 133.92C122.949 133.748 122.71 133.653 122.462 133.655C122.214 133.657 121.977 133.756 121.802 133.932C121.627 134.107 121.527 134.344 121.525 134.592C121.523 134.84 121.618 135.078 121.79 135.257L144.413 157.88C144.811 158.279 145.62 158.472 146.72 158.033C148.221 157.432 150.664 155.641 153.103 153.203C155.544 150.762 157.334 148.319 157.933 146.818C158.374 145.718 158.179 144.908 157.782 144.511L130.377 117.107C128.605 115.334 126.2 114.338 123.693 114.338C121.186 114.338 118.782 115.334 117.009 117.107C115.236 118.88 114.24 121.284 114.24 123.791C114.24 126.298 115.236 128.703 117.009 130.475C117.187 130.648 117.426 130.743 117.674 130.741C117.922 130.739 118.159 130.639 118.334 130.464C118.509 130.289 118.609 130.052 118.611 129.804C118.613 129.556 118.518 129.317 118.346 129.139C117.643 128.436 117.086 127.603 116.706 126.685C116.326 125.768 116.13 124.784 116.13 123.791C116.13 122.798 116.326 121.815 116.706 120.897C117.086 119.979 117.643 119.146 118.346 118.443C119.048 117.741 119.881 117.184 120.799 116.804C121.717 116.424 122.7 116.228 123.693 116.228C124.686 116.228 125.67 116.424 126.587 116.804C127.505 117.184 128.339 117.741 129.041 118.443L156.292 145.695Z" fill="#738BAB" fill-opacity="0.78"/>
<path fill-rule="evenodd" clip-rule="evenodd" d="M85.8493 84.416C85.8058 82.6142 86.4808 81.2984 87.5263 80.527C89.1673 79.317 91.6176 79.368 92.9486 80.8673C93.5214 81.512 93.8523 82.4233 93.8618 83.5766C93.8844 86.3426 92.5875 87.959 91.317 89.6322C89.6078 91.8878 87.9006 94.2057 87.6889 98.0758C87.674 98.3244 87.7084 98.5736 87.7901 98.8089C87.8718 99.0443 87.9993 99.2611 88.1651 99.447C88.3309 99.633 88.5318 99.7843 88.7562 99.8923C88.9807 100 89.2243 100.063 89.4731 100.077C89.7218 100.09 89.9708 100.054 90.2057 99.9714C90.4406 99.8885 90.6568 99.7599 90.8418 99.5931C91.0269 99.4264 91.1772 99.2247 91.284 98.9996C91.3908 98.7746 91.4522 98.5307 91.4644 98.2819C91.6251 95.3419 93.0318 93.629 94.3306 91.9161C96.07 89.6228 97.6733 87.3351 97.643 83.5463C97.6241 81.3192 96.8811 79.6006 95.777 78.3566C93.1963 75.4526 88.4602 75.1387 85.2821 77.4831C83.3763 78.8897 81.9905 81.219 82.068 84.5049C82.0798 85.0063 82.2903 85.4825 82.6532 85.8287C83.0161 86.175 83.5017 86.3628 84.0031 86.3511C84.5045 86.3393 84.9807 86.1288 85.327 85.7659C85.6732 85.403 85.8611 84.9174 85.8493 84.416Z" fill="#2464ED" fill-opacity="0.65"/>
<path d="M89.4016 107.088C90.686 107.088 91.7271 106.047 91.7271 104.763C91.7271 103.479 90.686 102.438 89.4016 102.438C88.1173 102.438 87.0762 103.479 87.0762 104.763C87.0762 106.047 88.1173 107.088 89.4016 107.088Z" fill="#2464ED" fill-opacity="0.65"/>
<path fill-rule="evenodd" clip-rule="evenodd" d="M123.841 58.0645L129.513 48.6114C129.641 48.3985 129.726 48.1625 129.762 47.917C129.799 47.6714 129.787 47.421 129.726 47.1801C129.666 46.9393 129.559 46.7126 129.411 46.5131C129.263 46.3136 129.078 46.1452 128.865 46.0175C128.652 45.8897 128.416 45.8052 128.17 45.7686C127.925 45.7321 127.674 45.7443 127.434 45.8045C127.193 45.8647 126.966 45.9718 126.767 46.1196C126.567 46.2674 126.399 46.4531 126.271 46.666L120.599 56.1191C120.341 56.5491 120.264 57.0639 120.386 57.5504C120.508 58.0368 120.818 58.455 121.248 58.713C121.677 58.971 122.192 59.0476 122.679 58.926C123.165 58.8044 123.583 58.4945 123.841 58.0645ZM132.786 64.2941L153.583 49.1691C153.989 48.8743 154.26 48.4304 154.339 47.9351C154.417 47.4398 154.296 46.9336 154.001 46.5279C153.855 46.3271 153.671 46.1569 153.459 46.0272C153.247 45.8975 153.012 45.8108 152.767 45.772C152.271 45.6937 151.765 45.8153 151.359 46.1101L130.563 61.2351C130.157 61.53 129.885 61.9739 129.807 62.4692C129.728 62.9645 129.85 63.4707 130.145 63.8763C130.44 64.282 130.884 64.5539 131.379 64.6322C131.874 64.7106 132.38 64.589 132.786 64.2941ZM135.913 75.9423L151.038 72.161C151.283 72.1043 151.513 71.9995 151.717 71.8527C151.921 71.7059 152.093 71.52 152.224 71.3058C152.355 71.0917 152.442 70.8537 152.48 70.6056C152.518 70.3574 152.506 70.1042 152.445 69.8607C152.384 69.6172 152.276 69.3883 152.125 69.1872C151.975 68.9862 151.786 68.8171 151.57 68.6898C151.353 68.5625 151.114 68.4796 150.865 68.4458C150.617 68.4121 150.364 68.4282 150.121 68.4932L134.996 72.2745C134.517 72.403 134.108 72.7144 133.857 73.1417C133.605 73.5691 133.532 74.0781 133.652 74.5591C133.772 75.0401 134.077 75.4546 134.499 75.7133C134.922 75.9721 135.43 76.0543 135.913 75.9423Z" fill="#2464ED" fill-opacity="0.65"/>
</svg>
