<svg width="25" height="25" viewBox="0 0 25 25" fill="none" xmlns="http://www.w3.org/2000/svg">
<path fillRule="evenodd" clipRule="evenodd" d="M5.85518 16.118L7.03518 14.936C7.41318 14.558 7.62118 14.056 7.62118 13.522V8.845C7.62118 7.488 8.21118 6.191 9.24118 5.289C10.2792 4.379 11.6012 3.979 12.9782 4.16C15.3052 4.469 17.0602 6.573 17.0602 9.055V13.522C17.0602 14.056 17.2682 14.558 17.6452 14.935L18.8262 16.118H5.85518ZM14.3402 18.459C14.3402 19.358 13.4242 20.118 12.3402 20.118C11.2562 20.118 10.3402 19.358 10.3402 18.459V18.118H14.3402V18.459ZM20.8612 15.326L19.0602 13.522V9.055C19.0602 5.574 16.5582 2.617 13.2402 2.178C11.3182 1.922 9.37818 2.509 7.92318 3.785C6.45918 5.067 5.62118 6.911 5.62118 8.845L5.62018 13.522L3.81918 15.326C3.35018 15.796 3.21118 16.495 3.46518 17.108C3.72018 17.722 4.31318 18.118 4.97718 18.118H8.34018V18.459C8.34018 20.477 10.1342 22.118 12.3402 22.118C14.5462 22.118 16.3402 20.477 16.3402 18.459V18.118H19.7032C20.3672 18.118 20.9592 17.722 21.2132 17.109C21.4682 16.495 21.3302 15.795 20.8612 15.326Z" fill="black"/>
</svg>
