<svg width="14" height="13" viewBox="0 0 14 13" fill="none" xmlns="http://www.w3.org/2000/svg">
<path d="M2.31788 12L10.0619 0.832H11.6779L3.93388 12H2.31788ZM3.03788 6.976C2.17388 6.976 1.51254 6.70933 1.05388 6.176C0.595208 5.632 0.365875 4.84267 0.365875 3.808C0.365875 2.77333 0.595208 1.98933 1.05388 1.456C1.51254 0.911999 2.17388 0.639999 3.03788 0.639999C3.90188 0.639999 4.56321 0.911999 5.02188 1.456C5.48054 1.98933 5.70988 2.77333 5.70988 3.808C5.70988 4.84267 5.48054 5.632 5.02188 6.176C4.56321 6.70933 3.90188 6.976 3.03788 6.976ZM3.03788 5.904C3.79521 5.904 4.17388 5.35467 4.17388 4.256V3.36C4.17388 2.26133 3.79521 1.712 3.03788 1.712C2.28054 1.712 1.90188 2.26133 1.90188 3.36V4.256C1.90188 5.35467 2.28054 5.904 3.03788 5.904ZM10.9579 12.192C10.0939 12.192 9.43254 11.9253 8.97388 11.392C8.51521 10.848 8.28588 10.0587 8.28588 9.024C8.28588 7.98933 8.51521 7.20533 8.97388 6.672C9.43254 6.128 10.0939 5.856 10.9579 5.856C11.8219 5.856 12.4832 6.128 12.9419 6.672C13.4005 7.20533 13.6299 7.98933 13.6299 9.024C13.6299 10.0587 13.4005 10.848 12.9419 11.392C12.4832 11.9253 11.8219 12.192 10.9579 12.192ZM10.9579 11.12C11.7152 11.12 12.0939 10.5707 12.0939 9.472V8.576C12.0939 7.47733 11.7152 6.928 10.9579 6.928C10.2005 6.928 9.82188 7.47733 9.82188 8.576V9.472C9.82188 10.5707 10.2005 11.12 10.9579 11.12Z" fill="#111827"/>
</svg>
