<svg width="14" height="15" viewBox="0 0 14 15" fill="none" xmlns="http://www.w3.org/2000/svg">
<path fillRule="evenodd" clipRule="evenodd" d="M11.5157 3.246C11.3132 3.043 10.9848 3.043 10.7824 3.246L2.48623 11.5422C2.38473 11.6437 2.33398 11.7761 2.33398 11.9091C2.33398 12.0415 2.38473 12.1745 2.48623 12.2754C2.68865 12.4778 3.01648 12.4778 3.21948 12.2754L11.5157 3.97925C11.7181 3.77625 11.7181 3.44842 11.5157 3.246ZM9.33416 11.8439C8.85174 11.8439 8.45916 11.4513 8.45916 10.9689C8.45916 10.4865 8.85174 10.0939 9.33416 10.0939C9.81658 10.0939 10.2092 10.4865 10.2092 10.9689C10.2092 11.4513 9.81658 11.8439 9.33416 11.8439ZM9.33416 8.92726C8.20833 8.92726 7.29249 9.84309 7.29249 10.9689C7.29249 12.0948 8.20833 13.0106 9.33416 13.0106C10.46 13.0106 11.3758 12.0948 11.3758 10.9689C11.3758 9.84309 10.46 8.92726 9.33416 8.92726ZM4.66749 4.26059C5.14991 4.26059 5.54249 4.65317 5.54249 5.13559C5.54249 5.61801 5.14991 6.01059 4.66749 6.01059C4.18508 6.01059 3.79249 5.61801 3.79249 5.13559C3.79249 4.65317 4.18508 4.26059 4.66749 4.26059ZM4.66749 7.17726C5.79333 7.17726 6.70916 6.26142 6.70916 5.13559C6.70916 4.00976 5.79333 3.09392 4.66749 3.09392C3.54166 3.09392 2.62583 4.00976 2.62583 5.13559C2.62583 6.26142 3.54166 7.17726 4.66749 7.17726Z" fill="#fff"/>
</svg>
