<svg width="24" height="24" viewBox="0 0 24 24" fill="none" xmlns="http://www.w3.org/2000/svg">
<path d="M23.821 0.17898C23.7066 0.0645204 23.5516 0.000142413 23.3898 0L11.594 0.130167C11.5145 0.130329 11.4359 0.146227 11.3626 0.176946C11.2893 0.207665 11.2228 0.252597 11.1669 0.309148L0.611748 10.8324C0.407815 11.0391 0.24845 11.2855 0.143508 11.5562C0.0385649 11.827 -0.00972552 12.1164 0.00162191 12.4066C0.0167879 12.9885 0.255715 13.5421 0.668693 13.9523L10.0484 23.3325C10.4585 23.7455 11.0122 23.9845 11.594 23.9996H11.6388C11.9215 24.0049 12.2024 23.9536 12.465 23.8489C12.7276 23.7441 12.9667 23.5879 13.1681 23.3895L23.6908 12.854C23.7473 12.7982 23.7923 12.7317 23.823 12.6584C23.8537 12.5851 23.8696 12.5064 23.8698 12.4269L23.9999 0.61016C24.0012 0.529859 23.986 0.450144 23.9552 0.375969C23.9245 0.301793 23.8787 0.234742 23.821 0.17898ZM22.6536 12.1666L12.3058 22.5149C12.2187 22.6047 12.1134 22.6748 11.9969 22.7204C11.8804 22.766 11.7555 22.7861 11.6306 22.7793C11.3607 22.7742 11.1036 22.6631 10.9147 22.4702L1.53101 13.0859C1.33804 12.8971 1.22702 12.6399 1.22187 12.37C1.2181 12.2454 1.23957 12.1214 1.28501 12.0053C1.33045 11.8893 1.39891 11.7836 1.48626 11.6947L11.834 1.34642L22.7756 1.22439L22.6536 12.1666Z" fill="#111827"/>
<path d="M18.4092 8.60296H18.4702C18.8555 8.60867 19.2379 8.53611 19.5943 8.38966C19.9508 8.24322 20.2738 8.02594 20.5438 7.75098C20.8138 7.47603 21.0251 7.14913 21.1651 6.79008C21.305 6.43103 21.3706 6.0473 21.3579 5.66215C21.3403 4.86723 21.0167 4.10976 20.4545 3.54753C19.8923 2.9853 19.1349 2.66167 18.34 2.64406C17.9508 2.63252 17.5635 2.70092 17.2018 2.84504C16.8401 2.98916 16.5118 3.20594 16.2372 3.48196C15.9626 3.75757 15.7467 4.08604 15.6027 4.4475C15.4587 4.80896 15.3895 5.19589 15.3994 5.58487C15.4219 6.37603 15.7462 7.12861 16.3059 7.68827C16.8655 8.24794 17.618 8.57229 18.4092 8.59482V8.60296ZM17.1036 4.35241C17.2575 4.19734 17.4406 4.07434 17.6424 3.99056C17.8441 3.90677 18.0605 3.86386 18.279 3.86431H18.3156C18.7943 3.87861 19.2495 4.07519 19.5882 4.41387C19.9269 4.75256 20.1234 5.20779 20.1377 5.68655C20.1451 5.91192 20.1063 6.1364 20.0237 6.34623C19.9412 6.55606 19.8167 6.74682 19.6578 6.90681C19.4992 7.06782 19.3088 7.19402 19.0987 7.27736C18.8886 7.36069 18.6635 7.39934 18.4376 7.39084C17.9617 7.37462 17.5096 7.17829 17.1729 6.84153C16.8362 6.50477 16.6398 6.05271 16.6236 5.57673C16.616 5.35072 16.6546 5.12554 16.7371 4.915C16.8197 4.70446 16.9444 4.51302 17.1036 4.35241Z" fill="#111827"/>
</svg>
