<svg width="25" height="24" viewBox="0 0 25 24" fill="none" xmlns="http://www.w3.org/2000/svg">
<path id="Color" fillRule="evenodd" clipRule="evenodd" d="M5.04102 10.9835C5.04102 7.7932 7.73202 5.19875 11.041 5.19875C14.35 5.19875 17.041 7.7932 17.041 10.9835C17.041 14.1737 14.35 16.7682 11.041 16.7682C7.73202 16.7682 5.04102 14.1737 5.04102 10.9835ZM20.748 18.9789L17.353 15.7048C18.406 14.3994 19.041 12.7632 19.041 10.9835C19.041 6.73074 15.452 3.27051 11.041 3.27051C6.63002 3.27051 3.04102 6.73074 3.04102 10.9835C3.04102 15.2362 6.63002 18.6964 11.041 18.6964C12.887 18.6964 14.584 18.0842 15.938 17.069L19.334 20.3422C19.529 20.5302 19.785 20.6247 20.041 20.6247C20.297 20.6247 20.553 20.5302 20.748 20.3422C21.139 19.9652 21.139 19.3559 20.748 18.9789Z" />
</svg>
