<svg width="21" height="21" viewBox="0 0 21 21" fill="none" xmlns="http://www.w3.org/2000/svg">
<path fillRule="evenodd" clipRule="evenodd" d="M9.5791 18.5742H10.8301V17.8072C10.8301 16.8722 11.4051 16.0322 12.2941 15.6652C13.2141 15.2822 14.2191 15.4702 14.8811 16.1362L15.4201 16.6772L16.3081 15.7892L15.7631 15.2452C15.1001 14.5832 14.9131 13.5792 15.2861 12.6882C15.2861 12.6882 15.2871 12.6872 15.2871 12.6862L15.2981 12.6582C15.6621 11.7752 16.5031 11.1992 17.4381 11.1992H18.2041V9.94922H17.4381C16.5031 9.94922 15.6621 9.37422 15.2961 8.48522C14.9111 7.56522 15.1001 6.56022 15.7661 5.89722L16.3071 5.35822L15.4201 4.47122L14.8751 5.01622C14.2131 5.67822 13.2101 5.86522 12.3191 5.49322C11.4061 5.11622 10.8301 4.27622 10.8301 3.34122V2.57422H9.5791V3.34122C9.5791 4.27622 9.0041 5.11622 8.1151 5.48322C7.1961 5.86822 6.1911 5.67922 5.5281 5.01222L4.9891 4.47122L4.1011 5.35922L4.6461 5.90322C5.3081 6.56522 5.4961 7.56922 5.1231 8.46022C4.7471 9.37322 3.9061 9.94922 2.9711 9.94922H2.2041V11.1992H2.9711C3.9061 11.1992 4.7471 11.7742 5.1131 12.6632C5.4981 13.5832 5.3091 14.5882 4.6431 15.2512L4.1021 15.7902L4.9891 16.6772L5.5341 16.1322C6.1961 15.4702 7.1991 15.2832 8.0901 15.6552C9.0031 16.0322 9.5791 16.8722 9.5791 17.8072V18.5742ZM11.1471 20.5742H9.2551C8.3311 20.5742 7.5791 19.8222 7.5791 18.8982V17.8072C7.5791 17.6602 7.4621 17.5592 7.3521 17.5142C7.2081 17.4552 7.0541 17.4432 6.9481 17.5462L6.1781 18.3172C5.5221 18.9712 4.4561 18.9732 3.8011 18.3172L2.4611 16.9772C2.1431 16.6592 1.9691 16.2372 1.9691 15.7872C1.9701 15.3382 2.1451 14.9162 2.4641 14.5982L3.2321 13.8332C3.3371 13.7282 3.3261 13.5742 3.2791 13.4632C3.2191 13.3162 3.1191 13.1992 2.9711 13.1992H1.8871C0.959102 13.1992 0.204102 12.4452 0.204102 11.5172V9.62522C0.204102 8.70022 0.956102 7.94922 1.8811 7.94922H2.9711C3.1181 7.94922 3.2191 7.83122 3.2641 7.72122C3.3241 7.57722 3.3361 7.42222 3.2321 7.31822L2.4611 6.54822C1.8071 5.89122 1.8071 4.82522 2.4611 4.17122L3.8011 2.83122C4.1191 2.51322 4.5401 2.33922 4.9891 2.33922H4.9911C5.4401 2.33922 5.8631 2.51422 6.1801 2.83322L6.9451 3.60222C7.0501 3.70822 7.2051 3.69622 7.3161 3.64922C7.4621 3.58822 7.5791 3.48822 7.5791 3.34122V2.25722C7.5791 1.32922 8.3341 0.574219 9.2621 0.574219H11.1541C12.0781 0.574219 12.8301 1.32622 12.8301 2.25022V3.34122C12.8301 3.48822 12.9471 3.58922 13.0571 3.63422C13.2021 3.69422 13.3561 3.70722 13.4611 3.60222L14.2311 2.83122C14.8871 2.17722 15.9531 2.17522 16.6081 2.83122L17.9491 4.17222C18.2671 4.48922 18.4411 4.91122 18.4401 5.36122C18.4401 5.80922 18.2651 6.23222 17.9461 6.54922L17.1771 7.31522C17.0721 7.42022 17.0831 7.57422 17.1301 7.68522C17.1901 7.83222 17.2901 7.94922 17.4381 7.94922H18.5221C19.4501 7.94922 20.2041 8.70322 20.2041 9.63122V11.5232C20.2041 12.4482 19.4531 13.1992 18.5281 13.1992H17.4381C17.2911 13.1992 17.1901 13.3172 17.1451 13.4272C17.1441 13.4282 17.1321 13.4582 17.1311 13.4602C17.0851 13.5712 17.0731 13.7262 17.1771 13.8302L17.9481 14.6002C18.6021 15.2572 18.6021 16.3232 17.9481 16.9772L16.6081 18.3172C16.2901 18.6352 15.8691 18.8092 15.4201 18.8092H15.4181C14.9691 18.8092 14.5461 18.6342 14.2291 18.3152L13.4641 17.5462C13.3591 17.4412 13.2031 17.4532 13.0931 17.4992C12.9471 17.5602 12.8301 17.6602 12.8301 17.8072V18.8912C12.8301 19.8192 12.0751 20.5742 11.1471 20.5742ZM10.2046 9.07422C9.3776 9.07422 8.7046 9.74722 8.7046 10.5742C8.7046 11.4012 9.3776 12.0742 10.2046 12.0742C11.0316 12.0742 11.7046 11.4012 11.7046 10.5742C11.7046 9.74722 11.0316 9.07422 10.2046 9.07422ZM10.2046 14.0742C8.2746 14.0742 6.7046 12.5042 6.7046 10.5742C6.7046 8.64422 8.2746 7.07422 10.2046 7.07422C12.1346 7.07422 13.7046 8.64422 13.7046 10.5742C13.7046 12.5042 12.1346 14.0742 10.2046 14.0742Z" fill="#095183"/>
</svg>
