<svg width="25" height="21" viewBox="0 0 25 21" fill="none" xmlns="http://www.w3.org/2000/svg">
<path d="M4.88281 13.6078H7.8125C8.35186 13.6078 8.78907 13.1941 8.78907 12.6837C8.78907 12.1734 8.35186 11.7597 7.8125 11.7597H4.88281C4.34346 11.7597 3.90625 12.1734 3.90625 12.6837C3.90625 13.1941 4.34346 13.6078 4.88281 13.6078ZM4.88281 9.91163H7.8125C8.35186 9.91163 8.78907 9.49794 8.78907 8.9876C8.78907 8.47726 8.35186 8.06357 7.8125 8.06357H4.88281C4.34346 8.06357 3.90625 8.47726 3.90625 8.9876C3.90625 9.49794 4.34346 9.91163 4.88281 9.91163ZM10.6172 12.6837C10.6172 13.1941 11.0545 13.6078 11.5938 13.6078C13.6359 13.6078 15.5557 12.8553 16.9996 11.489L24.1412 4.73097C25.2862 3.64768 25.2864 1.8941 24.1412 0.810629C22.999 -0.270209 21.1404 -0.270209 19.998 0.810629L12.8564 7.56871C11.4125 8.93503 10.6172 10.7515 10.6172 12.6837ZM21.3792 2.11744C21.7598 1.75716 22.3795 1.75716 22.7602 2.11744C23.1418 2.47846 23.142 3.06304 22.7602 3.4242L15.6185 10.1823C14.8022 10.9548 13.7814 11.4637 12.6716 11.6639C12.8832 10.6139 13.4211 9.64801 14.2374 8.87552L21.3792 2.11744Z" fill="white"/>
<path d="M2.92969 21.0001C3.65021 21.0005 4.34553 20.7493 4.88243 20.2946L6.23238 19.1521H16.211C18.9034 19.1521 21.0938 17.0795 21.0938 14.5319V12.4592C21.0938 11.9488 20.6566 11.5352 20.1172 11.5352C19.5779 11.5352 19.1406 11.9488 19.1406 12.4592V14.5319C19.1406 16.0605 17.8264 17.304 16.211 17.304H5.85938C5.61916 17.304 5.38736 17.3878 5.20831 17.5393L3.58047 18.9171C3.40152 19.0686 3.16979 19.1522 2.92969 19.1521C2.39121 19.1521 1.95313 18.7376 1.95313 18.228V7.13968C1.95313 5.61115 3.26739 4.36759 4.88282 4.36759H13.0737C13.6131 4.36759 14.0503 3.9539 14.0503 3.44356C14.0503 2.93322 13.6131 2.51953 13.0737 2.51953H4.88282C2.19038 2.51953 0 4.59213 0 7.13968V18.228C0 19.7566 1.31426 21.0001 2.92969 21.0001Z" fill="white"/>
</svg>
