<svg width="24" height="24" viewBox="0 0 24 24" fill="none" xmlns="http://www.w3.org/2000/svg">
<path d="M16.499 14.9999C16.3664 14.9999 16.2392 14.9473 16.1455 14.8535C16.0517 14.7597 15.999 14.6326 15.999 14.4999V4.99998H2.49985C1.12093 4.99998 0 3.87799 0 2.49999C0 1.122 1.12093 0 2.49985 0H14.4991C14.6317 0 14.7589 0.0526782 14.8527 0.146446C14.9464 0.240214 14.9991 0.36739 14.9991 0.499998V3.99998H16.499C16.6316 3.99998 16.7588 4.05266 16.8525 4.14643C16.9463 4.2402 16.999 4.36737 16.999 4.49998V14.4999C16.999 14.6326 16.9463 14.7597 16.8525 14.8535C16.7588 14.9473 16.6316 14.9999 16.499 14.9999ZM2.49985 0.999996C1.6729 0.999996 0.999939 1.67299 0.999939 2.49999C0.999939 3.32699 1.6729 3.99998 2.49985 3.99998H13.9992V0.999996H2.49985Z" fill="#111827"/>
<path d="M10.4994 21.9999H2.49985C1.83709 21.9991 1.20171 21.7355 0.733066 21.2668C0.264425 20.7981 0.000793881 20.1627 0 19.4999L0 2.5C0 2.36739 0.0526752 2.24021 0.146438 2.14645C0.2402 2.05268 0.36737 2 0.49997 2C0.63257 2 0.759739 2.05268 0.853502 2.14645C0.947264 2.24021 0.999939 2.36739 0.999939 2.5V19.4999C0.999939 20.3269 1.6729 20.9999 2.49985 20.9999H10.4994C10.632 20.9999 10.7591 21.0526 10.8529 21.1464C10.9467 21.2401 10.9993 21.3673 10.9993 21.4999C10.9993 21.6325 10.9467 21.7597 10.8529 21.8535C10.7591 21.9472 10.632 21.9999 10.4994 21.9999ZM13.4992 23.9999C13.3666 23.9999 13.2394 23.9472 13.1456 23.8535C13.0519 23.7597 12.9992 23.6325 12.9992 23.4999V17.4999C12.9992 17.3673 13.0519 17.2402 13.1456 17.1464C13.2394 17.0526 13.3666 16.9999 13.4992 16.9999C13.6318 16.9999 13.759 17.0526 13.8527 17.1464C13.9465 17.2402 13.9992 17.3673 13.9992 17.4999V23.4999C13.9992 23.6325 13.9465 23.7597 13.8527 23.8535C13.759 23.9472 13.6318 23.9999 13.4992 23.9999ZM18.4989 23.9999H15.4991C15.3665 23.9999 15.2393 23.9472 15.1455 23.8535C15.0518 23.7597 14.9991 23.6325 14.9991 23.4999V22.4999C14.9991 21.1219 16.12 19.9999 17.4989 19.9999C17.6315 19.9999 17.7587 19.9473 17.8525 19.8535C17.9462 19.7597 17.9989 19.6325 17.9989 19.4999V18.4999C17.9989 18.3673 17.9462 18.2402 17.8525 18.1464C17.7587 18.0526 17.6315 17.9999 17.4989 17.9999H15.4991C15.3665 17.9999 15.2393 17.9473 15.1455 17.8535C15.0518 17.7597 14.9991 17.6325 14.9991 17.4999C14.9991 17.3673 15.0518 17.2402 15.1455 17.1464C15.2393 17.0526 15.3665 16.9999 15.4991 16.9999H17.4989C18.3259 16.9999 18.9988 17.6729 18.9988 18.4999V19.4999C18.9988 20.3269 18.3259 20.9999 17.4989 20.9999C16.672 20.9999 15.999 21.6729 15.999 22.4999V22.9999H18.4989C18.6315 22.9999 18.7586 23.0526 18.8524 23.1464C18.9462 23.2401 18.9988 23.3673 18.9988 23.4999C18.9988 23.6325 18.9462 23.7597 18.8524 23.8535C18.7586 23.9472 18.6315 23.9999 18.4989 23.9999ZM22.4986 23.9999H20.4988C20.3662 23.9999 20.239 23.9472 20.1452 23.8535C20.0515 23.7597 19.9988 23.6325 19.9988 23.4999C19.9988 23.3673 20.0515 23.2401 20.1452 23.1464C20.239 23.0526 20.3662 22.9999 20.4988 22.9999H22.4986C22.6312 22.9999 22.7584 22.9472 22.8522 22.8535C22.9459 22.7597 22.9986 22.6325 22.9986 22.4999V21.4999C22.9986 21.3673 22.9459 21.2401 22.8522 21.1464C22.7584 21.0526 22.6312 20.9999 22.4986 20.9999H20.4988C20.3662 20.9999 20.239 20.9473 20.1452 20.8535C20.0515 20.7597 19.9988 20.6325 19.9988 20.4999C19.9988 20.3673 20.0515 20.2401 20.1452 20.1464C20.239 20.0526 20.3662 19.9999 20.4988 19.9999H22.4986C23.3256 19.9999 23.9985 20.6729 23.9985 21.4999V22.4999C23.9985 23.3269 23.3256 23.9999 22.4986 23.9999Z" fill="#111827"/>
<path d="M22.4998 21H20.5C20.3674 21 20.2402 20.9473 20.1464 20.8535C20.0527 20.7598 20 20.6326 20 20.5C20 20.3674 20.0527 20.2402 20.1464 20.1464C20.2402 20.0527 20.3674 20 20.5 20H22.4998C22.6324 20 22.7596 19.9473 22.8534 19.8535C22.9471 19.7598 22.9998 19.6326 22.9998 19.5V18.5C22.9998 18.3674 22.9471 18.2402 22.8534 18.1464C22.7596 18.0527 22.6324 18 22.4998 18H20.5C20.3674 18 20.2402 17.9473 20.1464 17.8536C20.0527 17.7598 20 17.6326 20 17.5C20 17.3674 20.0527 17.2402 20.1464 17.1464C20.2402 17.0527 20.3674 17 20.5 17H22.4998C23.3268 17 23.9998 17.673 23.9998 18.5V19.5C23.9998 20.327 23.3268 21 22.4998 21Z" fill="#111827"/>
</svg>
