<svg width="23" height="23" viewBox="0 0 23 23" fill="none" xmlns="http://www.w3.org/2000/svg">
<path d="M22.8284 0.171513C22.7189 0.0618286 22.5702 0.000136472 22.4152 0L11.1109 0.124737C11.0348 0.124891 10.9594 0.140127 10.8891 0.169564C10.8189 0.199002 10.7552 0.242058 10.7016 0.29625L0.586259 10.3805C0.390822 10.5786 0.238098 10.8146 0.137528 11.0741C0.036958 11.3336 -0.00932029 11.6109 0.00155433 11.889C0.0160884 12.4466 0.245061 12.9772 0.640831 13.3702L9.62969 22.3591C10.0228 22.7549 10.5533 22.9838 11.1109 22.9984H11.1538C11.4247 23.0034 11.6939 22.9543 11.9456 22.8539C12.1973 22.7535 12.4264 22.6038 12.6195 22.4137L22.7037 12.3178C22.7579 12.2642 22.8009 12.2005 22.8304 12.1303C22.8598 12.06 22.875 11.9846 22.8752 11.9085L22.9999 0.584704C23.0012 0.507753 22.9866 0.431364 22.9571 0.360283C22.9276 0.289202 22.8838 0.224948 22.8284 0.171513ZM21.7097 11.659L11.7931 21.5756C11.7096 21.6616 11.6087 21.7288 11.4971 21.7725C11.3854 21.8162 11.2657 21.8355 11.146 21.829C10.8873 21.824 10.6409 21.7176 10.46 21.5327L1.46721 12.54C1.28229 12.359 1.17589 12.1126 1.17096 11.8539C1.16734 11.7345 1.18792 11.6157 1.23147 11.5045C1.27501 11.3933 1.34062 11.292 1.42433 11.2068L11.3409 1.29025L21.8266 1.17331L21.7097 11.659Z" fill="#095183"/>
<path d="M17.6431 8.24421H17.7015C18.0708 8.24969 18.4373 8.18015 18.7789 8.03981C19.1205 7.89948 19.43 7.69126 19.6887 7.42778C19.9475 7.1643 20.1501 6.85103 20.2842 6.50696C20.4183 6.16289 20.4812 5.79518 20.469 5.42609C20.4521 4.66434 20.142 3.93847 19.6032 3.39969C19.0644 2.86092 18.3386 2.55079 17.5768 2.53391C17.2039 2.52286 16.8326 2.58841 16.486 2.72651C16.1394 2.86462 15.8248 3.07235 15.5616 3.33686C15.2984 3.60097 15.0916 3.91574 14.9536 4.26212C14.8155 4.6085 14.7492 4.97929 14.7587 5.35203C14.7803 6.11019 15.0911 6.83137 15.6274 7.36769C16.1637 7.904 16.8849 8.21482 17.6431 8.23641V8.24421ZM16.3919 4.17099C16.5394 4.02239 16.7149 3.90453 16.9082 3.82424C17.1016 3.74395 17.309 3.70283 17.5184 3.70326H17.5534C18.0122 3.71696 18.4485 3.90534 18.773 4.22989C19.0976 4.55445 19.2859 4.99069 19.2997 5.44948C19.3067 5.66544 19.2695 5.88055 19.1904 6.08163C19.1113 6.28271 18.992 6.46551 18.8397 6.61882C18.6877 6.77312 18.5052 6.89405 18.3039 6.97391C18.1026 7.05377 17.8868 7.09081 17.6704 7.08266C17.2142 7.06712 16.781 6.87898 16.4583 6.55627C16.1356 6.23356 15.9475 5.80035 15.9319 5.34424C15.9246 5.12766 15.9617 4.91187 16.0407 4.71011C16.1198 4.50836 16.2393 4.3249 16.3919 4.17099Z" fill="#095183"/>
</svg>
