<svg width="25" height="25" viewBox="0 0 25 25" fill="none" xmlns="http://www.w3.org/2000/svg">
<path fillRule="evenodd" clipRule="evenodd" d="M15.9541 12.5H13.9541V10.5C13.9541 9.947 13.5061 9.5 12.9541 9.5C12.4021 9.5 11.9541 9.947 11.9541 10.5V13.5C11.9541 14.053 12.4021 14.5 12.9541 14.5H15.9541C16.5061 14.5 16.9541 14.053 16.9541 13.5C16.9541 12.947 16.5061 12.5 15.9541 12.5ZM12.9541 20.25C9.2321 20.25 6.2041 17.222 6.2041 13.5C6.2041 9.778 9.2321 6.75 12.9541 6.75C16.6761 6.75 19.7041 9.778 19.7041 13.5C19.7041 17.222 16.6761 20.25 12.9541 20.25ZM13.9421 4.558C13.9441 4.537 13.9541 4.521 13.9541 4.5V3.5H14.9541C15.5061 3.5 15.9541 3.053 15.9541 2.5C15.9541 1.947 15.5061 1.5 14.9541 1.5H10.9541C10.4021 1.5 9.9541 1.947 9.9541 2.5C9.9541 3.053 10.4021 3.5 10.9541 3.5H11.9541V4.5C11.9541 4.521 11.9641 4.537 11.9661 4.558C7.4671 5.052 3.9541 8.872 3.9541 13.5C3.9541 18.463 7.9921 22.5 12.9541 22.5C17.9161 22.5 21.9541 18.463 21.9541 13.5C21.9541 8.872 18.4411 5.052 13.9421 4.558Z" fill="black"/>
</svg>
