<svg width="21" height="21" viewBox="0 0 21 21" fill="none" xmlns="http://www.w3.org/2000/svg">
<path id="Color" fillRule="evenodd" clipRule="evenodd" d="M16.0566 17.7572C16.0566 18.3082 15.6086 18.7572 15.0566 18.7572H5.05664C4.50464 18.7572 4.05664 18.3082 4.05664 17.7572V6.7572H16.0566V17.7572ZM8.05664 3.0852C8.05664 2.9302 8.27064 2.7572 8.55664 2.7572H11.5566C11.8426 2.7572 12.0566 2.9302 12.0566 3.0852V4.7572H8.05664V3.0852ZM19.0566 4.7572H18.0566H14.0566V3.0852C14.0566 1.8012 12.9356 0.757202 11.5566 0.757202H8.55664C7.17764 0.757202 6.05664 1.8012 6.05664 3.0852V4.7572H2.05664H1.05664C0.506641 4.7572 0.0566406 5.2072 0.0566406 5.7572C0.0566406 6.3072 0.506641 6.7572 1.05664 6.7572H2.05664V17.7572C2.05664 19.4112 3.40264 20.7572 5.05664 20.7572H15.0566C16.7106 20.7572 18.0566 19.4112 18.0566 17.7572V6.7572H19.0566C19.6066 6.7572 20.0566 6.3072 20.0566 5.7572C20.0566 5.2072 19.6066 4.7572 19.0566 4.7572Z" fill="black"/>
</svg>
