<svg width="20" height="21" viewBox="0 0 20 21" fill="none" xmlns="http://www.w3.org/2000/svg">
<path fillRule="evenodd" clipRule="evenodd" 
d="M17.4947 6.56324C17.4931 6.50324 17.4756 6.44658 17.4597 6.38908C17.4472 6.34074 17.4414 6.29158 17.4206 6.24741C17.4014 6.20408 17.3689 6.16908 17.3406 6.12908C17.3056 6.07824 17.2739 6.02741 17.2289 5.98574C17.2214 5.97824 17.2181 5.96824 17.2097 5.96158C17.1797 5.93574 17.1431 5.92658 17.1106 5.90574C17.0606 5.87324 17.0114 5.83991 16.9547 5.81824C16.8989 5.79824 16.8439 5.79324 16.7864 5.78491C16.7464 5.77908 16.7106 5.76074 16.6681 5.76074H12.5014C12.0406 5.76074 11.6681 6.13408 11.6681 6.59408C11.6681 7.05408 12.0406 7.42741 12.5014 7.42741H14.8564L11.4931 11.3507L7.92972 9.21324C7.57722 8.99991 7.12389 9.07824 6.86056 9.39408L2.69389 14.3941C2.39972 14.7474 2.44722 15.2732 2.80056 15.5674C2.95722 15.6974 3.14556 15.7607 3.33389 15.7607C3.57306 15.7607 3.80972 15.6591 3.97472 15.4607L7.68472 11.0091L11.2389 13.1424C11.5881 13.3516 12.0364 13.2782 12.3006 12.9699L15.8347 8.84658V10.7607C15.8347 11.2207 16.2072 11.5941 16.6681 11.5941C17.1289 11.5941 17.5014 11.2207 17.5014 10.7607V6.59408C17.5014 6.58324 17.4956 6.57408 17.4947 6.56324Z" fill="black"/>
</svg>
