<svg width="73" height="62" viewBox="0 0 93 82" fill="none" xmlns="http://www.w3.org/2000/svg">
<path d="M75.6354 22.4516C74.641 16.5423 71.715 11.1493 67.24 7.05676C62.2677 2.50524 55.8038 0 49.0722 0C43.8705 0 38.8026 1.49167 34.4614 4.3029C30.847 6.63603 27.8445 9.79149 25.7218 13.5015C24.8038 13.3294 23.8476 13.2338 22.8914 13.2338C14.7637 13.2338 8.14682 19.8507 8.14682 27.9784C8.14682 29.0302 8.26157 30.0438 8.45281 31.0382C3.19371 34.863 0 41.021 0 47.5805C0 52.8779 1.96977 58.0222 5.56508 62.0956C9.25602 66.2647 14.1326 68.7316 19.3344 69.0185H35.934C37.3683 69.0185 38.5157 67.8711 38.5157 66.4368C38.5157 65.0025 37.3683 63.855 35.934 63.855H19.5639C11.7421 63.3769 5.16348 55.9377 5.16348 47.5614C5.16348 42.1493 8.07033 37.1006 12.7557 34.3658C13.8458 33.7347 14.3048 32.4152 13.884 31.2295C13.5015 30.1968 13.3103 29.1067 13.3103 27.9402C13.3103 22.6619 17.6132 18.359 22.8914 18.359C24.0197 18.359 25.1289 18.5503 26.1616 18.9328C27.4238 19.3917 28.8199 18.818 29.3936 17.6132C32.9698 10.021 40.6959 5.12523 49.0913 5.12523C60.3745 5.12523 69.6879 13.578 70.7588 24.7847C70.8735 25.9513 71.7532 26.8883 72.9007 27.0796C81.4109 28.533 87.8365 36.393 87.8365 45.3621C87.8365 54.8668 80.359 63.1283 71.1413 63.8359H57.0469C55.6126 63.8359 54.4651 64.9833 54.4651 66.4176C54.4651 67.8519 55.6126 68.9994 57.0469 68.9994H71.4281C77.261 68.5787 82.7113 65.9013 86.7656 61.4263C90.8007 56.9895 93 51.2906 93 45.3621C92.9809 34.6336 85.6564 25.0907 75.6354 22.4516Z" fill="#111827"/>
<path d="M62.2282 54.7296C63.2573 53.9604 63.2573 52.7267 62.2282 51.9575L48.3447 41.5805C47.8592 41.2177 47.1796 41 46.5 41C45.8204 41 45.1408 41.2032 44.6553 41.5805L30.7718 51.9575C29.7427 52.7267 29.7427 53.9604 30.7718 54.7296C31.2767 55.1069 31.9563 55.3101 32.6165 55.3101C33.2767 55.3101 33.9563 55.1214 34.4612 54.7296L43.8786 47.6906V80.0407C43.8786 81.1292 45.0437 82 46.5 82C47.9563 82 49.1214 81.1292 49.1214 80.0407V47.6906L58.5388 54.7296C59.5485 55.4988 61.199 55.4988 62.2282 54.7296Z" fill="#111827"/>
</svg>
