<svg width="26" height="26" viewBox="0 0 26 26" fill="none" xmlns="http://www.w3.org/2000/svg">
<path d="M18.8815 7.11916L17.5448 3.9077M20.3599 5.64068L19.0231 2.42926M17.4637 8.5371L16.1269 5.32563C16.0902 5.23733 16.0805 5.14009 16.099 5.04626C16.1176 4.95243 16.1636 4.86623 16.2313 4.7986L19.8879 1.14176C20.1309 0.898667 20.543 0.980228 20.6751 1.29764L21.8589 4.14157L17.4637 8.5371Z" stroke="#095183" stroke-miterlimit="10" stroke-linecap="round" stroke-linejoin="round"/>
<path d="M21.8605 4.14153L24.7042 5.32545C25.0216 5.45757 25.1032 5.86963 24.8601 6.11272L21.2035 9.76956C21.1359 9.83721 21.0497 9.88324 20.9559 9.90182C20.8621 9.9204 20.7648 9.91069 20.6765 9.87391L17.4653 8.53706L21.8605 4.14153ZM21.8605 4.14153L13.0025 13.0002M18.8832 7.11913L22.0944 8.45598M20.3616 5.64064L23.5727 6.97754M5.71875 3.46316C7.73843 1.91812 10.2633 1.00018 13.0025 1.00018C15.0324 1.00018 16.9446 1.50428 18.6207 2.39412" stroke="#095183" stroke-miterlimit="10" stroke-linecap="round" stroke-linejoin="round"/>
<path d="M23.7124 7.58968C24.5349 9.21541 24.9983 11.0537 24.9983 13.0002C24.9983 19.6276 19.6261 25.0002 12.9992 25.0002C6.3722 25.0002 1 19.6276 1 13.0002C1 9.73858 2.30113 6.78093 4.41259 4.61803" stroke="#095183" stroke-miterlimit="10" stroke-linecap="round" stroke-linejoin="round"/>
<path d="M20.7688 17.4161C19.2318 20.1129 16.3306 21.9312 13.0046 21.9312C8.07248 21.9312 4.07422 17.9327 4.07422 13.0002C4.07422 8.06774 8.07248 4.0692 13.0046 4.0692C14.1473 4.0692 15.2399 4.28385 16.2443 4.67504M21.3292 9.76034C21.7203 10.7648 21.935 11.8574 21.935 13.0002C21.935 13.999 21.771 14.9595 21.4686 15.8562" stroke="#095183" stroke-miterlimit="10" stroke-linecap="round" stroke-linejoin="round"/>
<path d="M12.996 19.1217C16.3766 19.1217 19.1171 16.381 19.1171 13.0002C19.1171 9.61942 16.3766 6.87875 12.996 6.87875C9.61548 6.87875 6.875 9.61942 6.875 13.0002C6.875 16.381 9.61548 19.1217 12.996 19.1217Z" stroke="#095183" stroke-miterlimit="10" stroke-linecap="round" stroke-linejoin="round"/>
<path d="M13.0013 16.24C14.7905 16.24 16.2409 14.7895 16.2409 13.0002C16.2409 11.2109 14.7905 9.76042 13.0013 9.76042C11.2121 9.76042 9.76172 11.2109 9.76172 13.0002C9.76172 14.7895 11.2121 16.24 13.0013 16.24Z" stroke="#095183" stroke-miterlimit="10" stroke-linecap="round" stroke-linejoin="round"/>
</svg>
