<svg width="43" height="44" viewBox="0 0 43 44" fill="none" xmlns="http://www.w3.org/2000/svg">
<path fillRule="evenodd" clipRule="evenodd" d="M26.8757 20.0559H23.2923V16.4726C23.2923 15.4872 22.4861 14.6809 21.5007 14.6809C20.5152 14.6809 19.709 15.4872 19.709 16.4726V20.0559H16.1257C15.1402 20.0559 14.334 20.8622 14.334 21.8476C14.334 22.833 15.1402 23.6392 16.1257 23.6392H19.709V27.2226C19.709 28.208 20.5152 29.0142 21.5007 29.0142C22.4861 29.0142 23.2923 28.208 23.2923 27.2226V23.6392H26.8757C27.8611 23.6392 28.6673 22.833 28.6673 21.8476C28.6673 20.8622 27.8611 20.0559 26.8757 20.0559ZM21.5007 36.1809C13.5976 36.1809 7.16732 29.7506 7.16732 21.8476C7.16732 13.9445 13.5976 7.51424 21.5007 7.51424C29.4037 7.51424 35.834 13.9445 35.834 21.8476C35.834 29.7506 29.4037 36.1809 21.5007 36.1809ZM21.5007 3.93091C11.6214 3.93091 3.58398 11.9683 3.58398 21.8476C3.58398 31.7268 11.6214 39.7642 21.5007 39.7642C31.3799 39.7642 39.4173 31.7268 39.4173 21.8476C39.4173 11.9683 31.3799 3.93091 21.5007 3.93091Z" fill="#111827"/>
</svg>
