<svg width="21" height="21" viewBox="0 0 21 21" fill="none" xmlns="http://www.w3.org/2000/svg">
<path fillRule="evenodd" clipRule="evenodd" d="M13.541 7.34769C13.15 6.95669 12.518 6.95669 12.127 7.34769L10.834 8.64069L9.54098 7.34769C9.14998 6.95669 8.51798 6.95669 8.12698 7.34769C7.73598 7.73869 7.73598 8.37069 8.12698 8.76169L9.41998 10.0547L8.12698 11.3477C7.73598 11.7387 7.73598 12.3707 8.12698 12.7617C8.32198 12.9567 8.57798 13.0547 8.83398 13.0547C9.08998 13.0547 9.34598 12.9567 9.54098 12.7617L10.834 11.4687L12.127 12.7617C12.322 12.9567 12.578 13.0547 12.834 13.0547C13.09 13.0547 13.346 12.9567 13.541 12.7617C13.932 12.3707 13.932 11.7387 13.541 11.3477L12.248 10.0547L13.541 8.76169C13.932 8.37069 13.932 7.73869 13.541 7.34769ZM10.834 18.0547C6.42298 18.0547 2.83398 14.4657 2.83398 10.0547C2.83398 5.64369 6.42298 2.05469 10.834 2.05469C15.245 2.05469 18.834 5.64369 18.834 10.0547C18.834 14.4657 15.245 18.0547 10.834 18.0547ZM10.834 0.0546875C5.31998 0.0546875 0.833984 4.54069 0.833984 10.0547C0.833984 15.5687 5.31998 20.0547 10.834 20.0547C16.348 20.0547 20.834 15.5687 20.834 10.0547C20.834 4.54069 16.348 0.0546875 10.834 0.0546875Z" fill="black"/>
</svg>
