<svg width="51" height="67" viewBox="0 0 51 67" fill="none" xmlns="http://www.w3.org/2000/svg">
<path d="M8.71592 0H31.1336L50.11 19.7984V58.2841C50.11 63.0982 46.2081 67 41.3941 67H8.71592C3.9018 67 0 63.0981 0 58.2841V8.71592C0 3.90189 3.9018 0 8.71592 0Z" fill="#0263D1"/>
<path fillRule="evenodd" clipRule="evenodd" d="M31.1055 0V19.6357H50.109L31.1055 0Z" fill="#6EAEF5"/>
<path d="M8.0918 47.8077V36.7163H12.0208C12.8065 36.7163 13.5382 36.8337 14.2156 37.0505C14.893 37.2763 15.5072 37.6015 16.0582 38.0351C16.6091 38.4686 17.0427 39.0467 17.3588 39.7692C17.6749 40.4917 17.8375 41.3227 17.8375 42.262C17.8375 43.2013 17.6749 44.0323 17.3588 44.7548C17.0427 45.4774 16.6091 46.0555 16.0582 46.489C15.5073 46.9225 14.893 47.2477 14.2156 47.4735C13.5382 47.6903 12.8066 47.8077 12.0208 47.8077H8.0918ZM10.8646 45.3962H11.6866C12.1291 45.3962 12.5446 45.342 12.9149 45.2426C13.2942 45.1343 13.6374 44.9627 13.9626 44.7368C14.2877 44.5109 14.5406 44.1859 14.7212 43.7613C14.911 43.3459 15.0012 42.84 15.0012 42.262C15.0012 41.684 14.9109 41.1782 14.7212 40.7537C14.5406 40.3382 14.2877 40.013 13.9626 39.7872C13.6374 39.5524 13.2942 39.3899 12.9149 39.2814C12.5446 39.182 12.1291 39.1279 11.6866 39.1279H10.8646V45.3962ZM24.5664 47.9342C22.8955 47.9342 21.5136 47.3922 20.4207 46.3175C19.3278 45.2426 18.7858 43.8878 18.7858 42.2621C18.7858 40.6363 19.3278 39.2815 20.4207 38.2067C21.5136 37.1319 22.8955 36.59 24.5664 36.59C26.2102 36.59 27.5741 37.132 28.6669 38.2067C29.7508 39.2816 30.2927 40.6364 30.2927 42.2621C30.2927 43.8878 29.7508 45.2427 28.6669 46.3175C27.5741 47.3922 26.2102 47.9342 24.5664 47.9342ZM22.4348 44.6014C22.9857 45.2155 23.6902 45.5227 24.5483 45.5227C25.4063 45.5227 26.1018 45.2155 26.6528 44.6014C27.2037 43.9781 27.4747 43.2013 27.4747 42.262C27.4747 41.3227 27.2037 40.5459 26.6528 39.9227C26.1018 39.3085 25.4063 39.0014 24.5483 39.0014C23.6902 39.0014 22.9857 39.3085 22.4348 39.9227C21.8838 40.5459 21.6038 41.3227 21.6038 42.262C21.6038 43.2013 21.8838 43.9781 22.4348 44.6014ZM36.8861 47.9342C35.2694 47.9342 33.9236 47.4284 32.8578 46.4349C31.783 45.4323 31.2502 44.0414 31.2502 42.262C31.2502 40.4917 31.7921 39.1008 32.876 38.0982C33.9688 37.0957 35.2966 36.5898 36.8862 36.5898C38.3223 36.5898 39.4964 36.9421 40.4268 37.6556C41.3481 38.3601 41.881 39.2995 42.0164 40.4736L39.2165 41.0427C39.0991 40.4285 38.819 39.9317 38.3855 39.5614C37.952 39.191 37.4462 39.0014 36.8681 39.0014C36.0733 39.0014 35.4139 39.2814 34.881 39.8504C34.3481 40.4284 34.0771 41.2232 34.0771 42.2619C34.0771 43.3006 34.3481 44.0955 34.8719 44.6645C35.4048 45.2425 36.0642 45.5226 36.868 45.5226C37.446 45.5226 37.9429 45.36 38.3493 45.0349C38.7557 44.7097 39.0087 44.2762 39.117 43.7342L41.9802 44.3846C41.7183 45.5045 41.1402 46.3717 40.237 46.9948C39.3429 47.6181 38.2229 47.9342 36.8861 47.9342Z" fill="white"/>
</svg>
