<svg width="24" height="23" viewBox="0 0 24 23" fill="none" xmlns="http://www.w3.org/2000/svg">
<path fillRule="evenodd" clipRule="evenodd" d="M11.213 11.5727C11.2112 11.5487 11.2103 11.5245 11.2103 11.5V3.83333C11.2103 3.30433 11.6387 2.875 12.1686 2.875C12.6986 2.875 13.127 3.30433 13.127 3.83333V11.4998L15.427 9.775C15.8505 9.45587 16.4514 9.54308 16.7686 9.96667C17.0868 10.3902 17.0005 10.9911 16.577 11.3083L12.7436 14.1833C12.574 14.3108 12.3708 14.375 12.1686 14.375C11.976 14.375 11.7834 14.3165 11.6176 14.2006L7.78424 11.5038C7.35108 11.1991 7.24662 10.6011 7.55137 10.1689C7.85612 9.73571 8.45316 9.63125 8.88633 9.936L11.213 11.5727ZM6.41862 16.2917V17.25H17.9186V16.2917C17.9186 15.7646 18.3499 15.3333 18.877 15.3333C19.404 15.3333 19.8353 15.7646 19.8353 16.2917V18.2083C19.8353 18.7354 19.404 19.1667 18.877 19.1667H5.46029C4.9332 19.1667 4.50195 18.7354 4.50195 18.2083V16.2917C4.50195 15.7646 4.9332 15.3333 5.46029 15.3333C5.98737 15.3333 6.41862 15.7646 6.41862 16.2917Z" fill="#095183"/>
</svg>
