<svg width="23" height="23" viewBox="0 0 17 21" fill="none" xmlns="http://www.w3.org/2000/svg">
<path fillRule="evenodd" clipRule="evenodd" d="M3.05808 14.4479L6.03508 14.1769L11.6351 8.57192L8.93908 5.87492L3.32208 11.4919L3.05808 14.4479ZM10.2791 4.53592L12.9741 7.23092L14.9211 5.28092L12.2271 2.58692L10.2791 4.53592ZM1.24808 16.2599C1.03808 16.0499 0.933078 15.7579 0.959078 15.4619L1.33808 11.2919C1.38008 10.8349 1.58208 10.4039 1.90808 10.0779L10.9041 1.08192C11.6061 0.376921 12.8791 0.411921 13.6201 1.15092L16.3581 3.88892L16.3591 3.88992C17.1241 4.65592 17.1551 5.87392 16.4271 6.60392L7.43008 15.6009C7.10508 15.9259 6.67408 16.1279 6.21608 16.1699L2.04608 16.5489C2.01608 16.5509 1.98608 16.5519 1.95508 16.5519C1.69208 16.5519 1.43708 16.4479 1.24808 16.2599ZM16.9551 19.5519C16.9551 20.1019 16.5051 20.5519 15.9551 20.5519H1.95508C1.40608 20.5519 0.955078 20.1019 0.955078 19.5519C0.955078 19.0029 1.40608 18.5519 1.95508 18.5519H15.9551C16.5051 18.5519 16.9551 19.0029 16.9551 19.5519Z" fill="#000"/>
</svg>
