<svg width="20" height="20" viewBox="0 0 23 23" fill="none" xmlns="http://www.w3.org/2000/svg">
<path fillRule="evenodd" clipRule="evenodd" d="M11.4994 12.9376C10.7069 12.9376 10.0619 12.2926 10.0619 11.5001C10.0619 10.7075 10.7069 10.0626 11.4994 10.0626C12.2919 10.0626 12.9369 10.7075 12.9369 11.5001C12.9369 12.2926 12.2919 12.9376 11.4994 12.9376ZM11.4994 8.14589C9.64981 8.14589 8.14523 9.65048 8.14523 11.5001C8.14523 13.3496 9.64981 14.8542 11.4994 14.8542C13.349 14.8542 14.8536 13.3496 14.8536 11.5001C14.8536 9.65048 13.349 8.14589 11.4994 8.14589ZM11.7099 16.2894C7.58336 16.3853 4.8914 12.8557 3.99823 11.4958C4.98148 9.95772 7.45782 6.80864 11.2892 6.71089C15.3995 6.60643 18.1068 10.1446 19 11.5045C18.0177 13.0426 15.5404 16.1917 11.7099 16.2894ZM20.9559 11.0234C20.3445 9.95772 16.9674 4.61597 11.2404 4.79518C5.94269 4.92934 2.86165 9.59643 2.04323 11.0234C1.87361 11.3186 1.87361 11.6818 2.04323 11.9769C2.64603 13.0282 5.90436 18.208 11.5231 18.208C11.6017 18.208 11.6802 18.2071 11.7588 18.2051C17.0555 18.07 20.1375 13.4039 20.9559 11.9769C21.1246 11.6818 21.1246 11.3186 20.9559 11.0234Z" fill="#095183"/>
</svg>
