<svg width="55" height="68" viewBox="0 0 55 68" fill="none" xmlns="http://www.w3.org/2000/svg">
<path d="M43.6782 12.9424H54.0635L42.0605 0.939453V11.3247C42.0605 11.7538 42.231 12.1652 42.5343 12.4686C42.8377 12.772 43.2492 12.9424 43.6782 12.9424Z" fill="#F6C863"/>
<path d="M43.6765 16.1765C42.3894 16.1765 41.155 15.6652 40.2449 14.7551C39.3348 13.845 38.8235 12.6106 38.8235 11.3235V0H4.85294C3.56586 0 2.3315 0.511291 1.42139 1.42139C0.51129 2.3315 0 3.56586 0 4.85294V63.0882C0 64.3753 0.51129 65.6097 1.42139 66.5198C2.3315 67.4299 3.56586 67.9412 4.85294 67.9412H50.1471C51.4341 67.9412 52.6685 67.4299 53.5786 66.5198C54.4887 65.6097 55 64.3753 55 63.0882V16.1765H43.6765ZM14.5588 16.1765H30.7353C31.1643 16.1765 31.5758 16.3469 31.8791 16.6503C32.1825 16.9536 32.3529 17.3651 32.3529 17.7941C32.3529 18.2231 32.1825 18.6346 31.8791 18.938C31.5758 19.2413 31.1643 19.4118 30.7353 19.4118H14.5588C14.1298 19.4118 13.7183 19.2413 13.415 18.938C13.1116 18.6346 12.9412 18.2231 12.9412 17.7941C12.9412 17.3651 13.1116 16.9536 13.415 16.6503C13.7183 16.3469 14.1298 16.1765 14.5588 16.1765ZM43.6765 51.7647H14.5588C14.1298 51.7647 13.7183 51.5943 13.415 51.2909C13.1116 50.9875 12.9412 50.5761 12.9412 50.1471C12.9412 49.718 13.1116 49.3066 13.415 49.0032C13.7183 48.6998 14.1298 48.5294 14.5588 48.5294H43.6765C44.1055 48.5294 44.517 48.6998 44.8203 49.0032C45.1237 49.3066 45.2941 49.718 45.2941 50.1471C45.2941 50.5761 45.1237 50.9875 44.8203 51.2909C44.517 51.5943 44.1055 51.7647 43.6765 51.7647ZM43.6765 35.5882H14.5588C14.1298 35.5882 13.7183 35.4178 13.415 35.1144C13.1116 34.8111 12.9412 34.3996 12.9412 33.9706C12.9412 33.5416 13.1116 33.1301 13.415 32.8267C13.7183 32.5234 14.1298 32.3529 14.5588 32.3529H43.6765C44.1055 32.3529 44.517 32.5234 44.8203 32.8267C45.1237 33.1301 45.2941 33.5416 45.2941 33.9706C45.2941 34.3996 45.1237 34.8111 44.8203 35.1144C44.517 35.4178 44.1055 35.5882 43.6765 35.5882Z" fill="#F6C863"/>
</svg>
