<svg width="50" height="67" viewBox="0 0 50 67" fill="none" xmlns="http://www.w3.org/2000/svg">
<path fillRule="evenodd" clipRule="evenodd" d="M8.70362 0H31.0558L50 19.7461V58.1524C50 62.9636 46.1076 66.856 41.313 66.856H8.70362C3.89241 66.856 1.37488e-09 62.9636 1.37488e-09 58.1524V8.70362C-8.44711e-05 3.89241 3.89232 0 8.70362 0Z" fill="#E5252A"/>
<path fillRule="evenodd" clipRule="evenodd" d="M31.0391 0V19.5958H50L31.0391 0Z" fill="#FF878A"/>
<path d="M9.67188 49.8837V37.6719H14.8674C16.1537 37.6719 17.1728 38.0227 17.9412 38.741C18.7097 39.4427 19.0939 40.3949 19.0939 41.581C19.0939 42.7671 18.7097 43.7193 17.9412 44.421C17.1728 45.1393 16.1537 45.4901 14.8674 45.4901H12.7958V49.8837H9.67188ZM12.7958 42.834H14.5165C14.9843 42.834 15.3518 42.7337 15.6024 42.4999C15.853 42.2827 15.9867 41.982 15.9867 41.5811C15.9867 41.1802 15.8531 40.8795 15.6024 40.6623C15.3519 40.4284 14.9843 40.3282 14.5165 40.3282H12.7958V42.834ZM20.3802 49.8837V37.6719H24.707C25.5589 37.6719 26.3608 37.7888 27.1126 38.0394C27.8643 38.29 28.5493 38.6409 29.1506 39.1253C29.7521 39.593 30.2365 40.2278 30.5873 41.0297C30.9214 41.8316 31.1052 42.7504 31.1052 43.7862C31.1052 44.8052 30.9215 45.724 30.5873 46.5259C30.2365 47.3277 29.7521 47.9626 29.1506 48.4303C28.5492 48.9147 27.8643 49.2655 27.1126 49.5162C26.3608 49.7667 25.5589 49.8837 24.707 49.8837H20.3802ZM23.4373 47.2276H24.3394C24.8239 47.2276 25.2749 47.1775 25.6926 47.0605C26.0935 46.9436 26.4778 46.7598 26.8453 46.5092C27.1961 46.2587 27.4801 45.9078 27.6806 45.44C27.881 44.9723 27.9813 44.421 27.9813 43.7862C27.9813 43.1346 27.881 42.5834 27.6806 42.1156C27.4801 41.6479 27.1961 41.2971 26.8453 41.0465C26.4778 40.7959 26.0936 40.6121 25.6926 40.4952C25.2749 40.3783 24.8239 40.3281 24.3394 40.3281H23.4373V47.2276ZM32.6756 49.8837V37.6719H41.3626V40.3281H35.7995V42.2826H40.2432V44.9221H35.7995V49.8837H32.6756Z" fill="white"/>
</svg>
