<svg width="51" height="67" viewBox="0 0 51 67" fill="none" xmlns="http://www.w3.org/2000/svg">
<path fillRule="evenodd" clipRule="evenodd" d="M8.72236 0H31.1227L50.1077 19.7886V58.2776C50.1077 63.0992 46.2069 67 41.402 67H8.72236C3.90079 67 1.37784e-09 63.0992 1.37784e-09 58.2776V8.72236C-8.46529e-05 3.90079 3.9007 0 8.72236 0Z" fill="#E03303"/>
<path fillRule="evenodd" clipRule="evenodd" d="M31.1055 0V19.6379H50.1072L31.1055 0Z" fill="#EA714F"/>
<path d="M10.5312 47.9309V35.7598H15.7044C16.9767 35.7598 17.998 36.1113 18.7681 36.8312C19.5215 37.5344 19.9065 38.4719 19.9065 39.6606C19.9065 40.8325 19.5215 41.7867 18.7681 42.4899C17.998 43.193 16.9767 43.5446 15.7044 43.5446H13.6284V47.9309H10.5312ZM13.6285 40.8995H15.3529C15.8216 40.8995 16.1732 40.799 16.4411 40.5813C16.6922 40.3637 16.8095 40.0456 16.8095 39.6606C16.8095 39.2588 16.6923 38.9574 16.4411 38.7398C16.1733 38.5221 15.8217 38.405 15.3529 38.405H13.6285V40.8995ZM21.2124 47.9309V35.7598H26.3856C27.6579 35.7598 28.6792 36.1113 29.4493 36.8312C30.2194 37.5344 30.5877 38.4719 30.5877 39.6606C30.5877 40.8325 30.2194 41.7867 29.4493 42.4899C28.6792 43.193 27.6579 43.5446 26.3856 43.5446H24.3263V47.9309H21.2124ZM24.3263 40.8995H26.034C26.5027 40.8995 26.8711 40.799 27.1222 40.5813C27.3733 40.3637 27.5073 40.0456 27.5073 39.6606C27.5073 39.2588 27.3734 38.9574 27.1222 38.7398C26.8711 38.5221 26.5028 38.405 26.034 38.405H24.3263V40.8995ZM35.0577 47.9309V38.405H31.5922V35.7598H41.654V38.405H38.1717V47.9309H35.0577Z" fill="white"/>
</svg>
