<svg width="24" height="25" viewBox="0 0 24 25" fill="none" xmlns="http://www.w3.org/2000/svg">
<path fillRule="evenodd" clipRule="evenodd" d="M11.3745 20.5H12.6255V19.733C12.6255 18.798 13.2005 17.958 14.0895 17.591C15.0095 17.208 16.0145 17.396 16.6765 18.062L17.2155 18.603L18.1035 17.715L17.5585 17.171C16.8955 16.509 16.7085 15.505 17.0815 14.614C17.0815 14.614 17.0825 14.613 17.0825 14.612L17.0935 14.584C17.4575 13.701 18.2985 13.125 19.2335 13.125H19.9995V11.875H19.2335C18.2985 11.875 17.4575 11.3 17.0915 10.411C16.7065 9.491 16.8955 8.486 17.5615 7.823L18.1025 7.284L17.2155 6.397L16.6705 6.942C16.0085 7.604 15.0055 7.791 14.1145 7.419C13.2015 7.042 12.6255 6.202 12.6255 5.267V4.5H11.3745V5.267C11.3745 6.202 10.7995 7.042 9.91051 7.409C8.99151 7.794 7.98651 7.605 7.32351 6.938L6.78451 6.397L5.89651 7.285L6.44151 7.829C7.10351 8.491 7.29151 9.495 6.91851 10.386C6.54251 11.299 5.70151 11.875 4.76651 11.875H3.99951V13.125H4.76651C5.70151 13.125 6.54251 13.7 6.90851 14.589C7.29351 15.509 7.10451 16.514 6.43851 17.177L5.89751 17.716L6.78451 18.603L7.32951 18.058C7.99151 17.396 8.99451 17.209 9.88551 17.581C10.7985 17.958 11.3745 18.798 11.3745 19.733V20.5ZM12.9425 22.5H11.0505C10.1265 22.5 9.37451 21.748 9.37451 20.824V19.733C9.37451 19.586 9.25751 19.485 9.14751 19.44C9.00351 19.381 8.84951 19.369 8.74351 19.472L7.97351 20.243C7.31751 20.897 6.25151 20.899 5.59651 20.243L4.25651 18.903C3.93851 18.585 3.76451 18.163 3.76451 17.713C3.76551 17.264 3.94051 16.842 4.25951 16.524L5.02751 15.759C5.13251 15.654 5.12151 15.5 5.07451 15.389C5.01451 15.242 4.91451 15.125 4.76651 15.125H3.68251C2.75451 15.125 1.99951 14.371 1.99951 13.443V11.551C1.99951 10.626 2.75151 9.875 3.67651 9.875H4.76651C4.91351 9.875 5.01451 9.757 5.05951 9.647C5.11951 9.503 5.13151 9.348 5.02751 9.244L4.25651 8.474C3.60251 7.817 3.60251 6.751 4.25651 6.097L5.59651 4.757C5.91451 4.439 6.33551 4.265 6.78451 4.265H6.78651C7.23551 4.265 7.65851 4.44 7.97551 4.759L8.74051 5.528C8.84551 5.634 9.00051 5.622 9.11151 5.575C9.25751 5.514 9.37451 5.414 9.37451 5.267V4.183C9.37451 3.255 10.1295 2.5 11.0575 2.5H12.9495C13.8735 2.5 14.6255 3.252 14.6255 4.176V5.267C14.6255 5.414 14.7425 5.515 14.8525 5.56C14.9975 5.62 15.1515 5.633 15.2565 5.528L16.0265 4.757C16.6825 4.103 17.7485 4.101 18.4035 4.757L19.7445 6.098C20.0625 6.415 20.2365 6.837 20.2355 7.287C20.2355 7.735 20.0605 8.158 19.7415 8.475L18.9725 9.241C18.8675 9.346 18.8785 9.5 18.9255 9.611C18.9855 9.758 19.0855 9.875 19.2335 9.875H20.3175C21.2455 9.875 21.9995 10.629 21.9995 11.557V13.449C21.9995 14.374 21.2485 15.125 20.3235 15.125H19.2335C19.0865 15.125 18.9855 15.243 18.9405 15.353C18.9395 15.354 18.9275 15.384 18.9265 15.386C18.8805 15.497 18.8685 15.652 18.9725 15.756L19.7435 16.526C20.3975 17.183 20.3975 18.249 19.7435 18.903L18.4035 20.243C18.0855 20.561 17.6645 20.735 17.2155 20.735H17.2135C16.7645 20.735 16.3415 20.56 16.0245 20.241L15.2595 19.472C15.1545 19.367 14.9985 19.379 14.8885 19.425C14.7425 19.486 14.6255 19.586 14.6255 19.733V20.817C14.6255 21.745 13.8705 22.5 12.9425 22.5ZM12 11C11.173 11 10.5 11.673 10.5 12.5C10.5 13.327 11.173 14 12 14C12.827 14 13.5 13.327 13.5 12.5C13.5 11.673 12.827 11 12 11ZM12 16C10.07 16 8.50001 14.43 8.50001 12.5C8.50001 10.57 10.07 9 12 9C13.93 9 15.5 10.57 15.5 12.5C15.5 14.43 13.93 16 12 16Z" fill="black"/>
</svg>
