<svg width="20" height="19" viewBox="0 0 20 19" fill="none" xmlns="http://www.w3.org/2000/svg">
<path fillRule="evenodd" clipRule="evenodd" d="M7.33398 10.791C3.47498 10.791 0.333984 13.931 0.333984 17.791C0.333984 18.343 0.780984 18.791 1.33398 18.791C1.88698 18.791 2.33398 18.343 2.33398 17.791C2.33398 15.034 4.57698 12.791 7.33398 12.791C10.091 12.791 12.334 15.034 12.334 17.791C12.334 18.343 12.781 18.791 13.334 18.791C13.887 18.791 14.334 18.343 14.334 17.791C14.334 13.931 11.193 10.791 7.33398 10.791ZM5.33398 4.79102C5.33398 5.89402 6.23098 6.79102 7.33398 6.79102C8.43698 6.79102 9.33398 5.89402 9.33398 4.79102C9.33398 3.68802 8.43698 2.79102 7.33398 2.79102C6.23098 2.79102 5.33398 3.68802 5.33398 4.79102ZM3.33398 4.79102C3.33398 2.58502 5.12798 0.791016 7.33398 0.791016C9.53998 0.791016 11.334 2.58502 11.334 4.79102C11.334 6.99702 9.53998 8.79102 7.33398 8.79102C5.12798 8.79102 3.33398 6.99702 3.33398 4.79102ZM19.334 4.79102C19.334 5.34102 18.884 5.79102 18.334 5.79102H17.334V6.79102C17.334 7.34102 16.884 7.79102 16.334 7.79102C15.784 7.79102 15.334 7.34102 15.334 6.79102V5.79102H14.334C13.784 5.79102 13.334 5.34102 13.334 4.79102C13.334 4.24102 13.784 3.79102 14.334 3.79102H15.334V2.79102C15.334 2.24102 15.784 1.79102 16.334 1.79102C16.884 1.79102 17.334 2.24102 17.334 2.79102V3.79102H18.334C18.884 3.79102 19.334 4.24102 19.334 4.79102Z" fill="black"/>
</svg>
