<svg width="51" height="67" viewBox="0 0 51 67" fill="none" xmlns="http://www.w3.org/2000/svg">
<path fillRule="evenodd" clipRule="evenodd" d="M8.70509 0H31.1281L50.1033 19.8066V58.2704C50.1033 63.0876 46.2153 67 41.3982 67H8.70509C3.91238 67 1.37373e-09 63.0876 1.37373e-09 58.2704V8.70509C-8.4653e-05 3.91238 3.91238 0 8.70509 0Z" fill="#00733B"/>
<path fillRule="evenodd" clipRule="evenodd" d="M31.1035 0V19.6354H50.1032L31.1035 0Z" fill="#75D3A5"/>
<path d="M20.8327 48.784H17.5805L15.3554 45.0428L13.1301 48.784H9.85352L13.7171 42.2796L10.3182 36.631H13.5947L15.3553 39.5653L17.0914 36.631H20.368L16.9935 42.304L20.8327 48.784ZM21.9819 48.784V36.631H25.0874V46.143H30.3692V48.7839H21.9819V48.784ZM35.5042 48.9307C34.2815 48.9307 33.2057 48.5394 32.2765 47.7814C31.3717 47.0478 30.8583 46.1186 30.7849 45.0183L33.4502 44.2358C33.5236 44.8227 33.7681 45.3362 34.1838 45.7274C34.624 46.1187 35.113 46.3143 35.651 46.3143C36.0911 46.3143 36.4579 46.2165 36.7513 46.0209C37.0203 45.8252 37.167 45.5563 37.167 45.2384C37.167 44.9694 37.0447 44.7493 36.8246 44.5537C36.6045 44.3825 36.3111 44.2358 35.9688 44.1136C35.6264 43.9914 35.2108 43.869 34.7951 43.7713C34.3549 43.649 33.9147 43.5023 33.4991 43.3067C33.059 43.1355 32.6677 42.9154 32.3253 42.6464C31.9585 42.4019 31.6896 42.0352 31.4695 41.5705C31.2494 41.1304 31.1271 40.5924 31.1271 39.9811C31.1271 38.9785 31.5428 38.1472 32.3987 37.4869C33.2545 36.8023 34.2815 36.4844 35.4797 36.4844C36.6778 36.4844 37.7293 36.7778 38.6096 37.3402C39.4899 37.9271 40.0523 38.6851 40.2724 39.6143L37.4848 40.788C37.3625 40.2745 37.118 39.8589 36.7756 39.541C36.4333 39.2476 35.9932 39.0764 35.4797 39.0764C35.0884 39.0764 34.795 39.1742 34.5505 39.321C34.3304 39.4677 34.2326 39.6878 34.2326 39.9567C34.2326 40.2013 34.3793 40.4213 34.6727 40.5925C34.9661 40.7392 35.3574 40.8614 35.7975 40.9348C36.2376 41.0082 36.7267 41.1305 37.2402 41.3016C37.7782 41.4973 38.2428 41.6929 38.7074 41.9618C39.1475 42.2064 39.5143 42.6221 39.8077 43.16C40.1256 43.7225 40.2723 44.3827 40.2723 45.1407C40.2723 46.2655 39.8322 47.1948 38.9518 47.8794C38.0715 48.564 36.9225 48.9307 35.5042 48.9307Z" fill="white"/>
</svg>
