<svg width="53" height="53" viewBox="0 0 53 53" fill="none" xmlns="http://www.w3.org/2000/svg">
<rect width="53" height="53" rx="12" fill="#D7F0EF"/>
<path d="M40.5639 26.5121C40.3405 26.2728 40.0526 26.1031 39.7349 26.0234C39.4172 25.9438 39.0832 25.9576 38.7731 26.0632C38.4631 26.1688 38.1902 26.3617 37.9874 26.6187C37.7845 26.8757 37.6603 27.1858 37.6298 27.5116C36.0329 41.1506 16.5965 40.8347 15.3624 27.1905C15.1643 24.2897 16.112 21.4269 18.002 19.2161C19.892 17.0053 22.5739 15.6226 25.4724 15.3646C25.9129 15.3223 26.3191 15.1088 26.6035 14.7702C26.888 14.4315 27.0279 13.9948 26.9933 13.5541C26.9586 13.1134 26.7521 12.7039 26.4182 12.4138C26.0843 12.1237 25.6498 11.9762 25.2081 12.0031C11.4845 12.9612 6.86534 32.3034 19.0434 39.1304C23.7097 41.5188 28.9871 41.7001 33.529 39.2029C35.6154 38.0556 37.3875 36.4134 38.6893 34.4208C39.991 32.4282 40.7825 30.1464 40.9941 27.7763C41.0134 27.5473 40.9852 27.3168 40.9112 27.0993C40.8371 26.8818 40.7189 26.6819 40.5639 26.5121Z" fill="#095183"/>
<path d="M17.4141 26.5027C17.4167 28.9062 18.3734 31.2104 20.0743 32.9099C21.7753 34.6094 24.0815 35.5653 26.487 35.5679C38.5251 35.0708 38.5199 17.9347 26.487 17.4375C24.0815 17.4401 21.7753 18.396 20.0743 20.0955C18.3734 21.795 17.4167 24.0993 17.4141 26.5027ZM27.0053 20.2868V25.0418C27.2221 25.1204 27.4189 25.2455 27.5819 25.4085C27.7449 25.5714 27.8701 25.7682 27.9486 25.9849H31.2201C31.3577 25.9849 31.4896 26.0394 31.5868 26.1366C31.6841 26.2338 31.7387 26.3656 31.7387 26.503C31.7387 26.6404 31.6841 26.7722 31.5868 26.8694C31.4896 26.9665 31.3577 27.0211 31.2201 27.0211H27.9491C27.8619 27.2685 27.7134 27.4897 27.5174 27.6642C27.3215 27.8387 27.0844 27.9606 26.8285 28.0188C26.5725 28.0769 26.306 28.0692 26.0538 27.9965C25.8016 27.9237 25.572 27.7883 25.3864 27.6029C25.2008 27.4174 25.0653 27.188 24.9925 26.936C24.9197 26.6841 24.912 26.4178 24.9702 26.162C25.0283 25.9063 25.1504 25.6695 25.325 25.4736C25.4996 25.2778 25.7211 25.1294 25.9687 25.0423V20.2868C25.9687 20.1494 26.0233 20.0177 26.1205 19.9206C26.2177 19.8235 26.3495 19.7689 26.487 19.7689C26.6244 19.7689 26.7563 19.8235 26.8535 19.9206C26.9507 20.0177 27.0053 20.1494 27.0053 20.2868Z" fill="#095183"/>
<path d="M26.4792 27.0201C26.6167 27.0201 26.7485 26.9655 26.8457 26.8684C26.9429 26.7713 26.9975 26.6396 26.9975 26.5022C26.9975 26.3649 26.9429 26.2332 26.8457 26.1361C26.7485 26.0389 26.6167 25.9844 26.4792 25.9844C26.3418 25.9844 26.2099 26.0389 26.1127 26.1361C26.0155 26.2332 25.9609 26.3649 25.9609 26.5022C25.9609 26.6396 26.0155 26.7713 26.1127 26.8684C26.2099 26.9655 26.3418 27.0201 26.4792 27.0201Z" fill="#095183"/>
</svg>
