<svg width="22" height="22" viewBox="0 0 22 22" fill="none" xmlns="http://www.w3.org/2000/svg">
<path fill-rule="evenodd" clip-rule="evenodd" d="M13.7497 10.0833H11.9163V8.24992C11.9163 7.74575 11.5038 7.33325 10.9997 7.33325C10.4955 7.33325 10.083 7.74575 10.083 8.24992V10.0833H8.24967C7.74551 10.0833 7.33301 10.4958 7.33301 10.9999C7.33301 11.5041 7.74551 11.9166 8.24967 11.9166H10.083V13.7499C10.083 14.2541 10.4955 14.6666 10.9997 14.6666C11.5038 14.6666 11.9163 14.2541 11.9163 13.7499V11.9166H13.7497C14.2538 11.9166 14.6663 11.5041 14.6663 10.9999C14.6663 10.4958 14.2538 10.0833 13.7497 10.0833M10.9997 18.3333C6.95626 18.3333 3.66634 15.0433 3.66634 10.9999C3.66634 6.9565 6.95626 3.66659 10.9997 3.66659C15.0431 3.66659 18.333 6.9565 18.333 10.9999C18.333 15.0433 15.0431 18.3333 10.9997 18.3333M10.9997 1.83325C5.94517 1.83325 1.83301 5.94542 1.83301 10.9999C1.83301 16.0544 5.94517 20.1666 10.9997 20.1666C16.0542 20.1666 20.1663 16.0544 20.1663 10.9999C20.1663 5.94542 16.0542 1.83325 10.9997 1.83325" fill="#1DA0D6"/>
</svg>
