<svg width="18" height="18" viewBox="0 0 18 18" fill="none" xmlns="http://www.w3.org/2000/svg">
<path fill-rule="evenodd" clip-rule="evenodd" d="M9 0C4.03594 0 0 4.03594 0 9C0 13.9641 4.03594 18 9 18C13.9641 18 18 13.9641 18 9C18 4.03594 13.9641 0 9 0Z" fill="#1DA0D6"/>
<path d="M7.2668 13.1167C6.11719 11.9671 4.97461 10.807 3.82148 9.65737C3.69492 9.53081 3.69492 9.31987 3.82148 9.19331L5.14687 7.86792C5.27344 7.74136 5.48438 7.74136 5.61094 7.86792L7.50586 9.76284L12.3785 4.88667C12.5086 4.76011 12.716 4.76011 12.8461 4.88667L14.175 6.21558C14.3051 6.34565 14.3051 6.55308 14.175 6.67964L7.73086 13.1167C7.6043 13.2468 7.39687 13.2468 7.2668 13.1167Z" fill="white"/>
</svg>
