<svg width="24" height="25" viewBox="0 0 24 25" fill="none" xmlns="http://www.w3.org/2000/svg">
<path fill-rule="evenodd" clip-rule="evenodd" d="M13.8981 12.0778H12.0673V10.247C12.0673 9.74358 11.6554 9.33166 11.1519 9.33166C10.6485 9.33166 10.2365 9.74358 10.2365 10.247V12.0778H8.40577C7.90231 12.0778 7.49038 12.4897 7.49038 12.9932C7.49038 13.4967 7.90231 13.9086 8.40577 13.9086H10.2365V15.7393C10.2365 16.2428 10.6485 16.6547 11.1519 16.6547C11.6554 16.6547 12.0673 16.2428 12.0673 15.7393V13.9086H13.8981C14.4015 13.9086 14.8135 13.4967 14.8135 12.9932C14.8135 12.4897 14.4015 12.0778 13.8981 12.0778M11.1548 20.3168C7.11705 20.3168 3.83173 17.0314 3.83173 12.9937C3.83173 8.95591 7.11705 5.6706 11.1548 5.6706C15.1926 5.6706 18.4779 8.95591 18.4779 12.9937C18.4779 17.0314 15.1926 20.3168 11.1548 20.3168M11.1538 3.83887C6.10642 3.83887 2 7.94528 2 12.9927C2 18.0401 6.10642 22.1466 11.1538 22.1466C16.2013 22.1466 20.3077 18.0401 20.3077 12.9927C20.3077 7.94528 16.2013 3.83887 11.1538 3.83887" />
</svg>
