<svg width="25" height="25" viewBox="0 0 25 25" fill="none" xmlns="http://www.w3.org/2000/svg">
<path fill-rule="evenodd" clip-rule="evenodd" d="M15.6237 11.459H13.5404V9.37565C13.5404 8.80273 13.0716 8.33398 12.4987 8.33398C11.9258 8.33398 11.457 8.80273 11.457 9.37565V11.459H9.3737C8.80078 11.459 8.33203 11.9277 8.33203 12.5007C8.33203 13.0736 8.80078 13.5423 9.3737 13.5423H11.457V15.6256C11.457 16.1986 11.9258 16.6673 12.4987 16.6673C13.0716 16.6673 13.5404 16.1986 13.5404 15.6256V13.5423H15.6237C16.1966 13.5423 16.6654 13.0736 16.6654 12.5007C16.6654 11.9277 16.1966 11.459 15.6237 11.459M19.7904 18.7507C19.7904 19.3246 19.3237 19.7923 18.7487 19.7923H6.2487C5.6737 19.7923 5.20703 19.3246 5.20703 18.7507V6.25065C5.20703 5.67669 5.6737 5.20898 6.2487 5.20898H18.7487C19.3237 5.20898 19.7904 5.67669 19.7904 6.25065V18.7507ZM18.75 3.125H6.25C4.52708 3.125 3.125 4.52708 3.125 6.25V18.75C3.125 20.4729 4.52708 21.875 6.25 21.875H18.75C20.4729 21.875 21.875 20.4729 21.875 18.75V6.25C21.875 4.52708 20.4729 3.125 18.75 3.125V3.125Z" fill="#1DA0D6"/>
</svg>
