<svg width="33" height="40" viewBox="0 0 33 40" fill="none" xmlns="http://www.w3.org/2000/svg">
<path d="M28.4337 10.6024H4.33735C1.92771 10.6024 0 12.5301 0 14.9398V35.6627C0 38.0723 1.92771 40 4.33735 40H28.4337C30.8434 40 32.7711 38.0723 32.7711 35.6627V14.9398C32.7711 12.5301 30.8434 10.6024 28.4337 10.6024ZM23.2771 22.3133C23.2771 23.1325 22.6506 23.759 21.8313 23.759H10.9398C10.1205 23.759 9.49398 23.1325 9.49398 22.3133V18.6506C9.49398 17.8313 10.1205 17.2048 10.9398 17.2048C11.759 17.2048 12.3855 17.8313 12.3855 18.6506V20.8675H20.3855V18.6506C20.3855 17.8313 21.0121 17.2048 21.8313 17.2048C22.6506 17.2048 23.2771 17.8313 23.2771 18.6506V22.3133ZM28.4337 5.3012H4.33735C3.51807 5.3012 2.89157 5.92771 2.89157 6.74699C2.89157 7.56627 3.51807 8.19277 4.33735 8.19277H28.4337C29.253 8.19277 29.8795 7.56627 29.8795 6.74699C29.8795 5.92771 29.253 5.3012 28.4337 5.3012ZM26.0241 0H6.74699C5.92771 0 5.30121 0.626506 5.30121 1.44578C5.30121 2.26506 5.92771 2.89157 6.74699 2.89157H26.0241C26.8434 2.89157 27.4699 2.26506 27.4699 1.44578C27.4699 0.626506 26.8434 0 26.0241 0Z" fill="white"/>
</svg>
