<svg width="14" height="12" viewBox="0 0 14 12" fill="none" xmlns="http://www.w3.org/2000/svg">
<path fill-rule="evenodd" clip-rule="evenodd" d="M13.125 5.14281L2.74313 5.14281L5.922 1.40565C6.23175 1.04221 6.181 0.501354 5.81 0.198781C5.43812 -0.10465 4.88687 -0.0549356 4.57712 0.308495L0.202125 5.45139C0.168 5.49167 0.151375 5.53882 0.126 5.58339C0.105 5.61939 0.0796254 5.65025 0.0638754 5.68967C0.0245004 5.78825 0.000875773 5.89196 0.000875783 5.99653C0.000875783 5.99739 4.29059e-07 5.9991 4.29134e-07 5.99996C4.29209e-07 6.00082 0.000875783 6.00253 0.000875783 6.00339C0.000875792 6.10796 0.0245004 6.21168 0.0638754 6.31025C0.0796254 6.34968 0.105001 6.38054 0.126001 6.41654C0.151376 6.46111 0.168 6.50825 0.202125 6.54854L4.57713 11.6914C4.75125 11.8946 4.99975 12 5.25 12C5.44775 12 5.64638 11.9349 5.81 11.8011C6.181 11.4986 6.23175 10.9577 5.922 10.5943L2.74313 6.85711L13.125 6.85711C13.608 6.85711 14 6.47311 14 5.99996C14 5.52681 13.608 5.14281 13.125 5.14281" />
</svg>
