<svg width="53" height="53" viewBox="0 0 53 53" fill="none" xmlns="http://www.w3.org/2000/svg">
<rect width="53" height="53" rx="12" fill="#EDDCE8"/>
<path d="M32.3338 34.3899H24.6874L16.5553 42.522C16.7771 42.5643 17.0094 42.5854 17.2418 42.5854H36.3576C38.3642 42.5854 40.0012 40.9484 40.0012 38.9418V22.4979H36.5794L32.3338 26.7436C32.9146 26.7436 33.3899 27.2188 33.3899 27.7997C33.3899 28.3805 32.9146 28.8558 32.3338 28.8558H30.2215L26.7997 32.2776H32.3338C32.9146 32.2776 33.3899 32.7529 33.3899 33.3338C33.3899 33.9146 32.9146 34.3899 32.3338 34.3899ZM39.7826 13.3234L35.8855 17.2205L34.3298 15.7916L31.9324 13.5948V18.8649C31.9324 19.4838 32.3105 20.0192 32.8502 20.2558L31.3241 21.7819C30.7328 21.3588 30.2853 20.7646 30.042 20.0794C29.8934 19.6918 29.8182 19.28 29.8202 18.8649V13.014H17.2418C15.2351 13.014 13.5981 14.6509 13.5981 16.6576V38.9418C13.5981 39.1171 13.6351 39.2797 13.6594 39.4466L12.3234 40.7826C12.2225 40.88 12.1421 40.9966 12.0867 41.1254C12.0314 41.2543 12.0022 41.3928 12.001 41.5331C11.9998 41.6733 12.0265 41.8124 12.0796 41.9422C12.1327 42.072 12.2111 42.1899 12.3103 42.289C12.4095 42.3882 12.5274 42.4666 12.6572 42.5197C12.787 42.5728 12.926 42.5996 13.0663 42.5983C13.2065 42.5971 13.3451 42.568 13.4739 42.5126C13.6028 42.4573 13.7193 42.3768 13.8168 42.276L41.276 14.8168C41.3768 14.7193 41.4573 14.6028 41.5126 14.4739C41.568 14.3451 41.5971 14.2065 41.5983 14.0663C41.5996 13.926 41.5728 13.787 41.5197 13.6572C41.4666 13.5274 41.3882 13.4095 41.289 13.3103C41.1899 13.2111 41.072 13.1327 40.9422 13.0796C40.8124 13.0265 40.6733 12.9998 40.5331 13.001C40.3928 13.0022 40.2543 13.0314 40.1254 13.0867C39.9966 13.1421 39.88 13.2225 39.7826 13.3234ZM23.5574 28.8558H21.2656C20.6847 28.8558 20.2095 28.3805 20.2095 27.7997C20.2095 27.2188 20.6847 26.7436 21.2656 26.7436H23.5574C24.1382 26.7436 24.6135 27.2188 24.6135 27.7997C24.6135 28.3805 24.1382 28.8558 23.5574 28.8558ZM26.7997 23.3217H21.2656C20.6847 23.3217 20.2095 22.8465 20.2095 22.2656C20.2095 21.6847 20.6847 21.2095 21.2656 21.2095H26.7997C27.3805 21.2095 27.8558 21.6847 27.8558 22.2656C27.8558 22.8465 27.3805 23.3217 26.7997 23.3217Z" fill="#1DA0D6"/>
</svg>
