<svg width="18" height="18" viewBox="0 0 18 19" fill="none" xmlns="http://www.w3.org/2000/svg">
<path fill-rule="evenodd" clip-rule="evenodd" d="M7.5 12.6666C7.5 13.102 7.1625 13.4583 6.75 13.4583C6.3375 13.4583 6 13.102 6 12.6666V9.49992C6 9.0645 6.3375 8.70825 6.75 8.70825C7.1625 8.70825 7.5 9.0645 7.5 9.49992V12.6666ZM12 12.6666C12 13.102 11.6625 13.4583 11.25 13.4583C10.8375 13.4583 10.5 13.102 10.5 12.6666V9.49992C10.5 9.0645 10.8375 8.70825 11.25 8.70825C11.6625 8.70825 12 9.0645 12 9.49992V12.6666ZM13.5 15.0416C13.5 15.4778 13.164 15.8333 12.75 15.8333H5.25C4.836 15.8333 4.5 15.4778 4.5 15.0416V6.33325H13.5V15.0416ZM7.5 3.42625C7.5 3.30354 7.6605 3.16659 7.875 3.16659H10.125C10.3395 3.16659 10.5 3.30354 10.5 3.42625V4.74992H7.5V3.42625ZM15.75 4.74992H15H12V3.42625C12 2.40975 11.1592 1.58325 10.125 1.58325H7.875C6.84075 1.58325 6 2.40975 6 3.42625V4.74992H3H2.25C1.8375 4.74992 1.5 5.10617 1.5 5.54159C1.5 5.977 1.8375 6.33325 2.25 6.33325H3V15.0416C3 16.351 4.0095 17.4166 5.25 17.4166H12.75C13.9905 17.4166 15 16.351 15 15.0416V6.33325H15.75C16.1625 6.33325 16.5 5.977 16.5 5.54159C16.5 5.10617 16.1625 4.74992 15.75 4.74992V4.74992Z" fill="#626262"/>
</svg>
