<svg width="24" height="24" viewBox="0 0 26 26" fill="none" xmlns="http://www.w3.org/2000/svg">
<g clip-path="url(#clip0_1076_903)">
<path d="M12.6862 7.09508C12.4142 7.10112 12.1512 7.14697 11.897 7.23264C11.6429 7.3183 11.4138 7.45142 11.2097 7.632C11.0053 7.79658 10.842 8.00826 10.7197 8.26704C10.6131 8.50946 10.5635 8.79864 10.5709 9.13455C10.5826 9.66242 10.7597 10.0666 11.102 10.3471C11.4443 10.6275 12.0013 10.8472 12.773 11.0061L12.6862 7.09508ZM14.3757 19.3966C14.6629 19.3582 14.9574 19.2877 15.2592 19.1849C15.5767 19.0659 15.8532 18.9077 16.0889 18.7104C16.3406 18.5128 16.5434 18.2762 16.6973 18.0007C16.8509 17.7092 16.9234 17.3715 16.9149 16.9876C16.9078 16.6677 16.8537 16.3968 16.7528 16.175C16.6518 15.9532 16.4956 15.7646 16.2841 15.6093C16.0882 15.4376 15.8209 15.2915 15.4822 15.171C15.159 15.0341 14.7561 14.907 14.2734 14.7897L14.3757 19.3966ZM10.3224 16.3178C10.3263 17.214 10.5822 17.9285 11.0901 18.4613C11.5977 18.9782 12.2211 19.3004 12.9601 19.428L12.8487 14.4133C12.768 14.3831 12.6553 14.3536 12.5106 14.3248C12.3816 14.2796 12.2368 14.2428 12.0761 14.2144C11.4647 14.0679 10.8687 13.8971 10.2883 13.702C9.72343 13.4904 9.20516 13.2139 8.73346 12.8723C8.2774 12.5143 7.90754 12.0744 7.62388 11.5526C7.33987 11.0148 7.18898 10.3459 7.17122 9.54614C7.1531 8.73034 7.28908 8.00715 7.57915 7.37655C7.88521 6.7456 8.28956 6.21649 8.7922 5.78922C9.29448 5.34596 9.87905 5.0049 10.5459 4.76603C11.2124 4.51117 11.9051 4.35175 12.6238 4.28778L12.5828 2.44023L13.9984 2.40879L14.0395 4.25633C14.7611 4.32033 15.4364 4.46537 16.0656 4.69145C16.7104 4.90119 17.2774 5.20867 17.7665 5.61391C18.2553 6.00316 18.6584 6.49833 18.9758 7.09943C19.2932 7.70053 19.4852 8.41644 19.5516 9.24717L16.1445 9.32284C16.1143 8.68336 15.9022 8.14393 15.5084 7.70457C15.1145 7.2652 14.6457 7.05156 14.1018 7.06364L14.1961 11.3106C14.3892 11.3543 14.5822 11.398 14.7752 11.4418C14.9842 11.4851 15.2014 11.5363 15.4268 11.5953C16.6016 11.8893 17.5142 12.2692 18.1647 12.7348C18.8309 13.1841 19.3216 13.6614 19.6369 14.1665C19.9522 14.6716 20.1395 15.1796 20.1989 15.6904C20.2742 16.2008 20.3163 16.656 20.3252 17.0559C20.3327 17.3918 20.2545 17.8337 20.0906 18.3815C19.9264 18.9132 19.6182 19.4482 19.166 19.9864C18.7298 20.5242 18.1323 21.0016 17.3734 21.4185C16.6144 21.8355 15.636 22.0973 14.4381 22.2039L14.4834 24.2434L13.0677 24.2748L13.0224 22.2354C11.228 22.1472 9.81611 21.6264 8.78668 20.673C7.75691 19.7036 7.13308 18.2771 6.9152 16.3935L10.3224 16.3178Z" fill="black"/>
</g>
<defs>
<clipPath id="clip0_1076_903">
<rect width="24" height="24" fill="white"/>
</clipPath>
</defs>
</svg>
