<svg width="18" height="18" viewBox="0 0 18 20" fill="none" xmlns="http://www.w3.org/2000/svg">
<path fill-rule="evenodd" clip-rule="evenodd" d="M4.57725 13.2279L6.81 13.0021L11.01 8.33126L8.988 6.08376L4.77525 10.7646L4.57725 13.2279ZM9.993 4.96792L12.0143 7.21376L13.4745 5.58876L11.454 3.34376L9.993 4.96792ZM3.21978 14.7379C3.06228 14.5629 2.98353 14.3196 3.00303 14.0729L3.28728 10.5979C3.31878 10.2171 3.47028 9.85792 3.71478 9.58626L10.4618 2.08959C10.9883 1.50209 11.943 1.53126 12.4988 2.14709L14.5523 4.42876L14.553 4.42959C15.1268 5.06792 15.15 6.08292 14.604 6.69126L7.85628 14.1888C7.61253 14.4596 7.28928 14.6279 6.94578 14.6629L3.81828 14.9788C3.79578 14.9804 3.77328 14.9813 3.75003 14.9813C3.55278 14.9813 3.36153 14.8946 3.21978 14.7379V14.7379ZM15 17.4813C15 17.9396 14.6625 18.3146 14.25 18.3146H3.75C3.33825 18.3146 3 17.9396 3 17.4813C3 17.0238 3.33825 16.6479 3.75 16.6479H14.25C14.6625 16.6479 15 17.0238 15 17.4813V17.4813Z" fill="#626262"/>
</svg>
