<svg width="36" height="36" viewBox="0 0 36 36" fill="none" xmlns="http://www.w3.org/2000/svg">
<circle cx="18" cy="18" r="18" fill="#D4EEED"/>
<path fill-rule="evenodd" clip-rule="evenodd" d="M12.1025 21.8735L15.0795 21.6025L20.6795 15.9975L17.9835 13.3005L12.3665 18.9175L12.1025 21.8735ZM19.3235 11.9615L22.0185 14.6565L23.9655 12.7065L21.2715 10.0125L19.3235 11.9615ZM10.2925 23.6855C10.0825 23.4755 9.97751 23.1835 10.0035 22.8875L10.3825 18.7175C10.4245 18.2605 10.6265 17.8295 10.9525 17.5035L19.9485 8.5075C20.6505 7.8025 21.9235 7.8375 22.6645 8.5765L25.4025 11.3145L25.4035 11.3155C26.1685 12.0815 26.1995 13.2995 25.4715 14.0295L16.4745 23.0265C16.1495 23.3515 15.7185 23.5535 15.2605 23.5955L11.0905 23.9745C11.0605 23.9765 11.0305 23.9775 10.9995 23.9775C10.7365 23.9775 10.4815 23.8735 10.2925 23.6855V23.6855ZM25.9995 26.9775C25.9995 27.5275 25.5495 27.9775 24.9995 27.9775H10.9995C10.4505 27.9775 9.99951 27.5275 9.99951 26.9775C9.99951 26.4285 10.4505 25.9775 10.9995 25.9775H24.9995C25.5495 25.9775 25.9995 26.4285 25.9995 26.9775V26.9775Z" fill="black"/>
</svg>
