<svg width="24" height="24" viewBox="0 0 24 24" fill="none" xmlns="http://www.w3.org/2000/svg">
<circle cx="12" cy="12" r="12" fill="#D7F0EF"/>
<path fill-rule="evenodd" clip-rule="evenodd" d="M11.9941 13.3251C11.3986 13.3251 10.9141 12.8405 10.9141 12.2451C10.9141 11.6496 11.3986 11.165 11.9941 11.165C12.5895 11.165 13.0741 11.6496 13.0741 12.2451C13.0741 12.8405 12.5895 13.3251 11.9941 13.3251ZM11.9966 9.7207C10.607 9.7207 9.47656 10.8511 9.47656 12.2407C9.47656 13.6304 10.607 14.7608 11.9966 14.7608C13.3862 14.7608 14.5166 13.6304 14.5166 12.2407C14.5166 10.8511 13.3862 9.7207 11.9966 9.7207ZM12.1611 15.8457C9.06074 15.9177 7.03824 13.2659 6.36719 12.2442C7.10592 11.0886 8.96642 8.7226 11.845 8.64916C14.9331 8.57068 16.9672 11.229 17.6382 12.2506C16.9002 13.4063 15.039 15.7722 12.1611 15.8457ZM19.1096 11.8819C18.6503 11.0812 16.113 7.06789 11.8102 7.20253C7.82998 7.30333 5.51516 10.8098 4.90027 11.8819C4.77283 12.1036 4.77283 12.3765 4.90027 12.5983C5.35315 13.3881 7.80118 17.2798 12.0226 17.2798C12.0816 17.2798 12.1407 17.2791 12.1997 17.2776C16.1792 17.1761 18.4948 13.6704 19.1096 12.5983C19.2364 12.3765 19.2364 12.1036 19.1096 11.8819Z" fill="#414141"/>
</svg>
