<svg width="40" height="40" viewBox="0 0 53 53" fill="none" xmlns="http://www.w3.org/2000/svg">
<path d="M0 26.5C0 11.8645 11.8645 0 26.5 0V0C41.1355 0 53 11.8645 53 26.5V26.5C53 41.1355 41.1355 53 26.5 53V53C11.8645 53 0 41.1355 0 26.5V26.5Z" fill="#1DA0D6"/>
<path d="M32.4704 11.7L35.3683 19.3254L43.1998 22.147L35.3683 24.9687L32.4704 32.5941L29.5725 24.9687L21.741 22.147L29.5725 19.3254L32.4704 11.7Z" stroke="white" stroke-width="2" stroke-linejoin="round"/>
<path d="M19.0586 29.1117L21.5901 32.741L25.3175 35.2058L21.5901 37.6707L19.0586 41.3L16.5272 37.6707L12.7998 35.2058L16.5272 32.741L19.0586 29.1117Z" stroke="white" stroke-width="2" stroke-linejoin="round"/>
</svg>
