<svg width="53" height="53" viewBox="0 0 53 53" fill="none" xmlns="http://www.w3.org/2000/svg">
<rect width="53" height="53" rx="12" fill="#EDE7EB"/>
<path d="M40.2869 25.7905C40.1159 25.7903 39.9507 25.7286 39.8216 25.6166C39.6924 25.5046 39.6079 25.3498 39.5835 25.1806C39.4973 24.5864 39.3704 23.9989 39.2037 23.4221C39.1513 23.2407 39.173 23.0458 39.2641 22.8805C39.3553 22.7151 39.5084 22.5927 39.6898 22.5402C39.8712 22.4877 40.066 22.5094 40.2314 22.6006C40.3967 22.6917 40.5192 22.8448 40.5716 23.0262C40.7558 23.6636 40.8977 24.3196 40.9926 24.9765C41.0073 25.0777 41 25.1808 40.9712 25.2789C40.9425 25.377 40.8929 25.4677 40.826 25.5449C40.759 25.6222 40.6762 25.6841 40.5832 25.7264C40.4901 25.7688 40.3891 25.7907 40.2869 25.7905ZM26.5737 41.6433C26.4731 41.6229 26.3914 41.6424 26.3003 41.641C26.2058 41.6408 26.1122 41.6218 26.0251 41.5851C25.9379 41.5485 25.859 41.4948 25.7928 41.4272C25.7267 41.3597 25.6746 41.2797 25.6397 41.1918C25.6048 41.1039 25.5878 41.01 25.5896 40.9155C25.5914 40.8209 25.612 40.7277 25.6502 40.6413C25.6884 40.5548 25.7434 40.4768 25.8121 40.4118C25.8808 40.3468 25.9617 40.2962 26.0502 40.2628C26.1386 40.2295 26.2329 40.2141 26.3273 40.2175L26.5713 40.2194H26.5737C27.7645 40.2194 28.9445 40.0595 30.0822 39.7438C30.2625 39.6982 30.4535 39.725 30.6144 39.8184C30.7752 39.9118 30.8931 40.0644 30.9429 40.2437C30.9926 40.4229 30.9702 40.6145 30.8805 40.7774C30.7908 40.9404 30.6409 41.0617 30.4629 41.1155C29.1963 41.4665 27.888 41.644 26.5737 41.6433ZM22.3779 40.9955C22.3045 40.9954 22.2315 40.984 22.1615 40.9618C20.8219 40.5353 19.5513 39.9165 18.3895 39.1249C18.3117 39.0725 18.245 39.0053 18.1932 38.9271C18.1415 38.8488 18.1057 38.7611 18.0879 38.669C18.0702 38.5769 18.0708 38.4822 18.0897 38.3903C18.1087 38.2984 18.1457 38.2112 18.1984 38.1336C18.2512 38.0561 18.3188 37.9897 18.3973 37.9384C18.4759 37.887 18.5637 37.8517 18.656 37.8344C18.7482 37.8172 18.8429 37.8183 18.9347 37.8378C19.0264 37.8572 19.1135 37.8946 19.1907 37.9478C20.2387 38.6619 21.3847 39.2202 22.5929 39.6052C22.7546 39.6568 22.8925 39.7645 22.9819 39.9088C23.0712 40.0531 23.106 40.2246 23.0801 40.3923C23.0541 40.56 22.9691 40.713 22.8404 40.8236C22.7116 40.9342 22.5476 40.9951 22.3779 40.9955ZM33.9225 39.5298C33.768 39.5299 33.6177 39.4797 33.4942 39.3869C33.3708 39.294 33.2808 39.1636 33.238 39.0151C33.1952 38.8667 33.2018 38.7084 33.2569 38.5641C33.3119 38.4197 33.4125 38.2972 33.5432 38.215C34.6174 37.5401 35.5891 36.7143 36.4285 35.7631C36.49 35.6915 36.565 35.6328 36.6493 35.5905C36.7336 35.5481 36.8255 35.5229 36.9196 35.5164C37.0137 35.5099 37.1082 35.5221 37.1975 35.5524C37.2869 35.5827 37.3693 35.6304 37.44 35.6929C37.5107 35.7553 37.5684 35.8312 37.6095 35.916C37.6507 36.0009 37.6745 36.0931 37.6798 36.1873C37.685 36.2815 37.6714 36.3758 37.6399 36.4647C37.6083 36.5536 37.5594 36.6354 37.496 36.7052C36.5664 37.7586 35.4903 38.673 34.3008 39.4206C34.1826 39.4947 34.0516 39.5298 33.9225 39.5298ZM15.8474 36.5538C15.6414 36.5538 15.4368 36.4646 15.2963 36.2932C14.4052 35.2063 13.6757 33.9963 13.1306 32.7007C13.0944 32.6145 13.0755 32.522 13.075 32.4285C13.0745 32.335 13.0925 32.2423 13.1278 32.1558C13.1632 32.0692 13.2152 31.9905 13.281 31.924C13.3468 31.8576 13.425 31.8047 13.5112 31.7685C13.5974 31.7323 13.6899 31.7134 13.7834 31.713C13.8769 31.7125 13.9696 31.7305 14.0562 31.7658C14.1427 31.8011 14.2215 31.8532 14.2879 31.919C14.3544 31.9848 14.4072 32.063 14.4434 32.1492C14.9352 33.3183 15.5933 34.4102 16.3975 35.391C16.4828 35.4952 16.5368 35.6215 16.5532 35.7552C16.5696 35.8889 16.5477 36.0245 16.4901 36.1463C16.4325 36.2681 16.3415 36.371 16.2278 36.4431C16.114 36.5153 15.9821 36.5536 15.8474 36.5538ZM39.1473 33.6073C39.0276 33.6072 38.9099 33.577 38.8051 33.5194C38.7002 33.4618 38.6115 33.3788 38.5472 33.2779C38.483 33.177 38.4451 33.0615 38.4373 32.9421C38.4294 32.8228 38.4517 32.7033 38.5022 32.5949C39.0367 31.4452 39.4008 30.2238 39.583 28.9691C39.5964 28.8766 39.6279 28.7876 39.6758 28.7073C39.7236 28.6269 39.7868 28.5568 39.8617 28.5009C39.9366 28.4449 40.0218 28.4043 40.1124 28.3813C40.2031 28.3583 40.2973 28.3534 40.3899 28.3668C40.4824 28.3802 40.5714 28.4118 40.6517 28.4596C40.7321 28.5074 40.8022 28.5706 40.8581 28.6455C40.9141 28.7204 40.9547 28.8056 40.9777 28.8963C41.0007 28.9869 41.0056 29.0812 40.9922 29.1737C40.7904 30.5654 40.3867 31.9202 39.7937 33.1953C39.7363 33.3183 39.645 33.4224 39.5305 33.4954C39.416 33.5684 39.283 33.6072 39.1473 33.6073ZM12.7903 29.2738C12.4314 29.2738 12.1224 29.0033 12.0835 28.6378C11.9339 27.2408 11.9855 25.8296 12.2368 24.4473C12.2527 24.3545 12.2869 24.2658 12.3373 24.1862C12.3877 24.1067 12.4534 24.038 12.5306 23.9841C12.6077 23.9301 12.6948 23.892 12.7868 23.8719C12.8788 23.8519 12.9739 23.8502 13.0665 23.8672C13.1591 23.8841 13.2474 23.9192 13.3264 23.9705C13.4054 24.0218 13.4734 24.0882 13.5265 24.166C13.5796 24.2437 13.6167 24.3312 13.6358 24.4234C13.6548 24.5156 13.6554 24.6107 13.6375 24.7031C13.4102 25.9509 13.3637 27.2249 13.4994 28.4859C13.5102 28.5854 13.4999 28.686 13.4692 28.7812C13.4384 28.8765 13.3879 28.9641 13.321 29.0385C13.2541 29.1128 13.1722 29.1722 13.0808 29.2128C12.9893 29.2534 12.8903 29.2742 12.7903 29.2738ZM14.2156 21.5083C14.0937 21.5083 13.9739 21.477 13.8676 21.4175C13.7613 21.3579 13.672 21.2721 13.6084 21.1681C13.5448 21.0642 13.5089 20.9457 13.5042 20.8239C13.4995 20.7021 13.5261 20.5812 13.5815 20.4727C14.2203 19.2209 15.0362 18.0677 16.004 17.0486C16.0684 16.9808 16.1455 16.9264 16.231 16.8884C16.3164 16.8503 16.4085 16.8295 16.502 16.8271C16.5954 16.8247 16.6885 16.8407 16.7758 16.8742C16.8631 16.9078 16.9429 16.9582 17.0107 17.0225C17.0785 17.0869 17.133 17.164 17.171 17.2495C17.209 17.3349 17.2298 17.427 17.2323 17.5205C17.2347 17.614 17.2187 17.707 17.1851 17.7943C17.1516 17.8816 17.1012 17.9614 17.0368 18.0292C16.1631 18.949 15.4266 19.99 14.8502 21.1201C14.7905 21.237 14.6996 21.3352 14.5876 21.4037C14.4756 21.4722 14.3469 21.5084 14.2156 21.5083ZM19.653 15.7785C19.4962 15.7788 19.3436 15.7273 19.2191 15.632C19.0945 15.5367 19.0049 15.403 18.9641 15.2515C18.9234 15.1001 18.9338 14.9394 18.9937 14.7945C19.0537 14.6495 19.1598 14.5284 19.2956 14.45C20.5122 13.7456 21.8249 13.2221 23.1924 12.8961C23.3753 12.8543 23.5673 12.8865 23.7266 12.9855C23.886 13.0846 23.9998 13.2425 24.0433 13.425C24.0868 13.6075 24.0566 13.7998 23.9591 13.9601C23.8616 14.1204 23.7048 14.2357 23.5227 14.281C22.2895 14.5751 21.1056 15.0473 20.0085 15.6826C19.9006 15.7455 19.7779 15.7786 19.653 15.7785ZM29.2549 14.1856C29.2093 14.1856 29.1633 14.1814 29.1163 14.1719C28.5268 14.056 27.9301 13.9805 27.3303 13.946C27.1418 13.9352 26.9652 13.85 26.8396 13.7091C26.7139 13.5682 26.6493 13.3831 26.6601 13.1946C26.6717 13.0064 26.7572 12.8304 26.8979 12.7049C27.0386 12.5794 27.2231 12.5146 27.4114 12.5244C28.0763 12.5625 28.7377 12.6461 29.3911 12.7746C29.5652 12.808 29.7206 12.9053 29.8267 13.0472C29.9329 13.1892 29.9824 13.3656 29.9653 13.5421C29.9483 13.7186 29.866 13.8823 29.7346 14.0013C29.6033 14.1204 29.4322 14.1861 29.2549 14.1856Z" fill="#45062E"/>
<path d="M26.5653 39.2713C19.8393 39.2713 14.3672 33.7992 14.3672 27.0731C14.3672 20.3471 19.8393 14.875 26.5653 14.875C27.4453 14.875 28.3239 14.9695 29.1772 15.1555C29.2694 15.1746 29.3568 15.2118 29.4345 15.2649C29.5122 15.318 29.5786 15.386 29.6298 15.465C29.681 15.5439 29.7161 15.6322 29.733 15.7248C29.7499 15.8173 29.7483 15.9123 29.7282 16.0043C29.7082 16.0962 29.6701 16.1833 29.6162 16.2604C29.5623 16.3375 29.4937 16.4032 29.4142 16.4537C29.3348 16.5041 29.2461 16.5383 29.1534 16.5543C29.0607 16.5702 28.9657 16.5676 28.874 16.5467C28.1155 16.3819 27.3415 16.2988 26.5653 16.2989C20.6243 16.2989 15.7911 21.1321 15.7911 27.0731C15.7911 33.0142 20.6243 37.8474 26.5653 37.8474C32.5063 37.8474 37.3396 33.0142 37.3396 27.0731C37.3396 26.523 37.2978 25.9701 37.2147 25.43C37.1862 25.2433 37.2329 25.0529 37.3447 24.9007C37.4565 24.7485 37.6242 24.6469 37.8109 24.6183C37.9976 24.5898 38.1879 24.6365 38.3402 24.7483C38.4924 24.8601 38.5939 25.0278 38.6225 25.2145C38.7163 25.8296 38.7634 26.4509 38.7635 27.0731C38.7635 33.7992 33.2914 39.2713 26.5653 39.2713Z" fill="#45062E"/>
<path d="M26.9626 22.7358C27.976 22.8626 28.8118 23.2679 29.2428 23.8759C29.3187 23.9898 29.3695 24.1294 29.3695 24.2813C29.3676 24.4609 29.2945 24.6325 29.1663 24.7584C29.0381 24.8843 28.8652 24.9543 28.6855 24.9529C28.508 24.9529 28.331 24.8513 28.1411 24.6743C27.7486 24.2941 27.0898 24.0026 26.3679 24.0026C25.3166 24.0026 24.924 24.4967 24.924 25.0032C24.924 26.6625 29.5475 25.8898 29.5475 29.0566C29.5475 30.4501 28.6609 31.3619 26.9636 31.5266V32.2362C26.9636 32.5656 26.6973 32.8314 26.3684 32.8314C26.0518 32.8314 25.7855 32.5651 25.7855 32.2362V31.5266C24.5567 31.3747 23.5941 30.7159 23.1636 30.0191C23.098 29.9125 23.063 29.7898 23.0625 29.6646C23.0611 29.4849 23.131 29.312 23.2569 29.1838C23.3828 29.0556 23.5544 28.9825 23.7341 28.9806C24.0127 28.9806 24.1646 29.1325 24.2914 29.2592C24.8234 29.7913 25.4946 30.2218 26.3684 30.2218C27.5212 30.2218 28.0785 29.8416 28.0785 29.0561C28.0785 27.2069 23.455 28.0556 23.455 25.0027C23.455 23.8754 24.1646 22.9001 25.786 22.7226V22.0006C25.786 21.6712 26.0523 21.4054 26.3688 21.4054C26.6982 21.4054 26.964 21.6717 26.964 22.0006V22.7358H26.9626ZM35.3219 25.1755C35.1969 25.1755 35.0742 25.1426 34.9659 25.0801C34.8577 25.0176 34.7678 24.9277 34.7053 24.8195L30.3577 17.2889C30.2952 17.1807 30.2623 17.0579 30.2623 16.933C30.2623 16.808 30.2952 16.6852 30.3577 16.577C30.4202 16.4687 30.51 16.3789 30.6183 16.3164C30.7265 16.2539 30.8493 16.221 30.9742 16.221H33.2145V11.712C33.2145 11.5231 33.2895 11.342 33.423 11.2085C33.5566 11.075 33.7376 11 33.9265 11H36.7743C36.9631 11 37.1442 11.075 37.2777 11.2085C37.4112 11.342 37.4862 11.5231 37.4862 11.712V16.221H39.6696C39.7945 16.221 39.9173 16.2539 40.0255 16.3164C40.1338 16.3789 40.2236 16.4687 40.2861 16.577C40.3486 16.6852 40.3815 16.808 40.3815 16.933C40.3815 17.0579 40.3486 17.1807 40.2861 17.2889L35.9384 24.8195C35.876 24.9277 35.7861 25.0176 35.6779 25.0801C35.5696 25.1426 35.4469 25.1755 35.3219 25.1755ZM32.2073 17.6449L35.3219 23.0396L38.4365 17.6449H36.7743C36.5855 17.6449 36.4044 17.5699 36.2708 17.4364C36.1373 17.3029 36.0623 17.1218 36.0623 16.9329V12.4239H34.6384V16.9329C34.6384 17.1218 34.5634 17.3029 34.4299 17.4364C34.2964 17.5699 34.1153 17.6449 33.9265 17.6449H32.2073Z" fill="#45062E"/>
</svg>
