<svg width="16" height="16" viewBox="0 0 16 16" fill="none" xmlns="http://www.w3.org/2000/svg">
<path d="M3.96588 6.72809C3.94965 7.10007 3.93342 7.29415 3.93342 7.5044C3.93342 8.86296 3.9172 10.2377 3.93342 11.5962C3.93342 12.0491 3.77114 12.2432 3.3005 12.227C2.40792 12.2108 1.49911 12.2108 0.606532 12.227C0.168356 12.227 0.00606873 12.0491 0.00606873 11.6286C0.0222975 9.15408 -0.026389 6.69574 0.0222972 4.22123C0.0547547 2.23191 1.09339 0.776318 2.78118 0.210253C3.15444 0.0808666 3.54393 0.0161733 3.93342 0.0161733C6.49757 6.14552e-08 9.07793 0.0161733 11.6421 0C12.1776 0 12.3724 0.194079 12.3561 0.727798C12.3237 1.56881 12.3237 2.40982 12.3561 3.25083C12.3724 3.76838 12.1614 3.93011 11.6583 3.93011C10.3113 3.91394 8.96433 3.91394 7.60112 3.93011C7.40638 3.93011 7.21163 3.94628 6.8546 3.96246C7.0818 4.22123 7.22786 4.38296 7.37392 4.54469C10.149 7.31033 12.9079 10.076 15.6993 12.8254C16.0725 13.1974 16.1212 13.4238 15.7155 13.812C15.0663 14.4266 14.4496 15.0897 13.8492 15.7528C13.5246 16.1086 13.3136 16.0601 12.9891 15.7366C10.1815 12.9225 7.37392 10.1245 4.56634 7.3265C4.42029 7.14859 4.258 7.00303 3.96588 6.72809Z" fill="#095183"/>
</svg>
