<svg width="49" height="52" viewBox="0 0 49 52" fill="none" xmlns="http://www.w3.org/2000/svg">
<path fill-rule="evenodd" clip-rule="evenodd" d="M15.9897 0.000183105H33.4804L48.9198 15.4425V45.0963C48.9198 48.6972 45.9742 51.6458 42.3704 51.6458H15.9898C12.389 51.6458 9.44336 48.6972 9.44336 45.0963V6.54959C9.44336 2.94872 12.389 0.000183105 15.9897 0.000183105Z" fill="#E5252A"/>
<path fill-rule="evenodd" clip-rule="evenodd" d="M33.4832 0.000183105L48.9226 15.4425H35.1479C34.23 15.4425 33.4832 14.6928 33.4832 13.7749V0.000183105ZM2.13516 21.9919H37.7038C38.4949 21.9919 39.1412 22.6383 39.1412 23.4293V36.4779C39.1412 37.2689 38.4949 37.9153 37.7038 37.9153H2.13516C1.34413 37.9153 0.697754 37.2689 0.697754 36.4779V23.4293C0.697754 22.6383 1.34423 21.9919 2.13516 21.9919Z" fill="#B71D21"/>
<path d="M10.861 24.6525H8.17803C7.9569 24.6525 7.74482 24.7403 7.58845 24.8967C7.43208 25.053 7.34424 25.2651 7.34424 25.4863V34.4175C7.34424 34.6386 7.43208 34.8507 7.58845 35.0071C7.74482 35.1635 7.9569 35.2513 8.17803 35.2513C8.39917 35.2513 8.61125 35.1635 8.76761 35.0071C8.92398 34.8507 9.01183 34.6386 9.01183 34.4175V31.8009H10.8609C12.8 31.8009 14.3776 30.2233 14.3776 28.2843V28.1692C14.3777 26.2301 12.8001 24.6525 10.861 24.6525ZM12.7101 28.2842C12.7101 29.3038 11.8806 30.1333 10.861 30.1333H9.01183V26.32H10.8609C11.8805 26.32 12.71 27.1495 12.71 28.169V28.2842H12.7101ZM19.8336 24.6525H17.1507C16.9296 24.6525 16.7175 24.7403 16.5612 24.8967C16.4048 25.053 16.317 25.2651 16.317 25.4863V34.4175C16.317 34.6386 16.4048 34.8507 16.5612 35.0071C16.7175 35.1635 16.9296 35.2513 17.1507 35.2513H19.8336C21.7727 35.2513 23.3503 33.6737 23.3503 31.7347V28.1692C23.3503 26.2301 21.7727 24.6525 19.8336 24.6525ZM21.6827 31.7346C21.6827 32.7542 20.8532 33.5836 19.8336 33.5836H17.9845V26.32H19.8336C20.8532 26.32 21.6827 27.1495 21.6827 28.169V31.7346ZM27.1193 26.3201V28.6282H30.9844C31.2055 28.6282 31.4176 28.716 31.574 28.8724C31.7303 29.0287 31.8182 29.2408 31.8182 29.462C31.8182 29.6831 31.7303 29.8952 31.574 30.0515C31.4176 30.2079 31.2055 30.2958 30.9844 30.2958H27.1193V34.4175C27.1193 34.6386 27.0315 34.8507 26.8751 35.0071C26.7188 35.1635 26.5067 35.2513 26.2856 35.2513C26.0644 35.2513 25.8523 35.1635 25.696 35.0071C25.5396 34.8507 25.4518 34.6386 25.4518 34.4175V25.4863C25.4518 25.2651 25.5396 25.053 25.696 24.8967C25.8523 24.7403 26.0644 24.6525 26.2856 24.6525H31.6513C31.8725 24.6525 32.0846 24.7403 32.2409 24.8967C32.3973 25.053 32.4851 25.2651 32.4851 25.4863C32.4851 25.7074 32.3973 25.9195 32.2409 26.0758C32.0846 26.2322 31.8725 26.3201 31.6513 26.3201H27.1193Z" fill="white"/>
</svg>
