<svg width="24" height="24" viewBox="0 0 27 27" fill="none" xmlns="http://www.w3.org/2000/svg">
<path fill-rule="evenodd" clip-rule="evenodd" d="M21.3891 4.6961C21.0066 4.32914 20.3995 4.34262 20.0336 4.72621L5.03751 20.4035C4.85404 20.5953 4.76566 20.8422 4.77112 21.0881C4.77656 21.3329 4.87584 21.5767 5.06762 21.7591C5.45013 22.1249 6.05618 22.1115 6.42314 21.729L21.4192 6.05162C21.7851 5.66804 21.7716 5.06199 21.3891 4.6961ZM17.7093 20.6802C16.8175 20.7 16.0756 19.9904 16.0558 19.0986C16.036 18.2068 16.7456 17.4649 17.6375 17.4451C18.5293 17.4253 19.2712 18.1349 19.291 19.0267C19.3108 19.9185 18.6011 20.6604 17.7093 20.6802ZM17.5896 15.2883C15.5083 15.3346 13.8528 17.0652 13.8991 19.1465C13.9453 21.2277 15.6759 22.8832 17.7572 22.837C19.8385 22.7908 21.4939 21.0601 21.4477 18.9788C21.4015 16.8976 19.6708 15.2421 17.5896 15.2883ZM8.77093 6.8529C9.66275 6.83309 10.4046 7.54272 10.4244 8.43454C10.4442 9.32636 9.7346 10.0682 8.84278 10.088C7.95096 10.1078 7.20909 9.39821 7.18928 8.50639C7.16948 7.61457 7.87911 6.87271 8.77093 6.8529ZM8.89068 12.2448C10.972 12.1986 12.6274 10.4679 12.5812 8.38664C12.535 6.30537 10.8043 4.64992 8.72303 4.69614C6.64176 4.74236 4.9863 6.47302 5.03253 8.55429C5.07875 10.6356 6.80941 12.291 8.89068 12.2448Z" fill="black"/>
</svg>
