<svg width="15" height="15" viewBox="0 0 17 18" fill="none" xmlns="http://www.w3.org/2000/svg">
<path d="M17.0002 2.38677V6.5139C17.0002 6.73282 16.9132 6.94277 16.7584 7.09757C16.6036 7.25236 16.3937 7.33933 16.1748 7.33933H12.0476C11.8287 7.33933 11.6188 7.25236 11.464 7.09757C11.3092 6.94277 11.2222 6.73282 11.2222 6.5139C11.2222 6.29498 11.3092 6.08503 11.464 5.93024C11.6188 5.77544 11.8287 5.68847 12.0476 5.68847H14.4496C13.7116 4.41906 12.5709 3.4324 11.2084 2.88499C9.84586 2.33758 8.33959 2.26076 6.92846 2.66671C5.51734 3.07266 4.28215 3.93814 3.41881 5.12588C2.55547 6.31361 2.11341 7.75561 2.16275 9.22314C2.21209 10.6907 2.75 12.0997 3.69116 13.2268C4.63232 14.3539 5.92285 15.1344 7.35806 15.4447C8.79327 15.7549 10.291 15.5771 11.6136 14.9394C12.9363 14.3017 14.0082 13.2407 14.6593 11.9246C14.707 11.8267 14.7737 11.7392 14.8554 11.6672C14.9371 11.5952 15.0322 11.5401 15.1353 11.505C15.2384 11.4699 15.3475 11.4556 15.4561 11.4628C15.5648 11.4701 15.671 11.4988 15.7685 11.5472C15.866 11.5957 15.953 11.663 16.0244 11.7452C16.0958 11.8275 16.1502 11.923 16.1846 12.0264C16.2189 12.1297 16.2324 12.2389 16.2243 12.3475C16.2163 12.4561 16.1868 12.562 16.1376 12.6592C15.3392 14.2694 14.037 15.575 12.4289 16.3777C10.8208 17.1803 8.99471 17.4362 7.22794 17.1064C5.46118 16.7766 3.85033 15.8792 2.6401 14.5504C1.42987 13.2217 0.686399 11.5343 0.522629 9.74444C0.358859 7.95464 0.783739 6.16028 1.73272 4.63396C2.68171 3.10764 4.10294 1.93277 5.78052 1.28781C7.4581 0.642856 9.30034 0.563068 11.0274 1.06057C12.7545 1.55807 14.2719 2.60567 15.3493 4.04422V2.38677C15.3493 2.16785 15.4363 1.9579 15.5911 1.8031C15.7459 1.6483 15.9558 1.56134 16.1748 1.56134C16.3937 1.56134 16.6036 1.6483 16.7584 1.8031C16.9132 1.9579 17.0002 2.16785 17.0002 2.38677Z" fill="#626262"/>
</svg>
