<svg width="34" height="34" viewBox="0 0 34 34" fill="none" xmlns="http://www.w3.org/2000/svg">
<circle cx="17" cy="17" r="17" fill="#D4EEED"/>
<path fill-rule="evenodd" clip-rule="evenodd" d="M12.8672 14.1L18.0652 15.157C18.4592 15.236 18.7662 15.543 18.8462 15.937L19.9022 21.135L23.4202 10.582L12.8672 14.1ZM19.6669 26.0005C19.6459 26.0005 19.6259 25.9995 19.6059 25.9985C19.1539 25.9715 18.7769 25.6435 18.6859 25.2005L17.0169 16.9835L8.80092 15.3135C8.35692 15.2235 8.02892 14.8465 8.00192 14.3945C7.97392 13.9425 8.25392 13.5285 8.68292 13.3855L24.6829 8.05246C25.0429 7.93046 25.4389 8.02546 25.7069 8.29346C25.9749 8.56146 26.0679 8.95746 25.9489 9.31746L20.6149 25.3175C20.4779 25.7275 20.0949 26.0005 19.6669 26.0005V26.0005Z" fill="black"/>
</svg>
