<svg width="36" height="36" viewBox="0 0 52 52" fill="none" xmlns="http://www.w3.org/2000/svg">
<circle cx="26" cy="26" r="26" fill="#fdcece"/>
<path fill-rule="evenodd" clip-rule="evenodd" d="M24 30C24 30.55 23.55 31 23 31C22.45 31 22 30.55 22 30V26C22 25.45 22.45 25 23 25C23.55 25 24 25.45 24 26V30ZM30 30C30 30.55 29.55 31 29 31C28.45 31 28 30.55 28 30V26C28 25.45 28.45 25 29 25C29.55 25 30 25.45 30 26V30ZM32 33C32 33.551 31.552 34 31 34H21C20.448 34 20 33.551 20 33V22H32V33ZM24 18.328C24 18.173 24.214 18 24.5 18H27.5C27.786 18 28 18.173 28 18.328V20H24V18.328ZM35 20H34H30V18.328C30 17.044 28.879 16 27.5 16H24.5C23.121 16 22 17.044 22 18.328V20H18H17C16.45 20 16 20.45 16 21C16 21.55 16.45 22 17 22H18V33C18 34.654 19.346 36 21 36H31C32.654 36 34 34.654 34 33V22H35C35.55 22 36 21.55 36 21C36 20.45 35.55 20 35 20Z" fill="black"/>
</svg>
