<svg width="24" height="24" viewBox="0 0 30 30" fill="none" xmlns="http://www.w3.org/2000/svg">
<path fill-rule="evenodd" clip-rule="evenodd" d="M25.0447 8.32696C25.0404 8.24175 25.0137 8.16176 24.9894 8.08055C24.9701 8.01225 24.9603 7.94256 24.9293 7.88045C24.9007 7.81947 24.8534 7.77075 24.8119 7.7148C24.7605 7.64366 24.7139 7.57242 24.6486 7.51462C24.6378 7.5042 24.6327 7.49009 24.6206 7.48088C24.5772 7.44511 24.5248 7.43324 24.4779 7.40466C24.4059 7.36005 24.3349 7.31423 24.2537 7.28523C24.1737 7.25856 24.0954 7.25319 24.0134 7.24317C23.9564 7.23614 23.9049 7.21121 23.8445 7.21256L17.9229 7.34407C17.268 7.35862 16.7504 7.90095 16.7649 8.5547C16.7794 9.20844 17.3206 9.72726 17.9755 9.71272L21.3224 9.63838L16.6663 15.3203L11.5347 12.395C11.027 12.103 10.3852 12.2286 10.0209 12.6858L4.25712 19.9232C3.85021 20.4346 3.93431 21.1805 4.44575 21.5874C4.6725 21.7672 4.94216 21.8512 5.20981 21.8453C5.54972 21.8377 5.88285 21.6858 6.11109 21.3987L11.2432 14.955L16.3616 17.8746C16.8645 18.1609 17.4993 18.0425 17.865 17.596L22.7576 11.6244L22.818 14.3448C22.8325 14.9985 23.3737 15.5173 24.0286 15.5028C24.6835 15.4883 25.2012 14.9459 25.1866 14.2922L25.0551 8.37057C25.0548 8.35518 25.0462 8.34233 25.0447 8.32696Z" fill="black"/>
</svg>
