<svg width="117" height="84" viewBox="0 0 117 84" fill="none" xmlns="http://www.w3.org/2000/svg">
<path d="M94.7874 29.7251C93.1887 13.0686 79.3209 0 62.248 0C49.0372 0 37.7249 7.84085 32.5118 19.0915C30.9421 18.5912 29.3066 18.2519 27.5728 18.2519C18.5015 18.2519 11.1462 25.6109 11.1462 34.6785C11.1462 36.4818 11.5076 38.1866 12.0442 39.8037C4.98819 43.9179 0.195312 51.4705 0.195312 60.224C0.195312 73.329 10.8179 83.9516 23.9229 83.9516V83.9589H89.6258V83.9516C104.753 83.9516 117 71.6972 117 56.5737C117 43.2278 107.436 32.1417 94.7874 29.7251ZM72.396 50.7403H65.8983V65.3856C65.8983 67.4041 64.2701 69.0433 62.248 69.0433H54.9474C52.9325 69.0433 51.2971 67.4041 51.2971 65.3856V50.7403H44.7956C40.8313 50.7403 39.2142 48.0938 41.1927 44.867L54.9947 31.2621C57.6997 28.5609 59.4115 28.4698 62.2006 31.2621L76.0026 44.867C77.9885 48.0975 76.3603 50.7403 72.396 50.7403Z" fill="#111827"/>
</svg>
