<svg width="53" height="53" viewBox="0 0 53 53" fill="none" xmlns="http://www.w3.org/2000/svg">
<rect width="53" height="53" rx="12" fill="#F0FBF7"/>
<path d="M26.5 12C18.5045 12 12 18.5045 12 26.5C12 34.4955 18.5045 41 26.5 41C34.4955 41 41 34.4955 41 26.5C41 18.5045 34.4955 12 26.5 12ZM34.945 24.1365L33.6316 31.7889C33.5954 31.9995 33.4859 32.1906 33.3225 32.3283C33.1592 32.466 32.9523 32.5416 32.7386 32.5417H20.2614C20.0477 32.5416 19.8409 32.466 19.6775 32.3283C19.5141 32.1906 19.4046 31.9995 19.3684 31.7889L18.055 24.1365C18.0267 23.9721 18.0444 23.8031 18.1061 23.6481C18.1677 23.4932 18.271 23.3582 18.4044 23.2581C18.5378 23.1581 18.6963 23.0967 18.8623 23.081C19.0284 23.0652 19.1956 23.0955 19.3455 23.1686L22.8424 24.8712L25.7085 19.7152C26.0275 19.1388 26.9737 19.1388 27.2927 19.7152L30.1588 24.8712L33.6558 23.1686C33.8056 23.0954 33.9728 23.0649 34.1388 23.0807C34.3048 23.0964 34.4633 23.1577 34.5967 23.2579C34.7301 23.358 34.8332 23.493 34.8947 23.6481C34.9562 23.8031 34.9736 23.9722 34.945 24.1365Z" fill="#3ECA98"/>
</svg>
