<svg  viewBox="0 0 48 50" fill="none" xmlns="http://www.w3.org/2000/svg">
<rect width="48" height="50" rx="8" fill="#B8E2DF" fill-opacity="0.43"/>
<g clip-path="url(#clip0_4502_12846)">
<path d="M23.614 13.673L12.75 18.903V21.625H35.25V18.889L23.614 13.673ZM33.75 20.125H14.25V19.845L23.636 15.327L33.75 19.86V20.125ZM12.75 36.25H35.25V31.375H12.75V36.25ZM14.25 32.875H33.75V34.75H14.25V32.875ZM16.875 22.75H15.375V30.25H16.875V22.75ZM32.625 22.75H31.125V30.25H32.625V22.75ZM22.125 22.75H20.625V30.25H22.125V22.75ZM27.375 22.75H25.875V30.25H27.375V22.75Z" fill="#111827"/>
</g>
<defs>
<clipPath id="clip0_4502_12846">
<rect width="24" height="24" fill="white" transform="translate(12 13)"/>
</clipPath>
</defs>
</svg>
