<svg  viewBox="0 0 48 50" fill="none" xmlns="http://www.w3.org/2000/svg">
<rect width="48" height="50" rx="8" fill="#1DA0D6" fill-opacity="0.05"/>
<g clip-path="url(#clip0_4502_12845)">
<path d="M34.5 34.938H32.9475V20.928C32.9475 20.7788 32.8882 20.6357 32.7827 20.5302C32.6773 20.4248 32.5342 20.3655 32.385 20.3655H29.16V17.5005C29.1601 17.3834 29.1242 17.2691 29.0571 17.1732C28.99 17.0772 28.895 17.0043 28.785 16.9642L19.5862 13.9642C19.5009 13.935 19.4099 13.9265 19.3206 13.9395C19.2314 13.9526 19.1465 13.9868 19.0732 14.0392C18.9998 14.0917 18.94 14.1609 18.8988 14.2411C18.8576 14.3214 18.8361 14.4103 18.8362 14.5005V20.3655H15.615C15.4658 20.3655 15.3227 20.4248 15.2173 20.5302C15.1118 20.6357 15.0525 20.7788 15.0525 20.928V34.938H13.5C13.3508 34.938 13.2077 34.9972 13.1023 35.1027C12.9968 35.2082 12.9375 35.3513 12.9375 35.5005C12.9375 35.6497 12.9968 35.7927 13.1023 35.8982C13.2077 36.0037 13.3508 36.063 13.5 36.063H34.5C34.6492 36.063 34.7923 36.0037 34.8977 35.8982C35.0032 35.7927 35.0625 35.6497 35.0625 35.5005C35.0625 35.3513 35.0032 35.2082 34.8977 35.1027C34.7923 34.9972 34.6492 34.938 34.5 34.938ZM16.1775 21.4905H18.84V34.938H16.1775V21.4905ZM19.965 15.2767L28.035 17.9017V34.938H26.625V32.2042C26.625 32.0551 26.5657 31.912 26.4602 31.8065C26.3548 31.701 26.2117 31.6417 26.0625 31.6417H21.9375C21.7883 31.6417 21.6452 31.701 21.5398 31.8065C21.4343 31.912 21.375 32.0551 21.375 32.2042V34.938H19.965V15.2767ZM22.5 34.938V32.7667H25.5V34.938H22.5ZM29.16 34.938V21.4905H31.8225V34.938H29.16Z" fill="#1DA0D6"/>
<path d="M21.9375 29.9292H26.0625C26.2117 29.9292 26.3548 29.87 26.4602 29.7645C26.5657 29.659 26.625 29.5159 26.625 29.3667V27.7055C26.625 27.5563 26.5657 27.4132 26.4602 27.3077C26.3548 27.2022 26.2117 27.143 26.0625 27.143H21.9375C21.7883 27.143 21.6452 27.2022 21.5398 27.3077C21.4343 27.4132 21.375 27.5563 21.375 27.7055V29.3667C21.375 29.5159 21.4343 29.659 21.5398 29.7645C21.6452 29.87 21.7883 29.9292 21.9375 29.9292ZM22.5 28.268H25.5V28.8042H22.5V28.268ZM21.9375 25.643H26.0625C26.2117 25.643 26.3548 25.5837 26.4602 25.4782C26.5657 25.3727 26.625 25.2297 26.625 25.0805V23.423C26.625 23.2738 26.5657 23.1307 26.4602 23.0252C26.3548 22.9197 26.2117 22.8605 26.0625 22.8605H21.9375C21.7883 22.8605 21.6452 22.9197 21.5398 23.0252C21.4343 23.1307 21.375 23.2738 21.375 23.423V25.0805C21.375 25.2297 21.4343 25.3727 21.5398 25.4782C21.6452 25.5837 21.7883 25.643 21.9375 25.643ZM22.5 23.9855H25.5V24.518H22.5V23.9855ZM21.9375 21.3605H26.0625C26.2117 21.3605 26.3548 21.3012 26.4602 21.1957C26.5657 21.0902 26.625 20.9472 26.625 20.798V19.1367C26.625 18.9875 26.5657 18.8445 26.4602 18.739C26.3548 18.6335 26.2117 18.5742 26.0625 18.5742H21.9375C21.7883 18.5742 21.6452 18.6335 21.5398 18.739C21.4343 18.8445 21.375 18.9875 21.375 19.1367V20.798C21.375 20.9472 21.4343 21.0902 21.5398 21.1957C21.6452 21.3012 21.7883 21.3605 21.9375 21.3605ZM22.5 19.6992H25.5V20.2355H22.5V19.6992Z" fill="#1DA0D6"/>
</g>
<defs>
<clipPath id="clip0_4502_12845">
<rect width="24" height="24" fill="white" transform="translate(12 13)"/>
</clipPath>
</defs>
</svg>
