<svg width="20" height="20" viewBox="0 0 24 24" fill="none" xmlns="http://www.w3.org/2000/svg">
<path d="M12 21.9375H3C2.5526 21.937 2.12367 21.7591 1.80731 21.4427C1.49095 21.1263 1.313 20.6974 1.3125 20.25V3C1.3125 2.06963 2.06963 1.3125 3 1.3125H18C18.9304 1.3125 19.6875 2.06963 19.6875 3V12.9713C19.6875 13.1204 19.6282 13.2635 19.5227 13.369C19.4173 13.4745 19.2742 13.5338 19.125 13.5338C18.9758 13.5338 18.8327 13.4745 18.7273 13.369C18.6218 13.2635 18.5625 13.1204 18.5625 12.9713V3C18.5625 2.68987 18.3101 2.4375 18 2.4375H3C2.68987 2.4375 2.4375 2.68987 2.4375 3V20.25C2.4375 20.5601 2.68987 20.8125 3 20.8125H12C12.1492 20.8125 12.2923 20.8718 12.3977 20.9773C12.5032 21.0827 12.5625 21.2258 12.5625 21.375C12.5625 21.5242 12.5032 21.6673 12.3977 21.7727C12.2923 21.8782 12.1492 21.9375 12 21.9375Z" />
<path d="M11.25 13.6875H4.5C4.35082 13.6875 4.20774 13.6282 4.10225 13.5227C3.99676 13.4173 3.9375 13.2742 3.9375 13.125V4.5C3.9375 4.35082 3.99676 4.20774 4.10225 4.10225C4.20774 3.99676 4.35082 3.9375 4.5 3.9375C4.64918 3.9375 4.79226 3.99676 4.89775 4.10225C5.00324 4.20774 5.0625 4.35082 5.0625 4.5V12.5625H11.25C11.3992 12.5625 11.5423 12.6218 11.6477 12.7273C11.7532 12.8327 11.8125 12.9758 11.8125 13.125C11.8125 13.2742 11.7532 13.4173 11.6477 13.5227C11.5423 13.6282 11.3992 13.6875 11.25 13.6875Z" fill="black"/>
<path d="M4.49988 11.0627C4.39183 11.0628 4.28605 11.0317 4.19521 10.9731C4.10438 10.9146 4.03233 10.8312 3.9877 10.7328C3.94306 10.6344 3.92774 10.5252 3.94356 10.4183C3.95937 10.3114 4.00566 10.2113 4.07688 10.1301L6.70188 7.13008C6.75262 7.07203 6.81476 7.02503 6.88443 6.992C6.9541 6.95897 7.02982 6.94062 7.10688 6.93808C7.25838 6.92871 7.41325 6.99246 7.52313 7.10233L9.70863 9.28821L12.6899 5.64396C12.7397 5.58313 12.8017 5.53341 12.8718 5.49801C12.942 5.46261 13.0188 5.44231 13.0974 5.43842C13.1759 5.43454 13.2543 5.44715 13.3276 5.47545C13.401 5.50374 13.4676 5.54709 13.5231 5.60271L14.9538 7.03296L16.0611 5.64846C16.1544 5.53199 16.2901 5.45734 16.4383 5.44092C16.5866 5.4245 16.7354 5.46766 16.8518 5.5609C16.9683 5.65414 17.0429 5.78982 17.0594 5.9381C17.0758 6.08639 17.0326 6.23512 16.9394 6.35158L15.4394 8.22658C15.3899 8.28831 15.3281 8.33894 15.2578 8.37519C15.1875 8.41143 15.1103 8.43248 15.0314 8.43696C14.9524 8.44064 14.8736 8.42798 14.7998 8.39978C14.726 8.37158 14.6588 8.32845 14.6024 8.27308L13.1669 6.83721L10.1856 10.4815C10.1359 10.5423 10.0739 10.5919 10.0038 10.6273C9.93363 10.6627 9.85685 10.683 9.77838 10.687C9.69991 10.6905 9.62154 10.6778 9.54822 10.6496C9.47491 10.6214 9.40822 10.5783 9.35238 10.5231L7.15263 8.32296L4.92363 10.8703C4.87084 10.9308 4.80571 10.9793 4.73261 11.0125C4.65952 11.0456 4.58016 11.0628 4.49988 11.0627ZM10.5003 16.3127H4.50025C4.35107 16.3127 4.208 16.2534 4.10251 16.148C3.99702 16.0425 3.93775 15.8994 3.93775 15.7502C3.93775 15.601 3.99702 15.4579 4.10251 15.3525C4.208 15.247 4.35107 15.1877 4.50025 15.1877H10.5003C10.6494 15.1877 10.7925 15.247 10.898 15.3525C11.0035 15.4579 11.0628 15.601 11.0628 15.7502C11.0628 15.8994 11.0035 16.0425 10.898 16.148C10.7925 16.2534 10.6494 16.3127 10.5003 16.3127ZM7.87525 18.5627H4.50025C4.35107 18.5627 4.208 18.5034 4.10251 18.398C3.99702 18.2925 3.93775 18.1494 3.93775 18.0002C3.93775 17.851 3.99702 17.7079 4.10251 17.6025C4.208 17.497 4.35107 17.4377 4.50025 17.4377H7.87525C8.02444 17.4377 8.16751 17.497 8.273 17.6025C8.37849 17.7079 8.43775 17.851 8.43775 18.0002C8.43775 18.1494 8.37849 18.2925 8.273 18.398C8.16751 18.5034 8.02444 18.5627 7.87525 18.5627ZM17.3815 22.6877C14.4558 22.6877 12.0753 20.3072 12.0753 17.3815C12.0753 14.4557 14.4558 12.0752 17.3815 12.0752C20.3073 12.0752 22.6878 14.4557 22.6878 17.3815C22.6878 20.3072 20.3073 22.6877 17.3815 22.6877ZM17.3815 13.2002C15.076 13.2002 13.2003 15.076 13.2003 17.3815C13.2003 19.687 15.076 21.5627 17.3815 21.5627C19.687 21.5627 21.5628 19.687 21.5628 17.3815C21.5628 15.076 19.687 13.2002 17.3815 13.2002Z" />
<path d="M19.4682 19.8631C19.3321 19.8631 19.1956 19.814 19.0872 19.7146L17.0018 17.7965C16.9446 17.7438 16.8989 17.6798 16.8677 17.6085C16.8364 17.5373 16.8203 17.4603 16.8203 17.3825V14.6094C16.8203 14.4602 16.8796 14.3171 16.9851 14.2116C17.0906 14.1061 17.2336 14.0469 17.3828 14.0469C17.532 14.0469 17.6751 14.1061 17.7806 14.2116C17.886 14.3171 17.9453 14.4602 17.9453 14.6094V17.1354L19.8492 18.8866C19.9324 18.9634 19.9905 19.0634 20.0159 19.1737C20.0413 19.284 20.0329 19.3994 19.9918 19.5048C19.9507 19.6103 19.8787 19.7009 19.7853 19.7648C19.6919 19.8287 19.5814 19.863 19.4682 19.8631Z" />
</svg>
