<svg width="21" height="21" viewBox="0 0 21 21" fill="none" xmlns="http://www.w3.org/2000/svg">
<path d="M18.2819 1.23438H16.429V3.08732C16.429 3.4579 16.1201 3.70496 15.8113 3.70496C15.5025 3.70496 15.1937 3.4579 15.1937 3.08732V1.23438H5.31131V3.08732C5.31131 3.4579 5.00248 3.70496 4.69366 3.70496C4.38483 3.70496 4.07601 3.4579 4.07601 3.08732V1.23438H2.22307C1.2966 1.23438 0.617188 2.03732 0.617188 3.08732V5.31085H20.3819V3.08732C20.3819 2.03732 19.2701 1.23438 18.2819 1.23438ZM0.617188 6.6079V17.9108C0.617188 19.0226 1.2966 19.7638 2.28483 19.7638H18.3437C19.3319 19.7638 20.4437 18.9608 20.4437 17.9108V6.6079H0.617188ZM6.11425 16.9844H4.63189C4.38483 16.9844 4.13778 16.7991 4.13778 16.4903V14.9461C4.13778 14.6991 4.32307 14.452 4.63189 14.452H6.17601C6.42307 14.452 6.67013 14.6373 6.67013 14.9461V16.4903C6.60836 16.7991 6.42307 16.9844 6.11425 16.9844ZM6.11425 11.4256H4.63189C4.38483 11.4256 4.13778 11.2403 4.13778 10.9314V9.38732C4.13778 9.14026 4.32307 8.8932 4.63189 8.8932H6.17601C6.42307 8.8932 6.67013 9.07849 6.67013 9.38732V10.9314C6.60836 11.2403 6.42307 11.4256 6.11425 11.4256ZM11.0554 16.9844H9.5113C9.26425 16.9844 9.01719 16.7991 9.01719 16.4903V14.9461C9.01719 14.6991 9.20248 14.452 9.5113 14.452H11.0554C11.3025 14.452 11.5495 14.6373 11.5495 14.9461V16.4903C11.5495 16.7991 11.3642 16.9844 11.0554 16.9844ZM11.0554 11.4256H9.5113C9.26425 11.4256 9.01719 11.2403 9.01719 10.9314V9.38732C9.01719 9.14026 9.20248 8.8932 9.5113 8.8932H11.0554C11.3025 8.8932 11.5495 9.07849 11.5495 9.38732V10.9314C11.5495 11.2403 11.3642 11.4256 11.0554 11.4256ZM15.9966 16.9844H14.4525C14.2054 16.9844 13.9584 16.7991 13.9584 16.4903V14.9461C13.9584 14.6991 14.1437 14.452 14.4525 14.452H15.9966C16.2437 14.452 16.4907 14.6373 16.4907 14.9461V16.4903C16.4907 16.7991 16.3054 16.9844 15.9966 16.9844ZM15.9966 11.4256H14.4525C14.2054 11.4256 13.9584 11.2403 13.9584 10.9314V9.38732C13.9584 9.14026 14.1437 8.8932 14.4525 8.8932H15.9966C16.2437 8.8932 16.4907 9.07849 16.4907 9.38732V10.9314C16.4907 11.2403 16.3054 11.4256 15.9966 11.4256Z" fill="#717273"/>
</svg>
