<svg width="24" height="24" viewBox="0 0 26 27" fill="none" xmlns="http://www.w3.org/2000/svg">
<path fill-rule="evenodd" clip-rule="evenodd" d="M12.8205 15.7H9.61522C9.02545 15.7 8.5468 15.2072 8.5468 14.6C8.5468 13.9928 9.02545 13.5 9.61522 13.5H12.8205C13.4103 13.5 13.8889 13.9928 13.8889 14.6C13.8889 15.2072 13.4103 15.7 12.8205 15.7ZM9.61522 17.9H16.0257C16.6166 17.9 17.0942 18.3928 17.0942 19C17.0942 19.6072 16.6166 20.1 16.0257 20.1H9.61522C9.02545 20.1 8.5468 19.6072 8.5468 19C8.5468 18.3928 9.02545 17.9 9.61522 17.9ZM18.6411 22.3H7.00704C6.6801 22.3 6.41406 22.0536 6.41406 21.75V5.25001C6.41406 4.94641 6.6801 4.70001 7.00704 4.70001H12.8246V8.16501C12.8246 9.89421 14.1249 11.3 15.7243 11.3H19.2351V21.75C19.2351 22.0536 18.9691 22.3 18.6411 22.3ZM14.9609 5.77582L17.8905 9.10002H15.7238C15.3028 9.10002 14.9609 8.68092 14.9609 8.16502V5.77582ZM21.0904 9.4608L15.2739 2.8608C15.0709 2.6309 14.7846 2.5 14.4822 2.5H7.00325C5.49785 2.5 4.27344 3.7342 4.27344 5.25V21.75C4.27344 23.2658 5.49785 24.5 7.00325 24.5H18.6373C20.1427 24.5 21.3682 23.2658 21.3682 21.75V10.2C21.3682 9.9261 21.2688 9.6632 21.0904 9.4608Z" />
</svg>
