<svg width="14" height="15" viewBox="0 0 14 15" fill="none" xmlns="http://www.w3.org/2000/svg">
<g clip-path="url(#clip0_4115_4075)">
<path d="M14 2.54166C14 3.02582 13.6092 3.41666 13.125 3.41666H0.875C0.390833 3.41666 0 3.02582 0 2.54166C0 2.05749 0.390833 1.66666 0.875 1.66666H13.125C13.6092 1.66666 14 2.05749 14 2.54166ZM8.45833 12.1667H5.54167C5.0575 12.1667 4.66667 12.5575 4.66667 13.0417C4.66667 13.5258 5.0575 13.9167 5.54167 13.9167H8.45833C8.9425 13.9167 9.33333 13.5258 9.33333 13.0417C9.33333 12.5575 8.9425 12.1667 8.45833 12.1667ZM10.7917 6.91666H3.20833C2.72417 6.91666 2.33333 7.30749 2.33333 7.79166C2.33333 8.27582 2.72417 8.66666 3.20833 8.66666H10.7917C11.2758 8.66666 11.6667 8.27582 11.6667 7.79166C11.6667 7.30749 11.2758 6.91666 10.7917 6.91666Z" fill="#7C8899"/>
</g>
<defs>
<clipPath id="clip0_4115_4075">
<rect width="14" height="14" fill="white" transform="translate(0 0.5)"/>
</clipPath>
</defs>
</svg>
