<svg width="45" height="45" viewBox="0 0 45 45" fill="none" xmlns="http://www.w3.org/2000/svg">
<circle cx="22.5" cy="22.5" r="22.5" fill="#7695C4" fill-opacity="0.16"/>
<path d="M13.359 27.9148L20.8732 20.4014L22.9028 22.446C23.035 22.5791 23.2025 22.6716 23.3856 22.7124C23.5687 22.7532 23.7596 22.7406 23.9358 22.6762C24.112 22.6118 24.266 22.4981 24.3795 22.3488C24.493 22.1995 24.5614 22.0208 24.5764 21.8338L25.1991 14.059C25.2102 13.9175 25.1905 13.7753 25.1413 13.6422C25.0922 13.509 25.0148 13.3881 24.9144 13.2877C24.814 13.1874 24.6931 13.1099 24.56 13.0608C24.4268 13.0116 24.2846 12.9919 24.1431 13.003L16.3675 13.624C16.1804 13.6391 16.0016 13.7074 15.8522 13.821C15.7029 13.9346 15.5892 14.0886 15.5247 14.2648C15.4601 14.4411 15.4475 14.6321 15.4882 14.8153C15.5289 14.9984 15.6213 15.1661 15.7544 15.2984L17.8007 17.3289L10.2865 24.8431C10.103 25.0273 10 25.2766 10 25.5365C10 25.7964 10.103 26.0457 10.2865 26.2299L10.5812 26.5255L11.6758 27.6192L11.9723 27.9157C12.1564 28.0991 12.4057 28.2021 12.6656 28.2021C12.9255 28.2021 13.1749 28.0982 13.359 27.9148ZM11.275 25.8317L10.9802 25.5369L19.19 17.3263L16.4455 14.602L24.222 13.9801L23.5993 21.7548L20.8767 19.0121L12.6661 27.2219L12.3696 26.9263L11.275 25.8317Z" fill="#28384F"/>
<path d="M31.3431 17.0816L23.8289 24.5967L21.7993 22.5521C21.6671 22.419 21.4996 22.3265 21.3165 22.2857C21.1334 22.2449 20.9425 22.2575 20.7663 22.3219C20.5901 22.3864 20.4362 22.5 20.3226 22.6493C20.2091 22.7986 20.1408 22.9774 20.1257 23.1643L19.503 30.9391C19.4919 31.0805 19.5116 31.2226 19.5607 31.3557C19.6098 31.4888 19.6872 31.6097 19.7874 31.71C19.8877 31.8104 20.0085 31.8878 20.1416 31.937C20.2746 31.9863 20.4167 32.0061 20.5582 31.9951L28.3346 31.3741C28.5215 31.3587 28.7001 31.2901 28.8492 31.1765C28.9983 31.0629 29.1118 30.9089 29.1763 30.7329C29.2408 30.5568 29.2535 30.366 29.213 30.1829C29.1725 29.9998 29.0805 29.8322 28.9477 29.6997L26.9014 27.6692L34.4157 20.155C34.5991 19.9709 34.7021 19.7215 34.7021 19.4616C34.7021 19.2017 34.5991 18.9524 34.4157 18.7683L34.121 18.4727L33.0263 17.3798L32.7299 17.0833C32.5457 16.8999 32.2964 16.7969 32.0365 16.7969C31.7766 16.7969 31.5273 16.8999 31.3431 17.0833M33.4272 19.1682L33.7219 19.4629L25.5121 27.6736L28.2566 30.3979L20.4801 31.0189L21.1028 23.245L23.8254 25.9887L32.0361 17.778L32.3325 18.0736L33.4272 19.1682Z" fill="#28384F"/>
</svg>
