<svg width="22" height="22" viewBox="0 0 22 22" fill="none" xmlns="http://www.w3.org/2000/svg">
<path d="M4.73136 16.7402H1.62241C1.27867 16.7402 1 16.4615 1 16.1178V1.62241C1 1.27867 1.27867 1 1.62241 1H20.3776C20.7213 1 21 1.27867 21 1.62241V16.1178C21 16.4615 20.7213 16.7402 20.3776 16.7402H17.292M9.61089 16.7402H7.3009M14.7054 16.7402H12.204" stroke="black" stroke-miterlimit="10" stroke-linecap="round" stroke-linejoin="round"/>
<path d="M10.8542 8.47009C11.5417 8.47009 12.099 7.91277 12.099 7.22528C12.099 6.53779 11.5417 5.98047 10.8542 5.98047C10.1667 5.98047 9.60938 6.53779 9.60938 7.22528C9.60938 7.91277 10.1667 8.47009 10.8542 8.47009Z" stroke="black" stroke-miterlimit="10" stroke-linecap="round" stroke-linejoin="round"/>
<path d="M5.97528 10.9388C6.66277 10.9388 7.22009 10.3815 7.22009 9.69403C7.22009 9.00654 6.66277 8.44922 5.97528 8.44922C5.28779 8.44922 4.73047 9.00654 4.73047 9.69403C4.73047 10.3815 5.28779 10.9388 5.97528 10.9388Z" stroke="black" stroke-miterlimit="10" stroke-linecap="round" stroke-linejoin="round"/>
<path d="M15.9518 9.34118C16.6393 9.34118 17.1967 8.78386 17.1967 8.09637C17.1967 7.40888 16.6393 6.85156 15.9518 6.85156C15.2644 6.85156 14.707 7.40888 14.707 8.09637C14.707 8.78386 15.2644 9.34118 15.9518 9.34118Z" stroke="black" stroke-miterlimit="10" stroke-linecap="round" stroke-linejoin="round"/>
<path d="M21 3.50391H1M18.5095 21.0007H3.49049" stroke="black" stroke-miterlimit="10" stroke-linecap="round" stroke-linejoin="round"/>
<path d="M17.1914 21H14.7098V12.7884H17.1914V21Z" stroke="black" stroke-miterlimit="10" stroke-linecap="round" stroke-linejoin="round"/>
<path d="M12.2031 21H9.72147L9.72147 11.9294H12.2031L12.2031 21Z" stroke="black" stroke-miterlimit="10" stroke-linecap="round" stroke-linejoin="round"/>
<path d="M7.21875 21H4.7371L4.7371 14.3827H7.21875L7.21875 21Z" stroke="black" stroke-miterlimit="10" stroke-linecap="round" stroke-linejoin="round"/>
<path d="M7.30078 9.02418L9.61078 7.85592M14.4899 7.84542L12.2555 7.46484" stroke="black" stroke-miterlimit="10" stroke-linecap="round" stroke-linejoin="round"/>
</svg>
