<svg width="20" height="20" viewBox="0 0 23 23" fill="none" xmlns="http://www.w3.org/2000/svg">
<path d="M22.2138 19.4232L18.3882 15.5976C18.3208 15.5301 18.2407 15.4766 18.1526 15.4401C18.0645 15.4036 17.97 15.3848 17.8746 15.3848C17.7793 15.3848 17.6848 15.4036 17.5967 15.4401C17.5086 15.4766 17.4285 15.5301 17.361 15.5976L15.6522 13.8888C16.7994 12.3528 17.373 10.5216 17.373 8.6904C17.373 6.4632 16.5234 4.236 14.8314 2.5416C11.297 -0.990241 5.4556 -0.8412 2.11864 2.98896C-0.713837 6.24 -0.704957 11.1715 2.13784 14.4137C3.87232 16.392 6.27904 17.3808 8.68264 17.3808C10.5138 17.3808 12.345 16.8072 13.881 15.66L15.5898 17.3688C15.5224 17.4362 15.4689 17.5163 15.4324 17.6044C15.3959 17.6926 15.3771 17.787 15.3771 17.8824C15.3771 17.9778 15.3959 18.0722 15.4324 18.1604C15.4689 18.2485 15.5224 18.3286 15.5898 18.396L19.3672 22.1736C19.7234 22.5295 20.1916 22.7678 20.6944 22.7966C20.9739 22.8138 21.254 22.7715 21.5159 22.6723C21.7778 22.5732 22.0157 22.4196 22.2138 22.2216C22.9842 21.4488 22.9842 20.1936 22.2138 19.4232ZM13.569 13.5768C10.8762 16.2696 6.49144 16.272 3.79624 13.5768C1.10104 10.884 1.10104 6.4992 3.79624 3.804C5.14264 2.4552 6.91384 1.7832 8.68264 1.7832C10.4538 1.7832 12.2226 2.4552 13.569 3.804C16.2642 6.4992 16.2642 10.884 13.569 13.5768Z" />
<path d="M11.5222 6.54693H12.8557C13.0479 6.54693 13.2039 6.70269 13.2039 6.89493V12.2505C13.2039 12.4428 13.0479 12.5988 12.8557 12.5988H11.522C11.3297 12.5988 11.1737 12.4428 11.1737 12.2505V6.89493C11.1737 6.70245 11.3297 6.54645 11.522 6.54645L11.5222 6.54693ZM4.5123 9.17181H5.84574C6.03822 9.17181 6.19398 9.32781 6.19398 9.52029V12.2505C6.19398 12.4428 6.03798 12.5988 5.84574 12.5988H4.5123C4.31982 12.5988 4.16406 12.4428 4.16406 12.2505V9.52029C4.16406 9.32781 4.32006 9.17181 4.5123 9.17181ZM8.01846 4.78125H9.3495C9.54198 4.78125 9.69798 4.93725 9.69798 5.12949V12.2503C9.69798 12.4428 9.54198 12.5988 9.3495 12.5988H8.01846C7.82598 12.5988 7.67022 12.4428 7.67022 12.2505V5.12973C7.67022 4.93725 7.82622 4.78125 8.01846 4.78125Z"/>
</svg>
