<svg width="35" height="35" viewBox="0 0 35 35" fill="none" xmlns="http://www.w3.org/2000/svg">
<circle cx="17.5" cy="17.5" r="17" fill="white" stroke="#E8E8E8"/>
<g clip-path="url(#clip0_3885_10707)">
<path d="M11.9908 19.0894C11.7821 19.0895 11.5819 19.1724 11.4342 19.32C11.2866 19.4675 11.2034 19.6676 11.2031 19.8763C11.2033 20.0851 11.2864 20.2852 11.434 20.4328C11.5816 20.5804 11.7817 20.6634 11.9904 20.6636H13.143L12.6047 22.8188C12.5793 22.919 12.574 23.0234 12.5892 23.1257C12.6044 23.228 12.6398 23.3262 12.6933 23.4148C12.7632 23.5313 12.8622 23.6278 12.9805 23.6948C13.0988 23.7618 13.2325 23.797 13.3684 23.797C13.73 23.797 14.0436 23.5517 14.1314 23.2007L14.7655 20.6636H18.6529L18.1138 22.8188C18.0884 22.919 18.0832 23.0234 18.0984 23.1257C18.1136 23.228 18.1489 23.3262 18.2024 23.4148C18.2724 23.5314 18.3713 23.6279 18.4896 23.6949C18.608 23.7618 18.7416 23.7971 18.8776 23.797C19.2392 23.797 19.5532 23.5517 19.6405 23.2007L20.2751 20.6636H23.0092C23.2179 20.6634 23.418 20.5804 23.5656 20.4328C23.7132 20.2852 23.7963 20.0851 23.7965 19.8763C23.7961 19.6677 23.7131 19.4676 23.5655 19.3201C23.4179 19.1726 23.2178 19.0896 23.0092 19.0894H20.6688L21.463 15.9117H23.0092C23.4434 15.9117 23.7965 15.5583 23.7965 15.1244C23.7965 14.6905 23.443 14.3375 23.0092 14.3375H21.8566L22.3953 12.1824C22.4207 12.0821 22.426 11.9778 22.4108 11.8755C22.3956 11.7732 22.3602 11.6749 22.3068 11.5864C22.2539 11.4976 22.184 11.4201 22.101 11.3586C22.018 11.297 21.9236 11.2525 21.8233 11.2277C21.7233 11.2019 21.6192 11.1964 21.517 11.2113C21.4148 11.2262 21.3166 11.2613 21.2282 11.3146C21.0474 11.4227 20.9194 11.5953 20.8686 11.8005L20.2341 14.3375H16.3467L16.8866 12.1824C16.912 12.0821 16.9173 11.9778 16.902 11.8755C16.8868 11.7732 16.8515 11.6749 16.798 11.5864C16.7451 11.4975 16.675 11.42 16.5919 11.3584C16.5087 11.2968 16.4142 11.2524 16.3138 11.2277C16.2134 11.202 16.109 11.1965 16.0066 11.2114C15.9041 11.2264 15.8056 11.2615 15.7168 11.3148C15.628 11.368 15.5507 11.4384 15.4893 11.5218C15.4279 11.6052 15.3836 11.6999 15.3591 11.8005L14.7249 14.3375H11.9913C11.5566 14.3375 11.2031 14.6905 11.2031 15.1244C11.2031 15.5583 11.5566 15.9117 11.9904 15.9117H14.3313L13.537 19.0894H11.9908ZM15.9538 15.9117H19.8408L19.0462 19.0894H15.1592L15.9538 15.9117Z" fill="#535353"/>
</g>
<defs>
<clipPath id="clip0_3885_10707">
<rect width="13" height="13" fill="white" transform="translate(11 11)"/>
</clipPath>
</defs>
</svg>
