<svg width="35" height="35" viewBox="0 0 35 35" fill="none" xmlns="http://www.w3.org/2000/svg">
<circle cx="17.5" cy="17.5" r="17" fill="white" stroke="#E8E8E8"/>
<path d="M15.8472 25.9375H15.8458C15.3471 25.9371 14.8781 25.7426 14.5256 25.3894L9.56031 20.417C8.83406 19.6894 8.83406 18.5055 9.56031 17.778L16.2536 11.0719C16.9434 10.3807 17.8612 10 18.8378 10H23.0843C24.1141 10 24.952 10.8377 24.952 11.8677V16.1012C24.952 17.0771 24.5717 17.9945 23.8812 18.6842L17.1671 25.3913C16.8144 25.7435 16.3456 25.9375 15.8472 25.9375ZM18.8378 11.2451C18.1942 11.2451 17.5894 11.496 17.1349 11.9514L10.4415 18.6575C10.1994 18.9001 10.1994 19.2947 10.4415 19.5373L15.4068 24.5097C15.5242 24.6273 15.6805 24.6923 15.8468 24.6924H15.8473C15.929 24.6926 16.0099 24.6766 16.0854 24.6454C16.1609 24.6141 16.2295 24.5682 16.2872 24.5104L23.0012 17.8034C23.4563 17.3489 23.7069 16.7443 23.7069 16.1012V11.8677C23.7069 11.5244 23.4276 11.2451 23.0843 11.2451H18.8378ZM20.4383 16.319C19.4085 16.319 18.5707 15.4813 18.5707 14.4513C18.5707 13.4213 19.4085 12.5836 20.4383 12.5836C21.4682 12.5836 22.306 13.4213 22.306 14.4513C22.306 15.4813 21.4682 16.319 20.4383 16.319ZM20.4383 13.8287C20.0951 13.8287 19.8158 14.108 19.8158 14.4513C19.8158 14.7946 20.0951 15.0739 20.4383 15.0739C20.7818 15.0739 21.0609 14.7946 21.0609 14.4513C21.0609 14.108 20.7818 13.8287 20.4383 13.8287Z" fill="#535353"/>
</svg>
