<svg width="45" height="45" viewBox="0 0 45 45" fill="none" xmlns="http://www.w3.org/2000/svg">
<circle cx="22.5" cy="22.5" r="22.5" fill="#111827" fill-opacity="0.09"/>
<path d="M27.9937 21.5236V17.3602C27.9937 17.241 27.9387 17.1309 27.8608 17.0438L23.193 12.1422C23.1058 12.0505 22.982 12 22.8583 12H15.4576C14.0913 12 13 13.1142 13 14.4806V28.4748C13 29.8412 14.0913 30.9371 15.4576 30.9371H21.2993C22.4043 32.7712 24.4127 34 26.7007 34C30.1762 34 33.0145 31.1755 33.0145 27.6953C33.0193 24.6553 30.8365 22.1151 27.9937 21.5236V21.5236ZM23.3169 13.6095L26.4485 16.9062H24.4173C23.812 16.9062 23.3168 16.4065 23.3168 15.8013L23.3169 13.6095ZM15.4576 30.02C14.6002 30.02 13.9171 29.3322 13.9171 28.4749V14.4806C13.9171 13.6185 14.6002 12.9171 15.4576 12.9171H22.3998V15.8012C22.3998 16.9154 23.3031 17.8233 24.4173 17.8233H27.0766V21.4043C26.9391 21.3998 26.8291 21.386 26.7099 21.386C25.1096 21.386 23.6378 22.0005 22.5281 22.9634H16.7049C16.4526 22.9634 16.2463 23.1697 16.2463 23.4218C16.2463 23.6741 16.4526 23.8803 16.7049 23.8803H21.6753C21.3497 24.3389 21.0791 24.7975 20.8684 25.3018H16.7049C16.4526 25.3018 16.2463 25.5081 16.2463 25.7604C16.2463 26.0125 16.4525 26.219 16.7049 26.219H20.5702C20.4556 26.6775 20.396 27.1864 20.396 27.6954C20.396 28.5206 20.5564 29.3369 20.8453 30.0247H15.4576V30.02ZM26.7054 33.0876C23.7341 33.0876 21.3176 30.6711 21.3176 27.6999C21.3176 24.7286 23.7295 22.3122 26.7054 22.3122C29.6811 22.3122 32.0929 24.7286 32.0929 27.6999C32.0929 30.6711 29.6766 33.0876 26.7054 33.0876Z" fill="#111827"/>
<path d="M16.7086 21.589H21.3534C21.6056 21.589 21.8119 21.3825 21.8119 21.1304C21.8119 20.8782 21.6057 20.6719 21.3534 20.6719H16.7086C16.4563 20.6719 16.25 20.8781 16.25 21.1304C16.25 21.3825 16.4563 21.589 16.7086 21.589ZM26.5577 24.8766C26.5944 24.8857 26.631 24.8904 26.6678 24.8904C26.7136 24.8904 26.7548 24.8857 26.7961 24.8719C27.4014 24.9224 27.8737 25.4268 27.8737 26.0413C27.8737 26.2934 28.08 26.4997 28.3321 26.4997C28.5844 26.4997 28.7907 26.2934 28.7907 26.0413C28.7907 25.0325 28.0755 24.1887 27.1263 23.9915V23.6981C27.1263 23.4459 26.9198 23.2396 26.6678 23.2396C26.4155 23.2396 26.2092 23.4459 26.2092 23.6981V24.01C25.2921 24.23 24.6089 25.0601 24.6089 26.0413C24.6089 27.1967 25.5489 28.1322 26.6998 28.1322C27.3464 28.1322 27.8737 28.6594 27.8737 29.3059C27.8737 29.9525 27.3509 30.4844 26.6998 30.4844C26.0533 30.4844 25.5261 29.957 25.5261 29.3105C25.5261 29.0583 25.3196 28.8519 25.0675 28.8519C24.8152 28.8519 24.6089 29.0583 24.6089 29.3105C24.6089 30.2964 25.2921 31.1217 26.2092 31.3417V31.814C26.2092 32.0663 26.4154 32.2726 26.6678 32.2726C26.9198 32.2726 27.1263 32.0664 27.1263 31.814V31.3555C28.0755 31.1582 28.7907 30.3147 28.7907 29.3059C28.7907 28.1505 27.8507 27.215 26.6998 27.215C26.0533 27.215 25.5261 26.6876 25.5261 26.0413C25.5261 25.4451 25.9754 24.9454 26.5576 24.8766L26.5577 24.8766Z" fill="#111827"/>
</svg>
