<svg width="20" height="20" viewBox="0 0 20 20" fill="none" xmlns="http://www.w3.org/2000/svg">
<path d="M16.4225 3.57736L13.0892 0.244004L13.0887 0.243613C13.0694 0.224372 13.0492 0.206082 13.0281 0.188809C13.0185 0.180879 13.0083 0.174004 12.9984 0.166582C12.9865 0.157715 12.9749 0.148535 12.9626 0.140293C12.9507 0.132363 12.9384 0.125488 12.9262 0.118223C12.9151 0.111543 12.9042 0.104551 12.8927 0.0983789C12.8803 0.0917382 12.8675 0.0861132 12.8548 0.0801367C12.8428 0.0744726 12.831 0.0684961 12.8188 0.0633789C12.8065 0.0583008 12.7939 0.0541601 12.7814 0.049707C12.7682 0.0449804 12.7553 0.0399414 12.7418 0.0358789C12.7293 0.0320898 12.7166 0.0293164 12.704 0.0261523C12.6903 0.0226758 12.6767 0.0188476 12.6628 0.0160742C12.6481 0.0131836 12.6333 0.0114258 12.6186 0.00931638C12.6065 0.00759763 12.5945 0.00525388 12.5822 0.00404294C12.5275 -0.00134765 12.4724 -0.00134765 12.4177 0.00404294C12.4054 0.00525388 12.3934 0.00755856 12.3812 0.00931638C12.3665 0.0114258 12.3517 0.0131445 12.3371 0.0160742C12.3231 0.0188476 12.3096 0.0226758 12.2959 0.0261523C12.2832 0.0293164 12.2705 0.0320898 12.258 0.0358789C12.2446 0.0399414 12.2316 0.0449804 12.2185 0.049707C12.206 0.0541992 12.1934 0.0583008 12.1811 0.0633789C12.1688 0.068457 12.157 0.0744726 12.145 0.0801367C12.1324 0.0861132 12.1196 0.0917382 12.1072 0.0983789C12.0957 0.104551 12.0848 0.111543 12.0736 0.118223C12.0614 0.125488 12.0491 0.132363 12.0372 0.140293C12.0249 0.148535 12.0133 0.157715 12.0015 0.166582C11.9915 0.174004 11.9814 0.180879 11.9717 0.188809C11.9506 0.206113 11.9304 0.224355 11.9111 0.243613L11.9107 0.244004L8.57736 3.57732C8.25193 3.90275 8.25193 4.43041 8.57736 4.75584C8.90279 5.08127 9.43045 5.08127 9.75588 4.75584L11.6666 2.8451V12.4999C11.6666 12.9602 12.0397 13.3333 12.4999 13.3333C12.9602 13.3333 13.3333 12.9602 13.3333 12.4999V2.84514L15.244 4.75588C15.5694 5.08131 16.0971 5.08131 16.4225 4.75588C16.7479 4.43041 16.7479 3.90279 16.4225 3.57736ZM10.244 15.244L8.33322 17.1547V7.49994C8.33322 7.03971 7.96014 6.66662 7.4999 6.66662C7.03967 6.66662 6.66658 7.03971 6.66658 7.49994V17.1547L4.75584 15.244C4.43041 14.9186 3.90275 14.9186 3.57732 15.244C3.25189 15.5694 3.25189 16.0971 3.57732 16.4225L6.91064 19.7558L6.91111 19.7563C6.93037 19.7755 6.95064 19.7937 6.9717 19.811C6.98135 19.819 6.99154 19.8258 7.00147 19.8333C7.0133 19.8422 7.0249 19.8513 7.03721 19.8596C7.04908 19.8675 7.06139 19.8744 7.07357 19.8817C7.08475 19.8883 7.09564 19.8953 7.10713 19.9015C7.11955 19.9081 7.13232 19.9137 7.14502 19.9197C7.15697 19.9254 7.16877 19.9313 7.18104 19.9364C7.19334 19.9415 7.20592 19.9456 7.21842 19.9501C7.23158 19.9548 7.24455 19.9599 7.25799 19.9639C7.27049 19.9677 7.28318 19.9705 7.29584 19.9737C7.30955 19.9771 7.32311 19.981 7.33709 19.9837C7.35174 19.9866 7.3665 19.9883 7.38123 19.9904C7.39338 19.9922 7.40537 19.9945 7.41768 19.9957C7.47236 20.0011 7.52748 20.0011 7.58217 19.9957C7.59447 19.9945 7.60643 19.9922 7.61861 19.9904C7.63334 19.9883 7.64814 19.9866 7.66275 19.9837C7.67674 19.9809 7.69025 19.9771 7.70396 19.9736C7.71662 19.9704 7.72932 19.9677 7.74182 19.9639C7.75525 19.9598 7.76826 19.9548 7.78139 19.9501C7.79389 19.9456 7.80646 19.9415 7.81877 19.9364C7.83104 19.9313 7.84279 19.9253 7.85475 19.9197C7.86744 19.9137 7.88025 19.9081 7.89268 19.9014C7.90412 19.8953 7.91502 19.8883 7.92615 19.8816C7.93834 19.8744 7.95068 19.8674 7.96256 19.8595C7.97486 19.8513 7.98643 19.8421 7.99822 19.8333C8.00818 19.8258 8.01838 19.8189 8.02807 19.811C8.04896 19.7938 8.06908 19.7757 8.08822 19.7566L8.08912 19.7558L11.4224 16.4225C11.7479 16.0971 11.7479 15.5694 11.4224 15.244C11.097 14.9185 10.5694 14.9186 10.244 15.244Z" fill="#7C8899"/>
</svg>
