<svg width="25" height="25" viewBox="0 0 25 25" fill="none" xmlns="http://www.w3.org/2000/svg">
<g clip-path="url(#clip0_605_72)">
<path d="M25 12.5C25 5.59644 19.4036 0 12.5 0C5.59644 0 0 5.59644 0 12.5C0 19.4036 5.59644 25 12.5 25C19.4036 25 25 19.4036 25 12.5Z" fill="#F7F8FA"/>
<path d="M16.9436 17.4974V16.3863C16.9436 15.7969 16.7094 15.2317 16.2927 14.8149C15.8759 14.3982 15.3107 14.1641 14.7214 14.1641H10.2769C9.68756 14.1641 9.12231 14.3982 8.70556 14.8149C8.28881 15.2317 8.05469 15.7969 8.05469 16.3863V17.4974" stroke="#999EAD" stroke-linecap="round" stroke-linejoin="round"/>
<path d="M12.4996 11.9445C13.7268 11.9445 14.7218 10.9495 14.7218 9.72221C14.7218 8.49492 13.7268 7.5 12.4996 7.5C11.2723 7.5 10.2773 8.49492 10.2773 9.72221C10.2773 10.9495 11.2723 11.9445 12.4996 11.9445Z" stroke="#999EAD" stroke-linecap="round" stroke-linejoin="round"/>
</g>
<defs>
<clipPath id="clip0_605_72">
<rect width="25" height="25" fill="white"/>
</clipPath>
</defs>
</svg>
