<svg width="151" height="151" viewBox="0 0 151 151" fill="none" xmlns="http://www.w3.org/2000/svg">
<path d="M141.056 37.1237L116.896 12.9637C115.715 11.7829 113.806 11.7829 112.625 12.9637L75.5006 50.0886L38.3757 12.9637C37.1949 11.7829 35.2862 11.7829 34.1054 12.9637L9.94541 37.1237C9.37765 37.6885 9.06055 38.4586 9.06055 39.2589V108.719C9.06055 109.519 9.37765 110.289 9.94541 110.854L40.1454 141.054C41.0091 141.921 42.3138 142.177 43.4372 141.709C44.5667 141.241 45.3005 140.139 45.3005 138.919V76.7492L73.3654 104.814C73.9543 105.403 74.7274 105.699 75.5006 105.699C76.2737 105.699 77.0468 105.403 77.6357 104.814L105.701 76.7492V138.919C105.701 140.139 106.434 141.241 107.564 141.709C107.938 141.863 108.331 141.939 108.721 141.939C109.506 141.939 110.279 141.631 110.856 141.054L141.056 110.854C141.623 110.289 141.941 109.519 141.941 108.719V39.2589C141.941 38.4586 141.623 37.6885 141.056 37.1237Z" fill="#525A6A"/>
</svg>
