<svg width="127" height="41" viewBox="0 0 127 41" fill="none" xmlns="http://www.w3.org/2000/svg">
<path d="M24.6875 18.9688C24.6875 19.8958 24.5729 20.724 24.3438 21.4531C24.1146 22.1823 23.8021 22.8281 23.4062 23.3906C23.0208 23.9427 22.5729 24.4167 22.0625 24.8125C21.5521 25.2083 21.0156 25.5312 20.4531 25.7812C19.901 26.0312 19.3385 26.2135 18.7656 26.3281C18.2031 26.4427 17.6719 26.5 17.1719 26.5H7.98438V22.4375H17.1719C17.6927 22.3958 18.1615 22.2917 18.5781 22.125C19.0052 21.9479 19.3698 21.7135 19.6719 21.4219C19.974 21.1302 20.2083 20.7812 20.375 20.375C20.5417 19.9583 20.625 19.4896 20.625 18.9688V17.125C20.5729 16.6146 20.4635 16.1458 20.2969 15.7188C20.1302 15.2917 19.901 14.9271 19.6094 14.625C19.3281 14.3229 18.9844 14.0885 18.5781 13.9219C18.1719 13.7448 17.7031 13.6562 17.1719 13.6562H8.01562C7.47396 13.6562 7.0625 13.7969 6.78125 14.0781C6.5 14.3594 6.35938 14.7656 6.35938 15.2969V32H2.29688V15.2969C2.29688 14.2552 2.48438 13.3698 2.85938 12.6406C3.24479 11.9115 3.71875 11.3229 4.28125 10.875C4.85417 10.4271 5.47396 10.1042 6.14062 9.90625C6.80729 9.69792 7.42188 9.59375 7.98438 9.59375H17.1719C18.0885 9.59375 18.9115 9.71354 19.6406 9.95312C20.3698 10.1823 21.0104 10.4948 21.5625 10.8906C22.125 11.276 22.599 11.724 22.9844 12.2344C23.3802 12.7448 23.7031 13.2812 23.9531 13.8438C24.2135 14.3958 24.401 14.9583 24.5156 15.5312C24.6302 16.0938 24.6875 16.625 24.6875 17.125V18.9688ZM50.4062 9.59375L39.7969 31.2031C39.6302 31.5365 39.3802 31.8021 39.0469 32C38.724 32.2083 38.3646 32.3125 37.9688 32.3125C37.5833 32.3125 37.224 32.2083 36.8906 32C36.5677 31.8021 36.3177 31.5365 36.1406 31.2031L25.5469 9.59375H30.0938L37.9688 25.7344L45.875 9.59375H50.4062ZM62.9375 17.5938L69.7812 9.59375H75.3281L65.6875 20.8281L75.2656 32H69.75L62.9375 24.0625L56.1562 32H50.625L60.1875 20.8281L50.5938 9.59375H56.0938L62.9375 17.5938Z" fill="white"/>
<path d="M92.0176 28.4355C92.0176 29.0931 91.8971 29.6497 91.6562 30.1055C91.4219 30.5547 91.1257 30.9225 90.7676 31.209C90.416 31.4889 90.0319 31.6908 89.6152 31.8145C89.1986 31.9382 88.8112 32 88.4531 32H80.3086V29.4609H88.4531C88.7982 29.4609 89.0521 29.373 89.2148 29.1973C89.3841 29.0215 89.4688 28.7676 89.4688 28.4355V26.2773H80.3086V23.7188H89.4688V21.5801C89.4688 20.8835 89.1302 20.5352 88.4531 20.5352H80.3086V17.9961H88.4531C88.8893 17.9961 89.2799 18.0514 89.625 18.1621C89.9701 18.2728 90.2728 18.4225 90.5332 18.6113C90.8001 18.7936 91.028 19.0052 91.2168 19.2461C91.4056 19.487 91.5586 19.7409 91.6758 20.0078C91.793 20.2682 91.8776 20.5352 91.9297 20.8086C91.9883 21.0755 92.0176 21.3262 92.0176 21.5605V28.4355ZM97.125 23.7188H103.883C104.241 23.7188 104.625 23.7839 105.035 23.9141C105.452 24.0378 105.839 24.2428 106.197 24.5293C106.555 24.8092 106.852 25.1771 107.086 25.6328C107.327 26.0885 107.447 26.6452 107.447 27.3027V28.4355C107.447 28.6764 107.418 28.9303 107.359 29.1973C107.307 29.4642 107.219 29.7311 107.096 29.998C106.979 30.2585 106.826 30.5091 106.637 30.75C106.454 30.9909 106.23 31.2057 105.963 31.3945C105.702 31.5768 105.4 31.7233 105.055 31.834C104.71 31.9447 104.319 32 103.883 32H99.2832C98.9707 32 98.6354 31.9642 98.2773 31.8926C97.9258 31.821 97.5775 31.707 97.2324 31.5508C96.8874 31.388 96.5521 31.1862 96.2266 30.9453C95.9076 30.6979 95.6276 30.4017 95.3867 30.0566C95.1458 29.7051 94.9505 29.3014 94.8008 28.8457C94.6576 28.39 94.5859 27.8757 94.5859 27.3027V22.7031C94.5859 22.1302 94.6576 21.6159 94.8008 21.1602C94.9505 20.7044 95.1458 20.304 95.3867 19.959C95.6276 19.6074 95.9076 19.3079 96.2266 19.0605C96.5521 18.8132 96.8874 18.6113 97.2324 18.4551C97.5775 18.2923 97.9258 18.1751 98.2773 18.1035C98.6354 18.0319 98.9707 17.9961 99.2832 17.9961H105.65V20.5352H99.2832C98.9577 20.5612 98.6615 20.6296 98.3945 20.7402C98.1341 20.8509 97.9095 20.9974 97.7207 21.1797C97.5319 21.362 97.3854 21.5833 97.2812 21.8438C97.1771 22.0977 97.125 22.3841 97.125 22.7031V23.7188ZM97.125 26.2773V27.3027C97.125 27.6348 97.1803 27.9342 97.291 28.2012C97.4082 28.4616 97.5645 28.6862 97.7598 28.875C97.9551 29.0638 98.1829 29.2103 98.4434 29.3145C98.7103 29.4121 98.9967 29.4609 99.3027 29.4609H103.883C104.208 29.4609 104.456 29.3633 104.625 29.168C104.801 28.9727 104.889 28.7285 104.889 28.4355V27.3027C104.889 26.9707 104.804 26.7168 104.635 26.541C104.465 26.3652 104.208 26.2773 103.863 26.2773H97.125ZM125.689 26.1406C125.689 26.7135 125.615 27.2572 125.465 27.7715C125.322 28.2793 125.117 28.7513 124.85 29.1875C124.583 29.6237 124.267 30.0143 123.902 30.3594C123.538 30.7044 123.137 31.0007 122.701 31.248C122.271 31.4889 121.812 31.6745 121.324 31.8047C120.836 31.9349 120.338 32 119.83 32H115.25C114.736 32 114.234 31.9349 113.746 31.8047C113.258 31.6745 112.796 31.4889 112.359 31.248C111.93 31.0007 111.533 30.7044 111.168 30.3594C110.803 30.0143 110.488 29.6237 110.221 29.1875C109.96 28.7513 109.755 28.2793 109.605 27.7715C109.462 27.2572 109.391 26.7135 109.391 26.1406V23.8555C109.391 22.9961 109.55 22.2083 109.869 21.4922C110.195 20.776 110.628 20.1608 111.168 19.6465C111.708 19.1257 112.33 18.722 113.033 18.4355C113.743 18.1426 114.482 17.9961 115.25 17.9961H119.83C120.338 17.9961 120.836 18.0612 121.324 18.1914C121.812 18.3216 122.271 18.5104 122.701 18.7578C123.137 18.9987 123.538 19.2917 123.902 19.6367C124.267 19.9818 124.583 20.3724 124.85 20.8086C125.117 21.2448 125.322 21.7201 125.465 22.2344C125.615 22.7422 125.689 23.2826 125.689 23.8555V26.1406ZM123.131 23.8555C123.131 23.3542 123.04 22.8984 122.857 22.4883C122.675 22.0781 122.431 21.7266 122.125 21.4336C121.826 21.1406 121.477 20.916 121.08 20.7598C120.683 20.6035 120.266 20.5286 119.83 20.5352H115.25C114.827 20.5286 114.413 20.6035 114.01 20.7598C113.613 20.9095 113.258 21.1309 112.945 21.4238C112.639 21.7103 112.392 22.0618 112.203 22.4785C112.021 22.8887 111.93 23.3477 111.93 23.8555V26.1406C111.93 26.6484 112.021 27.1074 112.203 27.5176C112.385 27.9277 112.63 28.2793 112.936 28.5723C113.242 28.8587 113.593 29.0801 113.99 29.2363C114.394 29.3926 114.814 29.4674 115.25 29.4609H119.83C120.331 29.4609 120.784 29.3796 121.188 29.2168C121.598 29.0475 121.946 28.8164 122.232 28.5234C122.519 28.2305 122.74 27.8822 122.896 27.4785C123.053 27.0684 123.131 26.6224 123.131 26.1406V23.8555ZM122.027 22C122.125 22.1432 122.19 22.2995 122.223 22.4688C122.255 22.6315 122.255 22.7943 122.223 22.957C122.19 23.1133 122.125 23.263 122.027 23.4062C121.936 23.543 121.816 23.6602 121.666 23.7578L114.811 28.3379C114.7 28.4225 114.586 28.4811 114.469 28.5137C114.352 28.5462 114.231 28.5625 114.107 28.5625C113.899 28.5625 113.701 28.5137 113.512 28.416C113.323 28.3184 113.17 28.1784 113.053 27.9961C112.955 27.8529 112.89 27.6999 112.857 27.5371C112.825 27.3678 112.822 27.2051 112.848 27.0488C112.88 26.8861 112.942 26.7363 113.033 26.5996C113.124 26.4564 113.245 26.3359 113.395 26.2383L120.27 21.6582C120.413 21.5605 120.566 21.4954 120.729 21.4629C120.898 21.4303 121.061 21.4303 121.217 21.4629C121.38 21.4954 121.529 21.5573 121.666 21.6484C121.809 21.7396 121.93 21.8568 122.027 22Z" fill="url(#paint0_linear_634_109)"/>
<defs>
<linearGradient id="paint0_linear_634_109" x1="79" y1="24.5" x2="127" y2="24.5" gradientUnits="userSpaceOnUse">
<stop stop-color="#3B82F6"/>
<stop offset="1" stop-color="#8200FF"/>
</linearGradient>
</defs>
</svg>
