<svg width="25" height="24" viewBox="0 0 25 24" fill="none" xmlns="http://www.w3.org/2000/svg">
<path id="Color" fillRule="evenodd" clipRule="evenodd" d="M15.166 19V15H19.166L19.167 19H15.166ZM19.166 13H15.166C14.063 13 13.166 13.897 13.166 15V19C13.166 20.103 14.063 21 15.166 21H19.166C20.269 21 21.166 20.103 21.166 19V15C21.166 13.897 20.269 13 19.166 13ZM5.16602 19V15H9.16602L9.16702 19H5.16602ZM9.16602 13H5.16602C4.06302 13 3.16602 13.897 3.16602 15V19C3.16602 20.103 4.06302 21 5.16602 21H9.16602C10.269 21 11.166 20.103 11.166 19V15C11.166 13.897 10.269 13 9.16602 13ZM15.166 9V5H19.166L19.167 9H15.166ZM19.166 3H15.166C14.063 3 13.166 3.897 13.166 5V9C13.166 10.103 14.063 11 15.166 11H19.166C20.269 11 21.166 10.103 21.166 9V5C21.166 3.897 20.269 3 19.166 3ZM5.16602 9V5H9.16602L9.16702 9H5.16602ZM9.16602 3H5.16602C4.06302 3 3.16602 3.897 3.16602 5V9C3.16602 10.103 4.06302 11 5.16602 11H9.16602C10.269 11 11.166 10.103 11.166 9V5C11.166 3.897 10.269 3 9.16602 3Z" />
</svg>
