<svg width="21" height="18" viewBox="0 0 21 18" fill="none" xmlns="http://www.w3.org/2000/svg">
<path fillRule="evenodd" clipRule="evenodd" d="M8.16602 2.5C8.16602 2.224 8.39002 2 8.66602 2H11.666C11.942 2 12.166 2.224 12.166 2.5V4H8.16602V2.5ZM7.16602 16H13.166V6H7.16602V16ZM18.166 15C18.166 15.551 17.717 16 17.166 16H15.166V6H17.166C17.717 6 18.166 6.449 18.166 7V15ZM2.16602 7V15C2.16602 15.551 2.61502 16 3.16602 16H5.16602V6H3.16602C2.61502 6 2.16602 6.449 2.16602 7ZM17.166 4H14.166V2.5C14.166 1.122 13.044 0 11.666 0H8.66602C7.28802 0 6.16602 1.122 6.16602 2.5V4H3.16602C1.51202 4 0.166016 5.346 0.166016 7V15C0.166016 16.654 1.51202 18 3.16602 18H17.166C18.82 18 20.166 16.654 20.166 15V7C20.166 5.346 18.82 4 17.166 4Z" fill="white"/>
</svg>
