<svg width="25" height="24" viewBox="0 0 25 24" fill="none" xmlns="http://www.w3.org/2000/svg">
<path id="Color" fillRule="evenodd" clipRule="evenodd" d="M10.166 5.5C10.166 5.224 10.39 5 10.666 5H13.666C13.942 5 14.166 5.224 14.166 5.5V7H10.166V5.5ZM9.16602 19H15.166V9H9.16602V19ZM20.166 18C20.166 18.551 19.717 19 19.166 19H17.166V9H19.166C19.717 9 20.166 9.449 20.166 10V18ZM4.16602 10V18C4.16602 18.551 4.61502 19 5.16602 19H7.16602V9H5.16602C4.61502 9 4.16602 9.449 4.16602 10ZM19.166 7H16.166V5.5C16.166 4.122 15.044 3 13.666 3H10.666C9.28802 3 8.16602 4.122 8.16602 5.5V7H5.16602C3.51202 7 2.16602 8.346 2.16602 10V18C2.16602 19.654 3.51202 21 5.16602 21H19.166C20.82 21 22.166 19.654 22.166 18V10C22.166 8.346 20.82 7 19.166 7Z" />
</svg>
