<svg width="25" height="24" viewBox="0 0 25 24" fill="none" xmlns="http://www.w3.org/2000/svg">
<path id="Color" fillRule="evenodd" clipRule="evenodd" d="M16.166 19C16.166 18.45 16.616 18 17.166 18L18.166 18L18.166 6L17.166 6C16.616 6 16.166 5.55 16.166 5C16.166 4.45 16.616 4 17.166 4L19.166 4C19.716 4 20.166 4.45 20.166 5L20.166 19C20.166 19.55 19.716 20 19.166 20L17.166 20C16.616 20 16.166 19.55 16.166 19ZM6.16212 16.5752L3.34812 12.5752C3.09812 12.2212 3.10612 11.7462 3.36612 11.4002L6.36612 7.4002C6.56212 7.1382 6.86312 7.0002 7.16712 7.0002C7.37512 7.0002 7.58612 7.0652 7.76612 7.2002C8.20812 7.5312 8.29712 8.1582 7.96612 8.5992L6.16512 11.0002L6.16612 11.0002L14.1661 11.0002C14.7181 11.0002 15.1661 11.4472 15.1661 12.0002C15.1661 12.5532 14.7181 13.0002 14.1661 13.0002L6.16612 13.0002C6.14959 13.0002 6.13427 12.9956 6.11883 12.9911C6.10625 12.9873 6.09358 12.9835 6.08012 12.9822L7.79812 15.4252C8.11612 15.8762 8.00712 16.5002 7.55512 16.8182C7.10412 17.1372 6.48012 17.0272 6.16212 16.5752Z" />
</svg>
