<svg width="24" height="24" viewBox="0 0 24 24" fill="none" xmlns="http://www.w3.org/2000/svg">
<path d="M11.8395 13.956H8.99063C8.46619 13.956 8.0413 13.5178 8.0413 12.9782C8.0413 12.4387 8.46619 12.0004 8.99063 12.0004H11.8395C12.364 12.0004 12.7897 12.4387 12.7897 12.9782C12.7897 13.5178 12.364 13.956 11.8395 13.956ZM8.99063 15.9115H14.6884C15.2146 15.9115 15.6395 16.3498 15.6395 16.8893C15.6395 17.4289 15.2146 17.8671 14.6884 17.8671H8.99063C8.46619 17.8671 8.0413 17.4289 8.0413 16.8893C8.0413 16.3498 8.46619 15.9115 8.99063 15.9115ZM17.0137 19.8227H6.67241C6.38174 19.8227 6.1453 19.604 6.1453 19.3338V4.6671C6.1453 4.39688 6.38174 4.17821 6.67241 4.17821H11.844V7.25821C11.844 8.79599 12.9995 10.0449 14.4217 10.0449H17.5417V19.3338C17.5417 19.604 17.3053 19.8227 17.0137 19.8227ZM13.7426 5.13466L16.3462 8.08932H14.42C14.0457 8.08932 13.7417 7.71599 13.7417 7.25821L13.7426 5.13466ZM19.1915 8.41021L14.0209 2.54355C13.8404 2.3391 13.5853 2.22266 13.3169 2.22266H6.66885C5.33108 2.22266 4.24219 3.31955 4.24219 4.6671V19.3338C4.24219 20.6813 5.33108 21.7782 6.66885 21.7782H17.0102C18.3489 21.7782 19.4377 20.6813 19.4377 19.3338V9.0671C19.4377 8.82355 19.3489 8.58977 19.1906 8.40932"/>
</svg>
